<svg width="710" height="201" fill="none" xmlns="http://www.w3.org/2000/svg"><path fill="#000" d="M0 0h710v201H0z"/><path fill="#1F77B4" fill-opacity=".4" stroke="#1F77B4" stroke-width=".5" d="M233.3 8.3h11.4v11.4h-11.4z"/><path d="M254.4 12.1a3 3 0 0 0-.3-1 2.1 2.1 0 0 0-.7-.9 2 2 0 0 0-1.2-.3c-.5 0-.8.1-1.1.4a1.4 1.4 0 0 0-.1 1.8c.2.3.4.5.7.6a14.9 14.9 0 0 0 2 1l.8.5.6.7.2 1a2.2 2.2 0 0 1-1.3 2c-.4.2-1 .3-1.5.3a4.3 4.3 0 0 1-2.2-.6v.5h-.5l-.1-2.6h.5c0 .7.3 1.3.7 1.6a2.5 2.5 0 0 0 2.5.4l.6-.5c.2-.2.2-.5.2-.8 0-.4 0-.7-.2-1l-.8-.5-1-.5-.9-.5-.8-.5a2.5 2.5 0 0 1-.6-.7 2 2 0 0 1-.2-1l.1-.7a2 2 0 0 1 1.1-1.2l1.3-.2 1 .1 1 .5v-.5h.6v2.6h-.4Zm4.1 6a2 2 0 0 1-.5 0l-.6-.3a1.6 1.6 0 0 1-.3-.6l-.2-1.2v-3.5h-.9V12c.2 0 .4 0 .6-.2l.6-.6.4-.9h.4V12h2v.5h-2v4.3l.3.5.6.2c.2 0 .4 0 .6-.2l.5-.5.4.3-.6.6a2 2 0 0 1-1.3.5Zm6-.1a3.8 3.8 0 0 1 0-.4v-.3l-.9.7-1 .2c-.6 0-1-.1-1.4-.4-.3-.3-.4-.6-.4-1s.1-.7.3-1a2 2 0 0 1 1-.6 5.7 5.7 0 0 1 2.4-.5v-.8l-.1-.8a1.1 1.1 0 0 0-.3-.6c-.2-.2-.4-.2-.8-.2h-.7a1 1 0 0 0-.5.6v.2a.8.8 0 0 1 .1.2v.4l-.5.1-.4-.1a.7.7 0 0 1-.1-.4c0-.3 0-.6.3-.8l.8-.5 1.2-.2c.7 0 1.2.2 1.5.6.4.3.5.9.5 1.6v2.8a6.2 6.2 0 0 1 0 .7h.8v.5h-1.7Zm0-3a4.9 4.9 0 0 0-1.7.4 1 1 0 0 0-.6.5 1 1 0 0 0-.3.7c0 .3.2.5.3.7l.7.2c.3 0 .6 0 .8-.2l.8-.5v-1.7Zm4.8 3.2a2 2 0 0 1-.6 0l-.5-.4a1.6 1.6 0 0 1-.4-.6l-.1-1.2v-3.5h-1V12c.3 0 .5 0 .7-.2l.6-.6.3-.9h.4V12h2v.5h-2v3.3l.1 1 .3.5.5.2c.2 0 .5 0 .6-.2l.6-.5.3.3-.5.6a2 2 0 0 1-1.3.5Zm5.3 0a3 3 0 0 1-1.5-.4 2.8 2.8 0 0 1-1-1 3.5 3.5 0 0 1-.5-1.8c0-.5.2-1 .4-1.6l1-1.1a2.8 2.8 0 0 1 2.6-.3c.3 0 .6.2.8.5l.5.8.2 1.2H273c0 .6 0 1.2.2 1.6.1.5.3.9.6 1.1.3.3.7.4 1.2.4a3 3 0 0 0 1.5-.5l.5-.5.3.2c-.2.4-.5.6-.8.8a3.3 3.3 0 0 1-1.8.6Zm-1.7-4.2h3v-.8l-.5-.7a1 1 0 0 0-.7-.2c-.5 0-.9.1-1.2.4-.3.3-.5.7-.6 1.3Zm15.2-1.7a2.7 2.7 0 0 0-.8-1.8c-.4-.4-1-.6-1.7-.6a2.9 2.9 0 0 0-2.2 1c-.3.4-.5.8-.6 1.3a5 5 0 0 0 .2 3.5c.2.6.6 1 1.1 1.4a2.9 2.9 0 0 0 1.6.5c.6 0 1-.1 1.6-.4a3 3 0 0 0 1.2-1l.3.2c-.3.5-.7.9-1 1.1a4.6 4.6 0 0 1-2.4.7 4 4 0 0 1-3.8-2.6 5.5 5.5 0 0 1 0-3.3c.2-.6.4-1 .8-1.5a3.8 3.8 0 0 1 3.1-1.4 4.4 4.4 0 0 1 2.4.7v-.6h.6v2.8h-.4Zm1.5 5.3.5-.1.2-.6V9.7h-.8v-.4h.8l.4-.2.3-.2h.3v7.8a7 7 0 0 1 0 .8h.7v.5h-2.4v-.4Zm7 .4a3.8 3.8 0 0 1 0-.4v-.3l-1 .7a2 2 0 0 1-1 .2c-.5 0-1-.1-1.3-.4-.3-.3-.4-.6-.4-1s0-.7.3-1c.2-.3.5-.5.9-.6a5.7 5.7 0 0 1 2.4-.5V13a1.1 1.1 0 0 0-.4-.6c-.1-.2-.4-.2-.7-.2h-.7a1 1 0 0 0-.6.6l.1.2a.8.8 0 0 1 0 .2v.4l-.4.1-.4-.1a.7.7 0 0 1-.2-.4c0-.3.1-.6.3-.8.2-.2.5-.4.9-.5l1.2-.2c.7 0 1.2.2 1.5.6.3.3.5.9.5 1.6v2.7a6.2 6.2 0 0 1-.1.8h.9v.5h-1.8Zm0-3a4.9 4.9 0 0 0-1.8.4l-.6.5a1 1 0 0 0-.2.7c0 .3.1.5.3.7l.6.2c.4 0 .7 0 .9-.2l.7-.5v-1.7Zm5 3.2a3 3 0 0 1-1-.2 3 3 0 0 1-.8-.3v.4h-.4l-.1-2h.4a1.8 1.8 0 0 0 .9 1.4c.2.2.5.2.8.2a2 2 0 0 0 .6 0l.5-.4c.2-.1.2-.3.2-.5s0-.4-.2-.6l-.5-.4a7 7 0 0 0-.7-.3l-.7-.3a3.9 3.9 0 0 1-.7-.4l-.4-.5c-.2-.2-.2-.5-.2-.8V13a1.6 1.6 0 0 1 1-1l1-.2a2.6 2.6 0 0 1 1.5.5V12h.5v2h-.4a2.3 2.3 0 0 0-.2-.7 1.6 1.6 0 0 0-.5-.7c-.2-.2-.5-.3-.8-.3-.4 0-.7.2-.9.3a1 1 0 0 0-.3.7c0 .2 0 .4.2.6l.7.4.8.4c.3 0 .6.2.8.4.3.1.6.3.7.6.2.2.3.5.3.8 0 .4 0 .8-.3 1-.2.3-.5.5-.8.6l-1 .2Zm5.6 0a3 3 0 0 1-1-.2 3 3 0 0 1-.8-.3v.4h-.5v-2h.3a1.8 1.8 0 0 0 1 1.4c.2.2.5.2.8.2a2 2 0 0 0 .6 0l.5-.4.2-.5c0-.2 0-.4-.2-.6l-.5-.4a7 7 0 0 0-.7-.3l-.7-.3a3.9 3.9 0 0 1-.7-.4l-.5-.5-.2-.8.1-.5a1.6 1.6 0 0 1 1-1l1-.2.7.1c.3 0 .5.2.8.4V12h.5v2h-.4a2.3 2.3 0 0 0-.2-.7 1.6 1.6 0 0 0-.5-.7c-.2-.2-.5-.3-.9-.3-.3 0-.6.2-.8.3a1 1 0 0 0-.3.7c0 .2 0 .4.2.6l.6.4.8.4c.3 0 .6.2.9.4.3.1.5.3.7.6.2.2.3.5.3.8 0 .4-.1.8-.3 1-.2.3-.5.5-.8.6l-1 .2Zm3-.6.6-.1.2-.6v-3.5a5 5 0 0 1 0-.7h-.8v-.5h.8l.4-.2.3-.1h.3v4.8a7 7 0 0 1 0 .8h.7v.5h-2.4v-.4Zm1.2-7a.6.6 0 0 1-.4-.1.7.7 0 0 1-.2-.5c0-.2 0-.4.2-.5a.6.6 0 0 1 .5-.2c.1 0 .3 0 .4.2l.2.5c0 .2 0 .4-.2.5a.6.6 0 0 1-.5.2Zm2.3 7.4v-.4l.6-.1.1-.6v-4.4h-1V12h1c0-1 .3-1.8.7-2.3a2.6 2.6 0 0 1 2.1-.8l1.2.1.8.4c.2.1.3.3.3.5l-.1.4-.4.2c-.2 0-.4 0-.4-.2a.7.7 0 0 1-.2-.3v-.3a2.1 2.1 0 0 0-1-.4 2 2 0 0 0-1 .3c-.3.1-.5.4-.7.7-.2.3-.2.7-.2 1.3v.4h2.7a7.7 7.7 0 0 0 .8 0 .4.4 0 0 0 .1-.1h.4v4.8a7 7 0 0 1 0 .8h.7v.5h-2.4v-.4l.5-.1.1-.6v-3.7a5 5 0 0 1 .1-.8h-3v4.3a6.4 6.4 0 0 1 0 .8h.7v.5h-2.5Zm10.4.2c-.6 0-1-.1-1.5-.4a3 3 0 0 1-1.1-1 3.3 3.3 0 0 1-.4-1.7 3.5 3.5 0 0 1 .9-2.3 2.9 2.9 0 0 1 2.2-1c.5 0 .9 0 1.2.2l.8.5c.2.3.3.5.3.8 0 .2 0 .3-.2.4 0 .2-.2.2-.4.2s-.3 0-.4-.2a.7.7 0 0 1-.2-.3V13a.5.5 0 0 1 .2-.2.7.7 0 0 0-.3-.4l-.5-.2a1.8 1.8 0 0 0-1.8.6c-.4.4-.6 1-.6 2 0 .4.1 1 .3 1.3.2.4.4.8.7 1 .3.2.7.4 1 .4a2.4 2.4 0 0 0 2-1l.3.2a3 3 0 0 1-2.5 1.4Zm7-.2a3.8 3.8 0 0 1 0-.4v-.3l-1 .7-1 .2c-.5 0-1-.1-1.3-.4-.3-.3-.4-.6-.4-1s0-.7.3-1c.2-.3.5-.5 1-.6a5.7 5.7 0 0 1 2.3-.5V13a1.1 1.1 0 0 0-.3-.6c-.2-.2-.5-.2-.8-.2h-.7a1 1 0 0 0-.6.6l.2.2a.8.8 0 0 1 0 .2l-.1.4-.4.1-.4-.1a.7.7 0 0 1-.2-.4c0-.3.1-.6.3-.8.2-.2.5-.4.9-.5l1.2-.2c.7 0 1.2.2 1.5.6.3.3.5.9.5 1.6v2.8a6.2 6.2 0 0 1 0 .7h.8v.5h-1.7Zm0-3a4.9 4.9 0 0 0-1.8.4l-.6.5a1 1 0 0 0-.2.7c0 .3.1.5.3.7l.7.2c.3 0 .6 0 .8-.2l.7-.5v-1.7Zm4.8 3.2a2 2 0 0 1-.6 0l-.5-.4a1.6 1.6 0 0 1-.4-.6l-.2-1.2v-3.5h-.9V12c.2 0 .4 0 .7-.2l.5-.6.4-.9h.4V12h2v.5h-2v4.3l.4.5.5.2c.2 0 .4 0 .6-.2l.5-.5.4.3-.6.6a2 2 0 0 1-1.2.5Zm2.3-.6.6-.1.1-.6v-3.5a5 5 0 0 1 .1-.7h-.9v-.5h.9l.4-.2.2-.1h.4v4.8a7 7 0 0 1 0 .8h.7v.5h-2.5v-.4Zm1.2-7a.6.6 0 0 1-.4-.1.7.7 0 0 1-.2-.5c0-.2 0-.4.2-.5a.6.6 0 0 1 .4-.2c.2 0 .4 0 .5.2l.2.5c0 .2 0 .4-.2.5a.6.6 0 0 1-.5.2Zm5.2 7.6a3 3 0 0 1-1.5-.4 3 3 0 0 1-1.1-1 3.6 3.6 0 0 1 0-3.4c.2-.5.6-.9 1-1.1a3 3 0 0 1 1.6-.5 3 3 0 0 1 3 3 3.7 3.7 0 0 1-1.4 3 3 3 0 0 1-1.6.4Zm.1-.5c.4 0 .8-.1 1-.3a2 2 0 0 0 .5-1 5.1 5.1 0 0 0-.2-3.2 1.8 1.8 0 0 0-.6-.7l-.8-.2c-.4 0-.8 0-1 .3a2 2 0 0 0-.6 1 4.8 4.8 0 0 0 0 2.6c.1.5.4.8.6 1s.7.5 1.1.5Zm4 .3v-.4l.5-.1.1-.6v-3.8l.1-.4h-.8v-.5h.8l.4-.2.2-.1h.3v.2a12.2 12.2 0 0 1 0 .5 3.7 3.7 0 0 1 1.3-.7h.7c.7 0 1.2.1 1.5.6.4.4.5 1 .5 2v2.2a7 7 0 0 1 0 .8h.7v.5h-2.4v-.4l.5-.1.2-.6v-2.4a3 3 0 0 0-.4-1.6c-.2-.3-.5-.5-1-.5l-.8.2-.7.6v3.5a7 7 0 0 1 0 .8h.7v.5h-2.5Z" fill="#fff"/><path fill="#D62728" fill-opacity=".4" stroke="#D62728" stroke-width=".5" d="M368.3 8.3h11.4v11.4h-11.4z"/><path d="m387.9 18.1-2.8-6.4-.3-1a5 5 0 0 1-.2-.6h-.6v-.5h2.7v.4c-.4 0-.6.2-.7.4l.1.9a253.2 253.2 0 0 1 1.2 2.8 303.2 303.2 0 0 1 1 2.3 31.9 31.9 0 0 1 .6-1.7 169.1 169.1 0 0 0 1-2.9 48.9 48.9 0 0 0 .5-1.4l.1-.3h-.9v-.5h2.5v.4c-.4 0-.7.1-.9.3a2 2 0 0 0-.5.9v.1a68.7 68.7 0 0 0-.8 2.2l-.7 1.9-1 2.7h-.3Zm7.8-.1a3.8 3.8 0 0 1 0-.4v-.3l-1 .7-1 .2c-.5 0-1-.1-1.3-.4-.3-.3-.4-.6-.4-1s0-.7.3-1c.2-.3.5-.5.9-.6a5.7 5.7 0 0 1 2.4-.5V13a1.1 1.1 0 0 0-.4-.6c-.1-.2-.4-.2-.7-.2h-.8a1 1 0 0 0-.5.6l.1.2a.8.8 0 0 1 0 .2v.4l-.5.1-.4-.1a.7.7 0 0 1 0-.4c0-.3 0-.6.2-.8.2-.2.5-.4.9-.5l1.2-.2c.7 0 1.2.2 1.5.6.3.3.5.9.5 1.6v2.8a6.2 6.2 0 0 1-.1.7h.8v.5h-1.7Zm0-3a4.9 4.9 0 0 0-1.8.4l-.6.5a1 1 0 0 0-.2.7c0 .3.1.5.3.7l.6.2c.4 0 .6 0 .9-.2l.7-.5v-1.7Zm2.4 2.6.6-.1.1-.6V9.7h-.8v-.4h.8l.5-.2.2-.2h.4v7.8a7 7 0 0 1 0 .8h.7v.5H398v-.4Zm6 .6c-.5 0-.8 0-1.1-.2-.3-.2-.5-.5-.7-.9l-.2-1.5v-2.9a129.2 129.2 0 0 1-.8 0v-.5h.4l.7-.1.4-.2h.4v3.6c0 .7 0 1.2.2 1.6.2.3.6.5 1 .5s.6-.1 1-.3l.6-.6v-3.1a8.6 8.6 0 0 1 0-1h-.4l-.4.1v-.5h.4l.7-.1.4-.2h.3v4.5a16.7 16.7 0 0 1 0 1.1h.8v.5h-1.7a9.3 9.3 0 0 1 0-.7l-1 .6a2 2 0 0 1-1 .3Zm7.5 0a3 3 0 0 1-1.5-.4 2.8 2.8 0 0 1-1-1 3.5 3.5 0 0 1-.4-1.8c0-.5 0-1 .3-1.6l1.1-1.1a2.8 2.8 0 0 1 2.5-.3c.3 0 .6.2.8.5l.5.8c.2.3.2.7.2 1.2H410c0 .6 0 1.2.2 1.6.1.5.3.9.6 1.1.3.3.7.4 1.2.4l.7-.1.8-.4.5-.5.3.2c-.2.4-.5.6-.8.8a3.3 3.3 0 0 1-1.8.6Zm-1.7-4.2h3.1l-.1-.8-.4-.7a1 1 0 0 0-.8-.2c-.5 0-.8.1-1.2.4-.3.3-.5.7-.6 1.3Zm12.8.9c0-.4 0-.6-.2-.8a.6.6 0 0 0-.4-.2h-1.7v2.7a10.7 10.7 0 0 1 0 1h2.2l1-.2c.2-.2.4-.3.5-.6.2-.3.2-.7.2-1.1h.4V18h-6.2v-.4c.3 0 .5 0 .6-.2a.8.8 0 0 0 .2-.5v-6a8.2 8.2 0 0 1 0-.8h-.8v-.5h5.8v2.1h-.4c0-.5 0-.8-.2-1a1 1 0 0 0-.6-.6 2.2 2.2 0 0 0-.8 0h-1l-.7.1c-.2.1-.2.3-.2.5v2.7h2.2v-1h.5v2.5h-.4ZM428 18l-1.7-3.9a11.2 11.2 0 0 1-.5-1.3 5 5 0 0 1 0-.3h-.6V12h2.3v.4c-.3 0-.4 0-.5.2v.4c0 .2 0 .5.2.7l1 2.1v.4l.3.5a23.2 23.2 0 0 1 .3-.8l1-2.6a3.9 3.9 0 0 1 .3-.8h-.8V12h2v.4a.6.6 0 0 0-.5.1l-.4.6-.4.9-1.5 4h-.5Zm7.3 0a3.8 3.8 0 0 1 0-.4v-.3l-1 .7-1 .2c-.6 0-1-.1-1.3-.4-.3-.3-.5-.6-.5-1s.1-.7.4-1c.2-.3.5-.5.8-.6a5.7 5.7 0 0 1 2.5-.5V13a1.1 1.1 0 0 0-.4-.6c-.2-.2-.4-.2-.8-.2a2 2 0 0 0-.7 0 1 1 0 0 0-.5.6l.1.2a.8.8 0 0 1 0 .2v.4l-.5.1-.4-.1a.7.7 0 0 1-.1-.4c0-.3 0-.6.3-.8l.8-.5 1.3-.2a2 2 0 0 1 1.5.6c.3.3.4.9.4 1.6v2.8a6.2 6.2 0 0 1 0 .7h.8v.5h-1.7Zm-.1-3a4.9 4.9 0 0 0-1.7.4l-.6.5a1 1 0 0 0-.2.7c0 .3 0 .5.3.7l.6.2c.3 0 .6 0 .9-.2l.7-.5v-1.7Zm2.5 2.6.5-.1.2-.6V9.7h-.8v-.4h.8l.5-.2.2-.2h.4v7.8a7 7 0 0 1 0 .8h.7v.5h-2.5v-.4Zm6 .6c-.5 0-.9 0-1.2-.2a2 2 0 0 1-.6-.9c-.2-.3-.2-.9-.2-1.5v-2.9a129.2 129.2 0 0 1-.8 0v-.5h.4l.7-.1.4-.2h.3v3.6c0 .7.1 1.2.3 1.6.2.3.5.5 1 .5l.9-.3.7-.6v-3.1a8.6 8.6 0 0 1 0-1h-.4l-.4.1v-.5h.3l.8-.1.3-.2h.4v4.5a16.7 16.7 0 0 1 0 1.1h.8v.5h-1.7a9.3 9.3 0 0 1-.1-.7l-1 .6c-.3.2-.6.3-1 .3Zm8.2-.2a3.8 3.8 0 0 1 0-.4v-.3l-1 .7-1 .2c-.6 0-1-.1-1.3-.4-.3-.3-.5-.6-.5-1s.1-.7.4-1c.2-.3.5-.5.9-.6a5.7 5.7 0 0 1 2.4-.5V13a1.1 1.1 0 0 0-.4-.6c-.1-.2-.4-.2-.8-.2h-.7a1 1 0 0 0-.5.6l.1.2a.8.8 0 0 1 0 .2v.4l-.5.1-.4-.1a.7.7 0 0 1 0-.4c0-.3 0-.6.2-.8.2-.2.5-.4.9-.5l1.2-.2a2 2 0 0 1 1.5.6c.3.3.4.9.4 1.6v2.8a6.2 6.2 0 0 1 0 .7h.8v.5H452Zm0-3a4.9 4.9 0 0 0-1.8.4l-.6.5a1 1 0 0 0-.2.7c0 .3 0 .5.3.7l.6.2c.3 0 .6 0 .9-.2l.7-.5v-1.7Zm4.7 3.2a2 2 0 0 1-.5 0l-.6-.4a1.6 1.6 0 0 1-.4-.6L455 16v-3.5h-.9V12c.2 0 .4 0 .6-.2l.6-.6.4-.9h.4V12h2v.5h-2v4.3c0 .2.2.4.3.5l.6.2c.2 0 .4 0 .6-.2l.5-.5.3.3-.5.6a2 2 0 0 1-1.3.5Zm2.4-.6.5-.1.2-.6v-3.5a5 5 0 0 1 0-.7h-.8v-.5h.8l.5-.2.2-.1h.3v4.8a7 7 0 0 1 0 .8h.8v.5H459v-.4Zm1.2-7a.6.6 0 0 1-.5-.1.7.7 0 0 1-.2-.5l.2-.5a.6.6 0 0 1 .5-.2c.2 0 .3 0 .4.2.2.1.2.3.2.5l-.2.5a.6.6 0 0 1-.4.2Zm5.2 7.6a3 3 0 0 1-1.6-.4 3 3 0 0 1-1-1 3.6 3.6 0 0 1 0-3.4c.2-.5.6-.9 1-1.1.5-.3 1-.5 1.6-.5s1 .1 1.5.4a3 3 0 0 1 1.5 2.7c0 .6-.2 1.1-.4 1.7-.3.5-.7.9-1.1 1.2-.5.3-1 .4-1.5.4Zm0-.5c.5 0 .8-.1 1-.3a2 2 0 0 0 .6-1 5.1 5.1 0 0 0-.3-3.2 1.8 1.8 0 0 0-.5-.7l-.8-.2c-.4 0-.8 0-1 .3a2 2 0 0 0-.6 1 4.8 4.8 0 0 0 0 2.6c.1.5.3.8.6 1 .3.4.6.5 1 .5Zm4 .3v-.4l.5-.1.2-.6v-4.2h-.8v-.5h.8l.4-.2.2-.1h.4v.2a12.2 12.2 0 0 1 0 .5 3.7 3.7 0 0 1 1.3-.7h.7c.7 0 1.2.1 1.5.6.3.4.5 1 .5 2v2.2a7 7 0 0 1 0 .8h.7v.5h-2.4v-.4l.5-.1.1-.6v-2.4a3 3 0 0 0-.3-1.6c-.2-.3-.6-.5-1-.5l-.9.2-.7.6v3.5a7 7 0 0 1 0 .8h.7v.5h-2.4Z" fill="#fff"/><rect x="8.8" y="36.8" width="428.5" height="55.5" rx="8.3" fill="#D62728" fill-opacity=".4" stroke="#D62728" stroke-width="1.5"/><rect x="8.8" y="136.8" width="428.5" height="55.5" rx="8.3" fill="#1F77B4" fill-opacity=".4" stroke="#1F77B4" stroke-width="1.5"/><rect x="25" y="49" width="152" height="32" rx="7" stroke="#fff" stroke-width="2"/><path d="M56.7 70v-.8l.6-.1a.7.7 0 0 0 .3-.4l.1-.9v-5.5a15.5 15.5 0 0 1 0-1.2 41.6 41.6 0 0 1-1 0v-.9h3.7c.9 0 1.6 0 2.2.3.6.2 1 .5 1.3.9.3.4.5 1 .5 1.6 0 .4-.1.8-.3 1.1a2.6 2.6 0 0 1-.8 1 4 4 0 0 1-1.4.7l.5.4.4.6.8 1.1.5.7.5.5.6.1v.8h-2.1l-.6-.6-.5-.8-1-1.6-.4-.6a2 2 0 0 0-.3-.4 6.6 6.6 0 0 1-.8 0v1.9a16.6 16.6 0 0 1 0 1.2h.3a7 7 0 0 1 .7 0v.9h-3.8Zm3.5-4.8c.5 0 1-.1 1.3-.3.3-.1.6-.4.8-.7l.2-1.2c0-.4 0-.8-.2-1a1.4 1.4 0 0 0-.5-.6 1 1 0 0 0-.7-.3 3.2 3.2 0 0 0-.7 0h-.6l-.3.4v3.6a55.4 55.4 0 0 0 .7 0Zm8.9 5a3.2 3.2 0 0 1-3-1.7 4.3 4.3 0 0 1-.4-2 4 4 0 0 1 .4-1.8c.3-.6.7-1 1.2-1.4a3.3 3.3 0 0 1 1.9-.5l1.1.1a2.6 2.6 0 0 1 1.7 1.6l.2 1.6h-4.7c0 .7 0 1.2.2 1.6.1.5.4.8.7 1 .3.3.7.5 1.2.5.2 0 .5 0 .7-.2a3 3 0 0 0 1.4-1l.6.6-1 1-1.2.5-1 .1Zm-1.5-4.9h2.9c0-.3 0-.6-.2-.9 0-.3-.2-.4-.4-.6a1.1 1.1 0 0 0-.7-.2c-.4 0-.8.2-1 .5-.4.3-.5.7-.6 1.3Zm8.5 5c-.6 0-1-.2-1.5-.5a3 3 0 0 1-1-1.2 4.5 4.5 0 0 1-.4-2c0-.7.1-1.4.4-2 .3-.5.7-1 1.3-1.3a3.4 3.4 0 0 1 2.6-.4l.6.2v-2.4a35.5 35.5 0 0 1-1 0v-.9h1a2.8 2.8 0 0 0 1-.4h.7V68a12.7 12.7 0 0 1 0 1.1 19.1 19.1 0 0 0 .9 0v.9h-2.5a392.1 392.1 0 0 1 0-.7 2.8 2.8 0 0 1-2.1 1Zm.6-1.1c.3 0 .5-.1.8-.3l.6-.5V64a2.3 2.3 0 0 0-1.2-.4c-.5 0-.8.2-1 .5-.4.2-.6.6-.7 1-.1.4-.2.9-.1 1.4l.1 1.3c.1.4.3.7.6 1 .2.2.6.4 1 .4Zm5 0 .5-.1a.9.9 0 0 0 .2-.5v-3.4a10.3 10.3 0 0 1 .1-1 59.5 59.5 0 0 1-1 0v-1h1c.3 0 .6 0 .7-.2l.3-.1h.7V68a13 13 0 0 1 0 1.1 8.6 8.6 0 0 1 .8 0v.9h-3.4v-.7Zm1.5-7.6a1 1 0 0 1-.6-.2c-.2-.2-.3-.5-.3-.8s0-.5.3-.7l.6-.3c.3 0 .5 0 .7.3.2.2.3.4.3.7s-.1.6-.3.8c-.1.2-.4.3-.7.3Zm5.9 8.6-1.2-.1a3.1 3.1 0 0 1-.9-.4v.4h-.9v-2.4h.7c0 .3.2.6.4.9l.7.6 1 .2.6-.1a1 1 0 0 0 .4-.3.7.7 0 0 0 .2-.5c0-.2 0-.3-.2-.5a2 2 0 0 0-.6-.3l-.8-.4-.9-.3a4.4 4.4 0 0 1-.8-.5l-.6-.6a1.8 1.8 0 0 1-.2-1 2 2 0 0 1 .6-1.4l.8-.5a3.2 3.2 0 0 1 2-.1c.3 0 .6.2.9.4v-.4h.9v2.4h-.8a2.2 2.2 0 0 0-.3-.9 1.7 1.7 0 0 0-1.6-.8c-.3 0-.5 0-.7.2a1 1 0 0 0-.3.7c0 .2 0 .4.2.5l.7.4.8.3 1.2.6c.4.2.7.4.9.7.2.3.3.7.3 1.1 0 .5-.1.9-.3 1.2l-1 .7-1.2.2Zm7.9-1 .5-.1a.9.9 0 0 0 .2-.5v-2.7c0-.7 0-1.2-.2-1.5-.2-.4-.6-.5-1-.5a2 2 0 0 0-1.5.6V68a13 13 0 0 1 0 1.1 7.8 7.8 0 0 1 .9 0v.9h-3.4v-.7l.6-.2.2-.5v-6.8a10.3 10.3 0 0 1 0-1.1 59.5 59.5 0 0 1-1 0v-.9h1.1l.7-.2.3-.2h.6v4.2l.7-.4c.2-.2.5-.3.8-.3l.7-.1c.8 0 1.4.2 1.8.7.3.5.5 1.3.5 2.4v2a13 13 0 0 1 0 1.2 8 8 0 0 1 .9 0v.9H97v-.7Zm11-9.8.4.4-.8 1.3a10.8 10.8 0 0 0-.9 3 17.5 17.5 0 0 0-.2 2.6 14.2 14.2 0 0 0 1.1 5.4l.8 1.3-.5.4a10.6 10.6 0 0 1-2.8-5 8.5 8.5 0 0 1 0-4.4 11.2 11.2 0 0 1 2.8-5Zm1 10.6a4 4 0 0 1 .2-1.3l.6-1 .7-1 1-.8a7.4 7.4 0 0 0 1.3-1.6 3.1 3.1 0 0 0 .3-2.5c0-.3-.2-.5-.4-.7a1.3 1.3 0 0 0-1-.3c-.2 0-.5 0-.7.2l-.5.5.2.4v.3a.9.9 0 0 1 0 .4.8.8 0 0 1-.8.5.8.8 0 0 1-.6-.3 1 1 0 0 1-.2-.7c0-.2 0-.4.2-.7 0-.2.3-.4.5-.7l1-.5a4.4 4.4 0 0 1 2.4 0c.3 0 .7.2 1 .4.3.2.5.4.7.8a2.5 2.5 0 0 1 .1 2 9.1 9.1 0 0 1-1.4 1.9l-1.4 1.2-1.3 1.3a3 3 0 0 0-.5.9h3.5l.5-.2.2-.7h.7V70H109Zm11.4.2c-.7 0-1.3-.1-1.8-.4a3.5 3.5 0 0 1-1.2-1.2 5.8 5.8 0 0 1-.6-1.7 7.5 7.5 0 0 1 0-3.6 6 6 0 0 1 .7-1.6c.4-.5.7-1 1.2-1.3a3 3 0 0 1 1.7-.4 3 3 0 0 1 2.9 1.7c.3.5.5 1 .6 1.6a7.4 7.4 0 0 1-.7 5.2c-.3.5-.7 1-1.2 1.3a3 3 0 0 1-1.6.4Zm0-.8c.4 0 .7-.1 1-.4l.4-.9c.2-.3.3-.8.3-1.2a13 13 0 0 0 0-3.2 7 7 0 0 0-.2-1.5 2.6 2.6 0 0 0-.6-1c-.2-.3-.5-.4-1-.4s-.6.1-.8.3c-.3.3-.4.6-.6 1a5.7 5.7 0 0 0-.3 1.2 12.8 12.8 0 0 0 0 2.8v1.2l.4 1 .6.8c.2.2.5.3.8.3Zm8.8.8c-.7 0-1.3-.1-1.8-.4a3.5 3.5 0 0 1-1.2-1.2 5.8 5.8 0 0 1-.6-1.7 7.5 7.5 0 0 1 0-3.6c.2-.5.4-1.1.8-1.6.3-.5.7-1 1.2-1.3a3 3 0 0 1 1.7-.4 3 3 0 0 1 1.7.4 5.4 5.4 0 0 1 1.8 2.9 7.4 7.4 0 0 1-.8 5.2c-.3.5-.7 1-1.1 1.3a3 3 0 0 1-1.7.4Zm0-.8c.4 0 .7-.1 1-.4.2-.2.4-.5.5-.9l.3-1.2a13 13 0 0 0 0-3.2 7 7 0 0 0-.3-1.5 2.6 2.6 0 0 0-.6-1c-.2-.3-.5-.4-.9-.4s-.6.1-.9.3l-.6 1a5.7 5.7 0 0 0-.3 1.2 12.8 12.8 0 0 0 0 2.8l.1 1.2.4 1c.1.4.3.6.5.8.3.2.5.3.9.3Zm10.2-1.4a14.5 14.5 0 0 1 0 1.1 12.4 12.4 0 0 1 1 0v.9h-3.8v-.8l.6-.1a.8.8 0 0 0 .4-.4l.1-.9v-.4h-4v-1l5-6.4h.7v6.3h1.4v1.1h-1.4v.6Zm-1.7-5.4-2.8 3.6h2.8v-3.6Zm4 11.2-.5-.4.7-1.3a10.8 10.8 0 0 0 1-3 17.7 17.7 0 0 0 .2-2.6 16 16 0 0 0-.6-4 9.8 9.8 0 0 0-1.3-2.7l.5-.4a10 10 0 0 1 2 2.8c.4.7.6 1.3.8 2a8.5 8.5 0 0 1 0 4.6 11.2 11.2 0 0 1-2.8 5Z" fill="#fff"/><rect x="26" y="147" width="151" height="32" rx="7" stroke="#fff" stroke-width="2"/><path d="M57.7 168v-.8l.6-.1a.7.7 0 0 0 .3-.4l.1-.9v-5.5a15.6 15.6 0 0 1 0-1.2 41.6 41.6 0 0 1-1 0v-.9h3.7c.9 0 1.6 0 2.2.3.6.2 1 .5 1.3.9.3.4.5 1 .5 1.6 0 .4-.1.8-.3 1.1a2.6 2.6 0 0 1-.8 1 4 4 0 0 1-1.4.7l.5.4.4.6.8 1.1.5.7.5.5.6.1v.8h-2.1l-.6-.6-.5-.8-1-1.6-.4-.6a2 2 0 0 0-.3-.4 6.8 6.8 0 0 1-.8 0v1.9a16.6 16.6 0 0 1 0 1.2h.3a7.2 7.2 0 0 1 .7 0v.9h-3.8Zm3.5-4.8c.5 0 1-.1 1.3-.3.3-.1.6-.4.8-.7l.2-1.2c0-.4 0-.8-.2-1a1.4 1.4 0 0 0-.5-.6 1 1 0 0 0-.7-.3 3.2 3.2 0 0 0-.7 0h-.6l-.3.4v3.6h.7Zm8.9 5a3.2 3.2 0 0 1-3-1.7 4.3 4.3 0 0 1-.4-2 4 4 0 0 1 .4-1.8c.3-.6.7-1 1.2-1.4a3.3 3.3 0 0 1 1.9-.5l1.1.1a2.6 2.6 0 0 1 1.7 1.6l.2 1.6h-4.7c0 .7 0 1.2.2 1.6.1.5.4.8.7 1 .3.3.7.5 1.2.5.2 0 .5 0 .7-.2a3 3 0 0 0 1.4-1l.6.6-1 1-1.2.5-1 .1Zm-1.5-4.8h2.9c0-.4 0-.7-.2-1 0-.3-.2-.4-.4-.6a1.1 1.1 0 0 0-.7-.2c-.4 0-.8.2-1 .5-.4.3-.5.7-.6 1.2Zm8.5 4.8c-.6 0-1-.1-1.5-.4a3 3 0 0 1-1-1.2 4.5 4.5 0 0 1-.4-2c0-.7.1-1.3.4-2 .3-.5.7-1 1.3-1.3a3.4 3.4 0 0 1 2.6-.4l.6.2v-2.4a35.5 35.5 0 0 1-1 0v-.9h1a2.8 2.8 0 0 0 1-.4h.7v8.6a12.8 12.8 0 0 1 0 1.1 19.1 19.1 0 0 0 .9 0v.9h-2.5v-.7a2.8 2.8 0 0 1-2.1 1Zm.6-1c.3 0 .5-.1.8-.3l.6-.5V162a2.3 2.3 0 0 0-1.2-.4c-.5 0-.8.2-1 .5-.4.2-.6.6-.7 1-.1.4-.2.9-.1 1.4l.1 1.3c.1.4.3.7.6 1 .2.2.6.3 1 .3Zm5 0 .5-.1a.9.9 0 0 0 .2-.5v-3.4a10.3 10.3 0 0 1 .1-1h-1v-1h1c.4 0 .6 0 .7-.2l.4-.1h.6v5.1a13 13 0 0 1 0 1.1 9 9 0 0 1 .8 0v.9h-3.4v-.7Zm1.5-7.5a1 1 0 0 1-.6-.3c-.2-.2-.3-.5-.3-.8s0-.5.3-.7l.6-.3c.3 0 .5 0 .7.3.2.2.3.4.3.7s-.1.6-.3.8c-.1.2-.4.3-.7.3Zm5.9 8.5-1.2-.1a3 3 0 0 1-.9-.4v.4h-.9v-2.4h.7c0 .3.2.6.4.9l.7.6 1 .2.6-.1a1 1 0 0 0 .4-.3.7.7 0 0 0 .2-.5c0-.2 0-.3-.2-.5a2 2 0 0 0-.6-.3l-.8-.4-.9-.3a4.3 4.3 0 0 1-.8-.5l-.6-.6a1.8 1.8 0 0 1-.2-1 2 2 0 0 1 .6-1.4l.8-.5a3.2 3.2 0 0 1 2-.1c.3 0 .6.2.9.4v-.5h.9v2.5h-.8a2.2 2.2 0 0 0-.3-.9 1.7 1.7 0 0 0-1.6-.8c-.3 0-.5 0-.7.2a1 1 0 0 0-.3.7c0 .2 0 .4.2.5l.7.4.8.3 1.2.6c.4.2.7.4.9.7.2.3.3.7.3 1.1 0 .5-.1.9-.3 1.2l-1 .7-1.2.2Zm7.9-1 .5-.1a.9.9 0 0 0 .2-.5v-2.7c0-.7 0-1.2-.2-1.5-.2-.4-.6-.5-1-.5a2 2 0 0 0-1.5.6v3.5a13 13 0 0 1 0 1.1 8.2 8.2 0 0 1 .9 0v.9h-3.4v-.7l.6-.2.2-.5v-6.7a10.3 10.3 0 0 1 0-1.2h-.9v-.9h1l.7-.2.3-.2h.6v4.2l.7-.4.8-.3.7-.1c.8 0 1.4.2 1.8.7.3.5.5 1.3.5 2.4v2.1a13.5 13.5 0 0 1 0 1.2 8.3 8.3 0 0 1 .9 0v.8H98v-.7Zm11-9.8.4.4-.8 1.3a10.8 10.8 0 0 0-.9 3 17.5 17.5 0 0 0-.2 2.6 14.2 14.2 0 0 0 1.1 5.4l.8 1.3-.5.4a10.6 10.6 0 0 1-2.8-5 8.5 8.5 0 0 1 0-4.4 11.2 11.2 0 0 1 2.8-5Zm1 10.6c0-.5 0-1 .2-1.3l.6-1 .7-1 1-.8a7.4 7.4 0 0 0 1.3-1.6 3.1 3.1 0 0 0 .3-2.5c0-.3-.2-.5-.4-.7a1.3 1.3 0 0 0-1-.3c-.2 0-.5 0-.7.2l-.5.5.2.4v.3a.9.9 0 0 1 0 .4.8.8 0 0 1-.8.5.8.8 0 0 1-.6-.3 1 1 0 0 1-.2-.7c0-.2 0-.4.2-.7 0-.2.3-.4.5-.7l1-.5a4.5 4.5 0 0 1 2.4 0c.3 0 .7.2 1 .4.3.2.5.4.7.8a2.5 2.5 0 0 1 .1 2 9.1 9.1 0 0 1-1.4 1.9l-1.4 1.2-1.3 1.3a3 3 0 0 0-.5.9h3.5l.5-.2.2-.7h.7v2.2H110Zm11.4.2c-.7 0-1.3-.1-1.8-.4a3.5 3.5 0 0 1-1.2-1.2 5.8 5.8 0 0 1-.6-1.7 7.5 7.5 0 0 1 0-3.5 6 6 0 0 1 .7-1.7c.4-.5.7-1 1.2-1.2a3 3 0 0 1 1.7-.5 3 3 0 0 1 2.9 1.7c.3.5.5 1 .6 1.6a7.4 7.4 0 0 1-.7 5.2c-.3.5-.7 1-1.2 1.3a3 3 0 0 1-1.6.4Zm0-.8c.4 0 .7-.1 1-.4l.4-.9c.2-.3.3-.8.3-1.2a13 13 0 0 0 0-3.2 7 7 0 0 0-.2-1.5 2.6 2.6 0 0 0-.6-1c-.2-.3-.5-.4-1-.4s-.6.1-.8.3a2.5 2.5 0 0 0-.6 1l-.3 1.2a12.8 12.8 0 0 0 0 2.8v1.2l.4 1 .6.8c.2.2.5.3.8.3Zm8.8.8c-.7 0-1.3-.1-1.8-.4a3.5 3.5 0 0 1-1.2-1.2 5.8 5.8 0 0 1-.6-1.7 7.5 7.5 0 0 1 0-3.5c.2-.6.4-1.2.8-1.7.3-.5.7-1 1.2-1.2a3 3 0 0 1 1.7-.5 3 3 0 0 1 1.7.4 5.4 5.4 0 0 1 1.8 2.8 7.4 7.4 0 0 1-.8 5.3c-.3.5-.7 1-1.1 1.3a3 3 0 0 1-1.7.4Zm0-.8c.4 0 .7-.1 1-.4.2-.2.4-.5.5-.9l.3-1.2a13 13 0 0 0 0-3.2 7 7 0 0 0-.3-1.5 2.6 2.6 0 0 0-.6-1c-.2-.3-.5-.4-.9-.4s-.6.1-.9.3a2.5 2.5 0 0 0-.6 1l-.3 1.2a12.8 12.8 0 0 0 0 2.8l.1 1.2.4 1c.1.4.3.6.5.8.3.2.5.3.9.3Zm7 .8c-.2 0-.4 0-.5-.2a.9.9 0 0 1-.1-.5l.1-.8a20 20 0 0 1 .8-2l.6-1.4.7-1.7 1-2.1h-3.3c-.3 0-.6 0-.8.2-.2.1-.3.4-.3.8h-.7l.1-2.3h6v1.2a21.7 21.7 0 0 0-1.5 3.7 41 41 0 0 0-.6 2l-.5 2.1c0 .3-.2.5-.3.7l-.6.3Zm4.5 3.6-.5-.4.7-1.3a10.8 10.8 0 0 0 1-3 17.7 17.7 0 0 0 .2-2.6 16 16 0 0 0-.6-4 9.8 9.8 0 0 0-1.3-2.7l.4-.4a9.8 9.8 0 0 1 2.1 2.8c.4.7.6 1.3.8 2a8.5 8.5 0 0 1 0 4.6 11.1 11.1 0 0 1-1.8 3.8l-1 1.2Z" fill="#fff"/><rect x="259" y="49" width="163" height="32" rx="7" stroke="#fff" stroke-width="2"/><path d="m290.7 69.2.6-.1a.7.7 0 0 0 .3-.4l.1-.9v-5.5a16 16 0 0 1 0-1.2 42.1 42.1 0 0 1-1 0v-.9h3.8c1 0 1.7.1 2.4.4a4.5 4.5 0 0 1 2.8 2.6 4.9 4.9 0 0 1 0 3.6 4.7 4.7 0 0 1-2.6 2.8 6.2 6.2 0 0 1-2.5.4h-3.9v-.8Zm2.8-1.3a16.7 16.7 0 0 1 0 1.2h1.3a3 3 0 0 0 2.5-1.1l.6-1.3.2-1.5c0-1-.2-1.7-.4-2.3a3 3 0 0 0-1.3-1.4 3.8 3.8 0 0 0-2-.5h-.6a.7.7 0 0 0-.3.5V68Zm11 2.3a3.2 3.2 0 0 1-3-1.7 4.2 4.2 0 0 1-.5-2c0-.6.2-1.2.5-1.8.3-.6.7-1 1.2-1.4a3.3 3.3 0 0 1 1.9-.5l1 .1a2.6 2.6 0 0 1 1.8 1.6l.2 1.6h-4.7c0 .7 0 1.2.2 1.6.1.5.4.8.7 1 .3.3.7.5 1.2.5l.7-.1a3 3 0 0 0 1.4-1l.6.5-1 1-1.2.5-1 .1Zm-1.5-4.8h2.9a2.7 2.7 0 0 0-.2-1c0-.2-.2-.4-.4-.6a1.1 1.1 0 0 0-.7-.2c-.5 0-.8.2-1.1.5-.3.3-.5.7-.5 1.3Zm5.6 4.6v-.9l3.5-4.5a10.6 10.6 0 0 1 .7-.8h-2.1a.8.8 0 0 0-.6.3c-.2.1-.3.4-.4.6l-.2 1h-.7l.2-2.7h5.6v.7l-3.4 4.6a7 7 0 0 1-.8.8h2.2l.8-.1.4-.7.3-1h.7l-.2 2.7h-6Zm8.1-7.4c0-1 .3-1.9.7-2.4.5-.5 1.1-.8 2-.8.4 0 .7 0 1 .2.2 0 .4.2.5.4a1 1 0 0 1 0 1.2l-.6.2c-.2 0-.4 0-.5-.2a.8.8 0 0 1-.2-.7v-.1a.3.3 0 0 0-.2-.1.6.6 0 0 0-.2 0 .6.6 0 0 0-.5.1.8.8 0 0 0-.2.4V63h1.6v.9h-1.7v4a11.9 11.9 0 0 1 0 1.2 9.5 9.5 0 0 1 1 0v.9h-3.5v-.7l.6-.2.2-.5v-4.7h-1V63h1v-.4Zm7.6 7.6c-.7 0-1.3-.1-1.8-.4a3.4 3.4 0 0 1-1.8-3.1c0-.8.2-1.5.5-2a3.4 3.4 0 0 1 3-2c.7 0 1.3.2 1.8.5.6.3 1 .7 1.3 1.3a4.3 4.3 0 0 1 0 4c-.3.5-.7 1-1.2 1.3a4 4 0 0 1-1.8.4Zm0-.8c.5 0 .8-.2 1-.4l.5-1a5.7 5.7 0 0 0 0-2.4 4 4 0 0 0-.3-1l-.5-.7a1.1 1.1 0 0 0-.8-.3c-.4 0-.7.2-1 .4l-.5 1a6 6 0 0 0 0 2.8c.2.4.3.8.6 1.1.3.3.6.5 1 .5Zm7.4.8c-.5 0-1 0-1.3-.3a1.8 1.8 0 0 1-.7-1 5.6 5.6 0 0 1-.3-1.8v-1.9a11.8 11.8 0 0 1 0-1 40.2 40.2 0 0 1-.9 0v-1h1.4l.6-.3h.7V67c0 .7 0 1.2.2 1.5.2.4.5.5 1 .5a2.2 2.2 0 0 0 1.4-.8v-3a12.5 12.5 0 0 1 0-1.2 35.2 35.2 0 0 1-.9 0v-.8h.4c.4 0 .8 0 1-.2l.6-.2h.7v5a15.2 15.2 0 0 1-.1 1.2 14.7 14.7 0 0 0 1 0v.9H334v-.8l-1 .7c-.4.2-.8.3-1.3.3Zm5.5-1 .6-.1.2-.5v-6.8a9.7 9.7 0 0 1 0-1.1 61.5 61.5 0 0 1-1 0v-.9h1.1a2.6 2.6 0 0 0 1-.4h.6V68a13.5 13.5 0 0 1 0 1.1 7.8 7.8 0 0 1 .9 0v.9h-3.4v-.7Zm4.4 0 .5-.1a.9.9 0 0 0 .3-.5v-3.4a10.8 10.8 0 0 1 0-1 57.2 57.2 0 0 1-1 0v-1h1.1a2.6 2.6 0 0 0 1-.3h.6V68a11.9 11.9 0 0 1 0 1.1 8.7 8.7 0 0 1 .9 0v.9h-3.4v-.7Zm1.6-7.5a1 1 0 0 1-.7-.3c-.2-.2-.3-.5-.3-.8s.1-.5.3-.7c.2-.2.4-.3.7-.3.3 0 .5 0 .7.3l.2.7c0 .3 0 .6-.2.8a1 1 0 0 1-.7.3Zm9.4-2.3.4.4-.7 1.3a11 11 0 0 0-1 3 17.9 17.9 0 0 0-.1 2.6 14.2 14.2 0 0 0 1 5.4l.8 1.3-.4.4a10.7 10.7 0 0 1-2.9-5 8.5 8.5 0 0 1 0-4.4 11.3 11.3 0 0 1 1.8-3.8c.4-.5.7-1 1-1.2Zm1.2 10.6a4 4 0 0 1 .2-1.3l.5-1 .8-1 .9-.8a7.4 7.4 0 0 0 1.4-1.6 3.1 3.1 0 0 0 .3-2.5l-.5-.7a1.3 1.3 0 0 0-.9-.3c-.3 0-.5 0-.8.2l-.5.5.2.4v.3a.9.9 0 0 1 0 .4.8.8 0 0 1-.8.5.8.8 0 0 1-.6-.3 1 1 0 0 1-.2-.7c0-.2 0-.4.2-.7l.6-.7 1-.5 1.2-.2a4.1 4.1 0 0 1 2.1.6c.3.2.6.4.7.8a2.5 2.5 0 0 1 .2 2l-.5.8-1 1-1.4 1.3-1.3 1.3a3 3 0 0 0-.5.9h3.4l.6-.2.2-.7h.7l-.1 2.2h-6.1Zm11.3.2c-.7 0-1.3-.1-1.8-.4-.5-.3-.9-.7-1.2-1.2-.2-.5-.5-1-.6-1.7a8.9 8.9 0 0 1-.2-1.8l.3-1.7a6 6 0 0 1 .7-1.7c.3-.5.7-1 1.2-1.2a3 3 0 0 1 1.7-.5 3 3 0 0 1 1.7.4c.5.3.8.8 1.1 1.3.3.5.5 1 .6 1.6a7.4 7.4 0 0 1-.7 5.2c-.2.5-.6 1-1.1 1.3a3 3 0 0 1-1.7.4Zm0-.8c.4 0 .7-.1 1-.3l.5-1 .3-1.2a13 13 0 0 0 0-3.2 7.2 7.2 0 0 0-.3-1.5 2.6 2.6 0 0 0-.6-1c-.2-.3-.5-.4-.9-.4s-.6.1-.9.3l-.6 1a5.6 5.6 0 0 0-.3 1.3 12.8 12.8 0 0 0 0 2.7l.1 1.2.4 1c.1.4.3.6.5.8l.9.3Zm8.8.8c-.7 0-1.3-.1-1.8-.4a4.3 4.3 0 0 1-1.7-2.9 8.9 8.9 0 0 1-.2-1.8c0-.5 0-1.1.2-1.7l.7-1.7c.3-.5.7-1 1.2-1.2a3 3 0 0 1 1.7-.5 3 3 0 0 1 1.7.4c.5.3.9.8 1.2 1.3.3.5.5 1 .6 1.6a7.4 7.4 0 0 1-.7 5.2c-.3.5-.7 1-1.2 1.3a3 3 0 0 1-1.7.4Zm.1-.8c.4 0 .7-.1.9-.3l.5-1 .3-1.2a13 13 0 0 0 0-3.2 7.2 7.2 0 0 0-.3-1.5 2.6 2.6 0 0 0-.5-1c-.3-.3-.6-.4-1-.4s-.6.1-.8.3a2 2 0 0 0-.6 1 5.6 5.6 0 0 0-.3 1.3 12.8 12.8 0 0 0 0 2.7v1.2l.4 1c.2.4.3.6.6.8.2.2.5.3.8.3Zm8 .8c-.7 0-1.2 0-1.5-.2a1.9 1.9 0 0 1-.9-.7 1.6 1.6 0 0 1-.2-.9c0-.2 0-.4.2-.6.1-.2.3-.3.6-.3s.5 0 .6.3l.2.5v.3a.7.7 0 0 1-.2.3l.4.3.7.2c.3 0 .6-.1.8-.3.3-.1.5-.3.6-.6a5.5 5.5 0 0 0 .6-2v-1a2.6 2.6 0 0 1-2 .9c-.5 0-1 0-1.3-.2l-1-.7a3 3 0 0 1-.4-1c-.2-.5-.2-.9-.2-1.3 0-.6.1-1.2.4-1.7a3 3 0 0 1 1.2-1.1c.5-.3 1-.4 1.7-.4s1.2.1 1.6.3c.5.3.8.6 1 1 .3.5.5 1 .6 1.6a9.5 9.5 0 0 1 .1 3.3c0 .4-.1 1-.3 1.4a3.3 3.3 0 0 1-1.7 2.3c-.5.2-1 .3-1.7.3Zm.3-4.7.7-.2a1.9 1.9 0 0 0 1-1l-.2-1.3a6 6 0 0 0-.3-1.1 2 2 0 0 0-.4-.8 1 1 0 0 0-.8-.3c-.3 0-.6.1-.8.3a2 2 0 0 0-.5.8l-.2 1a6.3 6.3 0 0 0 .3 1.6c0 .3.2.5.4.7.2.2.5.3.8.3Zm4.5 8.3-.5-.4.8-1.3a10.8 10.8 0 0 0 .9-3 17.7 17.7 0 0 0 .2-2.6 16 16 0 0 0-.6-4 9.8 9.8 0 0 0-1.3-2.7l.5-.4a10 10 0 0 1 2.1 2.8l.8 2a8.5 8.5 0 0 1 0 4.6 11.2 11.2 0 0 1-2.9 5Z" fill="#fff"/><rect x="263.5" y="147" width="154" height="32" rx="7" stroke="#fff" stroke-width="2"/><path d="m295.2 167.2.6-.1a.7.7 0 0 0 .3-.4l.1-.9v-5.5a16 16 0 0 1 0-1.2 42.1 42.1 0 0 1-1 0v-.9h3.7c.9 0 1.6 0 2.2.3.6.2 1 .5 1.4 1 .4.4.5 1 .5 1.7a3 3 0 0 1-1 2.1c-.3.3-.7.6-1.2.8a6 6 0 0 1-2 .3h-.8v1.5a17.1 17.1 0 0 1 0 1.2h.3a7.5 7.5 0 0 1 .8 0v.9h-3.9v-.8Zm2.8-3.7h.7c.5 0 1 0 1.3-.2.4-.2.6-.5.8-.8.2-.4.3-.8.3-1.3s0-.8-.2-1.1l-.5-.7a1.8 1.8 0 0 0-.7-.3 3.7 3.7 0 0 0-.8 0h-.6l-.3.4a3.3 3.3 0 0 0 0 .8v3.2Zm9 4.7a3.2 3.2 0 0 1-3-1.7 4.3 4.3 0 0 1-.4-2 4 4 0 0 1 .4-1.8c.3-.6.7-1 1.2-1.4a3.3 3.3 0 0 1 1.9-.5l1.1.1a2.6 2.6 0 0 1 1.7 1.6c.2.5.2 1 .2 1.6h-4.7c0 .7 0 1.2.2 1.6.2.5.4.8.7 1 .3.3.7.5 1.2.5.2 0 .5 0 .7-.2a3 3 0 0 0 1.5-1l.5.6a3.6 3.6 0 0 1-2.1 1.5l-1 .1Zm-1.5-4.9h3l-.3-.9c0-.3-.2-.4-.4-.6a1.1 1.1 0 0 0-.7-.2c-.4 0-.8.2-1 .5-.3.3-.5.7-.6 1.2Zm8.4 5-.7-.2a1.7 1.7 0 0 1-.7-.3l-.5-.8a4.4 4.4 0 0 1-.2-1.4V162h-1v-1l.9-.3a2.8 2.8 0 0 0 1-1.7h.9v2h2v.9h-2v4.4l.3.6.6.2c.2 0 .4 0 .6-.2.2 0 .5-.3.7-.6l.6.5a3.4 3.4 0 0 1-1.5 1.2l-.6.2h-.4Zm5.7 0-.7-.2a1.7 1.7 0 0 1-.7-.3l-.5-.8a4.4 4.4 0 0 1-.2-1.4V162h-1v-1l.9-.3a2.7 2.7 0 0 0 1-1.7h.9v2h2v.9h-2v4.4l.3.6.6.2c.2 0 .4 0 .6-.2.2 0 .5-.3.7-.6l.6.5a3.4 3.4 0 0 1-1.5 1.2l-.6.2h-.4Zm3-1 .5-.2a.9.9 0 0 0 .2-.5v-3.4a9.7 9.7 0 0 1 .1-1h-.9v-1h1c.3 0 .5 0 .6-.2l.4-.1h.6v5.1a13.5 13.5 0 0 1 0 1.1 9 9 0 0 1 .9 0v.9h-3.4v-.7Zm1.6-7.6a.9.9 0 0 1-.7-.3c-.2-.2-.3-.5-.3-.8s.1-.5.3-.7c.2-.2.4-.3.7-.3.2 0 .5 0 .6.3.2.2.3.4.3.7s0 .6-.2.8a1 1 0 0 1-.7.3Zm2.7 8.3v-.7l.6-.2a.9.9 0 0 0 .2-.5v-3.4a11.1 11.1 0 0 1 .1-1 35.2 35.2 0 0 1-1 0v-1h1c.3 0 .5 0 .7-.2l.3-.1h.6v.2a50.5 50.5 0 0 0 0 .5 4.3 4.3 0 0 1 1.5-.7l.7-.1c.8 0 1.4.2 1.8.7.3.5.5 1.3.5 2.4v2.1a13.5 13.5 0 0 1 0 1.1 8.2 8.2 0 0 1 .9 0v.9h-3.4v-.7l.6-.2.2-.5v-2.7c0-.7 0-1.2-.3-1.5-.2-.4-.5-.5-1-.5-.2 0-.5 0-.8.2-.2 0-.5.2-.6.4v3.5a13.5 13.5 0 0 1 0 1.1 9 9 0 0 1 .8 0v.9H327Zm12.1.2a3.2 3.2 0 0 1-3-1.7 4.2 4.2 0 0 1-.4-2c0-.6.1-1.3.4-1.8.3-.6.7-1 1.2-1.4a3.3 3.3 0 0 1 1.9-.5l1.1.1a2.6 2.6 0 0 1 1.7 1.6c.2.5.2 1 .2 1.6h-4.7c0 .7 0 1.2.2 1.6.2.5.4.8.7 1 .3.3.7.5 1.2.5.2 0 .5 0 .7-.2a3 3 0 0 0 1.5-1l.5.6a3.5 3.5 0 0 1-2.1 1.5l-1 .1Zm-1.5-4.9h3a2.7 2.7 0 0 0-.3-.9c0-.3-.2-.4-.4-.6a1.1 1.1 0 0 0-.7-.2c-.4 0-.8.2-1 .5-.3.3-.5.7-.6 1.2Zm12.4-6 .4.5-.7 1.3a11 11 0 0 0-1 3 17.9 17.9 0 0 0-.2 2.5 14.2 14.2 0 0 0 1.2 5.5l.7 1.3-.4.4a10.7 10.7 0 0 1-2.9-5 8.5 8.5 0 0 1 0-4.4 11.3 11.3 0 0 1 1.8-3.8c.4-.5.7-1 1-1.2ZM351 168c0-.5 0-1 .2-1.3l.5-1 .8-1 .9-.8a7.4 7.4 0 0 0 1.4-1.6 3.1 3.1 0 0 0 .3-2.5l-.5-.7a1.3 1.3 0 0 0-.9-.3c-.3 0-.5 0-.8.2l-.5.5.2.4v.3a.9.9 0 0 1 0 .4.8.8 0 0 1-.8.5.8.8 0 0 1-.6-.3 1 1 0 0 1-.2-.7c0-.2 0-.4.2-.7a2.7 2.7 0 0 1 1.5-1.2 4.5 4.5 0 0 1 2.4 0c.4 0 .7.2 1 .4.3.2.6.4.7.8a2.5 2.5 0 0 1 .2 2l-.5.8a9 9 0 0 1-1 1l-1.4 1.3a8.3 8.3 0 0 0-1.3 1.3c-.3.3-.4.7-.5.9h3.5l.6-.2.2-.7h.7l-.1 2.2H351Zm11.3.2c-.7 0-1.3-.1-1.8-.4-.5-.3-.9-.7-1.1-1.2l-.7-1.7a8.9 8.9 0 0 1-.2-1.8l.3-1.8c.1-.6.4-1.1.7-1.6.3-.5.7-1 1.2-1.3a3 3 0 0 1 1.7-.4 3 3 0 0 1 1.7.4c.5.3.8.7 1.1 1.3.3.5.5 1 .6 1.6a7.4 7.4 0 0 1-.7 5.2c-.3.5-.6 1-1.1 1.3a3 3 0 0 1-1.7.4Zm0-.8c.4 0 .7-.1 1-.4.2-.2.4-.5.5-.9l.3-1.2a13 13 0 0 0 0-3.2 7.2 7.2 0 0 0-.3-1.5 2.6 2.6 0 0 0-.6-1c-.2-.3-.5-.4-.9-.4l-.9.3-.5 1-.4 1.2a12.8 12.8 0 0 0 0 2.8l.1 1.2.4 1c.1.4.3.6.5.8l.9.3Zm5 .6a3.7 3.7 0 0 1 .7-2.3l.8-1 .8-.8a7.3 7.3 0 0 0 1.4-1.6 3.1 3.1 0 0 0 .3-2.5c0-.3-.2-.5-.4-.7a1.3 1.3 0 0 0-1-.3c-.2 0-.5 0-.7.2l-.5.5.2.4v.3a.9.9 0 0 1 0 .4.8.8 0 0 1-.8.5.8.8 0 0 1-.6-.3 1 1 0 0 1-.2-.7c0-.2 0-.4.2-.7l.5-.7 1-.5a4.5 4.5 0 0 1 2.4 0c.4 0 .7.2 1 .4.3.2.5.4.7.8a2.5 2.5 0 0 1 .1 2l-.4.8a9 9 0 0 1-1 1l-1.4 1.3a8.3 8.3 0 0 0-1.3 1.3c-.3.3-.4.7-.5.9h3.5l.5-.2c.2-.2.2-.4.2-.7h.8l-.1 2.2h-6.1Zm10.3.2c-.7 0-1.2 0-1.7-.3a2.4 2.4 0 0 1-1-.8 1.7 1.7 0 0 1-.3-.9c0-.2.1-.5.3-.7a.8.8 0 0 1 .6-.3c.2 0 .4 0 .5.2l.2.3a.9.9 0 0 1 .1.3 1.1 1.1 0 0 1-.2.7c0 .2.3.4.6.5l.8.1c.6 0 1.1-.1 1.4-.5.4-.3.5-.8.5-1.4 0-.3 0-.7-.2-1a1.7 1.7 0 0 0-.6-.8 2.3 2.3 0 0 0-1.4-.4 5.5 5.5 0 0 0-.6 0v-.8h.4c.5 0 .8 0 1.1-.3.3-.1.5-.4.6-.6a2 2 0 0 0 .3-1c0-.3 0-.6-.2-.8a1.2 1.2 0 0 0-.4-.7 1.4 1.4 0 0 0-.8-.2l-.9.2-.4.5.1.4v.3a.9.9 0 0 1 0 .3.7.7 0 0 1-.3.4.7.7 0 0 1-.5 0 .8.8 0 0 1-.6-.2 1 1 0 0 1-.2-.6c0-.3.2-.6.4-1 .2-.3.5-.5 1-.8a5 5 0 0 1 3.1-.1c.5.2.8.4 1 .8a2.4 2.4 0 0 1 .3 2.3l-.7.8c-.3.3-.7.4-1.3.6 1 .1 1.6.4 2 1 .5.4.7 1 .7 1.6 0 .6-.1 1.2-.5 1.6a3 3 0 0 1-1.3 1 5 5 0 0 1-1.9.3Zm4.7 3.6-.5-.4.8-1.3a10.8 10.8 0 0 0 .9-3 17.7 17.7 0 0 0 .2-2.6 16 16 0 0 0-.6-4 12.8 12.8 0 0 0-1.3-2.7l.5-.4a10 10 0 0 1 2 2.8c.4.7.7 1.3.9 2a8.5 8.5 0 0 1 0 4.6 11.2 11.2 0 0 1-2.9 5Z" fill="#fff"/><rect x="504" y="89" width="197" height="50" rx="7" stroke="#fff" stroke-width="2"/><path d="m536.1 109.2.6-.1a.7.7 0 0 0 .3-.4v-6.4a16 16 0 0 1 .1-1.2 42.1 42.1 0 0 1-1 0v-.9h3.8c1 0 1.7.1 2.4.4a4.5 4.5 0 0 1 2.7 2.6 4.9 4.9 0 0 1 0 3.6 4.7 4.7 0 0 1-2.6 2.8 6 6 0 0 1-2.4.4h-3.9v-.8Zm2.8-1.3a16.8 16.8 0 0 1-.1 1.2h1.4a3 3 0 0 0 2.4-1.1l.7-1.3.2-1.5c0-1-.2-1.7-.5-2.3a3 3 0 0 0-1.2-1.4 3.8 3.8 0 0 0-2-.5h-.6a.7.7 0 0 0-.3.5v6.5Zm10.5 2.3c-.5 0-1 0-1.3-.3a1.8 1.8 0 0 1-.7-1 5.6 5.6 0 0 1-.3-1.8v-1.9a10.4 10.4 0 0 1 0-1 42.4 42.4 0 0 1-.9 0v-1h1.4l.6-.3h.7v4.2c0 .7 0 1.2.2 1.5.2.4.5.5 1 .5a2.2 2.2 0 0 0 1.4-.8v-3a11.2 11.2 0 0 1 0-1.2 36 36 0 0 1-1 0v-.8h.5c.4 0 .7 0 1-.2l.6-.2h.6v5a17.7 17.7 0 0 1 0 1.2 14.9 14.9 0 0 0 1 0v.9h-2.5v-.4l-.1-.4a5 5 0 0 1-1 .7c-.3.2-.7.3-1.2.3Zm9.7-.2a4 4 0 0 1 0-.7l-1 .7c-.5.2-.8.2-1.2.2a2 2 0 0 1-1.5-.5c-.3-.3-.5-.8-.5-1.3 0-.4.1-.8.4-1.1.2-.3.6-.6 1-.8a6.7 6.7 0 0 1 2.7-.6v-.8l-.1-.7a1 1 0 0 0-.4-.6l-.7-.2c-.2 0-.4 0-.6.2-.2 0-.4.2-.5.3l.2.3a1 1 0 0 1-.2.8c-.1.2-.4.2-.6.2a.8.8 0 0 1-.6-.2 1 1 0 0 1-.2-.6c0-.4.1-.7.3-1l1.1-.6a4.3 4.3 0 0 1 1.5-.2c.8 0 1.4.2 1.8.6.4.4.7 1.1.6 2v2.6a11.6 11.6 0 0 1 0 1.2h.5l.4-.1v.9h-2.4Zm-.2-3.3a4.1 4.1 0 0 0-1.5.4l-.5.5a1 1 0 0 0-.2.6c0 .3.1.5.3.7l.6.2.7-.2c.3-.1.5-.3.6-.5v-1.7Zm3.3 2.6.6-.2.2-.5v-6.7a10.8 10.8 0 0 1 0-1.2h-.9v-.9h1l.7-.2.3-.2h.6v8.6a13.5 13.5 0 0 1 0 1.1 8.2 8.2 0 0 1 .9 0v.9h-3.4v-.7Zm8.2 0 .6-.2a.7.7 0 0 0 .3-.4v-6.4a16 16 0 0 1 .1-1.2 40.4 40.4 0 0 1-1 0v-.9h3.7c.8 0 1.6 0 2.2.3.6.2 1 .5 1.4 1 .3.4.5 1 .5 1.7a3 3 0 0 1-1 2.1c-.3.4-.8.6-1.3.8-.5.2-1.2.3-2 .3h-.8v1.5a15.6 15.6 0 0 1 0 1.2h.4a7.5 7.5 0 0 1 .8 0v.9h-4v-.8Zm2.7-3.8h.7c.6 0 1 0 1.4-.2l.8-.8c.2-.4.3-.8.3-1.3l-.2-1.1-.5-.7a1.8 1.8 0 0 0-.8-.3 3.7 3.7 0 0 0-.7 0h-.6l-.3.4v4Zm6 3.8.5-.2a.9.9 0 0 0 .2-.5v-3.4a11.1 11.1 0 0 1 .1-1h-1v-1h.6a3 3 0 0 0 .9 0l.5-.3h.6a17.7 17.7 0 0 1 0 1.2 4.2 4.2 0 0 1 1.5-1.2l.7-.1c.3 0 .6 0 .8.2.2.2.4.5.4.8l-.1.4a.8.8 0 0 1-.3.4.8.8 0 0 1-.5.1 1 1 0 0 1-.6-.2c-.2 0-.2-.3-.3-.6a1 1 0 0 0-.6.2 2.8 2.8 0 0 0-1 1.2v2.7a11.9 11.9 0 0 1 0 1.2 8.2 8.2 0 0 1 1 0v.8H579v-.7Zm9.8 1c-.7 0-1.3-.2-1.8-.5-.6-.3-1-.7-1.3-1.3a3.8 3.8 0 0 1-.5-1.9c0-.7.2-1.4.5-2a3.4 3.4 0 0 1 3-1.8c.7 0 1.3.1 1.8.4.6.3 1 .7 1.3 1.3a4.3 4.3 0 0 1 0 4c-.3.5-.7 1-1.2 1.2a3 3 0 0 1-1.8.5Zm0-1c.5 0 .8 0 1-.3l.5-1a5.7 5.7 0 0 0 0-2.4c0-.4-.1-.7-.3-1l-.5-.7a1.1 1.1 0 0 0-.8-.3c-.4 0-.7.1-1 .4l-.5 1a6.1 6.1 0 0 0 0 2.8c.2.4.3.8.6 1.1.3.3.6.5 1 .5Zm7.9 1a4 4 0 0 1-1.8-.5 3.2 3.2 0 0 1-1.2-1.2 3.9 3.9 0 0 1-.5-2 4 4 0 0 1 1-2.6 3.5 3.5 0 0 1 2.7-1.2c.5 0 1 0 1.4.2l1 .7.2 1c0 .2 0 .4-.2.6a.8.8 0 0 1-.6.3c-.3 0-.6-.1-.7-.3a1 1 0 0 1-.2-.5 1.1 1.1 0 0 1 .2-.6.7.7 0 0 0-.3-.4l-.5-.2a1.6 1.6 0 0 0-1.6.7c-.4.5-.5 1.1-.5 2 0 .5 0 1 .2 1.4.1.4.4.8.7 1 .3.3.6.4 1.1.4.4 0 .8 0 1.2-.2l1-.9.5.5a4 4 0 0 1-1 1 3.7 3.7 0 0 1-2.1.7Zm7.3 0a3.2 3.2 0 0 1-3-1.8 4.2 4.2 0 0 1-.5-2c0-.6.2-1.2.5-1.8.3-.6.7-1 1.2-1.4a3.3 3.3 0 0 1 1.8-.5l1.2.1a2.6 2.6 0 0 1 1.6 1.6c.2.5.3 1 .3 1.6h-4.7c0 .7 0 1.2.2 1.6.1.5.3.8.7 1 .3.3.7.5 1.2.5.2 0 .4 0 .7-.2a3 3 0 0 0 1.4-1l.6.6a3.5 3.5 0 0 1-2.2 1.5l-1 .1Zm-1.5-5h2.9a2.7 2.7 0 0 0-.2-.9l-.4-.6a1.1 1.1 0 0 0-.7-.2c-.5 0-.8.2-1.1.5-.3.3-.5.7-.5 1.3Zm8.8 5-1.2-.2a3 3 0 0 1-1-.4l.1.4h-.9v-2.4h.7l.3.9.8.6 1 .2.6-.1a1 1 0 0 0 .4-.3l.2-.5c0-.2 0-.3-.2-.5a2 2 0 0 0-.6-.3l-.8-.4-.9-.3a4.4 4.4 0 0 1-.8-.5l-.6-.6a1.8 1.8 0 0 1-.2-1 2 2 0 0 1 .6-1.4c.2-.2.4-.4.8-.5a3.2 3.2 0 0 1 2-.1c.3 0 .6.2.8.4v-.4h1v2.4h-.8a2.2 2.2 0 0 0-.3-.9 1.7 1.7 0 0 0-1.6-.8c-.3 0-.5 0-.8.2a1 1 0 0 0-.3.7c0 .2.1.4.3.5.1.2.4.3.6.4l1 .3 1.1.6.9.7c.2.3.3.7.3 1.1 0 .5-.1.9-.4 1.2-.2.3-.5.5-1 .7l-1.1.2Zm6.7 0-1.2-.2a3 3 0 0 1-1-.4l.1.4h-.9v-2.4h.7l.3.9a2.2 2.2 0 0 0 1.8.8l.6-.1a1 1 0 0 0 .4-.3.7.7 0 0 0 .2-.5c0-.2 0-.3-.2-.5a2 2 0 0 0-.6-.3l-.8-.4-1-.3a4.4 4.4 0 0 1-.7-.5c-.3-.1-.4-.4-.6-.6a1.8 1.8 0 0 1-.2-1 2 2 0 0 1 .6-1.4c.2-.2.4-.4.8-.5a3.2 3.2 0 0 1 2-.1c.3 0 .6.2.8.4v-.4h1v2.4h-.8a2.2 2.2 0 0 0-.3-.9 1.7 1.7 0 0 0-1.6-.8c-.3 0-.5 0-.8.2a1 1 0 0 0-.3.7c0 .2.1.4.3.5.1.2.3.3.6.4l.9.3 1.2.6.9.7c.2.3.3.7.3 1.1 0 .5-.1.9-.4 1.2-.2.3-.5.5-1 .7a3.3 3.3 0 0 1-1.1.2Zm12.5-.2a819.4 819.4 0 0 1-2.4-5.7 19.9 19.9 0 0 1-.8-2.2 22 22 0 0 1 0 2v3.8a115 115 0 0 1 0 1.2 56.6 56.6 0 0 1 1 0v.9h-3v-.8h.6c0-.2.2-.3.3-.5v-.7l.2-5.7V101a31.4 31.4 0 0 1-1 0v-.9h2.8l2.2 5.5.3.7a43.3 43.3 0 0 1 .6 1.6l.4-1c0-.3.2-.6.3-.8a312 312 0 0 1 2.3-6h2.9v.8h-.6a.7.7 0 0 0-.3.4l-.1.9.2 5.7a13.6 13.6 0 0 1 0 1.1 13 13 0 0 1 1 0v.9H634v-.8l.6-.1.3-.4c0-.2.1-.5 0-.8v-3.6l-.1-.5a18.9 18.9 0 0 1 0-1.5 1.7 1.7 0 0 0-.3.4l-2.8 7.4h-1Zm11.3.1c-.7 0-1.3-.1-1.8-.4a3.4 3.4 0 0 1-1.8-3.2c0-.7.2-1.4.5-2a3.4 3.4 0 0 1 3-1.8 4 4 0 0 1 1.9.4c.5.3.9.7 1.2 1.3a4.3 4.3 0 0 1 0 4c-.3.5-.7 1-1.2 1.2-.5.4-1.1.5-1.8.5Zm0-.8c.5 0 .8-.2 1-.4l.5-1a5.7 5.7 0 0 0 0-2.4c0-.4-.1-.7-.3-1 0-.3-.3-.5-.5-.7a1.1 1.1 0 0 0-.8-.3c-.4 0-.7.1-1 .4l-.5 1a6 6 0 0 0 0 2.8l.6 1.1c.3.3.6.5 1 .5Zm7.4.8c-.6 0-1.1-.1-1.5-.4a3 3 0 0 1-1-1.2 4.5 4.5 0 0 1-.4-2c0-.7.1-1.4.4-2a3.5 3.5 0 0 1 1.2-1.3 3.4 3.4 0 0 1 2.6-.4l.7.2v-2.4a35.2 35.2 0 0 1-1 0v-.9h1l.7-.2.3-.2h.7v8.6a11.6 11.6 0 0 1-.1 1.1 18.7 18.7 0 0 0 1 0v.9h-2.5a39.2 39.2 0 0 0-.1-.7 2.8 2.8 0 0 1-2 1Zm.6-1c.3 0 .5-.1.8-.3l.6-.5V104a2.3 2.3 0 0 0-1.2-.4c-.5 0-.8.2-1.1.5-.3.2-.5.6-.6 1l-.2 1.4c0 .5 0 .9.2 1.3l.5 1c.3.2.6.4 1 .4Zm8.3 1a3.2 3.2 0 0 1-3-1.7 4.3 4.3 0 0 1-.5-2 4 4 0 0 1 .4-1.8c.3-.6.7-1 1.3-1.4a3.3 3.3 0 0 1 1.8-.5l1.1.1a2.6 2.6 0 0 1 1.7 1.6c.2.5.3 1 .3 1.6h-4.7c0 .7 0 1.2.2 1.6 0 .5.3.8.6 1 .3.3.7.5 1.2.5.3 0 .5 0 .8-.2a3 3 0 0 0 1.4-1l.5.6c-.3.4-.6.8-1 1l-1.1.5-1 .1Zm-1.6-4.9h3l-.2-.9-.4-.6a1.1 1.1 0 0 0-.7-.2c-.5 0-.9.2-1.1.5-.3.3-.5.7-.6 1.3Zm5.6 4 .5-.2c.2-.1.2-.3.2-.5v-6.7a9.7 9.7 0 0 1 .1-1.2h-1v-.9h1a2.6 2.6 0 0 0 1-.4h.7v8.6a13.5 13.5 0 0 1 0 1.1 8.2 8.2 0 0 1 .9 0v.9h-3.4v-.7Zm-83.8 8 .4.5-.7 1.3a10.8 10.8 0 0 0-1 3 17.5 17.5 0 0 0-.2 2.6 14.2 14.2 0 0 0 1.2 5.4l.7 1.3-.4.4a10.6 10.6 0 0 1-3-5 8.5 8.5 0 0 1 0-4.4 11.2 11.2 0 0 1 3-5Zm1.3 10 .6-.2a.7.7 0 0 0 .3-.4v-6.4a14.5 14.5 0 0 1 .1-1.2 42.1 42.1 0 0 1-1 0v-.9h3.7c.8 0 1.6 0 2.2.3.6.2 1 .5 1.4 1 .3.4.5 1 .5 1.7a3 3 0 0 1-1 2.1c-.3.4-.7.6-1.3.8-.5.2-1.1.3-2 .3h-.7v1.5a17.1 17.1 0 0 1-.1 1.2h.4a7.4 7.4 0 0 1 .8 0v.9h-3.9v-.8Zm2.8-3.8h.7c.5 0 1 0 1.3-.2l.8-.8c.2-.4.3-.8.3-1.3s0-.8-.2-1.1l-.5-.7a1.8 1.8 0 0 0-.7-.3 3.7 3.7 0 0 0-.8 0h-.6l-.3.4a3.3 3.3 0 0 0 0 .8v3.2Zm5.9 3.8.5-.2a.9.9 0 0 0 .2-.5v-3.4a10 10 0 0 1 .1-1h-.9v-1h.5a3 3 0 0 0 1 0c.2-.2.3-.3.5-.3h.5v1.2l.8-.7.7-.5.8-.1c.3 0 .5 0 .7.2.3.2.4.5.4.8l-.1.4a.8.8 0 0 1-.8.5 1 1 0 0 1-.6-.2l-.2-.6a1 1 0 0 0-.6.2 2.8 2.8 0 0 0-1 1.2v2.7a13.5 13.5 0 0 1 0 1.1 8.2 8.2 0 0 1 .9 0v.9h-3.4v-.7Zm9.8 1c-.7 0-1.3-.2-1.8-.5-.6-.3-1-.7-1.3-1.3a3.8 3.8 0 0 1-.5-1.9c0-.7.2-1.4.5-2a3.4 3.4 0 0 1 3-1.8c.7 0 1.3.1 1.9.4s.9.7 1.2 1.3a4.3 4.3 0 0 1 0 4c-.3.5-.7 1-1.2 1.2-.5.4-1.1.5-1.8.5Zm0-1c.5 0 .8 0 1-.3.3-.3.4-.6.5-1a5.6 5.6 0 0 0 0-2.4l-.2-1-.6-.7a1.1 1.1 0 0 0-.8-.3c-.4 0-.7.1-1 .4l-.5 1a6.1 6.1 0 0 0 0 2.8l.6 1.1c.3.3.6.5 1 .5Zm4.1 4.5c-.5 0-.8-.1-1-.3a1 1 0 0 1-.2-1.3.7.7 0 0 1 .6-.3c.3 0 .5 0 .6.2l.2.6v.2h.3c.2 0 .3 0 .4-.2l.2-.5V122a35.2 35.2 0 0 1-.9 0v-.8h1l.7-.3.3-.1h.7v7.1a5.2 5.2 0 0 1-.4 2.1c-.2.6-.6 1-1 1.3-.4.3-1 .4-1.5.4Zm2-12.1a1 1 0 0 1-.7-.3c-.2-.2-.3-.5-.3-.8s.1-.5.3-.7c.2-.2.4-.3.7-.3.3 0 .5 0 .7.3l.2.7c0 .3 0 .6-.2.8a1 1 0 0 1-.7.3Zm5.4 8.5a3.2 3.2 0 0 1-3-1.7 4.2 4.2 0 0 1-.4-2c0-.6.1-1.2.4-1.8.3-.6.7-1 1.2-1.4a3.3 3.3 0 0 1 1.9-.5l1.1.1a2.6 2.6 0 0 1 1.7 1.6c.2.5.3 1 .2 1.6h-4.7l.2 1.6c.2.5.4.8.7 1 .3.3.7.5 1.2.5.3 0 .5 0 .7-.2a3 3 0 0 0 1.5-1l.5.6a3.5 3.5 0 0 1-2.1 1.5l-1 .1Zm-1.5-4.8h3a2.7 2.7 0 0 0-.2-1c-.1-.3-.3-.4-.5-.6a1.1 1.1 0 0 0-.6-.2c-.5 0-.9.2-1.1.5-.3.3-.5.7-.6 1.3Zm9 4.8c-.6 0-1.1-.1-1.7-.4a3.2 3.2 0 0 1-1.2-1.2 3.9 3.9 0 0 1-.5-2 4 4 0 0 1 1-2.6 3.5 3.5 0 0 1 2.7-1.2c.5 0 1 0 1.4.2.4.2.7.4.9.7.2.3.3.6.3 1 0 .2 0 .4-.2.6a.8.8 0 0 1-.6.3c-.4 0-.6-.1-.7-.3a1 1 0 0 1-.2-.5 1.1 1.1 0 0 1 .2-.6.7.7 0 0 0-.3-.4l-.5-.2a1.6 1.6 0 0 0-1.6.7c-.4.5-.5 1.1-.5 2 0 .5 0 1 .2 1.4.1.4.3.8.6 1 .3.3.7.4 1.2.4.4 0 .8 0 1.2-.2.4-.3.7-.5.9-.9l.6.5a4 4 0 0 1-1 1 3.7 3.7 0 0 1-2.1.7Zm6.7 0h-.7a1.7 1.7 0 0 1-.7-.4l-.5-.8a4.4 4.4 0 0 1-.2-1.4V122h-1v-1c.4 0 .6-.1.9-.3a2.7 2.7 0 0 0 1-1.7h1l-.1 2h2v.9h-2v4.4l.3.6.6.2c.2 0 .4 0 .6-.2.2 0 .5-.3.7-.7l.6.6a3.4 3.4 0 0 1-1.5 1.2 2 2 0 0 1-.6.2h-.4Zm2.8 3.6-.5-.4.8-1.3a10.8 10.8 0 0 0 .9-3 17.7 17.7 0 0 0 .2-2.6 16 16 0 0 0-.6-4 11.1 11.1 0 0 0-1.3-2.7l.5-.4a9.8 9.8 0 0 1 2 2.8c.4.7.6 1.3.8 2a8.5 8.5 0 0 1 0 4.6 11.1 11.1 0 0 1-1.8 3.8 8 8 0 0 1-1 1.2ZM258 64l-7.5-4.3v8.6L258 64Zm-80 .8h73.3v-1.5H178v1.5Zm84 99.2-7.5-4.3v8.6l7.5-4.3Zm-84 .8h77.3v-1.6H178v1.6ZM502 120l-8.7-.4 4 7.7 4.7-7.3Zm-83.7 44.7 78-40.9-.6-1.3-78 40.8.7 1.4ZM503 106l-8.7.4 4-7.7 4.7 7.3Zm-80.7-42.7 75 39-.6 1.3-75-39 .7-1.3Z" fill="#fff"/></svg>