<svg width="516" height="239" fill="none" xmlns="http://www.w3.org/2000/svg"><path fill="#000" d="M0 0h516v239H0z"/><path d="M26 100.8h405c1.8 0 3.3 1.4 3.3 3.2v122c0 1.8-1.5 3.3-3.3 3.3H26a3.2 3.2 0 0 1-3.3-3.3V104c0-1.8 1.5-3.3 3.3-3.3Z" fill="#1F77B4" fill-opacity=".4" stroke="#1F77B4" stroke-width="1.5"/><rect x="12.8" y="31.8" width="450.5" height="52.5" rx="3.3" fill="#D62728" fill-opacity=".4" stroke="#D62728" stroke-width="1.5"/><path d="M290.8 47v-.4l.5-.1.2-.5v-5.5a7 7 0 0 1 0-.8h-.8v-.4h2.6c.7 0 1.3 0 1.7.2l1 .7c.2.3.3.6.3 1 0 .3 0 .6-.2 1l-.6.7a3 3 0 0 1-1.3.6c.2 0 .3.2.4.4l.4.5.7 1.2.4.5c0 .2.2.3.4.4l.6.1v.4h-1.4a4.2 4.2 0 0 1-1-1.2l-.7-1.2a303.6 303.6 0 0 0-.8-1 6 6 0 0 1-.7 0v2a11 11 0 0 1 0 1h.7v.4h-2.4Zm2.3-3.9 1.1-.1.7-.6a2 2 0 0 0 .1-1.7c0-.3-.1-.4-.3-.6l-.6-.3h-1.4l-.2.5v2.8a39.1 39.1 0 0 1 .6 0Zm6.4 6h-.4l-.3-.2-.2-.4v-2.4h-.5v-.4l.3-.1.4-.4.1-.4h.4v.9h1v.3h-1v2.3l.1.3h.6l.3-.3.3.2-.4.3a1.2 1.2 0 0 1-.7.3Zm1.5-2.7h3v.4h-3v-.4Zm1.7-1.2V48h-.4v-3h.4Zm2.2 3.8v-.3h.3l.2-.3V45l-.8.5-.1-.2 1.3-1h.3v3.9a6.4 6.4 0 0 1 0 .5h.5v.3H305ZM296 71.8a3 3 0 0 0-.8-1.7c-.4-.3-1-.5-1.5-.5-.4 0-.8 0-1.1.2l-1 .7-.5 1.1-.3 1.5c0 .7.2 1.3.4 1.8.3.6.7 1 1.1 1.3.4.3 1 .4 1.5.4s1-.1 1.4-.3a3 3 0 0 0 1.1-1l.3.3-1 1c-.4.2-.7.4-1.1.4l-1 .2a3.6 3.6 0 0 1-3.5-2.4c-.2-.5-.2-1-.2-1.5s0-1 .2-1.5l.7-1.4a4 4 0 0 1 1.2-1c.5-.2 1-.3 1.7-.3a4 4 0 0 1 2.2.7v-.6h.5v2.6h-.4Zm3.4 7.3h-.4l-.3-.2-.2-.4v-2.4h-.5v-.4l.3-.1c.1-.1.3-.2.3-.4l.2-.4h.3v.9h1v.3h-1v2.3l.2.3h.6l.3-.3.2.2-.3.3a1.2 1.2 0 0 1-.7.3Zm1.5-2.7h3v.4h-3v-.4Zm1.7-1.2V78h-.4v-3h.4Zm2.2 3.8v-.3h.3l.1-.3.1-.4v-3l-.8.5-.2-.2 1.4-1h.3v3.9a6.4 6.4 0 0 1 0 .5h.5v.3h-1.7Z" fill="#fff"/><rect x="26.3" y="110.3" width="94.5" height="39.5" rx="8.8" stroke="#fff" stroke-width="1.5"/><path d="M62.7 121.3c0-.5-.2-1-.4-1.3-.2-.4-.5-.7-.8-.9l-1.2-.3c-.5 0-.9.2-1.2.4-.3.3-.4.6-.4 1 0 .3 0 .6.2.8l.8.7 1.3.5a15.5 15.5 0 0 1 2 1.2c.3.2.6.5.8.9a2.4 2.4 0 0 1-.2 2.6c-.2.4-.6.7-1.2 1a4.5 4.5 0 0 1-3 .1c-.5 0-.9-.2-1.3-.5v.6h-.9V125h.8c.1.8.4 1.4.9 1.9a2.7 2.7 0 0 0 2.7.4l.6-.5.2-.8c0-.4 0-.7-.3-.9a3 3 0 0 0-.9-.6 23.7 23.7 0 0 0-2.2-1l-1-.7-.7-1a2.8 2.8 0 0 1 .4-2.8l1-.7 1.5-.2 1.2.1c.5.1.8.3 1.2.6v-.6h.9v3.2h-.8Zm5.1 7a3 3 0 0 1-.7-.2c-.3 0-.5-.2-.7-.3l-.5-.8-.2-1.4V122h-1v-1c.4 0 .6-.1.9-.3a2.7 2.7 0 0 0 1-1.7h1v2h1.9v.9h-2v4.4l.3.6.6.2c.2 0 .4 0 .6-.2.2 0 .5-.3.7-.7l.6.6a3.4 3.4 0 0 1-1.5 1.2l-.6.2a4 4 0 0 1-.4 0Zm7-.3a3.8 3.8 0 0 1 0-.7c-.4.3-.7.6-1.1.7l-1.1.2c-.6 0-1.1-.1-1.5-.5-.3-.3-.5-.8-.5-1.3 0-.4.1-.8.4-1.1a2 2 0 0 1 1-.8l1.2-.4 1.5-.2v-.8l-.1-.7a1 1 0 0 0-.4-.6l-.7-.2a2 2 0 0 0-.6.2 1 1 0 0 0-.5.3l.2.3v.3c0 .1 0 .3-.2.5-.1.2-.4.2-.6.2a.8.8 0 0 1-.6-.2 1 1 0 0 1-.2-.6c0-.4 0-.7.3-1l1.1-.6 1.5-.2c.8 0 1.4.2 1.8.6.4.4.7 1.1.6 2v2.6a12.7 12.7 0 0 1 0 1.1h.9v.9h-2.4Zm-.2-3.3a4.1 4.1 0 0 0-1.5.4l-.5.5a1 1 0 0 0-.2.6c0 .3.1.5.3.7l.6.1.7-.1.6-.5v-1.7Zm6.1 3.5a3 3 0 0 1-.7 0l-.7-.4-.5-.8-.2-1.4V122h-1v-1l.9-.3a2.7 2.7 0 0 0 1-1.7h1l-.1 2h2v.9h-2v4.4l.3.6.6.2c.2 0 .4 0 .6-.2.2 0 .5-.3.7-.7l.6.6a3.4 3.4 0 0 1-1.5 1.2l-.6.2a4 4 0 0 1-.4 0Zm6.3 0c-.7 0-1.3-.1-1.8-.4a3 3 0 0 1-1.2-1.3c-.3-.6-.4-1.2-.4-2 0-.6.1-1.3.4-1.8.3-.6.7-1 1.2-1.4a3.8 3.8 0 0 1 3-.4 2.6 2.6 0 0 1 1.7 1.6l.2 1.6h-4.7c0 .7 0 1.2.2 1.6.2.5.4.8.7 1 .3.3.7.5 1.2.5.2 0 .5 0 .7-.2.3 0 .5-.2.8-.3l.7-.6.5.5-1 1-1.2.5-1 .1Zm-1.5-4.8h2.9c0-.4 0-.7-.2-1 0-.2-.2-.4-.4-.6l-.7-.2c-.4 0-.8.2-1 .5-.4.3-.5.7-.6 1.3Zm-42.6 15.1c0-.4 0-.6-.2-.8a.7.7 0 0 0-.5-.3H41v2.5a16.3 16.3 0 0 1 0 1.2h2c.4 0 .7 0 1-.2.2-.1.5-.3.6-.6.2-.3.3-.7.3-1.3h.7v3H38v-.8l.6-.1c.2 0 .3-.2.3-.4l.1-.9v-5.5a15.6 15.6 0 0 1 0-1.2 41.6 41.6 0 0 1-1 0v-.9h7v2.6h-.7c0-.5-.1-.9-.3-1.2l-.7-.5-.8-.1h-.7l-.6.1c-.2 0-.3.2-.3.4l-.1.9v2.1h2l-.1-1.2h.9v3.2h-.8Zm6.9 3.7-1.2-.1a3 3 0 0 1-1-.4l.1.4h-.9v-2.4h.7l.3.9.8.6 1 .2.6-.1c.2 0 .3-.2.4-.3l.2-.5c0-.2 0-.3-.2-.5a2 2 0 0 0-.6-.3 35.1 35.1 0 0 1-2.5-1.1l-.6-.7-.2-1 .1-.7.5-.7.8-.5a3.2 3.2 0 0 1 2-.1c.3 0 .6.2.9.4v-.5h.8v2.5h-.7l-.3-.9a1.7 1.7 0 0 0-1.6-.8c-.3 0-.5 0-.7.2a1 1 0 0 0-.3.7c0 .2 0 .4.2.5.1.2.4.3.6.4a1281.2 1281.2 0 0 1 2.1.9c.4.2.7.4.9.7.2.3.3.7.3 1.1 0 .5-.1.9-.4 1.2-.2.3-.5.5-1 .7l-1.1.2Zm6.3 0a3 3 0 0 1-.8 0l-.6-.4-.5-.8-.2-1.4V136h-1v-1c.3 0 .6-.1.8-.3A2.7 2.7 0 0 0 55 133h.9v2h2v.9h-2v4.4c0 .3.2.4.3.6l.6.2.6-.2c.2 0 .4-.3.7-.7l.5.6a3.4 3.4 0 0 1-1.4 1.2l-.6.2a4 4 0 0 1-.4 0Zm3-1 .5-.1.2-.5v-3.4a10.5 10.5 0 0 1 .1-1h-1v-1h1c.3 0 .6 0 .7-.2l.3-.1h.7v5.1a12.8 12.8 0 0 1 0 1.1h.8v.9H59v-.7Zm1.5-7.5a1 1 0 0 1-.6-.3 1 1 0 0 1-.3-.8c0-.3 0-.5.3-.7.1-.2.4-.3.6-.3.3 0 .5 0 .7.3.2.2.3.4.3.7 0 .3-.1.6-.3.8a1 1 0 0 1-.7.3Zm2.8 8.3v-.7l.6-.2.2-.5v-3.4a10.6 10.6 0 0 1 0-1h-.9v-1h1c.3 0 .5 0 .7-.2l.3-.1h.6v.7a3.8 3.8 0 0 1 2.1-.8c.4 0 .8 0 1 .2.4.2.6.4.8.7l1-.7a3 3 0 0 1 1.3-.2c.8 0 1.3.2 1.7.7.4.4.6 1.2.6 2.3v2.2a13 13 0 0 1 0 1.1h.8v.9H72v-.7c.3 0 .4-.1.5-.2l.2-.5v-2.8c0-.7 0-1.2-.3-1.5a1 1 0 0 0-.9-.4c-.2 0-.5 0-.7.2-.3 0-.5.2-.6.3v2.4a49 49 0 0 1 0 2.3h.9v.9h-3.3v-.7l.5-.2.2-.5v-2.9c0-.6 0-1.1-.3-1.4a1 1 0 0 0-.8-.4l-.8.1-.6.4v3.6a13 13 0 0 1 0 1.1h.8v.9h-3.3Zm16.8 0a3.8 3.8 0 0 1-.1-.7l-1 .7-1.1.2c-.7 0-1.2-.1-1.5-.5-.3-.3-.5-.8-.5-1.3 0-.4.1-.8.4-1.1a2 2 0 0 1 1-.8l1.2-.4 1.4-.2v-1.5a1 1 0 0 0-.4-.6l-.7-.2a2 2 0 0 0-.6.2 1 1 0 0 0-.5.3l.1.3v.3l-.1.5c-.2.2-.4.2-.7.2a.8.8 0 0 1-.6-.2 1 1 0 0 1-.2-.6c0-.4.2-.7.4-1l1-.6 1.5-.2c.8 0 1.5.2 1.9.6.4.4.6 1.1.6 2v2.6a12.6 12.6 0 0 1 0 1.1h.9v.9h-2.4Zm-.2-3.3a4.1 4.1 0 0 0-1.5.4l-.6.5a1 1 0 0 0-.1.6c0 .3 0 .5.2.7l.7.1.7-.1.6-.5v-1.7Zm6.1 3.5a3 3 0 0 1-.8 0l-.6-.4-.5-.8-.2-1.4V136h-1v-1l.9-.3a2.7 2.7 0 0 0 1-1.7h.9v2h2v.9h-2v4.4c0 .3.2.4.3.6l.6.2.6-.2c.2 0 .4-.3.7-.7l.5.6a3.4 3.4 0 0 1-1.4 1.2l-.6.2a4 4 0 0 1-.4 0Zm3-1 .5-.1.2-.5v-3.4a10.5 10.5 0 0 1 .1-1h-1v-1h1c.4 0 .6 0 .7-.2l.4-.1h.6v5.1a13 13 0 0 1 0 1.1h.8v.9H89v-.7Zm1.5-7.5a1 1 0 0 1-.6-.3 1 1 0 0 1-.3-.8c0-.3 0-.5.3-.7l.6-.3c.3 0 .5 0 .7.3.2.2.3.4.3.7 0 .3 0 .6-.3.8-.1.2-.4.3-.7.3Zm6.2 8.5a4 4 0 0 1-1.8-.4 3.3 3.3 0 0 1-1.7-3.1c0-.8.1-1.5.5-2 .3-.6.7-1.1 1.2-1.4a3 3 0 0 1 1.8-.5c.7 0 1.3.1 1.8.4a3.6 3.6 0 0 1 1.7 3.1 4 4 0 0 1-.4 2c-.3.7-.7 1.1-1.3 1.4-.5.4-1 .5-1.8.5Zm.1-.8c.4 0 .8-.2 1-.4.2-.3.4-.6.4-1a5.7 5.7 0 0 0 0-2.4 4 4 0 0 0-.2-1l-.5-.7c-.2-.2-.5-.3-.8-.3-.4 0-.7.1-1 .4l-.5 1-.2 1.3.2 1.5c.1.4.3.8.6 1.1.3.3.6.5 1 .5Zm4.5.6v-.7l.6-.2.2-.5v-3.4a11.1 11.1 0 0 1 0-1 35.2 35.2 0 0 1-.9 0v-1h1c.3 0 .5 0 .7-.2l.3-.1h.6v.7l.7-.4.8-.3.7-.1c.8 0 1.4.2 1.8.7.3.5.5 1.3.5 2.4v2.1a11.9 11.9 0 0 1 0 1.1h.9v.9h-3.4v-.7l.6-.2.2-.5v-2.7c0-.7-.1-1.2-.3-1.5-.2-.4-.5-.5-1-.5a2.1 2.1 0 0 0-1.5.7v3.4a11.9 11.9 0 0 1 0 1.1h.9v.9h-3.4Z" fill="#fff"/><rect x="33.8" y="178.3" width="79.5" height="39.5" rx="8.8" stroke="#fff" stroke-width="1.5"/><path d="M62.7 189.3c0-.5-.2-1-.4-1.3-.2-.4-.5-.7-.8-.9l-1.2-.3c-.5 0-.9.2-1.2.4-.3.3-.4.6-.4 1 0 .3 0 .6.2.8l.8.7 1.3.5a15.5 15.5 0 0 1 2 1.2c.3.2.6.5.8.9a2.4 2.4 0 0 1-.2 2.6c-.2.4-.6.7-1.2 1a4.5 4.5 0 0 1-3 .1c-.5 0-.9-.2-1.3-.5v.6h-.9V193h.8c.1.8.4 1.4.9 1.9a2.7 2.7 0 0 0 2.7.4l.6-.5.2-.8c0-.4 0-.7-.3-.9a3 3 0 0 0-.9-.6 23.7 23.7 0 0 0-2.2-1l-1-.7-.7-1a2.8 2.8 0 0 1 .4-2.8l1-.7 1.5-.2 1.2.1c.5.1.8.3 1.2.6v-.6h.9v3.2h-.8Zm5.1 7a3 3 0 0 1-.7-.2c-.3 0-.5-.2-.7-.3l-.5-.8-.2-1.4V190h-1v-1c.4 0 .6-.1.9-.3a2.7 2.7 0 0 0 1-1.7h1v2h1.9v.9h-2v4.4l.3.6.6.2c.2 0 .4 0 .6-.2.2 0 .5-.3.7-.7l.6.6a3.4 3.4 0 0 1-1.5 1.2l-.6.2a4 4 0 0 1-.4 0Zm7-.3a3.8 3.8 0 0 1 0-.7c-.4.3-.7.6-1.1.7l-1.1.2c-.6 0-1.1-.1-1.5-.5-.3-.3-.5-.8-.5-1.3 0-.4.1-.8.4-1.1a2 2 0 0 1 1-.8l1.2-.4 1.5-.2v-.8l-.1-.7a1 1 0 0 0-.4-.6l-.7-.2a2 2 0 0 0-.6.2 1 1 0 0 0-.5.3l.2.3v.3c0 .1 0 .3-.2.5-.1.2-.4.2-.6.2a.8.8 0 0 1-.6-.2 1 1 0 0 1-.2-.6c0-.4 0-.7.3-1l1.1-.6 1.5-.2c.8 0 1.4.2 1.8.6.4.4.7 1.1.6 2v2.6a12.7 12.7 0 0 1 0 1.1h.9v.9h-2.4Zm-.2-3.3a4.1 4.1 0 0 0-1.5.4l-.5.5a1 1 0 0 0-.2.6c0 .3.1.5.3.7l.6.1.7-.1.6-.5v-1.7Zm6.1 3.5a3 3 0 0 1-.7 0l-.7-.4-.5-.8-.2-1.4V190h-1v-1l.9-.3a2.7 2.7 0 0 0 1-1.7h1l-.1 2h2v.9h-2v4.4l.3.6.6.2c.2 0 .4 0 .6-.2.2 0 .5-.3.7-.7l.6.6a3.4 3.4 0 0 1-1.5 1.2l-.6.2a4 4 0 0 1-.4 0Zm6.3 0c-.7 0-1.3-.1-1.8-.4a3 3 0 0 1-1.2-1.3c-.3-.6-.4-1.2-.4-2 0-.6.1-1.3.4-1.8.3-.6.7-1 1.2-1.4a3.8 3.8 0 0 1 3-.4 2.6 2.6 0 0 1 1.7 1.6l.2 1.6h-4.7c0 .7 0 1.2.2 1.6.2.5.4.8.7 1 .3.3.7.5 1.2.5.2 0 .5 0 .7-.2.3 0 .5-.2.8-.3l.7-.6.5.5-1 1-1.2.5-1 .1Zm-1.5-4.8h2.9c0-.4 0-.7-.2-1 0-.2-.2-.4-.4-.6l-.7-.2c-.4 0-.8.2-1 .5-.4.3-.5.7-.6 1.3Zm-32.7 12a3 3 0 0 0-.8-2c-.5-.3-1-.6-1.7-.6A3 3 0 0 0 48 202c-.3.4-.5.9-.6 1.4-.2.5-.3 1-.3 1.6 0 .8.2 1.6.4 2.2.3.6.7 1.1 1.2 1.5.4.3 1 .5 1.6.5a4 4 0 0 0 3.2-1.7l.6.6c-.4.6-.9 1-1.4 1.3a4.9 4.9 0 0 1-2.7.8 5 5 0 0 1-2-.4c-.5-.2-1-.6-1.5-1a5 5 0 0 1-1.3-3.6l.3-1.9c.2-.6.5-1.2 1-1.7.3-.5.9-.9 1.5-1.2a4.7 4.7 0 0 1 3.4-.2c.4 0 .9.3 1.3.5l-.1-.6h1v3.2h-.8Zm2.2 5.9.5-.2.2-.5v-3.4a10.7 10.7 0 0 1 .1-1H55v-1h1.5l.5-.3h.5v1.2l.8-.7.7-.5.8-.1c.2 0 .5 0 .7.2.3.2.4.5.4.8l-.1.4c0 .2-.2.3-.3.4l-.5.1a1 1 0 0 1-.6-.2l-.2-.6a1 1 0 0 0-.6.2 2.8 2.8 0 0 0-1 1.2v2.7a12.8 12.8 0 0 1 0 1.1h.9v.9H55v-.7Zm9.7 1c-.7 0-1.3-.2-1.8-.5s-1-.8-1.2-1.3c-.3-.6-.5-1.2-.5-2 0-.6.2-1.3.5-1.8.3-.6.7-1 1.2-1.4.5-.3 1.1-.5 1.8-.5l1.2.1a2.6 2.6 0 0 1 1.6 1.6c.2.5.3 1 .3 1.6h-4.7c0 .7 0 1.2.2 1.6.1.5.4.8.7 1 .3.3.7.5 1.2.5.2 0 .4 0 .7-.2.3 0 .5-.2.8-.3l.6-.6.6.5-1 1-1.2.5-1 .1Zm-1.5-5H66c0-.3 0-.6-.2-.9 0-.2-.2-.4-.4-.6l-.7-.2c-.5 0-.8.2-1.1.5-.3.3-.5.7-.5 1.3Zm9.7 4.7a3.8 3.8 0 0 1 0-.7l-1 .7-1.2.2c-.6 0-1.1-.1-1.5-.5-.3-.3-.5-.8-.5-1.3 0-.4.1-.8.4-1.1a2 2 0 0 1 1-.8l1.2-.4 1.5-.2v-.8l-.1-.7a1 1 0 0 0-.4-.6l-.7-.2a2 2 0 0 0-.6.2 1 1 0 0 0-.5.3l.2.3v.3c0 .1 0 .3-.2.5-.1.2-.4.2-.6.2a.8.8 0 0 1-.6-.2 1 1 0 0 1-.2-.6c0-.4.1-.7.4-1l1-.6 1.5-.2c.8 0 1.4.2 1.8.6.5.4.7 1.1.7 2v2.6a12.7 12.7 0 0 1-.1 1.1h.9v.9H73Zm-.2-3.3a4.1 4.1 0 0 0-1.5.4l-.5.5a1 1 0 0 0-.2.6c0 .3.1.5.3.7l.6.1.7-.1c.3-.1.5-.3.6-.5v-1.7Zm6.1 3.5a3 3 0 0 1-.7 0l-.7-.4-.5-.8-.2-1.4V204h-1v-1c.4 0 .6-.1.9-.3a2.7 2.7 0 0 0 1-1.7h1v2h1.9v.9h-2v4.4l.3.6.6.2c.2 0 .4 0 .6-.2.2 0 .5-.3.7-.7l.6.6a3.4 3.4 0 0 1-1.5 1.2l-.6.2a4 4 0 0 1-.4 0Zm3-1 .5-.1c.2-.1.2-.3.3-.5v-3.4a10.5 10.5 0 0 1 0-1h-.9v-1h1c.3 0 .5 0 .7-.2l.3-.1h.6v5.1a13 13 0 0 1 0 1.1h.9v.9h-3.4v-.7Zm1.6-7.5a1 1 0 0 1-.7-.3 1 1 0 0 1-.3-.8c0-.3.1-.5.3-.7.2-.2.4-.3.7-.3.3 0 .5 0 .7.3l.2.7c0 .3 0 .6-.2.8a1 1 0 0 1-.7.3Zm6.2 8.5c-.7 0-1.3-.1-1.8-.4-.6-.3-1-.7-1.3-1.3-.3-.5-.5-1.1-.5-1.8 0-.8.2-1.5.5-2a3 3 0 0 1 1.3-1.4c.5-.4 1.1-.5 1.7-.5.7 0 1.3.1 1.8.4.6.3 1 .7 1.3 1.3a4.3 4.3 0 0 1 0 4c-.3.5-.7 1-1.2 1.2a3 3 0 0 1-1.8.5Zm0-.8c.5 0 .8-.2 1-.4l.5-1a5.7 5.7 0 0 0 0-2.4 4 4 0 0 0-.3-1c0-.3-.3-.5-.5-.7-.2-.2-.5-.3-.8-.3-.4 0-.7.1-1 .4l-.5 1-.1 1.3c0 .5 0 1 .2 1.5 0 .4.3.8.5 1.1.3.3.6.5 1 .5Zm4.5.6v-.7l.6-.2.2-.5v-3.4a10.7 10.7 0 0 1 .1-1 35.4 35.4 0 0 1-1 0v-1h1c.4 0 .6 0 .7-.2l.3-.1h.6v.4l.1.3.7-.4.7-.3.7-.1c.8 0 1.4.2 1.8.7.4.5.6 1.3.6 2.4v2.1a13.5 13.5 0 0 1-.1 1.1h.9v.9h-3.4v-.7l.6-.2.2-.5v-2.7c0-.7 0-1.2-.3-1.5-.2-.4-.5-.5-1-.5a2 2 0 0 0-.7.2c-.3 0-.5.2-.7.4v3.5a12.8 12.8 0 0 1 0 1.1h.8v.9h-3.4Z" fill="#fff"/><rect x="201.3" y="144.3" width="85.5" height="39.5" rx="8.8" stroke="#fff" stroke-width="1.5"/><path d="M219.6 162v-.8l.6-.1.2-.4.1-.9v-5.5a16 16 0 0 1 0-1.2 40.4 40.4 0 0 1-1 0v-.9h6.9v2.6h-.7c0-.5-.1-.9-.3-1.2l-.7-.5-.8-.1h-.7l-.5.1c-.2.1-.3.3-.3.5l-.1.8v2.4h1.8l-.1-1.2h1v3.3h-.8l-.2-1a.7.7 0 0 0-.5-.2c-.3 0-.5-.1-.8 0h-.4v2.2a15.2 15.2 0 0 1 0 1.2h.4a9.2 9.2 0 0 1 .8 0v.9h-4Zm10.6.2c-.7 0-1.3-.1-1.8-.4a3 3 0 0 1-1.2-1.3c-.3-.6-.4-1.2-.4-2 0-.6 0-1.3.4-1.8.3-.6.7-1 1.2-1.4a3.8 3.8 0 0 1 3-.4 2.6 2.6 0 0 1 1.7 1.6l.2 1.6h-4.7c0 .7 0 1.2.2 1.6.1.5.4.8.7 1 .3.3.7.5 1.2.5.2 0 .4 0 .7-.2.3 0 .5-.2.8-.3l.6-.6.6.5-1 1-1.2.5-1 .1Zm-1.5-4.8h2.9c0-.4 0-.7-.2-1 0-.2-.2-.4-.4-.6l-.7-.2c-.5 0-.8.2-1.1.5-.3.3-.4.7-.5 1.3Zm9.7 4.6a3.7 3.7 0 0 1 0-.7l-1 .7-1.2.2c-.6 0-1.1-.1-1.5-.5-.3-.3-.5-.8-.5-1.3 0-.4.1-.8.4-1.1.2-.3.6-.6 1-.8l1.2-.4 1.5-.2v-.8l-.1-.7a1 1 0 0 0-.4-.6l-.7-.2a2 2 0 0 0-.6.2 1 1 0 0 0-.5.3l.2.3v.3c0 .1 0 .3-.2.5-.1.2-.3.2-.6.2a.8.8 0 0 1-.6-.2 1 1 0 0 1-.2-.6c0-.4.1-.7.4-1l1-.6 1.5-.2c.8 0 1.4.2 1.8.6.5.4.7 1.1.7 2v2.6a13.3 13.3 0 0 1-.1 1.1h.9v.9h-2.4Zm-.2-3.3a4.1 4.1 0 0 0-1.5.4l-.5.5a1 1 0 0 0-.2.6c0 .3.1.5.3.7l.6.1.7-.1c.3-.1.5-.3.6-.5v-1.7Zm6.1 3.5a3 3 0 0 1-.7 0l-.7-.4-.5-.8-.2-1.4V156h-1v-1c.4 0 .6-.1.9-.3l.7-.7.4-1h.8v2h2v.9h-2v4.4l.3.6.6.2c.2 0 .4 0 .6-.2.2 0 .5-.3.7-.7l.6.6a3.4 3.4 0 0 1-1.5 1.2l-.6.2a4 4 0 0 1-.4 0Zm5.9 0c-.6 0-1 0-1.3-.3-.4-.2-.6-.5-.8-1l-.2-1.8v-3a42.4 42.4 0 0 1-1 0v-.8h.3c.5 0 .9 0 1.2-.2l.6-.2h.6v4.2c0 .7.1 1.2.3 1.5.2.4.5.5.9.5.3 0 .5 0 .8-.2l.7-.6v-3a11.2 11.2 0 0 1 0-1.2 36 36 0 0 1-1 0v-.8h.4c.4 0 .8 0 1-.2.4 0 .6-.2.7-.2h.6v5a17.7 17.7 0 0 1 0 1.2h.9v.9h-2.5v-.8l-1 .7-1.2.3Zm5.6-1 .6-.1.2-.5v-3.4a11.1 11.1 0 0 1 .1-1h-1v-1h1.5l.5-.3h.6v1.2l.7-.7.8-.5.7-.1c.3 0 .6 0 .8.2.2.2.4.5.4.8l-.1.4-.3.4-.5.1a1 1 0 0 1-.6-.2c-.2 0-.2-.3-.3-.6a1 1 0 0 0-.6.2 2.8 2.8 0 0 0-1 1.2v2.7a13.5 13.5 0 0 1 0 1.1h.9v.9h-3.4v-.7Zm9.8 1c-.7 0-1.3-.1-1.8-.4-.6-.3-1-.8-1.2-1.3-.3-.6-.5-1.2-.5-2 0-.6.2-1.3.5-1.8.2-.6.6-1 1.2-1.4.5-.3 1.1-.5 1.8-.5l1.2.1a2.6 2.6 0 0 1 1.6 1.6c.2.5.3 1 .3 1.6H264c0 .7 0 1.2.2 1.6.1.5.3.8.6 1 .3.3.8.5 1.3.5.2 0 .4 0 .7-.2l.7-.3.7-.6.5.5c-.3.4-.6.8-1 1l-1.1.5-1 .1Zm-1.6-4.8h3l-.2-1-.4-.6-.7-.2c-.5 0-.8.2-1.1.5-.3.3-.5.7-.6 1.3ZM212.4 176v-.8c.2 0 .4 0 .6-.2l.4-.6c0-.3.2-.5.3-.8l2.8-7.7h.8l3 7.8a32.4 32.4 0 0 1 .4 1.4h.8v.9H218v-.8c.3 0 .5 0 .6-.2l.2-.4c0-.2 0-.4-.2-.6l-.3-1H215l-.3 1-.2.6-.2.5h1v.9h-2.8Zm2.8-3.8h2.7l-.8-2a35.5 35.5 0 0 1-.5-2 45.6 45.6 0 0 0-.6 1.8l-.8 2.2Zm9.4 4a3 3 0 0 1-.8 0l-.6-.4-.5-.8-.2-1.4V170h-1v-1c.3 0 .6-.1.8-.3l.7-.7c.2-.3.4-.6.4-1h.9v2h2v.9h-2v4.4c0 .3.2.4.3.6l.6.2.6-.2c.2 0 .4-.3.7-.7l.5.6a3.4 3.4 0 0 1-1.4 1.2l-.6.2a4 4 0 0 1-.4 0Zm5.7 0a3 3 0 0 1-.8 0l-.6-.4-.5-.8-.2-1.4V170h-1v-1c.3 0 .6-.1.8-.3a2.7 2.7 0 0 0 1.1-1.7h.9v2h2v.9h-2v4.4c0 .3.2.4.3.6l.6.2.6-.2c.2 0 .4-.3.7-.7l.5.6a3.4 3.4 0 0 1-1.4 1.2l-.6.2a4 4 0 0 1-.4 0Zm6.3 0c-.7 0-1.3-.1-1.8-.4a3 3 0 0 1-1.2-1.3c-.3-.6-.5-1.2-.5-2 0-.6.2-1.3.5-1.8.3-.6.7-1 1.2-1.4.5-.3 1.1-.5 1.8-.5l1.2.1a2.6 2.6 0 0 1 1.6 1.6c.2.5.3 1 .3 1.6H235c0 .7 0 1.2.2 1.6.1.5.3.8.6 1 .4.3.8.5 1.3.5.2 0 .4 0 .7-.2l.7-.3.7-.6.6.5-1 1-1.2.5-1 .1Zm-1.6-4.8h3l-.2-1-.4-.6-.7-.2c-.5 0-.8.2-1.1.5-.3.3-.5.7-.6 1.3Zm5.8 4.6v-.7l.5-.2c.2-.1.2-.3.3-.5v-3.4a10 10 0 0 1 0-1 36 36 0 0 1-1 0v-1h1.1c.3 0 .5 0 .6-.2l.4-.1h.6v.7l.7-.4.7-.3.7-.1c.9 0 1.5.2 1.8.7.4.5.6 1.3.6 2.4v2.1a13.5 13.5 0 0 1 0 1.1h.8v.9h-3.4v-.7l.6-.2.2-.5v-2.7c0-.7 0-1.2-.2-1.5-.2-.4-.6-.5-1-.5a2 2 0 0 0-.8.2c-.3 0-.5.2-.7.4v3.5a13.5 13.5 0 0 1 0 1.1h.9v.9h-3.4Zm11.4.2a3 3 0 0 1-.8 0l-.7-.4-.4-.8c-.2-.4-.2-.8-.2-1.4V170h-1v-1c.3 0 .6-.1.8-.3a2.7 2.7 0 0 0 1.1-1.7h.8v2h2v.9h-2v4.4l.4.6.5.2c.2 0 .4 0 .6-.2.3 0 .5-.3.7-.7l.6.6a3.4 3.4 0 0 1-1.4 1.2l-.6.2a4 4 0 0 1-.4 0Zm2.9-1 .6-.1.2-.5v-3.4a9.7 9.7 0 0 1 0-1h-.9v-1h1c.3 0 .5 0 .7-.2l.3-.1h.6v5.1a13.5 13.5 0 0 1 0 1.1h.9v.9h-3.4v-.7Zm1.6-7.5a1 1 0 0 1-.7-.3 1 1 0 0 1-.3-.8c0-.3.1-.5.3-.7.2-.2.4-.3.7-.3.3 0 .5 0 .7.3.2.2.3.4.3.7 0 .3-.1.6-.3.8a1 1 0 0 1-.7.3Zm6.2 8.5a3.3 3.3 0 0 1-3.5-3.5 3.5 3.5 0 0 1 1.8-3.4c.4-.4 1-.5 1.7-.5a4 4 0 0 1 1.8.4c.5.3 1 .7 1.2 1.3a4.3 4.3 0 0 1 0 4c-.3.5-.7 1-1.2 1.2-.5.4-1.1.5-1.8.5Zm0-.8c.5 0 .8-.2 1-.4.3-.3.4-.6.5-1a5.7 5.7 0 0 0 0-2.4 4 4 0 0 0-.2-1l-.6-.7a1 1 0 0 0-.7-.3c-.4 0-.8.1-1 .4a2 2 0 0 0-.5 1l-.2 1.3c0 .5 0 1 .2 1.5.1.4.3.8.6 1.1.2.3.6.5 1 .5Zm4.6.6v-.7l.5-.2c.2-.1.2-.3.3-.5v-3.4a10 10 0 0 1 0-1 36 36 0 0 1-1 0v-1h1.1c.3 0 .5 0 .6-.2l.4-.1h.6v.7l.7-.4.7-.3.7-.1c.9 0 1.5.2 1.8.7.4.5.6 1.3.6 2.4v2.1a13.5 13.5 0 0 1 0 1.1h.8v.9H272v-.7l.6-.2.2-.5v-2.7c0-.7 0-1.2-.2-1.5-.2-.4-.6-.5-1-.5a2 2 0 0 0-.8.2c-.3 0-.5.2-.7.4v3.5a13.5 13.5 0 0 1 0 1.1h.9v.9h-3.4Z" fill="#fff"/><rect x="326.3" y="144.3" width="101.5" height="39.5" rx="8.8" stroke="#fff" stroke-width="1.5"/><path d="M358.7 155.3a3 3 0 0 0-.8-1.8c-.4-.4-1-.7-1.7-.7-.5 0-1 .2-1.3.4a3 3 0 0 0-1 .9c-.3.3-.5.8-.6 1.3-.2.5-.2 1-.2 1.6 0 .8 0 1.6.4 2.2a4 4 0 0 0 1 1.5c.6.3 1.1.5 1.8.5a4 4 0 0 0 3.2-1.7l.6.6-1.4 1.3a4.9 4.9 0 0 1-2.8.8 5 5 0 0 1-2-.4c-.5-.2-1-.6-1.4-1a5 5 0 0 1-1.4-3.6l.3-1.9c.2-.6.5-1.2 1-1.7.4-.5.9-.9 1.5-1.2a4.7 4.7 0 0 1 3.4-.2c.5 0 .9.3 1.3.5v-.6h.9v3.2h-.8Zm5.6 7a4 4 0 0 1-1.8-.5 3.3 3.3 0 0 1-1.7-3.1 3.5 3.5 0 0 1 1.8-3.4c.5-.4 1-.5 1.7-.5s1.3.1 1.8.4c.5.3 1 .7 1.2 1.3.4.5.5 1.1.5 1.9 0 .7-.1 1.4-.4 2-.3.6-.8 1-1.3 1.3-.5.4-1.1.5-1.8.5Zm0-1c.5 0 .8 0 1-.3.3-.3.4-.6.5-1a5.7 5.7 0 0 0 0-2.4 4 4 0 0 0-.2-1l-.5-.7c-.2-.2-.5-.3-.8-.3-.4 0-.8.1-1 .4l-.5 1-.2 1.3c0 .5 0 1 .2 1.5.1.4.3.8.6 1.1.2.3.6.5 1 .5Zm4.6.7v-.7l.6-.2.2-.5v-3.4a10 10 0 0 1 0-1 36 36 0 0 1-.9 0v-1h1c.3 0 .5 0 .7-.2l.3-.1h.6v.7l.7-.4.8-.3.7-.1c.8 0 1.4.2 1.8.7.3.5.5 1.3.5 2.4v2.1a13.5 13.5 0 0 1 0 1.1h.9v.9h-3.4v-.7l.5-.2c.2-.1.2-.3.3-.5v-2.7c0-.7-.1-1.2-.3-1.5-.2-.4-.5-.5-1-.5a2 2 0 0 0-.8.2c-.3 0-.5.2-.7.4v3.5a13.5 13.5 0 0 1 0 1.1h.9v.9h-3.4Zm11.4.2a3 3 0 0 1-.8 0l-.7-.4-.4-.8-.2-1.4V156h-1v-1c.3 0 .6-.1.8-.3a2.7 2.7 0 0 0 1.1-1.7h.9v2h2v.9h-2v4.4c0 .3.2.4.3.6l.6.2.6-.2c.2 0 .4-.3.7-.7l.5.6a3.4 3.4 0 0 1-1.4 1.2l-.6.2a4 4 0 0 1-.4 0Zm6.3 0c-.7 0-1.3-.1-1.8-.4a3 3 0 0 1-1.2-1.3c-.3-.6-.5-1.2-.5-2 0-.6.2-1.3.5-1.8.2-.6.7-1 1.2-1.4.5-.3 1.1-.5 1.8-.5l1.2.1a2.6 2.6 0 0 1 1.6 1.6c.2.5.3 1 .3 1.6H385c0 .7 0 1.2.2 1.6.1.5.3.8.6 1 .3.3.8.5 1.3.5.2 0 .4 0 .7-.2l.7-.3.7-.6.5.5c-.3.4-.6.8-1 1l-1.1.5-1 .1Zm-1.6-4.8h3l-.2-1-.4-.6-.7-.2c-.5 0-.8.2-1.1.5-.3.3-.5.7-.6 1.3Zm5.6 4.6v-.7l.6-.4.6-.6 1.3-1.6a42.5 42.5 0 0 0-1.9-2.3l-.3-.5h-.5v-.9h3v.7c-.2 0-.4.1-.4.3 0 .2.1.4.4.7l.7.8.7-.9a37.8 37.8 0 0 1 .7-.8l-.8.1v-.9h2.4v.7a2.6 2.6 0 0 0-1 .7l-.5.6-1 1.2 1.8 2a9.7 9.7 0 0 1 .6 1l.5-.1v.9h-3v-.7l.4-.2c0-.2 0-.3-.2-.5l-1-1.2-.9 1a5.1 5.1 0 0 1-.6.7h.8v.9h-2.4Zm10.5.2a3 3 0 0 1-.8 0l-.7-.4-.5-.8-.1-1.4V156h-1v-1c.3 0 .5-.1.8-.3l.7-.7.4-1h.8v2h2v.9h-2v4.4l.4.6.5.2c.2 0 .4 0 .6-.2.3 0 .5-.3.7-.7l.6.6a3.4 3.4 0 0 1-1.4 1.2l-.7.2a4 4 0 0 1-.3 0ZM337.9 176v-.8l.6-.1.3-.4v-6.4a14.5 14.5 0 0 1 .1-1.2 42.1 42.1 0 0 1-1 0v-.9a126.5 126.5 0 0 1 5.8.3c.6.2 1 .5 1.4.9.3.4.4 1 .4 1.6 0 .4 0 .8-.2 1.1l-.8 1a4 4 0 0 1-1.5.7c.2 0 .3.2.5.4l.5.6.7 1.1.5.7.5.5.6.1v.8h-2.1l-.6-.6a12 12 0 0 1-.5-.8l-1-1.6a21 21 0 0 0-.7-1 6.9 6.9 0 0 1-.8 0v1.9a17.1 17.1 0 0 1 0 1.2h.3a7.2 7.2 0 0 1 .8 0v.9h-3.8Zm3.4-4.8c.6 0 1-.1 1.3-.3.4-.1.6-.4.8-.7.2-.3.3-.7.3-1.2l-.2-1-.5-.6a1 1 0 0 0-.7-.3H341c-.2.1-.3.2-.3.4v3.6h.6Zm9 5a4 4 0 0 1-1.9-.4c-.5-.3-.9-.8-1.2-1.3-.3-.6-.4-1.2-.4-2 0-.6.1-1.3.4-1.8.3-.6.7-1 1.2-1.4a3.8 3.8 0 0 1 3-.4 2.6 2.6 0 0 1 1.7 1.6c.2.5.3 1 .2 1.6h-4.7l.2 1.6c.2.5.4.8.7 1 .3.3.7.5 1.2.5.3 0 .5 0 .7-.2.3 0 .6-.2.8-.3l.7-.6.5.5c-.3.4-.6.8-1 1l-1.1.5-1 .1Zm-1.6-4.8h3l-.2-1-.5-.6-.6-.2c-.5 0-.9.2-1.2.5-.2.3-.4.7-.5 1.3Zm9 4.8c-.6 0-1.1-.1-1.7-.4-.5-.3-1-.7-1.2-1.2-.3-.6-.5-1.2-.5-2a4 4 0 0 1 1-2.6 3.5 3.5 0 0 1 2.7-1.2c.5 0 1 0 1.4.2.4.2.7.4.9.7.2.3.3.6.3 1 0 .2 0 .4-.2.6l-.6.3c-.4 0-.6-.1-.7-.3a1 1 0 0 1-.2-.5 1.1 1.1 0 0 1 .2-.6c0-.2-.2-.3-.3-.4l-.5-.2h-.4c-.5 0-1 .3-1.2.7-.4.4-.6 1.1-.6 2 0 .5.1 1 .3 1.4.1.4.3.8.6 1 .3.3.7.4 1.2.4.4 0 .8 0 1.2-.2l1-.9.5.5a4 4 0 0 1-1 1 3 3 0 0 1-1.1.6l-1 .1Zm7.5 0c-.7 0-1.3-.1-1.8-.4-.6-.3-1-.7-1.3-1.3-.3-.5-.5-1.1-.5-1.8 0-.8.2-1.5.5-2a3 3 0 0 1 1.3-1.4c.5-.4 1-.5 1.7-.5s1.3.1 1.8.4c.6.3 1 .7 1.3 1.3a4.3 4.3 0 0 1 0 4c-.3.5-.7 1-1.2 1.2a3 3 0 0 1-1.8.5Zm0-.8c.4 0 .8-.2 1-.4l.5-1a5.7 5.7 0 0 0 0-2.4 4 4 0 0 0-.3-1l-.5-.7c-.2-.2-.5-.3-.8-.3-.4 0-.7.1-1 .4l-.5 1-.1 1.3.1 1.5c.2.4.3.8.6 1.1.3.3.6.5 1 .5Zm7.7 4.4c-.9 0-1.5 0-2-.3-.5-.1-.8-.4-1-.7a1.5 1.5 0 0 1-.2-1.5l.5-.6.7-.4c-.4 0-.6-.2-.8-.5-.2-.2-.2-.4-.2-.7 0-.3 0-.5.3-.8.2-.3.6-.5 1-.7-.4-.1-.7-.4-1-.8-.2-.3-.3-.7-.3-1.2s0-1 .4-1.5a3 3 0 0 1 1.1-1 3.2 3.2 0 0 1 2.4-.2c.3 0 .6.2.8.3a2.8 2.8 0 0 1 1-1.3c.2-.2.5-.2.8-.2.3 0 .5 0 .6.2.2.1.3.3.3.6l-.1.3-.2.3-.5.2a.7.7 0 0 1-.7-.6l-.4.4-.2.5a2.4 2.4 0 0 1 .8 1.8c0 .5-.2 1-.5 1.4a3.3 3.3 0 0 1-3 1.3h-.5c-.2 0-.5 0-.6.2-.2 0-.3.2-.2.4 0 .2.2.3.5.3l1.4.2c.7 0 1.3.1 1.9.3.5 0 1 .3 1.2.6.3.3.4.7.4 1.3 0 .4 0 .7-.3 1-.2.3-.5.6-.9.8l-1.2.4-1.3.2Zm.2-.8c.7 0 1.3-.2 1.7-.4.3-.3.5-.6.5-.9 0-.2 0-.4-.3-.6a2 2 0 0 0-.7-.3l-1.2-.1a23.4 23.4 0 0 1-1.5-.1l-.4.5-.1.5c0 .4.1.8.5 1 .4.2.9.4 1.5.4Zm-.2-5.6c.3 0 .5-.1.7-.3l.5-.6.1-.8-.1-1c-.1-.4-.3-.6-.5-.8a1 1 0 0 0-.7-.3c-.4 0-.7.1-1 .5-.2.3-.3.7-.3 1.2l.1 1 .5.8c.2.2.5.3.7.3Zm4.6 2.6v-.7l.6-.2.2-.5v-3.4a11.1 11.1 0 0 1 0-1 35.2 35.2 0 0 1-.9 0v-1h1c.3 0 .5 0 .7-.2l.3-.1h.6v.7l.7-.4.8-.3.7-.1c.8 0 1.4.2 1.8.7.3.5.5 1.3.5 2.4v2.1a13.5 13.5 0 0 1 0 1.1h.9v.9H382v-.7l.5-.2c.2-.1.2-.3.3-.5v-2.7c0-.7-.1-1.2-.3-1.5-.2-.4-.5-.5-1-.5a2 2 0 0 0-.8.2c-.2 0-.5.2-.6.4v3.5a13.5 13.5 0 0 1-.1 1.1h.9v.9h-3.4Zm8.8-.7.5-.2c.2-.1.2-.3.3-.5v-3.4a9.7 9.7 0 0 1 0-1h-.9v-1h1c.3 0 .5 0 .7-.2l.3-.1h.6v5.1a13.5 13.5 0 0 1 0 1.1h.9v.9h-3.4v-.7Zm1.6-7.6a1 1 0 0 1-.7-.3 1 1 0 0 1-.3-.8c0-.3.1-.5.3-.7.2-.2.4-.3.7-.3.3 0 .5 0 .7.3l.2.7c0 .3 0 .6-.2.8a1 1 0 0 1-.7.3Zm5.5 8.5a3 3 0 0 1-.8 0l-.7-.4-.4-.8c-.2-.4-.2-.8-.2-1.4V170h-1v-1c.3 0 .6-.1.8-.3l.7-.7.4-1h.9v2h2v.9h-2v4.4c0 .3.2.4.3.6l.5.2c.2 0 .4 0 .7-.2.2 0 .4-.3.6-.7l.6.6a3.4 3.4 0 0 1-1.4 1.2l-.6.2a4 4 0 0 1-.4 0Zm3-1 .5-.1.2-.5v-3.4a10.8 10.8 0 0 1 .1-1h-1v-1h1c.3 0 .6 0 .7-.2l.3-.1h.7v5.1a11.9 11.9 0 0 1 0 1.1h.8v.9h-3.4v-.7Zm1.5-7.5a1 1 0 0 1-.7-.3 1 1 0 0 1-.2-.8c0-.3 0-.5.2-.7.2-.2.5-.3.7-.3.3 0 .5 0 .7.3.2.2.3.4.3.7 0 .3-.1.6-.3.8a1 1 0 0 1-.7.3Zm6.2 8.5a4 4 0 0 1-1.8-.4 3.4 3.4 0 0 1-1.7-3.1 3.5 3.5 0 0 1 1.8-3.4c.5-.4 1-.5 1.7-.5s1.3.1 1.8.4c.5.3 1 .7 1.2 1.3.4.5.5 1.1.5 1.9 0 .7-.1 1.4-.4 2-.3.6-.8 1-1.3 1.3-.5.4-1.1.5-1.8.5Zm0-.8c.5 0 .8-.2 1-.4.3-.3.4-.6.5-1a5.7 5.7 0 0 0 0-2.4 4 4 0 0 0-.2-1l-.5-.7c-.2-.2-.5-.3-.8-.3-.4 0-.8.1-1 .4l-.5 1-.2 1.3c0 .5 0 1 .2 1.5.1.4.3.8.6 1.1.2.3.6.5 1 .5Zm4.6.6v-.7l.6-.2.2-.5v-3.4a10 10 0 0 1 0-1 36 36 0 0 1-1 0v-1h1.1c.3 0 .5 0 .7-.2l.3-.1h.6v.7l.7-.4.8-.3.7-.1c.8 0 1.4.2 1.8.7.3.5.5 1.3.5 2.4v2.1a13.5 13.5 0 0 1 0 1.1h.9v.9h-3.4v-.7l.5-.2c.2-.1.2-.3.3-.5v-2.7c0-.7-.1-1.2-.3-1.5-.2-.4-.5-.5-1-.5a2 2 0 0 0-.8.2c-.3 0-.5.2-.7.4v3.5a13.5 13.5 0 0 1 0 1.1h.9v.9h-3.4Z" fill="#fff"/><rect x="468.5" y="68.5" width="39" height="127" rx="3.5" stroke="#fff" stroke-dasharray="2 2"/><rect x="472" y="72" width="32" height="32" rx="16" stroke="#fff" stroke-width="1.5"/><path d="M487.6 87.2c0-.4-.1-.7-.3-1-.1-.3-.4-.5-.6-.7l-1-.2-.9.3a1 1 0 0 0-.3.8c0 .2 0 .4.2.6.1.2.3.4.6.5l1 .5a12.5 12.5 0 0 1 1.6.9l.6.7.2.9c0 .4 0 .8-.3 1.1-.2.4-.6.6-1 .8-.4.2-.9.3-1.4.3a3.7 3.7 0 0 1-2-.6v.5h-.7v-2.5h.6c.1.6.4 1.1.7 1.4a2 2 0 0 0 2.1.4l.5-.5c.2-.1.2-.3.2-.6 0-.2 0-.5-.2-.7l-.7-.4a18.8 18.8 0 0 0-1.8-.9l-.8-.5-.5-.7a2.2 2.2 0 0 1 .3-2.3l.8-.5a3 3 0 0 1 1.2-.2c.3 0 .6 0 1 .2.3 0 .6.2.8.4v-.5h.8v2.5h-.7Zm3.6 7.4c-.3 0-.6 0-.8-.2l-.6-.6-.3-.8v-1.6l.4-.8c.1-.3.3-.5.6-.6.2-.2.5-.2.8-.2.3 0 .6 0 .8.2.2.1.4.3.5.6.2.2.3.5.3.7a3.7 3.7 0 0 1 0 1.7c0 .3-.1.6-.3.8l-.6.6-.8.2Zm0-.5.5-.1.2-.4.1-.6a7 7 0 0 0-.1-2.1l-.2-.5a.5.5 0 0 0-.5-.2c-.1 0-.2 0-.3.2a1 1 0 0 0-.3.4l-.1.6a6 6 0 0 0 .1 2.3l.3.3.4.1Z" fill="#fff"/><rect x="472" y="108" width="32" height="32" rx="16" stroke="#fff" stroke-width="1.5"/><path d="M488.4 123.2c0-.4-.2-.7-.3-1l-.7-.7-1-.2c-.3 0-.6.1-.8.3a1 1 0 0 0-.4.8c0 .2 0 .4.2.6l.7.5 1 .5a12 12 0 0 1 1.6.9l.5.7c.2.2.3.5.3.9s-.1.8-.4 1.1c-.2.4-.5.6-1 .8a3.5 3.5 0 0 1-2.3.1c-.4 0-.7-.2-1-.4v.5h-.7v-2.5h.6c0 .6.3 1.1.7 1.4a2 2 0 0 0 2.1.4l.5-.5.2-.6a1 1 0 0 0-.3-.7l-.7-.4a18.6 18.6 0 0 0-1.7-.9l-.8-.5-.5-.7a2.2 2.2 0 0 1 .3-2.3l.7-.5a3 3 0 0 1 1.2-.2c.3 0 .6 0 1 .2.3 0 .6.2.9.4v-.5h.7v2.5h-.6Zm2 7.3v-.4h.3l.1-.2v-3.1l-.6.5-.3-.4 1.5-1.1h.4v3.6a7.6 7.6 0 0 1 0 .6h.5v.5h-1.9Zm-3.7 24.2c0-.3.1-.6.4-.9.2-.3.5-.4.9-.4.3 0 .6.1.9.4.3.2.4.5.4.9 0 .3-.1.7-.4 1-.2.2-.5.3-.9.3s-.7-.1-1-.4c-.2-.2-.3-.5-.3-.9Zm0-9.4c0-.4.1-.7.4-1 .2-.2.5-.3.9-.3l.9.3c.3.3.4.6.4 1 0 .3-.1.6-.4.9-.2.3-.5.4-.9.4s-.7-.1-1-.4c-.2-.2-.3-.5-.3-1Zm.3 3.7c-.2.2-.3.5-.3.9s.1.7.4 1c.2.2.5.3 1 .3.3 0 .6-.1.8-.4a1.3 1.3 0 0 0 0-1.9c-.3-.2-.6-.3-1-.3a1 1 0 0 0-.8.4Z" fill="#fff"/><path d="M486.7 154.7c0-.3.1-.6.4-.9.2-.3.5-.4.9-.4.3 0 .6.1.9.4.3.2.4.5.4.9 0 .3-.1.7-.4 1-.2.2-.5.3-.9.3s-.7-.1-1-.4c-.2-.2-.3-.5-.3-.9Zm0-9.4c0-.4.1-.7.4-1 .2-.2.5-.3.9-.3l.9.3c.3.3.4.6.4 1 0 .3-.1.6-.4.9-.2.3-.5.4-.9.4s-.7-.1-1-.4c-.2-.2-.3-.5-.3-1Zm.3 3.7c-.2.2-.3.5-.3.9s.1.7.4 1c.2.2.5.3 1 .3.3 0 .6-.1.8-.4a1.3 1.3 0 0 0 0-1.9c-.3-.2-.6-.3-1-.3a1 1 0 0 0-.8.4Z" stroke="#fff"/><rect x="472" y="160" width="32" height="32" rx="16" stroke="#fff" stroke-width="1.5"/><path d="m484.2 175.2-.4-1c-.1-.3-.3-.5-.6-.7l-1-.2-.9.3a1 1 0 0 0-.3.8c0 .2 0 .4.2.6.1.2.3.4.6.5l1 .5a12 12 0 0 1 1.6.9c.3.2.5.4.6.7.2.2.2.5.2.9s0 .8-.3 1.1c-.2.4-.5.6-1 .8-.4.2-.9.3-1.4.3a3.7 3.7 0 0 1-2-.6l.1.5h-.7v-2.5h.6c0 .6.3 1.1.6 1.4a2 2 0 0 0 2.1.4l.5-.5c.2-.1.2-.3.2-.6 0-.2 0-.5-.2-.7l-.7-.4a18.2 18.2 0 0 0-1.8-.9l-.8-.5-.5-.7a2.2 2.2 0 0 1 0-1.6l.3-.7.8-.5a3 3 0 0 1 1.2-.2c.3 0 .6 0 1 .2.3 0 .6.2.9.4v-.5h.7v2.5h-.6Zm5.3 7.4-2.1-2.7-.2-.3-.2-.2v2a7.6 7.6 0 0 1 0 .6h.5v.5H486v-.4h.2l.2-.2V179a7.6 7.6 0 0 1 0-.6h-.4v-.5h1l2 2.5a7.2 7.2 0 0 1 .5.7V179a9.4 9.4 0 0 1 0-.6h-.5v-.5h1.5v.4a1 1 0 0 0-.2 0l-.2.2v4.1h-.6Zm1.7-1.8v-.7h2.4v.7h-2.4Zm3.5 1.7v-.4h.2l.2-.2v-3.1l-.7.5-.2-.4 1.5-1.1h.4v3.6a9.5 9.5 0 0 1 0 .6h.5v.5h-2Z" fill="#fff"/><rect x="22.3" y="38.3" width="83.5" height="39.5" rx="8.8" stroke="#fff" stroke-width="1.5"/><path d="M42.4 56v-.8c.3 0 .5 0 .7-.2l.4-.6.3-.9 2.8-7.6h.7l3 7.8a27.7 27.7 0 0 1 .4 1.4 125.5 125.5 0 0 0 .9 0v.9H48v-.8c.3 0 .5 0 .6-.2.1 0 .2-.2.1-.4V54l-.4-1H45l-.3 1a60.2 60.2 0 0 1-.4 1 69.4 69.4 0 0 1 1 0v1h-2.9Zm3-3.8h2.5l-.7-2a38.2 38.2 0 0 1-.6-2 45.6 45.6 0 0 0-.5 1.8l-.8 2.2Zm10 4c-.6 0-1.2-.1-1.7-.4a3 3 0 0 1-1.3-1.2c-.3-.6-.5-1.2-.5-2a4 4 0 0 1 1-2.6 3.5 3.5 0 0 1 2.7-1.2c.6 0 1 0 1.4.2l1 .7.2 1c0 .2 0 .4-.2.6-.1.2-.3.3-.6.3s-.5-.1-.7-.3a1 1 0 0 1-.1-.5 1.1 1.1 0 0 1 .1-.6c0-.2-.1-.3-.3-.4l-.5-.2h-.3c-.5 0-1 .3-1.3.7-.3.5-.5 1.1-.5 2 0 .5 0 1 .2 1.4.2.4.4.8.7 1 .3.3.7.4 1.1.4.4 0 .8 0 1.2-.2l1-.9.5.5a4 4 0 0 1-1 1c-.3.3-.7.5-1 .6l-1.1.1Zm6.7 0a3 3 0 0 1-.8 0l-.7-.4-.4-.8c-.2-.4-.2-.8-.2-1.4V50h-1v-1c.3 0 .6-.1.8-.3A2.7 2.7 0 0 0 61 47h.9v2h2v.9h-2v4.4c0 .3.2.4.3.6l.5.2c.2 0 .4 0 .7-.2.2 0 .4-.3.7-.6l.5.5a3.4 3.4 0 0 1-1.4 1.2l-.6.2H62Zm3-1 .5-.1.2-.5v-3.4a10.3 10.3 0 0 1 .1-1 59.5 59.5 0 0 1-1 0v-1h1c.3 0 .6 0 .7-.2l.3-.1h.7V54a13 13 0 0 1 0 1.1h.8v.9H65v-.7Zm1.5-7.5a1 1 0 0 1-.7-.3 1 1 0 0 1-.2-.8c0-.3 0-.5.2-.7.2-.2.5-.3.7-.3.3 0 .5 0 .7.3.2.2.3.4.3.7 0 .3-.1.6-.3.8a1 1 0 0 1-.7.3Zm6.2 8.5a4 4 0 0 1-1.8-.4 3.4 3.4 0 0 1-1.7-3.1 3.5 3.5 0 0 1 1.8-3.4c.5-.4 1-.5 1.7-.5s1.3.1 1.8.4c.5.3 1 .7 1.2 1.3.4.5.5 1.1.5 1.9 0 .7-.1 1.4-.4 2-.3.6-.8 1-1.3 1.3-.5.4-1.1.5-1.8.5Zm0-.8c.5 0 .8-.2 1-.4.3-.3.4-.6.5-1a5.7 5.7 0 0 0 0-2.4 4 4 0 0 0-.2-1l-.5-.7c-.2-.2-.5-.3-.8-.3-.4 0-.8.1-1 .4l-.5 1-.2 1.3c0 .5 0 1 .2 1.5.1.4.3.8.6 1.1.2.3.6.5 1 .5Zm4.6.6v-.7l.6-.2.2-.5v-3.4a10.7 10.7 0 0 1 0-1 35.4 35.4 0 0 1-1 0v-1h1.1c.3 0 .5 0 .7-.2l.3-.1h.6v.7l.7-.4.8-.3.7-.1c.8 0 1.4.2 1.8.7.3.5.5 1.3.5 2.4V54a13 13 0 0 1 0 1.1h.9v.9h-3.4v-.7l.5-.2c.2-.1.2-.3.3-.5v-2.7c0-.7-.1-1.2-.3-1.5-.2-.4-.5-.5-1-.5a2.1 2.1 0 0 0-1.5.7V54a13 13 0 0 1 0 1.1h.9v.9h-3.4Zm-37.9 7.3c0-.5-.2-1-.4-1.3-.2-.4-.4-.7-.8-.9-.3-.2-.7-.3-1.2-.3s-.9.2-1.2.4c-.3.3-.4.6-.4 1 0 .3 0 .6.3.8.1.2.4.5.8.7l1.2.5a15.8 15.8 0 0 1 2 1.2c.4.2.6.5.8.9.2.3.3.7.3 1.2s-.1 1-.4 1.4a4 4 0 0 1-1.2 1c-.5.2-1.2.3-1.9.3a4.7 4.7 0 0 1-2.4-.7v.6h-1V67h.8c.1.8.4 1.4 1 1.9a2.7 2.7 0 0 0 2.6.4l.6-.5c.2-.3.3-.5.3-.8 0-.4-.2-.7-.4-.9a3 3 0 0 0-.8-.6 23.3 23.3 0 0 0-2.3-1l-1-.7-.7-1a2.8 2.8 0 0 1 .5-2.8c.2-.3.5-.5 1-.7L37 60l1.2.1c.5.1.9.3 1.2.6V60h1v3.2h-.9Zm5.9 7c-.7 0-1.3-.2-1.8-.5s-1-.8-1.2-1.3c-.3-.6-.5-1.2-.5-2 0-.6.2-1.3.5-1.8.3-.6.7-1 1.2-1.4.5-.3 1.1-.5 1.8-.5l1.2.1a2.6 2.6 0 0 1 1.6 1.6c.2.5.3 1 .3 1.6h-4.7c0 .7 0 1.2.2 1.6.1.5.3.8.6 1 .4.3.8.5 1.3.5.2 0 .4 0 .7-.2l.7-.3.7-.6.6.5-1 1-1.2.5-1 .1Zm-1.6-5h3l-.2-.9-.4-.6-.7-.2c-.5 0-.8.2-1.1.5-.3.3-.5.7-.6 1.3Zm5.6 4 .6-.2.2-.5v-6.7a10.3 10.3 0 0 1 0-1.2 59.5 59.5 0 0 1-1 0v-.9h1.1l.7-.2.3-.2h.6V68a13 13 0 0 1 0 1.1h.9v.9h-3.4v-.7Zm7.7 1c-.7 0-1.3-.2-1.8-.5s-1-.8-1.2-1.3c-.3-.6-.4-1.2-.4-2 0-.6.1-1.3.4-1.8.3-.6.7-1 1.2-1.4a3.8 3.8 0 0 1 3-.4 2.6 2.6 0 0 1 1.7 1.6l.2 1.6h-4.7c0 .7 0 1.2.2 1.6.1.5.4.8.7 1 .3.3.7.5 1.2.5.2 0 .5 0 .7-.2.3 0 .5-.2.8-.3l.7-.6.5.5-1 1-1.2.5-1 .1Zm-1.5-5h2.9c0-.3 0-.6-.2-.9 0-.2-.2-.4-.4-.6l-.7-.2c-.4 0-.8.2-1 .5-.4.3-.5.7-.6 1.3Zm9 5c-.6 0-1.2-.2-1.7-.5s-1-.7-1.3-1.2c-.3-.6-.4-1.2-.4-2a4 4 0 0 1 1-2.6 3.5 3.5 0 0 1 2.6-1.2c.6 0 1 0 1.5.2.4.2.7.4.9.7.2.3.3.6.3 1l-.3.6c-.1.2-.3.3-.6.3s-.5-.1-.6-.3a1 1 0 0 1-.2-.5 1.1 1.1 0 0 1 .2-.6l-.4-.4-.4-.2h-.4c-.5 0-1 .3-1.3.7-.3.5-.5 1.1-.5 2 0 .5 0 1 .2 1.4.2.4.4.8.7 1 .3.3.7.4 1.1.4.5 0 .9 0 1.2-.2l1-.9.5.5a4 4 0 0 1-1 1c-.3.3-.7.5-1 .6l-1 .1Zm6.7 0a3 3 0 0 1-.8-.2l-.6-.3-.5-.8-.2-1.4V64h-1v-1l.9-.3a2.7 2.7 0 0 0 1-1.7h.9v2h2v.9h-2v4.4c0 .3.2.4.3.6l.6.2.6-.2c.2 0 .4-.3.7-.7l.5.6a3.4 3.4 0 0 1-1.4 1.2l-.6.2h-.4Zm3-1 .5-.2.2-.5v-3.4a10.5 10.5 0 0 1 .1-1 59 59 0 0 1-1 0v-1h1c.4 0 .6 0 .7-.2l.4-.1h.6V68a12.8 12.8 0 0 1 0 1.1h.8v.9h-3.4v-.7Zm1.6-7.6a1 1 0 0 1-.7-.3 1 1 0 0 1-.3-.8c0-.3 0-.5.3-.7.2-.2.4-.3.7-.3.2 0 .4 0 .6.3.2.2.3.4.3.7 0 .3 0 .6-.3.8-.1.2-.4.3-.6.3Zm6.1 8.5a4 4 0 0 1-1.8-.4 3.4 3.4 0 0 1-1.7-3.1c0-.8.1-1.5.5-2 .3-.7.7-1.1 1.2-1.4a3 3 0 0 1 1.8-.5c.7 0 1.3.1 1.8.4a3.6 3.6 0 0 1 1.7 3.1 4 4 0 0 1-.4 2c-.3.7-.7 1.1-1.3 1.4-.5.4-1 .5-1.8.5Zm.1-.8c.4 0 .8-.2 1-.4.2-.3.4-.6.4-1a5.7 5.7 0 0 0 0-2.4 4 4 0 0 0-.2-1l-.5-.7c-.2-.2-.5-.3-.8-.3-.4 0-.7.1-1 .4l-.5 1-.2 1.3.2 1.5c.1.4.3.8.6 1.1.3.3.6.5 1 .5Zm4.5.6v-.7l.6-.2.2-.5v-3.4a10.7 10.7 0 0 1 .1-1 35.4 35.4 0 0 1-1 0v-1h1c.3 0 .5 0 .7-.2l.3-.1h.6v.7l.7-.4.8-.3.7-.1c.8 0 1.4.2 1.8.7.3.5.5 1.3.5 2.4V68a13 13 0 0 1 0 1.1h.9v.9H91v-.7l.6-.2.2-.5v-2.7c0-.7-.1-1.2-.3-1.5-.2-.4-.5-.5-1-.5a2.1 2.1 0 0 0-1.5.7V68a13 13 0 0 1 0 1.1h.9v.9h-3.4ZM173 58l-7.5-4.3v8.6L173 58Zm-68 .8h61.3v-1.5H105v1.5Z" fill="#fff"/><rect x="173.8" y="38.3" width="108.5" height="39.5" rx="8.8" stroke="#fff" stroke-width="1.5"/><path d="M190.1 59.5c0-.4 0-.6-.2-.8a.7.7 0 0 0-.5-.3h-1.3v2.5a15.2 15.2 0 0 1 0 1.2h2c.4 0 .7 0 1-.2.2-.1.5-.3.6-.6.2-.3.3-.7.3-1.3h.7v3h-7.4v-.8l.6-.1c.2 0 .3-.2.3-.4l.1-.9v-5.5a16 16 0 0 1 0-1.2 40.4 40.4 0 0 1-1 0v-.9h7v2.6h-.7c0-.5-.1-.9-.3-1.2l-.7-.5-.8-.1h-.7l-.6.1c-.2 0-.3.2-.3.4l-.1.9v2.1h2l-.1-1.2h.9v3.2h-.8ZM194 63v-.7l.6-.2.2-.5v-3.4a11 11 0 0 1 0-1 35.2 35.2 0 0 1-1 0v-1h1.1c.3 0 .5 0 .6-.2l.4-.1h.6v.7l.7-.4.7-.3.7-.1c.9 0 1.5.2 1.8.7.4.5.6 1.3.6 2.4V61a13.5 13.5 0 0 1 0 1.1h.8v.9h-3.4v-.7l.6-.2.2-.5v-2.7c0-.7 0-1.2-.2-1.5-.2-.4-.6-.5-1-.5a2.1 2.1 0 0 0-1.5.7V61a13.5 13.5 0 0 1 0 1.1h.9v.9H194Zm11.2 0-2.2-4.7a10.5 10.5 0 0 1-.4-1.1v-.3h-.6V56h3v.7l-.4.2v.5c0 .2 0 .4.2.6l.8 2a17.5 17.5 0 0 1 .4 1l.2-.5.2-.5.8-2.2a5.3 5.3 0 0 1 .5-1l-1 .1V56h2.6v.7l-.6.3-.4.7-.3.8-2 4.5h-1Zm4.7-.7.6-.2.2-.5v-3.4a10.8 10.8 0 0 1 .1-1 57.2 57.2 0 0 1-1 0v-1h1c.3 0 .6 0 .7-.2l.3-.1h.7V61a11.9 11.9 0 0 1 0 1.1h.8v.9h-3.4v-.7Zm1.6-7.6a1 1 0 0 1-.7-.3 1 1 0 0 1-.2-.8c0-.3 0-.5.2-.7.2-.2.5-.3.7-.3.3 0 .5 0 .7.3.2.2.3.4.3.7 0 .3-.1.6-.3.8a1 1 0 0 1-.7.3Zm2.8 7.6.6-.2.2-.5v-3.4a10 10 0 0 1 0-1 61.5 61.5 0 0 1-1 0v-1h1.6l.5-.3h.6V57l.7-.7.7-.5.8-.1c.3 0 .5 0 .8.2.2.2.3.5.3.8v.4a.8.8 0 0 1-.9.5 1 1 0 0 1-.5-.2c-.2 0-.3-.3-.3-.6a1 1 0 0 0-.6.2 2.8 2.8 0 0 0-1 1.2V61a13.5 13.5 0 0 1 0 1.1h.9v.9h-3.4v-.7Zm9.8 1c-.6 0-1.3-.2-1.8-.5a3.3 3.3 0 0 1-1.7-3.1 3.6 3.6 0 0 1 1.8-3.4c.4-.4 1-.5 1.7-.5a4 4 0 0 1 1.8.4c.5.3 1 .7 1.2 1.3.4.5.5 1.1.5 1.9 0 .7-.1 1.4-.4 2-.3.6-.8 1-1.3 1.3-.5.4-1.1.5-1.8.5Zm0-1c.5 0 .8 0 1-.3.3-.3.4-.6.5-1a5.6 5.6 0 0 0 0-2.4 4 4 0 0 0-.2-1l-.5-.7c-.3-.2-.5-.3-.8-.3-.4 0-.8.1-1 .4a2 2 0 0 0-.5 1l-.2 1.3c0 .5 0 1 .2 1.5.1.4.3.8.6 1.1.2.3.6.5 1 .5Zm4.6.7v-.7l.6-.2.2-.5v-3.4a11 11 0 0 1 0-1 35.2 35.2 0 0 1-1 0v-1h1.1c.3 0 .5 0 .6-.2l.4-.1h.6v.7l.7-.4.7-.3.7-.1c.9 0 1.5.2 1.8.7.4.5.6 1.3.6 2.4V61a13.5 13.5 0 0 1 0 1.1h.8v.9H233v-.7l.6-.2.2-.5v-2.7c0-.7 0-1.2-.2-1.5-.2-.4-.6-.5-1-.5a2.1 2.1 0 0 0-1.5.7V61a13.5 13.5 0 0 1 0 1.1h.9v.9h-3.4Zm8.7 0v-.7l.6-.2.2-.5v-3.4a11 11 0 0 1 .1-1 59.3 59.3 0 0 1-1 0v-1h1c.4 0 .6 0 .7-.2l.3-.1h.6v.7a3.9 3.9 0 0 1 2.2-.8c.4 0 .8 0 1 .2.3.2.6.4.7.7l1.1-.7a3 3 0 0 1 1.2-.2c.8 0 1.4.2 1.8.7.4.4.6 1.2.5 2.3V61a13.5 13.5 0 0 1 0 1.1h.9v.9H246v-.7l.5-.2.2-.5v-2.8c0-.7 0-1.2-.3-1.5a1 1 0 0 0-1-.4l-.7.1-.6.4.1.6v1.8a50.7 50.7 0 0 1 0 2.3h.9v.9h-3.4v-.7c.3 0 .4-.1.5-.2.2-.1.2-.3.3-.5v-2.9c0-.6-.1-1.1-.3-1.4a1 1 0 0 0-.9-.4l-.7.1-.6.4V61a13.5 13.5 0 0 1 0 1.1h.8v.9h-3.4Zm16.1.2a3.3 3.3 0 0 1-3-1.7c-.3-.6-.4-1.2-.4-2 0-.6.1-1.3.4-1.8a3.5 3.5 0 0 1 3.1-1.9l1.1.1a2.6 2.6 0 0 1 1.7 1.6c.2.5.3 1 .3 1.6H252l.1 1.6c.2.5.4.8.7 1 .3.3.7.5 1.2.5.3 0 .5 0 .8-.2l.7-.3.7-.6.5.5c-.3.4-.6.8-1 1l-1.1.5-1 .1Zm-1.5-4.8h3l-.2-1-.5-.6-.6-.2c-.5 0-.9.2-1.1.5-.3.3-.5.7-.6 1.3Zm5.7 4.6v-.7l.6-.2.2-.5v-3.4a10 10 0 0 1 .1-1 36 36 0 0 1-1 0v-1h1c.4 0 .6 0 .7-.2l.3-.1h.6v.4l.1.3.7-.4.7-.3.7-.1c.8 0 1.5.2 1.8.7.4.5.6 1.3.6 2.4V61a13.5 13.5 0 0 1 0 1.1h.8v.9h-3.4v-.7l.6-.2.2-.5v-2.7c0-.7 0-1.2-.3-1.5-.2-.4-.5-.5-1-.5a2 2 0 0 0-.7.2c-.3 0-.5.2-.7.4V61a13.5 13.5 0 0 1 0 1.1h.8v.9h-3.4Zm11.4.2a3 3 0 0 1-.7 0l-.7-.4-.5-.8-.2-1.4V57h-1v-1c.4 0 .6-.1.9-.3a2.7 2.7 0 0 0 1-1.7h1v2h1.9v.9h-2v4.4l.3.6.6.2c.2 0 .4 0 .6-.2.2 0 .5-.3.7-.6l.6.5A3.4 3.4 0 0 1 270 63l-.6.2h-.4Z" fill="#fff"/><rect x="391.3" y="38.3" width="69.5" height="39.5" rx="8.8" stroke="#fff" stroke-width="1.5"/><path d="M415.2 49.3c0-.5-.2-1-.4-1.3-.2-.4-.5-.7-.8-.9l-1.2-.3c-.5 0-.9.2-1.2.4-.3.3-.4.6-.4 1 0 .3 0 .6.2.8l.8.7 1.3.5a15.7 15.7 0 0 1 2 1.2c.3.2.6.5.8.9a2.4 2.4 0 0 1-.2 2.6c-.2.4-.6.7-1.2 1-.5.2-1.1.3-1.8.3a4.7 4.7 0 0 1-2.5-.7v.6h-.9V53h.8c.1.8.4 1.4.9 1.9a2.7 2.7 0 0 0 2.7.4l.6-.5.2-.8c0-.4 0-.7-.3-.9a3 3 0 0 0-.9-.6 23.3 23.3 0 0 0-2.2-1l-1-.7-.7-1a2.8 2.8 0 0 1 .4-2.8l1-.7 1.5-.2 1.2.1c.5.1.8.3 1.2.6V46h.9v3.2h-.8Zm5.1 7a3 3 0 0 1-.7-.2c-.3 0-.5-.2-.7-.3l-.5-.8-.2-1.4V50h-1v-1c.4 0 .6-.1.9-.3l.7-.7.4-1h.8v2h2v.9h-2v4.4l.3.6.6.2c.2 0 .4 0 .6-.2.2 0 .5-.3.7-.6l.6.5a3.4 3.4 0 0 1-1.5 1.2l-.6.2h-.4Zm7-.3a3.6 3.6 0 0 1 0-.7c-.4.3-.7.6-1.1.7l-1.1.2c-.6 0-1.1-.1-1.5-.5-.3-.3-.5-.8-.5-1.3 0-.4.1-.8.4-1.1a2 2 0 0 1 1-.8l1.2-.4 1.5-.2V51l-.1-.7a1 1 0 0 0-.4-.6l-.7-.2a2 2 0 0 0-.6.2 1 1 0 0 0-.5.3l.2.3v.3c0 .1 0 .3-.2.5-.1.2-.4.2-.6.2a.8.8 0 0 1-.6-.2 1 1 0 0 1-.2-.6c0-.4.1-.7.3-1l1.1-.6 1.5-.2c.8 0 1.4.2 1.8.6.4.4.7 1.1.6 2V54a13.3 13.3 0 0 1 0 1.1h.9v.9h-2.4Zm-.2-3.3a4.1 4.1 0 0 0-1.5.4l-.5.5a1 1 0 0 0-.2.6c0 .3.1.5.3.7l.6.1.7-.1.6-.5v-1.7Zm6.1 3.5a3 3 0 0 1-.7 0l-.7-.4-.5-.8-.2-1.4V50h-1v-1l.9-.3a2.7 2.7 0 0 0 1-1.7h1l-.1 2h2v.9h-2v4.4l.3.6.6.2c.2 0 .4 0 .6-.2.2 0 .5-.3.7-.6l.6.5a3.4 3.4 0 0 1-1.5 1.2l-.6.2h-.4Zm6.3 0c-.7 0-1.3-.1-1.8-.4a3 3 0 0 1-1.2-1.3c-.3-.6-.4-1.2-.4-2 0-.6.1-1.3.4-1.8.3-.6.7-1 1.2-1.4a3.8 3.8 0 0 1 3-.4 2.6 2.6 0 0 1 1.7 1.6l.2 1.6H438c0 .7 0 1.2.2 1.6.2.5.4.8.7 1 .3.3.7.5 1.2.5.2 0 .5 0 .7-.2.3 0 .5-.2.8-.3l.7-.6.5.5-1 1-1.2.5-1 .1Zm-1.5-4.8h2.9c0-.4 0-.7-.2-1 0-.2-.2-.4-.4-.6l-.7-.2c-.4 0-.8.2-1 .5-.4.3-.5.7-.6 1.3ZM406.3 61l-.6.1-.3.4v4.4l.1 1.5.5 1c.2.3.4.5.7.6.3.2.7.2 1.1.2.6 0 1 0 1.4-.3.4-.3.7-.6.9-1.1.2-.5.3-1 .3-1.8v-3.7a14.5 14.5 0 0 1 0-1.2 42.1 42.1 0 0 1-1 0v-.9h3v.8l-.5.1c-.2 0-.3.2-.3.4l-.1.9v3.4c0 .7-.1 1.4-.3 2-.2.5-.4 1-.8 1.3a2 2 0 0 1-1.2.8 5.1 5.1 0 0 1-3.6 0 3 3 0 0 1-1.2-1 4 4 0 0 1-.6-1.4c-.2-.5-.2-1.1-.2-1.8v-3.2a19.7 19.7 0 0 1 0-1.4 42.1 42.1 0 0 1-1 0v-.9h3.7v.8Zm6.7 12.6v-.8c.3 0 .5 0 .6-.2l.2-.4v-.8l.1-6.2v-1.1a48.5 48.5 0 0 1-1 0v-.8h1.1l.6-.3.3-.1h.6v.3l.1.4a3 3 0 0 1 1-.6c.3-.2.7-.2 1-.2.5 0 1 .1 1.5.4.4.3.8.7 1 1.2.3.6.4 1.2.4 1.9a4.2 4.2 0 0 1-1.7 3.4 3.3 3.3 0 0 1-3.2.2v1.7a12.5 12.5 0 0 1 0 1.1h.8v.9H413Zm3.8-4.3c.5 0 .8-.1 1-.3l.7-1a5.1 5.1 0 0 0 0-2.8c-.2-.4-.3-.7-.6-1-.2-.2-.6-.4-1-.4a1.7 1.7 0 0 0-1.3.7V69l.6.2.6.1Zm7.6 1a3 3 0 0 1-2.5-1.7c-.3-.6-.4-1.2-.4-2 0-.7.1-1.3.4-2 .3-.5.7-1 1.3-1.3a3.4 3.4 0 0 1 2.5-.4l.7.2v-2.4a35.2 35.2 0 0 1-1 0v-.9h1l.7-.2c.2 0 .3-.1.3-.2h.7V68a11.6 11.6 0 0 1 0 1.1h.9v.9h-2.5a39.2 39.2 0 0 0 0-.7l-1 .7-1.1.2Zm.6-1.2c.3 0 .5 0 .8-.2l.6-.5V64l-.6-.3h-.6c-.4 0-.8 0-1 .4-.4.2-.6.6-.7 1l-.2 1.4.2 1.3c.1.4.3.7.6 1 .2.2.5.3 1 .3Zm9 .9a3.6 3.6 0 0 1-.1-.7l-1 .7-1.1.2c-.7 0-1.2-.1-1.5-.5-.4-.3-.5-.8-.5-1.3 0-.4.1-.8.3-1.1l1-.8 1.3-.4 1.4-.2v-1.5a1 1 0 0 0-.4-.6l-.7-.2a2 2 0 0 0-.6.2 1 1 0 0 0-.5.3l.1.3v.3c0 .1 0 .3-.2.5 0 .2-.3.2-.6.2a.8.8 0 0 1-.6-.2 1 1 0 0 1-.2-.6c0-.4.2-.7.4-1l1-.6 1.5-.2c.8 0 1.4.2 1.9.6.4.4.6 1.1.6 2V68a13.3 13.3 0 0 1 0 1.1h.9v.9h-2.5Zm-.2-3.3a4.1 4.1 0 0 0-1.6.4l-.5.5a1 1 0 0 0-.1.6c0 .3 0 .5.2.7l.7.1.7-.1.6-.5v-1.7Zm6 3.5a3 3 0 0 1-.7 0l-.6-.4-.5-.8-.2-1.4V64h-1v-1c.3 0 .6-.1.8-.3l.7-.7c.2-.3.4-.6.4-1h.9v2h2v.9h-2v4.4c0 .3.2.4.3.6l.6.2.6-.2c.2 0 .4-.3.7-.7l.5.6A3.4 3.4 0 0 1 441 70l-.6.2h-.4Zm6.4 0c-.7 0-1.3-.1-1.8-.4a3 3 0 0 1-1.2-1.3c-.3-.6-.5-1.2-.5-2 0-.6.2-1.3.5-1.8.2-.6.7-1 1.2-1.4.5-.3 1.1-.5 1.8-.5l1.2.1a2.6 2.6 0 0 1 1.6 1.6c.2.5.3 1 .3 1.6h-4.7c0 .7 0 1.2.2 1.6.1.5.3.8.6 1 .3.3.8.5 1.3.5.2 0 .4 0 .7-.2l.7-.3.7-.6.5.5c-.3.4-.6.8-1 1l-1.1.5-1 .1Zm-1.6-4.8h3l-.2-1-.4-.6-.7-.2c-.5 0-.8.2-1.1.5-.3.3-.5.7-.6 1.3ZM122 130l7.5 4.3v-8.6L122 130Zm98.8 14v-10h-1.6v10h1.6Zm-4.8-14.8h-87.3v1.6H216v-1.6Zm4.8 4.8c0-2.6-2.2-4.8-4.8-4.8v1.6c1.8 0 3.3 1.4 3.3 3.2h1.4ZM114 194l7.5-4.3v8.6L114 194Zm106.8-10v6h-1.6v-6h1.6Zm-4.8 10.8h-95.3v-1.6H216v1.6Zm4.8-4.8c0 2.6-2.2 4.8-4.8 4.8v-1.6c1.8 0 3.3-1.4 3.3-3.2h1.4ZM22.1 58l-7.5 4.3v-8.6l7.5 4.3ZM33 200.8H13v-1.6h20v1.6ZM13 57.2h2.4v1.5H13v-1.5ZM8.2 196v-70h1.6v70H8.2Zm0-70v-5.3h1.6v5.3H8.2Zm0-5.3V62h1.6v58.8H8.2Zm4.8 8.5h13v1.6H13v-1.6ZM9.7 126c0 1.8 1.5 3.3 3.3 3.3v1.4a4.8 4.8 0 0 1-4.8-4.7h1.6ZM13 58.7A3.3 3.3 0 0 0 9.7 62H8.3c0-2.6 2-4.8 4.7-4.8v1.5Zm0 142a4.8 4.8 0 0 1-4.8-4.7h1.6c0 1.8 1.4 3.3 3.2 3.3v1.4Zm274-37.4 7.5 4.4V159l-7.5 4.3Zm39-.7h-32.3v1.5H326v-1.5ZM488 193l4.3 7.5h-8.6l4.3-7.5Zm-162.5 13v-.8.8Zm158.5 0v.8-.8Zm3.3-4v-2.3h1.4v2.3h-1.4ZM114 205.3h211.5v1.4H114v-1.4Zm211.5 0H484v1.4H325.5v-1.4Zm163.3-3.3c0 2.6-2.2 4.8-4.8 4.8v-1.6c1.8 0 3.3-1.4 3.3-3.2h1.4Zm-113.1-58 4.4-7.5h-8.7l4.3 7.5Zm-58.3-78-7.5-4.3v8.6l7.5-4.3Zm74.6 0-7.5-4.3v8.6L392 66Zm-17 5v66.3h1.5V71H375Zm-8.4-4.3h5.1v-1.5h-5v1.5ZM375 70v1h1.5v-1H375Zm-56.5-3.3h48.1v-1.5h-48.1v1.5Zm-7.9-1.5H283v1.5h27.6v-1.5Zm61.1 1.5h13.6v-1.5h-13.6v1.5Zm0 0c1.8 0 3.3 1.5 3.3 3.3h1.5c0-2.6-2.2-4.8-4.8-4.8v1.5ZM488 68l4.3-7.5h-8.6L488 68Zm-27-11.3h23v-1.5h-23v1.5Zm26.3 3.3v1.3h1.4V60h-1.4Zm-3.3-3.3c1.8 0 3.3 1.5 3.3 3.3h1.4c0-2.6-2-4.8-4.7-4.8v1.5Zm-94.5-.7-5-2.9V59l5-2.9ZM317 56l-5-2.9V59l5-2.9Zm1 .5h67v-1h-67v1Zm-34.5 0h29v-1h-29v1Z" fill="#fff"/><path stroke="#fff" stroke-dasharray="2 2" d="M317.5 37v46"/><path d="m428 164 3.8 2.2v-4.4L428 164Zm21 9.5h-.4.4Zm.1-45.9h-.3.3Zm22.4-39H453v.8h18.5v-.8Zm-23 4.4v36.5h.8V93h-.7Zm0 36.5V160h.8v-30.5h-.7Zm23.5-5.9h-18.9v.8H472v-.8Zm-23.2 4-.2 1.9h.7l.2-1.8-.7-.1Zm-3.8 36h-13.6v.8H445v-.8Zm27 13.5h-19v.8h19v-.8Zm-22.7-3.6V168h-.7v5.5h.7Zm3.7 3.6c-2 0-3.7-1.6-3.7-3.6h-.7c0 2.4 2 4.4 4.4 4.4v-.8Zm-8-12.7c2 0 3.6 1.6 3.6 3.6h.8c0-2.4-2-4.4-4.4-4.4v.8Zm3.6-4.4c0 2-1.6 3.6-3.6 3.6v.8c2.4 0 4.3-2 4.3-4.4h-.7Zm4.5-36.4a4.4 4.4 0 0 0-4.3 4h.7a3.6 3.6 0 0 1 3.6-3.2v-.8Zm-.1-35c-2.5 0-4.4 2-4.4 4.4h.7c0-2 1.7-3.6 3.7-3.6v-.8ZM319.9 48v-.4l.5-.1.2-.5v-6.3h-.7v-.4h2.5c.7 0 1.3 0 1.7.2.4.2.8.4 1 .7.2.3.3.6.3 1 0 .3 0 .6-.2 1 0 .2-.3.5-.6.7a3 3 0 0 1-1.3.6c.2 0 .3.2.4.4l.4.5.7 1.2.4.5.4.4.6.1v.4h-1.4a4.4 4.4 0 0 1-1-1.2l-.7-1.2a60.7 60.7 0 0 0-.8-1 6 6 0 0 1-.7 0v2a9.8 9.8 0 0 1 0 1h.7v.4H320Zm2.4-3.9 1-.1.8-.6.2-1-.1-.7c0-.3-.2-.4-.4-.6l-.6-.3h-1.4l-.2.5v2.8a34.2 34.2 0 0 1 .7 0Zm7.8 4c-.5 0-1 0-1.4-.3-.4-.2-.7-.6-1-1l-.3-1.5c0-.6.2-1 .4-1.5a2 2 0 0 1 1-1 2.6 2.6 0 0 1 2.3-.3l.7.4.5.8.1 1-3.8.1.1 1.5.6 1c.3.2.7.3 1 .3l.8-.1.7-.3.4-.5.3.2-.7.8a3 3 0 0 1-1.7.5Zm-1.5-3.7h2.8l-.1-.8c0-.2-.2-.5-.4-.6a1 1 0 0 0-.7-.2c-.4 0-.8 0-1 .3-.3.3-.5.7-.6 1.3Zm7.6 3.6-1.5-4.2a7 7 0 0 0-.2-.7V43h-.7v-.4h2.4v.3c-.4 0-.5.2-.6.4 0 .2 0 .5.2.8l.5 1.6a33.3 33.3 0 0 1 .3 1l.2-.6.2-.6 1-2.9h.5l1 3.2.2.5.2.5a16.2 16.2 0 0 0 .3-1l.8-2a16 16 0 0 1 .3-.8h-.6v-.4h1.9v.3l-.5.1a1 1 0 0 0-.3.2l-.2.2-.1.4-1.6 4.3h-.5l-1-3a23.3 23.3 0 0 0-.4-1.1 23.3 23.3 0 0 0-.4 1.1l-1 3h-.4Zm11 0v-.6l-.9.6a2 2 0 0 1-1 .2c-.5 0-.9-.1-1.2-.4-.2-.3-.4-.6-.4-1 0-.3.1-.6.3-.8.3-.3.5-.5.9-.6l1-.4h1.2v-1.5a1 1 0 0 0-.4-.5c-.1-.2-.3-.3-.7-.3-.2 0-.4 0-.6.2-.2 0-.4.2-.5.4l.1.2v.5l-.5.2c-.1 0-.2 0-.3-.2l-.1-.4c0-.2 0-.4.2-.6l.8-.5 1.1-.2c.7 0 1.1.2 1.4.5.3.3.4.9.4 1.6v2.4a5.2 5.2 0 0 1 0 .8h.8v.4h-1.6Zm-.1-2.7a4.5 4.5 0 0 0-1.6.3l-.5.5a1 1 0 0 0-.2.6c0 .3 0 .5.2.7l.6.1.8-.1.7-.5v-1.6Zm3.3 2.4c.2 0 .4 0 .5-.2l.1-.5v-3.9h-.3a7 7 0 0 0-.4 0v-.4h.3l.7-.1.3-.2h.3v1.1l.5-.6.7-.4.7-.2c.2 0 .4 0 .6.2l.2.5a.6.6 0 0 1-.2.5h-.4l-.3-.1c-.1-.2-.2-.3-.1-.5-.2 0-.4 0-.6.2a2 2 0 0 0-.6.4 3 3 0 0 0-.4.6v2.7a6 6 0 0 1 0 .8h.6v.4h-2.2v-.3Zm8 .5c-.5 0-1-.1-1.3-.4-.4-.2-.6-.5-.9-1-.2-.3-.3-.8-.3-1.4 0-.6.2-1.1.4-1.6s.6-.8 1-1a2.8 2.8 0 0 1 2.2-.4l.6.2v-2.2h-.8V40h.8l.3-.2.3-.1h.3v7.1a6 6 0 0 1 0 .8h.7v.4h-1.6v-.6a2.3 2.3 0 0 1-1.8.8Zm.3-.6c.3 0 .5 0 .7-.2l.7-.5v-3.8l-.6-.2a2 2 0 0 0-.7-.1c-.3 0-.7 0-1 .3a2 2 0 0 0-.5.9c-.2.3-.2.8-.2 1.3s0 .9.2 1.2c.1.4.3.6.5.8.3.2.6.3 1 .3Zm5.6.6c-.2 0-.3 0-.4-.2a.7.7 0 0 1-.2-.5c0-.2 0-.4.2-.5.1-.2.2-.2.4-.2s.3 0 .5.2l.2.5-.2.5-.5.2Zm0-4.5c-.2 0-.3 0-.4-.2a.7.7 0 0 1-.2-.5c0-.2 0-.3.2-.5l.4-.2c.2 0 .3 0 .5.2l.2.5-.2.5c-.2.2-.3.2-.5.2Zm6.6 4.3v-.4l.6-.1.2-.5v-5.5a7 7 0 0 1 0-.8h-.8v-.4h2.6c.7 0 1.2 0 1.7.2l1 .7.2 1-.1 1-.6.7a3 3 0 0 1-1.3.6l.4.4.3.5.8 1.2.4.5c0 .2.2.3.4.4l.5.1v.4H376a4.2 4.2 0 0 1-1-1.2l-.8-1.2a303.6 303.6 0 0 0-.7-1 6 6 0 0 1-.8 0v2a11 11 0 0 1 0 1h.8v.4H371Zm2.4-3.9 1-.1.8-.6a2 2 0 0 0 .1-1.7c0-.3-.1-.4-.3-.6l-.6-.3h-1.5l-.1.5v2.8a39.1 39.1 0 0 1 .6 0Zm6.4 6h-.4l-.3-.2-.2-.4v-2.4h-.6v-.4l.4-.1.3-.4.2-.4h.3v.9h1v.3h-1v2.3l.2.3h.6l.3-.3.2.2-.3.3a1.2 1.2 0 0 1-.7.3ZM109.3 50v-.4l.5-.1.3-.5.3-.7 2.3-6.2h.2l2.5 6.3.2.5v.7h.8v.4H114v-.4l.5-.1c.1-.2.2-.3.1-.5v-.4l-.5-1h-2.8l-.4 1.2-.1.4-.2.4a200.1 200.1 0 0 0 .9 0v.4h-2Zm2-2.8h2.6L113 45a18.8 18.8 0 0 0-.5-1.3 25.7 25.7 0 0 1-.5 1.2l-.7 2.3Zm9 3c-.5 0-1-.1-1.3-.4a2.6 2.6 0 0 1-1.4-2.5c0-.3 0-.7.2-1l.6-1c.3-.3.6-.6 1-.7a2 2 0 0 1 1-.3c.5 0 .8 0 1.1.2.4.1.6.3.8.5l.2.7-.1.4-.4.2c-.2 0-.3 0-.4-.2l-.1-.3v-.3l.2-.2-.4-.4-.4-.1h-.4c-.5 0-1 .1-1.3.5a3 3 0 0 0-.5 1.8c0 .5.1.9.3 1.3.1.4.3.7.6.9.3.2.7.3 1 .3.4 0 .7 0 1-.3l.8-.6.2.2-.7.7a2.8 2.8 0 0 1-1.6.6Zm6 0-.4-.1a.5.5 0 0 1-.5-.3c-.2-.1-.3-.3-.4-.6l-.1-1V45h-.8v-.5c.2 0 .4 0 .6-.2l.5-.6.3-.7h.4v1.5h1.8v.4H126v4l.3.5.5.1.6-.1.5-.5.3.2-.5.6a1.8 1.8 0 0 1-1.2.5Zm3.2-.5c.2 0 .3 0 .4-.2l.2-.5v-3.2a4.9 4.9 0 0 1 0-.7h-.7v-.4h.7l.4-.2.2-.1h.4v4.4a6.7 6.7 0 0 1 0 .8h.6v.4h-2.2v-.3Zm1-6.4c-.1 0-.3 0-.4-.2a.6.6 0 0 1-.2-.4l.2-.5.4-.2c.2 0 .3 0 .5.2l.1.5c0 .1 0 .3-.2.4l-.4.2Zm5.7 6.9c-.6 0-1-.1-1.4-.4-.5-.2-.8-.5-1-1-.3-.4-.4-.9-.4-1.4 0-.6.1-1.1.4-1.6a2 2 0 0 1 1-1c.4-.3.8-.5 1.4-.5.5 0 1 .1 1.4.4a2.8 2.8 0 0 1 1.3 2.4c0 .6 0 1.1-.3 1.6-.3.4-.6.8-1 1-.4.3-1 .5-1.4.5Zm0-.5c.4 0 .7 0 1-.3.2-.2.4-.5.5-.9l.1-1a4.7 4.7 0 0 0-.4-1.9 1 1 0 0 0-.5-.6 1 1 0 0 0-.7-.3c-.4 0-.7.2-1 .4a2 2 0 0 0-.5.8l-.2 1.2c0 .4 0 .9.2 1.3.1.4.3.7.6 1 .2.2.6.3 1 .3Zm4.5.3v-.3c.3 0 .4 0 .5-.2l.2-.5v-3.9h-.7v-.4h.7l.4-.2.2-.1h.3v.2a6.6 6.6 0 0 1 0 .5 3.5 3.5 0 0 1 1.2-.7h.6c.7 0 1.1.1 1.4.5.3.4.5 1 .5 1.9v2a6 6 0 0 1 0 .8h.6v.4h-2.2v-.3c.2 0 .3 0 .4-.2l.2-.5v-2.2c0-.6-.1-1.1-.3-1.4-.2-.4-.5-.5-1-.5-.2 0-.5 0-.7.2a2 2 0 0 0-.7.5v3.2a6 6 0 0 1 0 .8h.7v.4h-2.3Zm8.5.2c-.2 0-.3 0-.5-.2a.7.7 0 0 1-.1-.5c0-.2 0-.4.2-.5 0-.2.2-.2.4-.2s.3 0 .5.2l.1.5c0 .2 0 .3-.2.5l-.4.2Zm0-4.5c-.2 0-.3 0-.5-.2a.7.7 0 0 1-.1-.5c0-.2 0-.3.2-.5l.4-.2c.2 0 .3 0 .5.2l.1.5c0 .2 0 .4-.2.5 0 .2-.2.2-.4.2Zm6 4.3v-.4l.5-.1c0-.2.2-.3.3-.5l.2-.7 2.3-6.2h.3l2.4 6.3.2.5v.7h.8v.4h-2.5v-.4l.6-.1v-.9l-.4-1H157l-.4 1.2-.1.4-.1.4a200.1 200.1 0 0 0 .8 0v.4h-2Zm2-2.8h2.5L159 45a18.8 18.8 0 0 0-.5-1.3 25.7 25.7 0 0 1-.4 1.2l-.8 2.3Zm7.3 5-.3-.1-.3-.2-.2-.4-.1-.6V49h-.5v-.4l.4-.1.3-.4.2-.4h.3v.9h1v.3h-1v2.3l.2.3h.6l.3-.3.2.2-.3.3a1.2 1.2 0 0 1-.8.3ZM333 71.8a3 3 0 0 0-.8-1.7c-.4-.3-.9-.5-1.5-.5-.4 0-.8 0-1.1.2l-1 .7-.5 1.1c-.2.5-.2 1-.2 1.5 0 .7 0 1.3.4 1.8.2.6.6 1 1 1.3a3.2 3.2 0 0 0 2.9.1 3 3 0 0 0 1.2-1l.2.3-1 1c-.4.2-.7.4-1 .4l-1 .2a3.6 3.6 0 0 1-3.5-2.4l-.3-1.5c0-.5 0-1 .2-1.5l.7-1.4a4 4 0 0 1 1.2-1c.5-.2 1-.3 1.7-.3a4 4 0 0 1 2.2.7v-.6h.6v2.6h-.4Zm4.7 5.4a2 2 0 0 1-1-.2c-.3-.2-.5-.4-.7-.8l-.1-1.4V72a124.1 124.1 0 0 1-.8 0v-.4h.4l.7-.1.3-.2h.3v3.3c0 .7.1 1.1.3 1.5.2.3.5.4 1 .4.2 0 .4 0 .7-.2l.6-.6v-2.9a8.2 8.2 0 0 1 0-.8h-.7v-.4h.3l.7-.1.3-.2h.4v4.1a16.4 16.4 0 0 1 0 1h.7v.5h-1.6v-.7l-.9.6c-.3.2-.6.3-1 .3Zm7.7 0c-.5 0-1-.1-1.3-.4-.4-.2-.8-.6-1-1-.2-.4-.3-1-.3-1.5 0-.6 0-1 .3-1.5.2-.4.6-.8 1-1a2.6 2.6 0 0 1 2.3-.3c.3 0 .5.2.7.4l.5.8.2 1-4 .1c0 .6.1 1 .3 1.5 0 .4.3.7.6 1 .2.2.6.3 1 .3l.7-.1.7-.3.5-.5.2.2-.7.8a3 3 0 0 1-1.7.5Zm-1.5-3.8h2.8v-.8l-.5-.6a1 1 0 0 0-.7-.2c-.4 0-.7 0-1 .3-.3.3-.5.7-.6 1.3Zm6.6 3.8c-.2 0-.3 0-.4-.2a.7.7 0 0 1-.2-.5c0-.2 0-.4.2-.5.1-.2.3-.2.4-.2.2 0 .4 0 .5.2l.2.5-.2.5-.5.2Zm0-4.5c-.2 0-.3 0-.4-.2a.7.7 0 0 1-.2-.5c0-.2 0-.3.2-.5l.4-.2c.2 0 .4 0 .5.2l.2.5-.2.5c-.2.2-.3.2-.5.2Zm12.7-1c0-.6-.3-1.2-.7-1.6-.4-.3-1-.5-1.6-.5-.4 0-.7 0-1 .2l-1 .7-.6 1.1-.2 1.5c0 .7.1 1.3.4 1.8.3.6.6 1 1 1.3a3.3 3.3 0 0 0 2.9.1c.5-.2 1-.6 1.2-1l.3.3-1 1c-.4.2-.8.4-1.1.4l-1 .2a3.6 3.6 0 0 1-3.5-2.4l-.3-1.5.3-1.5c.1-.5.4-1 .7-1.4a4 4 0 0 1 1.2-1c.5-.2 1-.3 1.7-.3a4 4 0 0 1 2.2.7v-.6h.5v2.6h-.4Zm3.4 7.4h-.3l-.3-.2-.2-.4v-2.4h-.6v-.4l.4-.1.3-.4.2-.4h.3v.9h1v.3h-1v2.3l.2.3h.6l.3-.3.2.2-.3.3a1.2 1.2 0 0 1-.8.3ZM164 221c.5 0 1-.2 1.3-.6.4-.5.6-1 .6-1.5s-.2-.8-.6-1a29.8 29.8 0 0 1-2.1-.7c-.5-.3-.7-.8-.7-1.4 0-.5 0-1 .3-1.3l.8-1 .8-.4.8-.2h.2a2 2 0 0 1 1.7.8l.1-.2a17.1 17.1 0 0 0 .6-.6h.2a23.2 23.2 0 0 1-.7 3h-.2c-.1 0-.2 0-.2-.2a5.9 5.9 0 0 1 0-.6 2 2 0 0 0-.3-1.1l-.3-.3c-.3-.2-.6-.3-1-.3s-.8.2-1.2.6c-.4.3-.6.7-.6 1.2 0 .2 0 .5.2.6 0 .2.3.3.5.4a14 14 0 0 0 1.6.4l.8.6c.2.3.3.7.3 1.2v.6l-.3.6-.4.7c-.2.3-.4.5-.8.7-.3.3-.7.4-1 .5h-.5c-.8 0-1.4-.2-1.8-.6l-.1-.2-.4.4-.3.4h-.3a184 184 0 0 1 1-3l.1.2v.7c0 .3 0 .6.2.8l.5.5a2.7 2.7 0 0 0 1.2.3Zm5.6-3.3h-.3v-.4h1.7l1.8 4.3.5-1.8.4-1.8c0-.2-.2-.3-.5-.3l-.2-.1a1 1 0 0 1 0-.3h.4a42.8 42.8 0 0 0 1.7.1v.3h-.3c-.4 0-.6.1-.7.3l-1.3 5h-.3l-1-2.5-1.1-2.5-.6 2.1-.5 2.3c0 .2.2.2.6.2l.1.1v.3h-2.1v-.4h.3c.3 0 .6-.2.7-.4l.6-2.3.6-2.3h-.5Zm13.4-.1h-.2l-.4-.1a.6.6 0 0 1-.2-.5c0-.2 0-.3.2-.4v-.1a4 4 0 0 0-.7 0c-.4 0-.7 0-1 .3a3 3 0 0 0-.5 1.9c0 .6.1 1.1.4 1.5.3.5.7.7 1.3.7.3 0 .6 0 .8-.3l.4-.7v-.2h.4v.3a2.3 2.3 0 0 1-.5.9 1.9 1.9 0 0 1-1.4.5c-.7 0-1.2-.3-1.8-.8-.5-.5-.7-1.1-.7-1.9 0-.8.2-1.5.7-2 .6-.5 1.2-.8 1.8-.8.7 0 1.2.2 1.5.4.2.2.4.4.4.7l-.2.5-.2.1Zm1.5 3.1c.3 0 .5 0 .6-.2V217c0-.2-.1-.3-.2-.3l-.5-.1h-.2v-.6h.9a43.3 43.3 0 0 1 .9 0v.7c.3-.5.7-.8 1.1-.8h.1c.4 0 .6.1.8.3.2.2.2.3.2.5l-.1.5-.5.1c-.2 0-.3 0-.4-.2l-.2-.4a.7.7 0 0 1 .1-.3h-.2l-.3.2c-.4.3-.5 1-.5 2.1v1.9h.5l.1.1h.5v.6h-.1a16.6 16.6 0 0 0-2.8 0h-.1v-.6h.3Zm4.5-2a2.9 2.9 0 0 1 .7-2 2.5 2.5 0 0 1 1.6-.8c.4 0 .8.1 1 .3.4.1.6.3.8.6l.3.7v1h-3.3v.2c0 1.2.4 1.9 1.2 2.1l.5.1c.3 0 .6-.1.8-.4.2-.1.3-.3.3-.5l.2-.3h.2l.2.1v.2a2 2 0 0 1-.8 1 2 2 0 0 1-1.2.4c-.7 0-1.3-.3-1.8-.8a3 3 0 0 1-.8-2Zm3.5-.7c0-1-.4-1.6-1.1-1.6h-.5l-.4.3-.2.5-.2.8h2.4Zm3-.4h-.3l-.4-.1a.6.6 0 0 1-.2-.5c0-.3.1-.5.4-.7.3-.2.7-.4 1.4-.4.6 0 1 .2 1.4.4.4.3.6.6.7 1v2.5l.2.8c0 .1 0 .2.2.2.1 0 .2 0 .2-.2l.1-.6v-.5h.5v1.1l-.5.5-.6.2c-.3 0-.4 0-.6-.2l-.3-.5-.1.2-.2.1-.2.2h-.2a5 5 0 0 1-.6.2 2.3 2.3 0 0 1-1.6-.3c-.4-.2-.6-.6-.6-1l.1-.5.3-.5.6-.4 1-.3a6 6 0 0 1 1.2-.2h.2v-.9c-.2-.5-.6-.8-1.2-.8a7.3 7.3 0 0 0-.7 0h-.1c.2.2.2.4.2.6l-.1.5-.2.1Zm-.2 2.4c0 .2.1.5.3.6.2.2.4.3.7.3.3 0 .6 0 .8-.2l.5-.7v-1.5a3.3 3.3 0 0 0-1.5.3l-.5.5a1 1 0 0 0-.3.7Zm4.7-3.7c.5 0 .8-.3 1-.7.3-.4.4-.9.4-1.5v-.1h.5v2.1h1.6v.6h-1.6v1.7a339.5 339.5 0 0 1 0 2c.2.4.4.5.7.5.3 0 .5-.3.6-.8v-1h.5v.6c0 .6-.2 1-.5 1.4-.2.2-.5.3-.8.3-.3 0-.5 0-.7-.2-.2 0-.4-.2-.5-.3a2 2 0 0 1-.2-.5v-.3l-.1-1.8v-1.6h-1v-.4h.2Zm4.7 2.4a2.9 2.9 0 0 1 .8-2 2.5 2.5 0 0 1 1.6-.8c.4 0 .8.1 1 .3.4.1.6.3.7.6l.4.7v1h-3.3v.2c0 1.2.3 1.9 1.1 2.1l.6.1c.3 0 .6-.1.8-.4.1-.1.3-.3.3-.5l.2-.3h.1l.3.1v.2a2 2 0 0 1-.8 1 2 2 0 0 1-1.2.4c-.7 0-1.4-.3-1.8-.8a3 3 0 0 1-.8-2Zm3.6-.7c0-1-.5-1.6-1.1-1.6h-.5l-.4.3-.2.5-.2.8h2.4Zm5.7-2.6v-1.5l-.6-.2h-.3v-.5h.2a8.1 8.1 0 0 1 .8-.1 48.8 48.8 0 0 1 .9 0v3.5a214.1 214.1 0 0 0 .2 4l.5.1h.3v.6a119.5 119.5 0 0 0-1.9 0v-.6l-.2.1c-.4.4-1 .6-1.5.6-.6 0-1.2-.3-1.6-.7-.5-.5-.8-1.2-.8-2s.3-1.4.8-2c.5-.4 1-.7 1.7-.7.6 0 1.1.2 1.6.6v-1.2Zm0 1.8c-.3-.5-.8-.7-1.3-.7a1.5 1.5 0 0 0-1.4 1.1 6.6 6.6 0 0 0 0 2.2c0 .3.1.5.4.8.2.2.5.3.9.3.6 0 1-.3 1.4-.9v-2.8Zm9.5.4h-.2l-.4-.1a.7.7 0 0 1-.2-.5c0-.2 0-.3.2-.4v-.1h-.7c-.4 0-.7 0-1 .3a3 3 0 0 0-.5 1.9c0 .6.1 1.1.4 1.5.3.5.7.7 1.3.7.3 0 .6 0 .8-.3l.4-.7v-.2h.4v.3a2.4 2.4 0 0 1-.5.9 1.9 1.9 0 0 1-1.4.5c-.7 0-1.3-.3-1.8-.8s-.7-1.1-.7-1.9c0-.8.2-1.5.7-2 .6-.5 1.1-.8 1.8-.8s1.2.2 1.4.4c.3.2.4.4.4.7 0 .2 0 .4-.2.5l-.2.1Zm1.3 1.1a2.9 2.9 0 0 1 .8-2 2.5 2.5 0 0 1 1.5-.8c.5 0 .8.1 1.1.3.3.1.5.3.7.6.2.2.3.5.3.7l.1.8v.2h-3.4v.2c0 1.2.4 1.9 1.2 2.1l.5.1c.4 0 .6-.1.9-.4l.3-.5.1-.3h.2l.2.1v.2a2 2 0 0 1-.7 1 2 2 0 0 1-1.2.4c-.8 0-1.4-.3-1.9-.8-.5-.6-.7-1.2-.7-2Zm3.6-.7c-.1-1-.5-1.6-1.2-1.6h-.5l-.3.3-.3.5-.2.8h2.5Zm1.9 2.7c.3 0 .5 0 .6-.2v-.7a10.2 10.2 0 0 1 0-1v-1.7c0-.2 0-.3-.2-.3l-.5-.1h-.2v-.6h.1a8 8 0 0 1 .8 0 67.8 67.8 0 0 1 .9 0v.8h.1l.1-.2.3-.2.3-.2.5-.2h.6c.9 0 1.4.4 1.5 1.3v3.2h.1l.6.1h.2v.6h-.4a13.6 13.6 0 0 0-1 0h-1.4v-.6h.1c.5 0 .8 0 .8-.2a43.2 43.2 0 0 0-.3-3.8.8.8 0 0 0-.3-.2h-.3c-.3 0-.6.1-1 .4l-.3.6-.1 1v1.5a5.9 5.9 0 0 0 0 .6h.2l.5.1h.2v.6h-.3a14.4 14.4 0 0 0-1.1 0H230v-.6h.3Zm6.3-4.4c.4 0 .7-.3 1-.7.2-.4.3-.9.3-1.5v-.1h.5v2.1h1.6v.6h-1.6v1.7a436 436 0 0 1 .1 2c.1.4.3.5.6.5s.5-.3.6-.8v-1h.5v.6c0 .6-.2 1-.5 1.4-.2.2-.5.3-.8.3-.3 0-.5 0-.7-.2-.2 0-.4-.2-.5-.3a2 2 0 0 1-.2-.5v-3.7h-1v-.4Zm4.9 4.4c.3 0 .5 0 .5-.2V217l-.1-.3-.6-.1h-.2v-.6h.9a41.5 41.5 0 0 1 .9 0v.7c.3-.5.7-.8 1.2-.8.4 0 .7.1.8.3.2.2.3.3.3.5s0 .3-.2.5l-.4.1c-.2 0-.4 0-.5-.2l-.1-.4a.7.7 0 0 1 0-.3h.1-.3l-.2.2c-.4.3-.6 1-.6 2.1v1.8l.1.1h.4l.2.1h.4v.6a16.6 16.6 0 0 0-2.9 0v-.6h.3Zm4.3-2a2.9 2.9 0 0 1 .9-2 2.5 2.5 0 0 1 1.5-.8c.4 0 .8.1 1.1.3.3.1.5.3.7.6.2.2.3.5.3.7l.1.8v.2H247v.2c0 1.2.4 1.9 1.2 2.1l.5.1c.3 0 .6-.1.9-.4l.3-.5.1-.3h.2l.2.1v.2a2 2 0 0 1-.8 1 2 2 0 0 1-1.1.4c-.8 0-1.4-.3-1.9-.8-.5-.6-.7-1.2-.8-2Zm3.7-.7c-.1-1-.5-1.6-1.2-1.6h-.5l-.3.3-.3.5-.2.8h2.5Zm5.7-2.6v-1.5l-.7-.2h-.2v-.5h.1a8.1 8.1 0 0 1 .8-.1 51.2 51.2 0 0 1 1 0v3.5a214.1 214.1 0 0 0 .2 4l.5.1h.2v.6a128.8 128.8 0 0 0-1.8 0h-.1v-.6l-.1.1c-.5.4-1 .6-1.5.6-.7 0-1.2-.3-1.7-.7-.5-.5-.7-1.2-.7-2s.2-1.4.7-2c.5-.4 1.1-.7 1.8-.7.6 0 1 .2 1.5.6v-1.2Zm0 1.8c-.4-.5-.8-.7-1.3-.7a1.5 1.5 0 0 0-1.5 1.1 6.7 6.7 0 0 0 0 2.2c0 .3.2.5.4.8.3.2.6.3 1 .3.5 0 1-.3 1.4-.9v-2.8Zm6.8.4h-.3l-.5-.1a.6.6 0 0 1-.1-.5c0-.3.1-.5.4-.7.2-.2.7-.4 1.4-.4.6 0 1 .2 1.4.4.4.3.6.6.7 1v2.5l.1.8.3.2c.1 0 .2 0 .2-.2v-1.1h.6v1.1l-.5.5-.6.2c-.3 0-.5 0-.6-.2l-.3-.5-.2.2-.1.1-.2.2h-.2a4.7 4.7 0 0 1-.6.2 2.3 2.3 0 0 1-1.6-.3c-.4-.2-.6-.6-.6-1l.1-.5.3-.5.6-.4 1-.3a6 6 0 0 1 1.2-.2h.2v-.9c-.3-.5-.6-.8-1.2-.8a7.2 7.2 0 0 0-.7 0h-.1l.2.6c0 .2 0 .4-.2.5l-.2.1Zm-.2 2.4c0 .2.1.5.3.6.2.2.4.3.7.3.3 0 .6 0 .8-.2l.5-.7v-1.5a3.3 3.3 0 0 0-1.5.3l-.5.5a1 1 0 0 0-.3.7Zm4.8-3.7c.4 0 .7-.3 1-.7.2-.4.3-.9.3-1.5v-.1h.5v2.1h1.6v.6h-1.6v1.7a436 436 0 0 1 0 2c.2.4.4.5.7.5.3 0 .5-.3.6-.8v-1h.5v.6c0 .6-.2 1-.5 1.4-.2.2-.5.3-.8.3-.3 0-.5 0-.7-.2-.2 0-.4-.2-.5-.3a2 2 0 0 1-.2-.5l-.1-.3v-3.4h-1v-.4h.2Zm7.9 7.5h-.3l-.1-.3a94.2 94.2 0 0 1 1.8-7.2c0-.2.2-.3.5-.3l.2.1.2.1v.2l-.4 1.5a31.9 31.9 0 0 0-.4 2v.2c0 .6.3.8.8.8h.4l.2-.1h.1l.2-.2.1-.1.1-.2h.1l.1-.2.1-.2.4-1.6.5-1.8c.1-.2.3-.4.5-.4l.3.1.1.2-.9 3.9v.1l.1.4.2.1h.3c.2-.2.3-.6.5-1.2v-.2h.5v.4l-.3.6a2 2 0 0 1-.4.6l-.4.2h-.7a1 1 0 0 1-.3-.2l-.2-.2a.7.7 0 0 1-.2-.3v.1l-.2.2-.4.2a1.9 1.9 0 0 1-.9.3 2 2 0 0 1-1-.3l-.4 1.2a40 40 0 0 1-.4 1.3c-.1.2-.3.2-.4.2Zm8.5-6.1h-.4v-.4h1.7l1.8 4.3.5-1.8.4-1.8c0-.2-.2-.3-.5-.3l-.2-.1a1 1 0 0 1 0-.3h.4a42.8 42.8 0 0 0 1.7.1v.3h-.3c-.4 0-.6.1-.7.3l-1.3 5h-.3l-1-2.5-1.1-2.5-.6 2.1-.5 2.3c0 .2.2.2.6.2l.1.1v.3h-2v-.4h.2c.4 0 .6-.2.7-.4l.6-2.3.6-2.3h-.5Zm10.6-.1h-.3l-.4-.1a.6.6 0 0 1-.2-.5c0-.3.1-.5.4-.7.3-.2.7-.4 1.4-.4.6 0 1 .2 1.4.4.4.3.6.6.7 1v.3l.1 1.4v1.6l.3.2c.1 0 .2 0 .2-.2l.1-.6v-.5h.5v1.1l-.5.5-.6.2c-.3 0-.4 0-.6-.2l-.3-.5-.1.2-.2.1-.2.2h-.2a4.7 4.7 0 0 1-.5.2h-.4c-.5 0-1 0-1.3-.3-.4-.2-.6-.6-.6-1l.1-.5.3-.5.6-.4 1-.3a6 6 0 0 1 1.2-.2h.2v-.9c-.2-.5-.6-.8-1.2-.8a6.4 6.4 0 0 0-.7 0h-.1l.3.6-.2.5-.2.1Zm-.2 2.4c0 .2.1.5.3.6.2.2.4.3.7.3.3 0 .6 0 .8-.2l.5-.7v-1.5h-.3l-.5.1-.7.2-.5.5a1 1 0 0 0-.3.7Zm5.1.7c.3 0 .5 0 .6-.2v-.7a10.2 10.2 0 0 1 0-1v-1.7c0-.2-.1-.3-.2-.3l-.5-.1h-.2v-.6h.1a7.8 7.8 0 0 1 .8 0 72.4 72.4 0 0 1 .9 0v.8l.2-.2.2-.2.4-.2.4-.2h.6c1 0 1.4.4 1.5 1.3v3.2h.2l.6.1h.2v.6h-.4a13.6 13.6 0 0 0-1 0h-1.4v-.6h.1c.5 0 .8 0 .8-.2a43.2 43.2 0 0 0-.3-3.8.8.8 0 0 0-.3-.2h-.3c-.3 0-.7.1-1 .4l-.3.6-.1 1v1.5a5.9 5.9 0 0 0 0 .6h.1l.6.1h.2v.6h-.4a14.4 14.4 0 0 0-1 0h-1.4v-.6h.3Zm10.4-5.3v-.9l-.1-.6-.6-.2h-.2v-.5h.1a8.1 8.1 0 0 1 .8-.1 51.2 51.2 0 0 1 1 0v3.5a214.1 214.1 0 0 0 .1 4l.6.1h.2v.6a128.8 128.8 0 0 0-1.9 0v-.6l-.1.1c-.5.4-1 .6-1.6.6-.6 0-1.1-.3-1.6-.7-.5-.5-.7-1.2-.7-2s.2-1.4.7-2c.5-.4 1-.7 1.7-.7.6 0 1.2.2 1.6.6v-1.2Zm0 1.8c-.4-.5-.8-.7-1.4-.7a1.5 1.5 0 0 0-1.4 1.1 6.6 6.6 0 0 0 0 2.2c0 .3.2.5.4.8.2.2.5.3 1 .3s1-.3 1.4-.9v-2.8Zm6.1-.3-.1-.1-.4-.1h-.3v-.6h.3a12.2 12.2 0 0 1 .9 0h1.3v.6h-.2c-.3 0-.4 0-.4.2l.5 1.5.5 1.5 1-2.5-.2-.2c0-.3-.1-.4-.2-.4l-.4-.1h-.3v-.6h2.4v.6c-.4 0-.6 0-.6.2l.1.5a50.7 50.7 0 0 0 .8 2.2l.2.5.5-1.4.5-1.6-.2-.3a.9.9 0 0 0-.4-.1h-.1v-.6a9 9 0 0 0 2 0h.1v.6h-.2c-.4 0-.6.3-.8.6l-.7 2a146.5 146.5 0 0 0-.8 2h-.4l-.6-1.6-.5-1.6a394.7 394.7 0 0 0-1.4 3.3l-.3-.1-1.5-4.4Zm8.4-2.9c0-.2 0-.4.2-.5l.5-.2.5.2.2.5-.2.6-.5.1-.5-.1c-.2-.1-.2-.3-.2-.6Zm2 7.3H323v-.6h.7l.2-.2V217l-.2-.2-.6-.1h-.1v-.6h.9a72.4 72.4 0 0 1 .9 0v4.4l.2.2h.7v.6h-.1Zm.8-5c.4 0 .7-.3 1-.7.2-.4.3-.9.3-1.5v-.1h.5v2.1h1.6v.6H328v1.7a436 436 0 0 1 0 2c.2.4.4.5.7.5.3 0 .5-.3.6-.8v-1h.5v.6c0 .6-.2 1-.5 1.4-.2.2-.5.3-.8.3-.3 0-.5 0-.7-.2-.2 0-.4-.2-.5-.3a2 2 0 0 1-.2-.5l-.1-.3v-3.4h-1v-.4h.2Zm4.9 4.4c.3 0 .5 0 .6-.2v-1.2a15.2 15.2 0 0 1 0-1.3v-2.5a21 21 0 0 0 0-1.4l-.2-.3h-.8v-.7h.2a8.1 8.1 0 0 1 .8-.1 51.2 51.2 0 0 1 .9 0v3.8c.5-.6 1-.9 1.7-.9 1 0 1.5.5 1.6 1.4v3.2h.2l.6.1h.2v.6h-.4a13.6 13.6 0 0 0-1 0H334v-.6h.1c.5 0 .7 0 .7-.2a43.2 43.2 0 0 0-.2-3.8.8.8 0 0 0-.3-.2h-.3c-.4 0-.7.1-1 .4l-.3.6-.1 1v1.5a5.9 5.9 0 0 0 0 .6h.1l.6.1h.2v.6h-.4a14.4 14.4 0 0 0-1 0h-1.4v-.6h.3Zm13.3-3.1h-.3l-.4-.1a.7.7 0 0 1-.2-.5c0-.2 0-.3.2-.4v-.1h-.7c-.3 0-.7 0-.9.3-.4.4-.6 1-.6 1.9 0 .6.2 1.1.4 1.5.3.5.8.7 1.3.7.3 0 .6 0 .8-.3l.4-.7v-.2h.4l.1.1v.2a2.4 2.4 0 0 1-.6.9 1.9 1.9 0 0 1-1.4.5c-.6 0-1.2-.3-1.7-.8s-.8-1.1-.8-1.9c0-.8.3-1.5.8-2s1-.8 1.8-.8c.6 0 1.1.2 1.4.4.2.2.4.4.4.7 0 .2 0 .4-.2.5l-.2.1Zm1.2 1.1c0-.7.2-1.4.8-2a2.5 2.5 0 0 1 3.6 0c.6.6.8 1.2.8 2a2.6 2.6 0 0 1-2.6 2.7c-.8 0-1.4-.3-1.9-.8-.5-.6-.7-1.2-.7-1.9Zm2.6 2.2c1 0 1.5-.6 1.5-2v-1.1l-.1-.4-.2-.4-.4-.4-.6-.2h-.2l-.6.1c-.4.2-.6.4-.7.7l-.2 1.1v.3c0 .7.1 1.3.3 1.6.2.5.6.7 1.2.7Zm7-4.8h2v.6h-.1c-.5 0-.8.2-1 .5a193.5 193.5 0 0 0-1.5 4l-.3.2-.3-.1a406 406 0 0 1-1.9-4.6h-.7v-.6h.7a3.7 3.7 0 0 1 .5 0h1.4v.6h-.2c-.3 0-.4 0-.4.2l.6 1.6.6 1.5 1-2.8v-.4h-.3l-.2-.1v-.6Zm3.8 1.5h-.2l-.5-.1a.6.6 0 0 1-.1-.5c0-.3.1-.5.4-.7.2-.2.7-.4 1.4-.4.6 0 1 .2 1.4.4.4.3.6.6.7 1v2.5l.1.8.3.2c.1 0 .2 0 .2-.2v-1.1h.6v1.1l-.5.5-.6.2c-.3 0-.5 0-.6-.2l-.3-.5-.2.2-.1.1-.2.2h-.2a4.7 4.7 0 0 1-.6.2 2.3 2.3 0 0 1-1.6-.3c-.4-.2-.6-.6-.6-1l.1-.5.3-.5.6-.4 1-.3a6 6 0 0 1 1.2-.2h.2v-.9c-.3-.5-.6-.8-1.2-.8a7.3 7.3 0 0 0-.7 0h-.1c.2.2.2.4.2.6 0 .2 0 .4-.2.5l-.2.1Zm0 2.4c0 .2 0 .5.2.6.2.2.4.3.7.3.3 0 .6 0 .8-.2l.5-.7v-1.5a3.4 3.4 0 0 0-1.5.3l-.5.5a1 1 0 0 0-.3.7Zm5 .7c.2 0 .4 0 .5-.2V217c0-.2 0-.3-.2-.3l-.5-.1h-.2v-.6h.9a43.3 43.3 0 0 1 .9 0v.7c.3-.5.7-.8 1.2-.8.4 0 .6.1.8.3.2.2.3.3.3.5s0 .3-.2.5l-.4.1c-.2 0-.4 0-.5-.2l-.1-.4a.7.7 0 0 1 0-.3h-.2l-.3.2c-.3.3-.5 1-.5 2.1v1.9h.5l.1.1h.5v.6a16.6 16.6 0 0 0-3 0v-.6h.3Zm4.8-6.7c0-.2 0-.4.2-.5l.5-.2.5.2.2.5c0 .3 0 .5-.2.6l-.5.1-.5-.1-.2-.6Zm2.1 7.3h-2.6v-.6h.8l.1-.2V217c0-.1 0-.2-.2-.2l-.5-.1h-.2v-.6h.9a72.4 72.4 0 0 1 1 0v4.4l.1.2h.7v.6Zm2-3.7h-.3l-.4-.1a.6.6 0 0 1-.2-.5c0-.3.2-.5.4-.7.3-.2.8-.4 1.5-.4.5 0 1 .2 1.4.4.3.3.6.6.7 1v2.5l.1.8.2.2c.2 0 .2 0 .3-.2v-1.1h.5v1.1c0 .2-.2.4-.4.5l-.7.2c-.2 0-.4 0-.5-.2a.5.5 0 0 1-.3-.5h-.1l-.1.2-.1.1c-.1 0-.2 0-.2.2h-.2a4.6 4.6 0 0 1-.6.2 2.3 2.3 0 0 1-1.6-.3c-.4-.2-.6-.6-.6-1v-.5l.4-.5.6-.4.9-.3a6 6 0 0 1 1.3-.2h.1v-.9c-.2-.5-.6-.8-1.2-.8a7.3 7.3 0 0 0-.7 0l.2.6c0 .2 0 .4-.2.5l-.2.1Zm-.1 2.4c0 .2 0 .5.3.6.1.2.4.3.7.3.3 0 .5 0 .7-.2.3-.2.4-.4.5-.7v-1.5a3.4 3.4 0 0 0-1.4.3l-.6.5-.2.7Zm5.1.7c.3 0 .4 0 .5-.2v-.7a10.2 10.2 0 0 1 0-1v-1.7c0-.2 0-.3-.2-.3l-.5-.1h-.2v-.6h.1a8 8 0 0 1 .8 0 67.8 67.8 0 0 1 1 0v.8l.2-.2.2-.2.3-.2.5-.2h.6c.9 0 1.4.4 1.5 1.3v3.2h.2l.5.1h.2v.6h-.4a13.6 13.6 0 0 0-1 0h-1.4v-.6h.2c.4 0 .7 0 .7-.2a43.2 43.2 0 0 0-.3-3.8.8.8 0 0 0-.2-.2h-.3c-.4 0-.7.1-1 .4l-.4.6v2.5a5.9 5.9 0 0 0 0 .6l.7.1h.1v.6h-.3a14.5 14.5 0 0 0-1 0h-1.5v-.6h.4Zm10.3-3.1h-.3l-.4-.1a.6.6 0 0 1 0-1h-.7c-.3 0-.7 0-1 .3a3 3 0 0 0-.5 1.9c0 .6.2 1.1.4 1.5.3.5.8.7 1.3.7.3 0 .6 0 .8-.3l.4-.7v-.2h.4l.1.1v.2a2.4 2.4 0 0 1-.6.9 1.9 1.9 0 0 1-1.4.5c-.6 0-1.2-.3-1.7-.8s-.8-1.1-.8-1.9c0-.8.2-1.5.8-2 .5-.5 1-.8 1.7-.8s1.2.2 1.5.4c.2.2.4.4.4.7l-.2.5-.2.1Zm1.2 1.1a2.9 2.9 0 0 1 .8-2 2.5 2.5 0 0 1 1.6-.8c.4 0 .7.1 1 .3.3.1.6.3.7.6l.4.7v1h-3.4v.2c0 1.2.4 1.9 1.2 2.1l.5.1c.4 0 .7-.1.9-.4l.3-.5.1-.3h.2l.3.1v.2a2 2 0 0 1-.8 1 2 2 0 0 1-1.2.4c-.7 0-1.4-.3-1.9-.8-.5-.6-.7-1.2-.7-2Zm3.6-.7c-.1-1-.5-1.6-1.1-1.6h-.5l-.4.3-.3.5-.1.8h2.4Zm5-6h11l.5 1.2.6 1.3h-.4a3 3 0 0 0-1.6-1.5 5 5 0 0 0-1.2-.4l-1.4-.1h-5.7a540.6 540.6 0 0 1 4.3 5.9l-2.4 2.7-2.4 2.7h3.2a51.6 51.6 0 0 1 3.1 0c.5 0 1 0 1.5-.2.5 0 1-.2 1.3-.4l1-.8.3-.7h.4v.2a17 17 0 0 1-.6 1.4l-.5 1.4h-5.5a316.5 316.5 0 0 1-5.5-.2l4.8-5.5-.3-.4a92.2 92.2 0 0 1-2-3l-2.5-3.2v-.4Zm14 9h-.2v-.4h1.4l1.4 3.3.4-1.3.3-1.5c0-.1-.1-.2-.4-.2h-.2a.7.7 0 0 1 .1-.2 14 14 0 0 1 1.3 0h.2v.2h-.1c-.3 0-.5.1-.6.3l-1 3.8h-.2l-.8-2-.8-1.9-.4 1.7-.5 1.7c0 .1.2.2.5.2h.1v.3h-1.6a.6.6 0 0 1 0-.3h.2c.3 0 .5 0 .5-.2l.5-1.8.4-1.8h-.3Z" fill="#fff"/><path d="M164 221c.5 0 1-.2 1.3-.6.4-.5.6-1 .6-1.5s-.2-.8-.6-1a29.8 29.8 0 0 1-2.1-.7c-.5-.3-.7-.8-.7-1.4 0-.5 0-1 .3-1.3l.8-1 .8-.4.8-.2h.2a2 2 0 0 1 1.7.8l.1-.2a17.1 17.1 0 0 0 .6-.6h.2a23.2 23.2 0 0 1-.7 3h-.2c-.1 0-.2 0-.2-.2a5.9 5.9 0 0 1 0-.6 2 2 0 0 0-.3-1.1l-.3-.3c-.3-.2-.6-.3-1-.3s-.8.2-1.2.6c-.4.3-.6.7-.6 1.2 0 .2 0 .5.2.6 0 .2.3.3.5.4a14 14 0 0 0 1.6.4l.8.6c.2.3.3.7.3 1.2v.6l-.3.6-.4.7c-.2.3-.4.5-.8.7-.3.3-.7.4-1 .5h-.5c-.8 0-1.4-.2-1.8-.6l-.1-.2-.4.4-.3.4h-.3a184 184 0 0 1 1-3l.1.2v.7c0 .3 0 .6.2.8l.5.5a2.7 2.7 0 0 0 1.2.3Zm5.6-3.3h-.3v-.4h1.7l1.8 4.3.5-1.8.4-1.8c0-.2-.2-.3-.5-.3l-.2-.1a1 1 0 0 1 0-.3h.4a42.8 42.8 0 0 0 1.7.1v.3h-.3c-.4 0-.6.1-.7.3l-1.3 5h-.3l-1-2.5-1.1-2.5-.6 2.1-.5 2.3c0 .2.2.2.6.2l.1.1v.3h-2.1v-.4h.3c.3 0 .6-.2.7-.4l.6-2.3.6-2.3h-.5Zm13.4-.1h-.2l-.4-.1a.6.6 0 0 1-.2-.5c0-.2 0-.3.2-.4v-.1a4 4 0 0 0-.7 0c-.4 0-.7 0-1 .3a3 3 0 0 0-.5 1.9c0 .6.1 1.1.4 1.5.3.5.7.7 1.3.7.3 0 .6 0 .8-.3l.4-.7v-.2h.4v.3a2.3 2.3 0 0 1-.5.9 1.9 1.9 0 0 1-1.4.5c-.7 0-1.2-.3-1.8-.8-.5-.5-.7-1.1-.7-1.9 0-.8.2-1.5.7-2 .6-.5 1.2-.8 1.8-.8.7 0 1.2.2 1.5.4.2.2.4.4.4.7l-.2.5-.2.1Zm1.5 3.1c.3 0 .5 0 .6-.2V217c0-.2-.1-.3-.2-.3l-.5-.1h-.2v-.6h.9a43.3 43.3 0 0 1 .9 0v.7c.3-.5.7-.8 1.1-.8h.1c.4 0 .6.1.8.3.2.2.2.3.2.5l-.1.5-.5.1c-.2 0-.3 0-.4-.2l-.2-.4a.7.7 0 0 1 .1-.3h-.2l-.3.2c-.4.3-.5 1-.5 2.1v1.9h.5l.1.1h.5v.6h-.1a16.6 16.6 0 0 0-2.8 0h-.1v-.6h.3Zm4.5-2a2.9 2.9 0 0 1 .7-2 2.5 2.5 0 0 1 1.6-.8c.4 0 .8.1 1 .3.4.1.6.3.8.6l.3.7v1h-3.3v.2c0 1.2.4 1.9 1.2 2.1l.5.1c.3 0 .6-.1.8-.4.2-.1.3-.3.3-.5l.2-.3h.2l.2.1v.2a2 2 0 0 1-.8 1 2 2 0 0 1-1.2.4c-.7 0-1.3-.3-1.8-.8a3 3 0 0 1-.8-2Zm3.5-.7c0-1-.4-1.6-1.1-1.6h-.5l-.4.3-.2.5-.2.8h2.4Zm3-.4h-.3l-.4-.1a.6.6 0 0 1-.2-.5c0-.3.1-.5.4-.7.3-.2.7-.4 1.4-.4.6 0 1 .2 1.4.4.4.3.6.6.7 1v2.5l.2.8c0 .1 0 .2.2.2.1 0 .2 0 .2-.2l.1-.6v-.5h.5v1.1l-.5.5-.6.2c-.3 0-.4 0-.6-.2l-.3-.5-.1.2-.2.1-.2.2h-.2a5 5 0 0 1-.6.2 2.3 2.3 0 0 1-1.6-.3c-.4-.2-.6-.6-.6-1l.1-.5.3-.5.6-.4 1-.3a6 6 0 0 1 1.2-.2h.2v-.9c-.2-.5-.6-.8-1.2-.8a7.3 7.3 0 0 0-.7 0h-.1c.2.2.2.4.2.6l-.1.5-.2.1Zm-.2 2.4c0 .2.1.5.3.6.2.2.4.3.7.3.3 0 .6 0 .8-.2l.5-.7v-1.5a3.3 3.3 0 0 0-1.5.3l-.5.5a1 1 0 0 0-.3.7Zm4.7-3.7c.5 0 .8-.3 1-.7.3-.4.4-.9.4-1.5v-.1h.5v2.1h1.6v.6h-1.6v1.7a339.5 339.5 0 0 1 0 2c.2.4.4.5.7.5.3 0 .5-.3.6-.8v-1h.5v.6c0 .6-.2 1-.5 1.4-.2.2-.5.3-.8.3-.3 0-.5 0-.7-.2-.2 0-.4-.2-.5-.3a2 2 0 0 1-.2-.5v-.3l-.1-1.8v-1.6h-1v-.4h.2Zm4.7 2.4a2.9 2.9 0 0 1 .8-2 2.5 2.5 0 0 1 1.6-.8c.4 0 .8.1 1 .3.4.1.6.3.7.6l.4.7v1h-3.3v.2c0 1.2.3 1.9 1.1 2.1l.6.1c.3 0 .6-.1.8-.4.1-.1.3-.3.3-.5l.2-.3h.1l.3.1v.2a2 2 0 0 1-.8 1 2 2 0 0 1-1.2.4c-.7 0-1.4-.3-1.8-.8a3 3 0 0 1-.8-2Zm3.6-.7c0-1-.5-1.6-1.1-1.6h-.5l-.4.3-.2.5-.2.8h2.4Zm5.7-2.6v-1.5l-.6-.2h-.3v-.5h.2a8.1 8.1 0 0 1 .8-.1 48.8 48.8 0 0 1 .9 0v3.5a214.1 214.1 0 0 0 .2 4l.5.1h.3v.6a119.5 119.5 0 0 0-1.9 0v-.6l-.2.1c-.4.4-1 .6-1.5.6-.6 0-1.2-.3-1.6-.7-.5-.5-.8-1.2-.8-2s.3-1.4.8-2c.5-.4 1-.7 1.7-.7.6 0 1.1.2 1.6.6v-1.2Zm0 1.8c-.3-.5-.8-.7-1.3-.7a1.5 1.5 0 0 0-1.4 1.1 6.6 6.6 0 0 0 0 2.2c0 .3.1.5.4.8.2.2.5.3.9.3.6 0 1-.3 1.4-.9v-2.8Zm9.5.4h-.2l-.4-.1a.7.7 0 0 1-.2-.5c0-.2 0-.3.2-.4v-.1h-.7c-.4 0-.7 0-1 .3a3 3 0 0 0-.5 1.9c0 .6.1 1.1.4 1.5.3.5.7.7 1.3.7.3 0 .6 0 .8-.3l.4-.7v-.2h.4v.3a2.4 2.4 0 0 1-.5.9 1.9 1.9 0 0 1-1.4.5c-.7 0-1.3-.3-1.8-.8s-.7-1.1-.7-1.9c0-.8.2-1.5.7-2 .6-.5 1.1-.8 1.8-.8s1.2.2 1.4.4c.3.2.4.4.4.7 0 .2 0 .4-.2.5l-.2.1Zm1.3 1.1a2.9 2.9 0 0 1 .8-2 2.5 2.5 0 0 1 1.5-.8c.5 0 .8.1 1.1.3.3.1.5.3.7.6.2.2.3.5.3.7l.1.8v.2h-3.4v.2c0 1.2.4 1.9 1.2 2.1l.5.1c.4 0 .6-.1.9-.4l.3-.5.1-.3h.2l.2.1v.2a2 2 0 0 1-.7 1 2 2 0 0 1-1.2.4c-.8 0-1.4-.3-1.9-.8-.5-.6-.7-1.2-.7-2Zm3.6-.7c-.1-1-.5-1.6-1.2-1.6h-.5l-.3.3-.3.5-.2.8h2.5Zm1.9 2.7c.3 0 .5 0 .6-.2v-.7a10.2 10.2 0 0 1 0-1v-1.7c0-.2 0-.3-.2-.3l-.5-.1h-.2v-.6h.1a8 8 0 0 1 .8 0 67.8 67.8 0 0 1 .9 0v.8h.1l.1-.2.3-.2.3-.2.5-.2h.6c.9 0 1.4.4 1.5 1.3v3.2h.1l.6.1h.2v.6h-.4a13.6 13.6 0 0 0-1 0h-1.4v-.6h.1c.5 0 .8 0 .8-.2a43.2 43.2 0 0 0-.3-3.8.8.8 0 0 0-.3-.2h-.3c-.3 0-.6.1-1 .4l-.3.6-.1 1v1.5a5.9 5.9 0 0 0 0 .6h.2l.5.1h.2v.6h-.3a14.4 14.4 0 0 0-1.1 0H230v-.6h.3Zm6.3-4.4c.4 0 .7-.3 1-.7.2-.4.3-.9.3-1.5v-.1h.5v2.1h1.6v.6h-1.6v1.7a436 436 0 0 1 .1 2c.1.4.3.5.6.5s.5-.3.6-.8v-1h.5v.6c0 .6-.2 1-.5 1.4-.2.2-.5.3-.8.3-.3 0-.5 0-.7-.2-.2 0-.4-.2-.5-.3a2 2 0 0 1-.2-.5v-3.7h-1v-.4Zm4.9 4.4c.3 0 .5 0 .5-.2V217l-.1-.3-.6-.1h-.2v-.6h.9a41.5 41.5 0 0 1 .9 0v.7c.3-.5.7-.8 1.2-.8.4 0 .7.1.8.3.2.2.3.3.3.5s0 .3-.2.5l-.4.1c-.2 0-.4 0-.5-.2l-.1-.4a.7.7 0 0 1 0-.3h.1-.3l-.2.2c-.4.3-.6 1-.6 2.1v1.8l.1.1h.4l.2.1h.4v.6a16.6 16.6 0 0 0-2.9 0v-.6h.3Zm4.3-2a2.9 2.9 0 0 1 .9-2 2.5 2.5 0 0 1 1.5-.8c.4 0 .8.1 1.1.3.3.1.5.3.7.6.2.2.3.5.3.7l.1.8v.2H247v.2c0 1.2.4 1.9 1.2 2.1l.5.1c.3 0 .6-.1.9-.4l.3-.5.1-.3h.2l.2.1v.2a2 2 0 0 1-.8 1 2 2 0 0 1-1.1.4c-.8 0-1.4-.3-1.9-.8-.5-.6-.7-1.2-.8-2Zm3.7-.7c-.1-1-.5-1.6-1.2-1.6h-.5l-.3.3-.3.5-.2.8h2.5Zm5.7-2.6v-1.5l-.7-.2h-.2v-.5h.1a8.1 8.1 0 0 1 .8-.1 51.2 51.2 0 0 1 1 0v3.5a214.1 214.1 0 0 0 .2 4l.5.1h.2v.6a128.8 128.8 0 0 0-1.8 0h-.1v-.6l-.1.1c-.5.4-1 .6-1.5.6-.7 0-1.2-.3-1.7-.7-.5-.5-.7-1.2-.7-2s.2-1.4.7-2c.5-.4 1.1-.7 1.8-.7.6 0 1 .2 1.5.6v-1.2Zm0 1.8c-.4-.5-.8-.7-1.3-.7a1.5 1.5 0 0 0-1.5 1.1 6.7 6.7 0 0 0 0 2.2c0 .3.2.5.4.8.3.2.6.3 1 .3.5 0 1-.3 1.4-.9v-2.8Zm6.8.4h-.3l-.5-.1a.6.6 0 0 1-.1-.5c0-.3.1-.5.4-.7.2-.2.7-.4 1.4-.4.6 0 1 .2 1.4.4.4.3.6.6.7 1v2.5l.1.8.3.2c.1 0 .2 0 .2-.2v-1.1h.6v1.1l-.5.5-.6.2c-.3 0-.5 0-.6-.2l-.3-.5-.2.2-.1.1-.2.2h-.2a4.7 4.7 0 0 1-.6.2 2.3 2.3 0 0 1-1.6-.3c-.4-.2-.6-.6-.6-1l.1-.5.3-.5.6-.4 1-.3a6 6 0 0 1 1.2-.2h.2v-.9c-.3-.5-.6-.8-1.2-.8a7.2 7.2 0 0 0-.7 0h-.1l.2.6c0 .2 0 .4-.2.5l-.2.1Zm-.2 2.4c0 .2.1.5.3.6.2.2.4.3.7.3.3 0 .6 0 .8-.2l.5-.7v-1.5a3.3 3.3 0 0 0-1.5.3l-.5.5a1 1 0 0 0-.3.7Zm4.8-3.7c.4 0 .7-.3 1-.7.2-.4.3-.9.3-1.5v-.1h.5v2.1h1.6v.6h-1.6v1.7a436 436 0 0 1 0 2c.2.4.4.5.7.5.3 0 .5-.3.6-.8v-1h.5v.6c0 .6-.2 1-.5 1.4-.2.2-.5.3-.8.3-.3 0-.5 0-.7-.2-.2 0-.4-.2-.5-.3a2 2 0 0 1-.2-.5l-.1-.3v-3.4h-1v-.4h.2Zm7.9 7.5h-.3l-.1-.3a94.2 94.2 0 0 1 1.8-7.2c0-.2.2-.3.5-.3l.2.1.2.1v.2l-.4 1.5a31.9 31.9 0 0 0-.4 2v.2c0 .6.3.8.8.8h.4l.2-.1h.1l.2-.2.1-.1.1-.2h.1l.1-.2.1-.2.4-1.6.5-1.8c.1-.2.3-.4.5-.4l.3.1.1.2-.9 3.9v.1l.1.4.2.1h.3c.2-.2.3-.6.5-1.2v-.2h.5v.4l-.3.6a2 2 0 0 1-.4.6l-.4.2h-.7a1 1 0 0 1-.3-.2l-.2-.2a.7.7 0 0 1-.2-.3v.1l-.2.2-.4.2a1.9 1.9 0 0 1-.9.3 2 2 0 0 1-1-.3l-.4 1.2a40 40 0 0 1-.4 1.3c-.1.2-.3.2-.4.2Zm8.5-6.1h-.4v-.4h1.7l1.8 4.3.5-1.8.4-1.8c0-.2-.2-.3-.5-.3l-.2-.1a1 1 0 0 1 0-.3h.4a42.8 42.8 0 0 0 1.7.1v.3h-.3c-.4 0-.6.1-.7.3l-1.3 5h-.3l-1-2.5-1.1-2.5-.6 2.1-.5 2.3c0 .2.2.2.6.2l.1.1v.3h-2v-.4h.2c.4 0 .6-.2.7-.4l.6-2.3.6-2.3h-.5Zm10.6-.1h-.3l-.4-.1a.6.6 0 0 1-.2-.5c0-.3.1-.5.4-.7.3-.2.7-.4 1.4-.4.6 0 1 .2 1.4.4.4.3.6.6.7 1v.3l.1 1.4v1.6l.3.2c.1 0 .2 0 .2-.2l.1-.6v-.5h.5v1.1l-.5.5-.6.2c-.3 0-.4 0-.6-.2l-.3-.5-.1.2-.2.1-.2.2h-.2a4.7 4.7 0 0 1-.5.2h-.4c-.5 0-1 0-1.3-.3-.4-.2-.6-.6-.6-1l.1-.5.3-.5.6-.4 1-.3a6 6 0 0 1 1.2-.2h.2v-.9c-.2-.5-.6-.8-1.2-.8a6.4 6.4 0 0 0-.7 0h-.1l.3.6-.2.5-.2.1Zm-.2 2.4c0 .2.1.5.3.6.2.2.4.3.7.3.3 0 .6 0 .8-.2l.5-.7v-1.5h-.3l-.5.1-.7.2-.5.5a1 1 0 0 0-.3.7Zm5.1.7c.3 0 .5 0 .6-.2v-.7a10.2 10.2 0 0 1 0-1v-1.7c0-.2-.1-.3-.2-.3l-.5-.1h-.2v-.6h.1a7.8 7.8 0 0 1 .8 0 72.4 72.4 0 0 1 .9 0v.8l.2-.2.2-.2.4-.2.4-.2h.6c1 0 1.4.4 1.5 1.3v3.2h.2l.6.1h.2v.6h-.4a13.6 13.6 0 0 0-1 0h-1.4v-.6h.1c.5 0 .8 0 .8-.2a43.2 43.2 0 0 0-.3-3.8.8.8 0 0 0-.3-.2h-.3c-.3 0-.7.1-1 .4l-.3.6-.1 1v1.5a5.9 5.9 0 0 0 0 .6h.1l.6.1h.2v.6h-.4a14.4 14.4 0 0 0-1 0h-1.4v-.6h.3Zm10.4-5.3v-.9l-.1-.6-.6-.2h-.2v-.5h.1a8.1 8.1 0 0 1 .8-.1 51.2 51.2 0 0 1 1 0v3.5a214.1 214.1 0 0 0 .1 4l.6.1h.2v.6a128.8 128.8 0 0 0-1.9 0v-.6l-.1.1c-.5.4-1 .6-1.6.6-.6 0-1.1-.3-1.6-.7-.5-.5-.7-1.2-.7-2s.2-1.4.7-2c.5-.4 1-.7 1.7-.7.6 0 1.2.2 1.6.6v-1.2Zm0 1.8c-.4-.5-.8-.7-1.4-.7a1.5 1.5 0 0 0-1.4 1.1 6.6 6.6 0 0 0 0 2.2c0 .3.2.5.4.8.2.2.5.3 1 .3s1-.3 1.4-.9v-2.8Zm6.1-.3-.1-.1-.4-.1h-.3v-.6h.3a12.2 12.2 0 0 1 .9 0h1.3v.6h-.2c-.3 0-.4 0-.4.2l.5 1.5.5 1.5 1-2.5-.2-.2c0-.3-.1-.4-.2-.4l-.4-.1h-.3v-.6h2.4v.6c-.4 0-.6 0-.6.2l.1.5a50.7 50.7 0 0 0 .8 2.2l.2.5.5-1.4.5-1.6-.2-.3a.9.9 0 0 0-.4-.1h-.1v-.6a9 9 0 0 0 2 0h.1v.6h-.2c-.4 0-.6.3-.8.6l-.7 2a146.5 146.5 0 0 0-.8 2h-.4l-.6-1.6-.5-1.6a394.7 394.7 0 0 0-1.4 3.3l-.3-.1-1.5-4.4Zm8.4-2.9c0-.2 0-.4.2-.5l.5-.2.5.2.2.5-.2.6-.5.1-.5-.1c-.2-.1-.2-.3-.2-.6Zm2 7.3H323v-.6h.7l.2-.2V217l-.2-.2-.6-.1h-.1v-.6h.9a72.4 72.4 0 0 1 .9 0v4.4l.2.2h.7v.6h-.1Zm.8-5c.4 0 .7-.3 1-.7.2-.4.3-.9.3-1.5v-.1h.5v2.1h1.6v.6H328v1.7a436 436 0 0 1 0 2c.2.4.4.5.7.5.3 0 .5-.3.6-.8v-1h.5v.6c0 .6-.2 1-.5 1.4-.2.2-.5.3-.8.3-.3 0-.5 0-.7-.2-.2 0-.4-.2-.5-.3a2 2 0 0 1-.2-.5l-.1-.3v-3.4h-1v-.4h.2Zm4.9 4.4c.3 0 .5 0 .6-.2v-1.2a15.2 15.2 0 0 1 0-1.3v-2.5a21 21 0 0 0 0-1.4l-.2-.3h-.8v-.7h.2a8.1 8.1 0 0 1 .8-.1 51.2 51.2 0 0 1 .9 0v3.8c.5-.6 1-.9 1.7-.9 1 0 1.5.5 1.6 1.4v3.2h.2l.6.1h.2v.6h-.4a13.6 13.6 0 0 0-1 0H334v-.6h.1c.5 0 .7 0 .7-.2a43.2 43.2 0 0 0-.2-3.8.8.8 0 0 0-.3-.2h-.3c-.4 0-.7.1-1 .4l-.3.6-.1 1v1.5a5.9 5.9 0 0 0 0 .6h.1l.6.1h.2v.6h-.4a14.4 14.4 0 0 0-1 0h-1.4v-.6h.3Zm13.3-3.1h-.3l-.4-.1a.7.7 0 0 1-.2-.5c0-.2 0-.3.2-.4v-.1h-.7c-.3 0-.7 0-.9.3-.4.4-.6 1-.6 1.9 0 .6.2 1.1.4 1.5.3.5.8.7 1.3.7.3 0 .6 0 .8-.3l.4-.7v-.2h.4l.1.1v.2a2.4 2.4 0 0 1-.6.9 1.9 1.9 0 0 1-1.4.5c-.6 0-1.2-.3-1.7-.8s-.8-1.1-.8-1.9c0-.8.3-1.5.8-2s1-.8 1.8-.8c.6 0 1.1.2 1.4.4.2.2.4.4.4.7 0 .2 0 .4-.2.5l-.2.1Zm1.2 1.1c0-.7.2-1.4.8-2a2.5 2.5 0 0 1 3.6 0c.6.6.8 1.2.8 2a2.6 2.6 0 0 1-2.6 2.7c-.8 0-1.4-.3-1.9-.8-.5-.6-.7-1.2-.7-1.9Zm2.6 2.2c1 0 1.5-.6 1.5-2v-1.1l-.1-.4-.2-.4-.4-.4-.6-.2h-.2l-.6.1c-.4.2-.6.4-.7.7l-.2 1.1v.3c0 .7.1 1.3.3 1.6.2.5.6.7 1.2.7Zm7-4.8h2v.6h-.1c-.5 0-.8.2-1 .5a193.5 193.5 0 0 0-1.5 4l-.3.2-.3-.1a406 406 0 0 1-1.9-4.6h-.7v-.6h.7a3.7 3.7 0 0 1 .5 0h1.4v.6h-.2c-.3 0-.4 0-.4.2l.6 1.6.6 1.5 1-2.8v-.4h-.3l-.2-.1v-.6Zm3.8 1.5h-.2l-.5-.1a.6.6 0 0 1-.1-.5c0-.3.1-.5.4-.7.2-.2.7-.4 1.4-.4.6 0 1 .2 1.4.4.4.3.6.6.7 1v2.5l.1.8.3.2c.1 0 .2 0 .2-.2v-1.1h.6v1.1l-.5.5-.6.2c-.3 0-.5 0-.6-.2l-.3-.5-.2.2-.1.1-.2.2h-.2a4.7 4.7 0 0 1-.6.2 2.3 2.3 0 0 1-1.6-.3c-.4-.2-.6-.6-.6-1l.1-.5.3-.5.6-.4 1-.3a6 6 0 0 1 1.2-.2h.2v-.9c-.3-.5-.6-.8-1.2-.8a7.3 7.3 0 0 0-.7 0h-.1c.2.2.2.4.2.6 0 .2 0 .4-.2.5l-.2.1Zm0 2.4c0 .2 0 .5.2.6.2.2.4.3.7.3.3 0 .6 0 .8-.2l.5-.7v-1.5a3.4 3.4 0 0 0-1.5.3l-.5.5a1 1 0 0 0-.3.7Zm5 .7c.2 0 .4 0 .5-.2V217c0-.2 0-.3-.2-.3l-.5-.1h-.2v-.6h.9a43.3 43.3 0 0 1 .9 0v.7c.3-.5.7-.8 1.2-.8.4 0 .6.1.8.3.2.2.3.3.3.5s0 .3-.2.5l-.4.1c-.2 0-.4 0-.5-.2l-.1-.4a.7.7 0 0 1 0-.3h-.2l-.3.2c-.3.3-.5 1-.5 2.1v1.9h.5l.1.1h.5v.6a16.6 16.6 0 0 0-3 0v-.6h.3Zm4.8-6.7c0-.2 0-.4.2-.5l.5-.2.5.2.2.5c0 .3 0 .5-.2.6l-.5.1-.5-.1-.2-.6Zm2.1 7.3h-2.6v-.6h.8l.1-.2V217c0-.1 0-.2-.2-.2l-.5-.1h-.2v-.6h.9a72.4 72.4 0 0 1 1 0v4.4l.1.2h.7v.6Zm2-3.7h-.3l-.4-.1a.6.6 0 0 1-.2-.5c0-.3.2-.5.4-.7.3-.2.8-.4 1.5-.4.5 0 1 .2 1.4.4.3.3.6.6.7 1v2.5l.1.8.2.2c.2 0 .2 0 .3-.2v-1.1h.5v1.1c0 .2-.2.4-.4.5l-.7.2c-.2 0-.4 0-.5-.2a.5.5 0 0 1-.3-.5h-.1l-.1.2-.1.1c-.1 0-.2 0-.2.2h-.2a4.6 4.6 0 0 1-.6.2 2.3 2.3 0 0 1-1.6-.3c-.4-.2-.6-.6-.6-1v-.5l.4-.5.6-.4.9-.3a6 6 0 0 1 1.3-.2h.1v-.9c-.2-.5-.6-.8-1.2-.8a7.3 7.3 0 0 0-.7 0l.2.6c0 .2 0 .4-.2.5l-.2.1Zm-.1 2.4c0 .2 0 .5.3.6.1.2.4.3.7.3.3 0 .5 0 .7-.2.3-.2.4-.4.5-.7v-1.5a3.4 3.4 0 0 0-1.4.3l-.6.5-.2.7Zm5.1.7c.3 0 .4 0 .5-.2v-.7a10.2 10.2 0 0 1 0-1v-1.7c0-.2 0-.3-.2-.3l-.5-.1h-.2v-.6h.1a8 8 0 0 1 .8 0 67.8 67.8 0 0 1 1 0v.8l.2-.2.2-.2.3-.2.5-.2h.6c.9 0 1.4.4 1.5 1.3v3.2h.2l.5.1h.2v.6h-.4a13.6 13.6 0 0 0-1 0h-1.4v-.6h.2c.4 0 .7 0 .7-.2a43.2 43.2 0 0 0-.3-3.8.8.8 0 0 0-.2-.2h-.3c-.4 0-.7.1-1 .4l-.4.6v2.5a5.9 5.9 0 0 0 0 .6l.7.1h.1v.6h-.3a14.5 14.5 0 0 0-1 0h-1.5v-.6h.4Zm10.3-3.1h-.3l-.4-.1a.6.6 0 0 1 0-1h-.7c-.3 0-.7 0-1 .3a3 3 0 0 0-.5 1.9c0 .6.2 1.1.4 1.5.3.5.8.7 1.3.7.3 0 .6 0 .8-.3l.4-.7v-.2h.4l.1.1v.2a2.4 2.4 0 0 1-.6.9 1.9 1.9 0 0 1-1.4.5c-.6 0-1.2-.3-1.7-.8s-.8-1.1-.8-1.9c0-.8.2-1.5.8-2 .5-.5 1-.8 1.7-.8s1.2.2 1.5.4c.2.2.4.4.4.7l-.2.5-.2.1Zm1.2 1.1a2.9 2.9 0 0 1 .8-2 2.5 2.5 0 0 1 1.6-.8c.4 0 .7.1 1 .3.3.1.6.3.7.6l.4.7v1h-3.4v.2c0 1.2.4 1.9 1.2 2.1l.5.1c.4 0 .7-.1.9-.4l.3-.5.1-.3h.2l.3.1v.2a2 2 0 0 1-.8 1 2 2 0 0 1-1.2.4c-.7 0-1.4-.3-1.9-.8-.5-.6-.7-1.2-.7-2Zm3.6-.7c-.1-1-.5-1.6-1.1-1.6h-.5l-.4.3-.3.5-.1.8h2.4Zm5-6h11l.5 1.2.6 1.3h-.4a3 3 0 0 0-1.6-1.5 5 5 0 0 0-1.2-.4l-1.4-.1h-5.7a540.6 540.6 0 0 1 4.3 5.9l-2.4 2.7-2.4 2.7h3.2a51.6 51.6 0 0 1 3.1 0c.5 0 1 0 1.5-.2.5 0 1-.2 1.3-.4l1-.8.3-.7h.4v.2a17 17 0 0 1-.6 1.4l-.5 1.4h-5.5a316.5 316.5 0 0 1-5.5-.2l4.8-5.5-.3-.4a92.2 92.2 0 0 1-2-3l-2.5-3.2v-.4Zm14 9h-.2v-.4h1.4l1.4 3.3.4-1.3.3-1.5c0-.1-.1-.2-.4-.2h-.2a.7.7 0 0 1 .1-.2 14 14 0 0 1 1.3 0h.2v.2h-.1c-.3 0-.5.1-.6.3l-1 3.8h-.2l-.8-2-.8-1.9-.4 1.7-.5 1.7c0 .1.2.2.5.2h.1v.3h-1.6a.6.6 0 0 1 0-.3h.2c.3 0 .5 0 .5-.2l.5-1.8.4-1.8h-.3Z" stroke="#fff"/><path d="m152.2 177.2-4.3-6a8 8 0 0 0-.4-.4v5.8h.8v.4h-2v-.4l.4-.1.2-.4v-6.4h-.6v-.4h1.3l4 5.5.4.4.2.4V170l.1-.4h-.8v-.4h2v.4c-.2 0-.4 0-.5.2l-.2.4v6.9h-.6Zm5 0c-.6 0-1-.1-1.5-.4-.4-.2-.7-.5-1-1-.2-.4-.4-.9-.4-1.4 0-.6.2-1.1.4-1.6.3-.4.6-.8 1-1 .4-.3.9-.5 1.4-.5.5 0 1 .1 1.4.4a2.8 2.8 0 0 1 1.4 2.4 3 3 0 0 1-.4 1.6c-.2.4-.6.8-1 1-.4.3-.9.5-1.4.5Zm0-.5c.4 0 .7 0 1-.3l.4-.9.2-1a4.7 4.7 0 0 0-.4-1.9l-.5-.6a1.3 1.3 0 0 0-1.7.1 2 2 0 0 0-.6.8l-.1 1.2c0 .4 0 .8.2 1.3 0 .4.3.7.5 1 .3.2.6.3 1 .3Zm8.8.5c-.4 0-.7 0-1-.2-.3 0-.5-.2-.7-.3v.4h-.4l-.1-2h.3a1.6 1.6 0 0 0 2.2 1.6l.5-.3.2-.5c0-.2 0-.4-.2-.5l-.5-.4-.6-.3a26.4 26.4 0 0 1-1.3-.6l-.4-.5c-.2-.2-.2-.4-.2-.7a1.7 1.7 0 0 1 .4-1l.5-.4 1-.2.6.1c.3 0 .5.2.7.4v-.4h.5v1.9h-.4c0-.3 0-.5-.2-.7 0-.3-.2-.5-.4-.6-.2-.2-.5-.3-.8-.3-.3 0-.6.1-.8.3-.2.2-.3.3-.3.6 0 .2.1.4.3.5l.5.4.7.3.9.4.6.6c.2.2.3.4.3.8l-.3.9-.7.5-1 .2Zm4.9 0-.6-.1-.4-.3c-.2-.1-.3-.3-.4-.6l-.1-1V172h-.9v-.5c.2 0 .4 0 .6-.2l.6-.6.3-.7h.4v1.5h1.8v.4h-1.8v4c0 .2.2.4.3.5l.5.1.5-.1.5-.5.3.2a1 1 0 0 1-.5.6 1.8 1.8 0 0 1-1.1.5Zm5.5-.2v-.6l-.9.6a2 2 0 0 1-1 .2c-.5 0-.9-.1-1.2-.4-.2-.3-.4-.6-.4-1 0-.3.1-.6.3-.8.3-.3.5-.5.9-.6l1-.4h1.2v-1.5a1 1 0 0 0-.4-.5c-.1-.2-.3-.3-.7-.3-.2 0-.4 0-.6.2-.2 0-.4.2-.5.4l.1.2v.5l-.5.2c-.1 0-.2 0-.3-.2l-.1-.4c0-.2 0-.4.2-.6l.8-.5 1.1-.2c.7 0 1.1.2 1.4.5.3.3.4.9.4 1.6v2.4a5.2 5.2 0 0 1 0 .8h.8v.4h-1.6Zm-.1-2.7a4.4 4.4 0 0 0-1.6.3l-.5.5a1 1 0 0 0-.2.6c0 .3 0 .5.2.7l.6.1.8-.1.7-.5v-1.6Zm4.4 2.9-.5-.1c-.2 0-.3-.1-.5-.3l-.4-.6V172h-1v-.5c.3 0 .5 0 .7-.2l.5-.6c.2-.2.3-.5.3-.7h.4v1.5h1.9v.4h-1.9v4l.3.5.5.1.6-.1.5-.5.3.2-.5.6a1.8 1.8 0 0 1-1.2.5Zm4.9 0c-.5 0-1-.1-1.4-.4-.4-.2-.7-.6-1-1-.2-.4-.3-1-.3-1.5 0-.6 0-1 .3-1.5.3-.4.6-.8 1-1a2.6 2.6 0 0 1 2.3-.3c.3 0 .5.2.7.4l.5.8.2 1-3.9.1c0 .6 0 1 .2 1.5.1.4.3.7.6 1 .3.2.6.3 1 .3l.7-.1c.3 0 .5-.2.7-.3l.5-.5.2.2-.7.8a3 3 0 0 1-1.6.5Zm-1.6-3.8h2.8v-.8l-.4-.6a1 1 0 0 0-.7-.2c-.5 0-.8 0-1.1.3-.3.3-.5.7-.6 1.3Zm-41.5 14.8c-.5 0-1-.1-1.4-.4-.4-.2-.7-.5-1-1a3 3 0 0 1-.3-1.5c0-.3 0-.7.2-1 .1-.4.3-.7.6-1 .2-.3.5-.6.9-.7.3-.2.7-.3 1.2-.3.4 0 .7 0 1 .2.3.1.6.3.7.5.2.2.3.4.3.7l-.1.4-.4.2c-.2 0-.3 0-.4-.2l-.1-.3v-.3l.1-.2c0-.2-.1-.3-.3-.4l-.4-.1h-.4c-.5 0-1 .1-1.3.5a3 3 0 0 0-.5 1.8c0 .5 0 .9.2 1.3s.4.7.7.9c.3.2.6.3 1 .3.3 0 .7 0 1-.3l.7-.6.3.2-.7.7a2.8 2.8 0 0 1-1.6.6Zm6.5-.2v-.6l-.9.6a2 2 0 0 1-1 .2c-.5 0-.9-.1-1.2-.4-.2-.3-.4-.6-.4-1 0-.3.1-.6.3-.8.3-.3.5-.5.9-.6l1-.4h1.2v-1.5a1 1 0 0 0-.4-.5c-.1-.2-.3-.3-.7-.3-.2 0-.4 0-.6.2-.2 0-.4.2-.5.4l.1.2v.5l-.5.2c-.1 0-.2 0-.3-.2l-.1-.4c0-.2 0-.4.2-.6l.8-.5 1.1-.2c.7 0 1.1.2 1.4.5.3.3.4.9.4 1.6v2.4a6 6 0 0 1 0 .8h.8v.4H149Zm-.1-2.7a4.4 4.4 0 0 0-1.6.3l-.5.5a1 1 0 0 0-.2.6c0 .3 0 .5.3.7l.5.1.8-.1.7-.5v-1.6Zm2.4 2.7v-.3c.3 0 .4 0 .5-.2l.1-.5v-3.5l.1-.4h-.8v-.4h.8l.3-.2.2-.1h.4v.2a6.5 6.5 0 0 1 0 .5 3.5 3.5 0 0 1 1.2-.7h.6c.6 0 1.1.1 1.4.5.3.4.4 1 .4 1.9v2a6 6 0 0 1 0 .8h.7v.4h-2.3v-.3c.3 0 .4 0 .5-.2l.2-.5v-2.2c0-.6-.1-1.1-.3-1.4-.2-.4-.5-.5-1-.5-.2 0-.5 0-.8.2a2 2 0 0 0-.6.5v3.2a6 6 0 0 1 0 .8h.7v.4h-2.3Zm9 .2a2 2 0 0 1-1.2-.4 2 2 0 0 1-.8-1c-.2-.3-.3-.8-.3-1.4 0-.6.1-1.1.3-1.6.3-.5.6-.8 1-1a2.8 2.8 0 0 1 2.2-.4l.6.2v-2.2h-.8v-.4h.8l.4-.2.2-.1h.3v7.1a6 6 0 0 1 0 .8h.8v.4h-1.6v-.6a2.3 2.3 0 0 1-1.8.8Zm.5-.6c.2 0 .4 0 .7-.2l.6-.5v-3.8l-.6-.2a2 2 0 0 0-.6-.1c-.4 0-.7 0-1 .3a2 2 0 0 0-.6.9l-.2 1.3.2 1.2c.2.4.3.6.6.8.2.2.5.3.9.3Zm3.8 0h.5l.1-.6v-3.2a4.9 4.9 0 0 1 0-.7h-.7v-.4h.7l.4-.2.3-.1h.3v4.4a6 6 0 0 1 0 .8h.6v.4h-2.2v-.3Zm1-6.3-.4-.2a.7.7 0 0 1-.1-.4l.1-.5.5-.2c.1 0 .3 0 .4.2l.2.5-.2.4-.5.2Zm4.4 6.9a2 2 0 0 1-1.2-.4 2 2 0 0 1-.8-1c-.2-.3-.3-.8-.3-1.4 0-.6 0-1.1.3-1.6s.6-.8 1-1a2.8 2.8 0 0 1 2.2-.4l.6.2v-2.2h-.8v-.4h.8l.4-.2.2-.1h.3v7.1a6 6 0 0 1 0 .8h.7v.4H172v-.3l-.1-.3a2.3 2.3 0 0 1-1.8.8Zm.4-.6c.3 0 .5 0 .7-.2l.7-.5v-3.8l-.6-.2a2 2 0 0 0-.7-.1c-.3 0-.6 0-1 .3a2 2 0 0 0-.5.9c-.2.3-.2.8-.2 1.3s0 .9.2 1.2c.1.4.3.6.5.8.3.2.6.3 1 .3Zm7.2.4v-.6l-.9.6a2 2 0 0 1-1 .2c-.5 0-.9-.1-1.2-.4-.2-.3-.4-.6-.4-1 0-.3.1-.6.3-.8.3-.3.5-.5.9-.6l1-.4h1.2v-1.5a1 1 0 0 0-.4-.5c-.1-.2-.3-.3-.7-.3-.2 0-.4 0-.6.2-.2 0-.4.2-.5.4l.1.2v.5l-.5.2c-.1 0-.2 0-.3-.2l-.1-.4c0-.2 0-.4.2-.6l.8-.5 1.1-.2c.7 0 1.1.2 1.4.5.3.3.4.9.4 1.6v2.4a5.2 5.2 0 0 1 0 .8h.8v.4h-1.6Zm-.1-2.7a4.4 4.4 0 0 0-1.6.3l-.5.5a1 1 0 0 0-.2.6c0 .3 0 .5.2.7l.6.1.8-.1.7-.5v-1.6Zm4.4 2.9-.5-.1c-.2 0-.3-.1-.5-.3l-.4-.6V183h-1v-.5c.3 0 .5 0 .7-.2l.5-.6c.2-.2.3-.5.3-.7h.4v1.5h1.9v.4h-1.9v4l.3.5.5.1.6-.1.5-.5.3.2-.5.6a1.8 1.8 0 0 1-1.2.5Zm4.9 0c-.5 0-1-.1-1.4-.4-.4-.2-.7-.6-1-1-.2-.4-.3-1-.3-1.5 0-.6 0-1 .3-1.5.3-.4.6-.8 1-1a2.6 2.6 0 0 1 2.3-.3c.3 0 .5.2.7.4l.5.8.2 1-3.9.1c0 .6 0 1 .2 1.5.1.4.3.7.6 1 .2.2.6.3 1 .3l.7-.1c.3 0 .5-.2.7-.3l.5-.5.2.2-.7.8a3 3 0 0 1-1.6.5Zm-1.6-3.8h2.8v-.8l-.4-.6a1 1 0 0 0-.7-.2c-.5 0-.8 0-1.1.3-.3.3-.5.7-.6 1.3Zm7.1 3.8c-.4 0-.7 0-1-.2-.3 0-.5-.2-.7-.3v.4h-.4v-2h.3a1.6 1.6 0 0 0 2.2 1.6l.4-.3c.2-.2.2-.3.2-.5s0-.4-.2-.5c0-.2-.2-.3-.4-.4l-.7-.3a26.4 26.4 0 0 1-1.2-.6l-.5-.5-.2-.7a1.7 1.7 0 0 1 .4-1l.6-.4 1-.2.6.1.7.4v-.4h.4v1.9h-.3c0-.3 0-.5-.2-.7-.1-.3-.2-.5-.4-.6-.2-.2-.5-.3-.8-.3-.4 0-.6.1-.8.3-.2.2-.3.3-.3.6 0 .2 0 .4.2.5l.6.4.7.3.8.4.7.6.2.8c0 .3 0 .6-.3.9l-.7.5-.9.2Zm-49.5-78-.1-.7c-.1-.2-.3-.3-.4-.3a4 4 0 0 0-.8 0h-.8v2.5a10.2 10.2 0 0 1 0 .9h2l.9-.2.5-.5c.2-.3.2-.6.2-1h.4v2.1H139v-.4l.6-.1.1-.5v-5.5a7 7 0 0 1 0-.8h-.7v-.4h5.3v2h-.3l-.2-1a1 1 0 0 0-.6-.5 2 2 0 0 0-.7-.1h-1c-.2 0-.4 0-.6.2l-.2.4v2.5h2v-1h.5v2.4h-.4Zm2.7 2.8v-.3c.2 0 .4-.2.5-.3l.5-.6 1.1-1.5a28 28 0 0 0-1-1.4 4.6 4.6 0 0 1-.6-1h-.5v-.4h2.2v.3c-.3 0-.5.1-.5.3 0 .1 0 .4.3.7l.7.9 1-1.2.2-.3.2-.3h-.7v-.4h1.8v.3c-.2 0-.4.2-.5.3a17.2 17.2 0 0 0-1 1l-.8 1 1.5 1.8a15.6 15.6 0 0 0 .5.7h.5v.4h-2.1v-.3c.2 0 .3 0 .4-.2l-.1-.4-1.2-1.4-1 1.3a12.3 12.3 0 0 1-.4.6h.8v.4h-1.8Zm6-.3c.3 0 .4 0 .5-.2l.2-.5v-3.2a4.9 4.9 0 0 1 0-.7h-.8v-.4h.8l.4-.2.2-.1h.3v4.4a6 6 0 0 1 0 .8h.7v.4h-2.3v-.3Zm1.1-6.4c-.2 0-.3 0-.4-.2a.7.7 0 0 1-.2-.4c0-.2 0-.4.2-.5l.4-.2c.2 0 .3 0 .4.2l.2.5c0 .1 0 .3-.2.4l-.4.2Zm4.3 6.9c-.4 0-.7 0-1-.2-.3 0-.5-.2-.7-.3v.4h-.4v-2h.3a1.6 1.6 0 0 0 .8 1.4c.2.2.5.2.8.2h.5l.5-.3.2-.5c0-.2 0-.4-.2-.5l-.5-.4-.6-.3a26.4 26.4 0 0 1-1.3-.6l-.4-.5-.2-.7a1.7 1.7 0 0 1 .4-1c.1-.2.3-.3.6-.4l.9-.2.7.1.7.4v-.4h.4v1.9h-.4l-.1-.7a1 1 0 0 0-.5-.6c-.2-.2-.4-.3-.8-.3-.3 0-.6.1-.7.3-.2.2-.3.3-.3.6 0 .2 0 .4.2.5l.5.4.8.3.8.4c.2.2.5.3.6.6.2.2.3.4.3.8l-.3.9-.7.5-1 .2Zm4.9 0-.5-.1a.5.5 0 0 1-.5-.3c-.2-.1-.3-.3-.4-.6l-.1-1V108h-.8v-.5c.2 0 .3 0 .5-.2l.6-.6.3-.7h.4v1.5h1.8v.4h-1.8v4c0 .2.2.4.3.5l.5.1.6-.1.5-.5.2.2-.4.6a1.8 1.8 0 0 1-1.2.5Zm4.4 0c-.3 0-.7 0-1-.2l-.7-.3v.4h-.4v-2h.3a1.6 1.6 0 0 0 2.2 1.6l.5-.3.1-.5-.1-.5-.5-.4-.7-.3a26.4 26.4 0 0 1-1.2-.6l-.5-.5-.1-.7a1.7 1.7 0 0 1 .3-1l.6-.4 1-.2.6.1.7.4v-.4h.4v1.9h-.3c0-.3 0-.5-.2-.7 0-.3-.2-.5-.4-.6-.2-.2-.5-.3-.8-.3-.3 0-.6.1-.8.3-.2.2-.3.3-.3.6 0 .2 0 .4.2.5l.6.4.7.3.8.4.7.6.2.8c0 .3 0 .6-.3.9-.1.2-.4.4-.7.5l-.9.2Zm8 0c-.4 0-.7 0-1-.2-.3 0-.5-.2-.7-.3v.4h-.4v-2h.3a1.6 1.6 0 0 0 .8 1.4c.3.2.5.2.8.2h.6l.4-.3c.2-.2.2-.3.2-.5s0-.4-.2-.5c0-.2-.2-.3-.4-.4l-.7-.3a26.4 26.4 0 0 1-1.3-.6l-.4-.5-.2-.7.1-.5a1.5 1.5 0 0 1 .9-1h1.6l.7.4v-.4h.4v1.9h-.3l-.2-.7a1 1 0 0 0-.5-.6 1 1 0 0 0-.7-.3c-.4 0-.6.1-.8.3-.2.2-.3.3-.3.6 0 .2 0 .4.2.5l.6.4.7.3.8.4.7.6.2.8c0 .3 0 .6-.3.9l-.7.5-.9.2Zm5 0-.6-.1c-.2 0-.3-.1-.5-.3l-.4-.6V108h-1v-.5c.3 0 .5 0 .7-.2l.5-.6c.2-.2.3-.5.3-.7h.4v1.5h1.9v.4h-1.9v4l.3.5.5.1.6-.1.5-.5.3.2-.5.6a1.8 1.8 0 0 1-1.2.5Zm5.4-.2v-.6l-.8.6a2 2 0 0 1-1 .2c-.5 0-1-.1-1.2-.4-.3-.3-.4-.6-.4-1 0-.3 0-.6.3-.8.2-.3.5-.5.8-.6l1.1-.4h1.1v-1.5a1 1 0 0 0-.3-.5 1 1 0 0 0-.7-.3c-.2 0-.4 0-.7.2-.2 0-.4.2-.5.4l.2.2v.2l-.1.3-.4.2c-.2 0-.3 0-.4-.2v-.4c0-.2 0-.4.2-.6.2-.2.4-.4.8-.5l1.1-.2c.6 0 1 .2 1.4.5.3.3.4.9.4 1.6v2.4a6 6 0 0 1 0 .8h.7v.4h-1.6Zm0-2.7a4.4 4.4 0 0 0-1.6.3l-.6.5a1 1 0 0 0-.2.6c0 .3.1.5.3.7l.6.1.8-.1.6-.5v-1.6Zm4.4 2.9-.6-.1-.4-.3c-.2-.1-.3-.3-.4-.6l-.1-1V108h-.9v-.5c.2 0 .4 0 .6-.2l.6-.6.3-.7h.4v1.5h1.8v.4h-1.8v4c0 .2.2.4.3.5l.5.1.5-.1.5-.5.3.2a1 1 0 0 1-.5.6 1.8 1.8 0 0 1-1.1.5Zm4.8 0c-.5 0-1-.1-1.4-.4-.4-.2-.7-.6-1-1-.2-.4-.3-1-.3-1.5 0-.6.1-1 .4-1.5a2 2 0 0 1 1-1 2.6 2.6 0 0 1 2.3-.3l.7.4.5.8.1 1-3.8.1.1 1.5.6 1c.3.2.7.3 1 .3l.8-.1.6-.3.5-.5.3.2-.7.8a3 3 0 0 1-1.7.5Zm-1.5-3.8h2.8l-.1-.8c-.1-.2-.2-.5-.4-.6a1 1 0 0 0-.7-.2c-.4 0-.8 0-1 .3-.3.3-.5.7-.6 1.3ZM143 124.2c-.5 0-1-.1-1.4-.4-.4-.2-.7-.5-1-1a3 3 0 0 1-.3-1.5c0-.3 0-.7.2-1 .1-.4.3-.7.6-1 .2-.3.5-.6.9-.7.3-.2.7-.3 1.2-.3.4 0 .7 0 1 .2.3.1.6.3.7.5.2.2.3.4.3.7l-.1.4-.4.2c-.2 0-.3 0-.4-.2l-.1-.3v-.3l.1-.2c0-.2-.1-.3-.3-.4l-.4-.1h-.4c-.5 0-1 .1-1.3.5a3 3 0 0 0-.5 1.8c0 .5 0 .9.2 1.3s.4.7.7.9c.3.2.6.3 1 .3.3 0 .7 0 1-.3l.7-.6.3.2-.7.7a2.8 2.8 0 0 1-1.6.6Zm6.5-.2v-.6l-.9.6a2 2 0 0 1-1 .2c-.5 0-.9-.1-1.2-.4-.2-.3-.4-.6-.4-1 0-.3.1-.6.3-.8.3-.3.5-.5.9-.6l1-.4h1.2v-1.5a1 1 0 0 0-.4-.5c-.1-.2-.3-.3-.7-.3-.2 0-.4 0-.6.2-.2 0-.4.2-.5.4l.1.2v.5l-.5.2c-.1 0-.2 0-.3-.2l-.1-.4c0-.2 0-.4.2-.6l.8-.5 1.1-.2c.7 0 1.1.2 1.4.5.3.3.4.9.4 1.6v2.4a6 6 0 0 1 0 .8h.8v.4h-1.6Zm-.1-2.7a4.4 4.4 0 0 0-1.6.3l-.5.5a1 1 0 0 0-.2.6c0 .3 0 .5.3.7l.5.1.8-.1.7-.5v-1.6Zm2.4 2.7v-.3c.3 0 .4 0 .5-.2l.1-.5v-3.5l.1-.4h-.8v-.4h.8l.3-.2.2-.1h.4v.2a6.5 6.5 0 0 1 0 .5 3.5 3.5 0 0 1 1.2-.7h.6c.6 0 1.1.1 1.4.5.3.4.4 1 .4 1.9v2a6 6 0 0 1 0 .8h.7v.4h-2.3v-.3c.3 0 .4 0 .5-.2l.2-.5v-2.2c0-.6-.1-1.1-.3-1.4-.2-.4-.5-.5-1-.5-.2 0-.5 0-.8.2a2 2 0 0 0-.6.5v3.2a6 6 0 0 1 0 .8h.7v.4h-2.3Zm9 .2a2 2 0 0 1-1.2-.4 2 2 0 0 1-.8-1c-.2-.3-.3-.8-.3-1.4 0-.6.1-1.1.3-1.6.3-.5.6-.8 1-1a2.8 2.8 0 0 1 2.2-.4l.6.2v-2.2h-.8v-.4h.8l.4-.2.2-.1h.3v7.1a6 6 0 0 1 0 .8h.8v.4h-1.6v-.6a2.3 2.3 0 0 1-1.8.8Zm.5-.6c.2 0 .4 0 .7-.2l.6-.5v-3.8l-.6-.2a2 2 0 0 0-.6-.1c-.4 0-.7 0-1 .3a2 2 0 0 0-.6.9l-.2 1.3.2 1.2c.2.4.3.6.6.8.2.2.5.3.9.3Zm3.8 0h.5l.1-.6v-3.2a4.9 4.9 0 0 1 0-.7h-.7v-.4h.7l.4-.2.3-.1h.3v4.4a6 6 0 0 1 0 .8h.6v.4h-2.2v-.3Zm1-6.3-.4-.2a.7.7 0 0 1-.1-.4l.1-.5.5-.2c.1 0 .3 0 .4.2l.2.5-.2.4-.5.2Zm4.4 6.9a2 2 0 0 1-1.2-.4 2 2 0 0 1-.8-1c-.2-.3-.3-.8-.3-1.4 0-.6 0-1.1.3-1.6s.6-.8 1-1a2.8 2.8 0 0 1 2.2-.4l.6.2v-2.2h-.8v-.4h.8l.4-.2.2-.1h.3v7.1a6 6 0 0 1 0 .8h.7v.4h-1.5v-.3l-.1-.3a2.3 2.3 0 0 1-1.8.8Zm.4-.6c.3 0 .5 0 .7-.2l.7-.5v-3.8l-.6-.2a2 2 0 0 0-.7-.1c-.3 0-.6 0-1 .3a2 2 0 0 0-.5.9c-.2.3-.2.8-.2 1.3s0 .9.2 1.2c.1.4.3.6.5.8.3.2.6.3 1 .3Zm7.2.4v-.6l-.9.6a2 2 0 0 1-1 .2c-.5 0-.9-.1-1.2-.4-.2-.3-.4-.6-.4-1 0-.3.1-.6.3-.8.3-.3.5-.5.9-.6l1-.4h1.2v-1.5a1 1 0 0 0-.4-.5c-.1-.2-.3-.3-.7-.3-.2 0-.4 0-.6.2-.2 0-.4.2-.5.4l.1.2v.5l-.5.2c-.1 0-.2 0-.3-.2l-.1-.4c0-.2 0-.4.2-.6l.8-.5 1.1-.2c.7 0 1.1.2 1.4.5.3.3.4.9.4 1.6v2.4a5.2 5.2 0 0 1 0 .8h.8v.4H178Zm-.1-2.7a4.4 4.4 0 0 0-1.6.3l-.5.5a1 1 0 0 0-.2.6c0 .3 0 .5.2.7l.6.1.8-.1.7-.5v-1.6Zm4.4 2.9-.5-.1c-.2 0-.3-.1-.5-.3l-.4-.6V119h-1v-.5c.3 0 .5 0 .7-.2l.5-.6c.2-.2.3-.5.3-.7h.4v1.5h1.9v.4h-1.9v4l.3.5.5.1.6-.1.5-.5.3.2-.5.6a1.8 1.8 0 0 1-1.2.5Zm4.9 0c-.5 0-1-.1-1.4-.4-.4-.2-.7-.6-1-1-.2-.4-.3-1-.3-1.5 0-.6 0-1 .3-1.5.3-.4.6-.8 1-1a2.6 2.6 0 0 1 2.3-.3c.3 0 .5.2.7.4l.5.8.2 1-3.9.1c0 .6 0 1 .2 1.5.1.4.3.7.6 1 .2.2.6.3 1 .3l.7-.1c.3 0 .5-.2.7-.3l.5-.5.2.2-.7.8a3 3 0 0 1-1.6.5Zm-1.6-3.8h2.8v-.8l-.4-.6a1 1 0 0 0-.7-.2c-.5 0-.8 0-1.1.3-.3.3-.5.7-.6 1.3Zm7.1 3.8c-.4 0-.7 0-1-.2-.3 0-.5-.2-.7-.3v.4h-.4v-2h.3a1.6 1.6 0 0 0 2.2 1.6l.4-.3c.2-.2.2-.3.2-.5s0-.4-.2-.5c0-.2-.2-.3-.4-.4l-.7-.3a26.4 26.4 0 0 1-1.2-.6l-.5-.5-.2-.7a1.7 1.7 0 0 1 .4-1l.6-.4 1-.2.6.1.7.4v-.4h.4v1.9h-.3c0-.3 0-.5-.2-.7-.1-.3-.2-.5-.4-.6-.2-.2-.5-.3-.8-.3-.4 0-.6.1-.8.3-.2.2-.3.3-.3.6 0 .2 0 .4.2.5l.6.4.7.3.8.4.7.6.2.8c0 .3 0 .6-.3.9l-.7.5-.9.2Z" fill="#fff"/><rect x="96.6" y="9.1" width="8.8" height="8.8" rx="2.4" stroke="#fff" stroke-width="1.3" stroke-dasharray="2.5 2.5"/><path d="M113.2 10.7c-.3 0-.5 0-.6.2l-.1.4v5.4a11 11 0 0 1 0 .9h.7v.4h-2.5v-.4c.3 0 .5 0 .6-.2l.2-.4v-5.5a7 7 0 0 1 0-.8h-.8v-.4h2.5v.4Zm1 7.3v-.3c.2 0 .4 0 .5-.2l.1-.5v-3.5l.1-.4h-.8v-.4h.8l.3-.2.2-.1h.3v.2a6.6 6.6 0 0 1 0 .5 3.5 3.5 0 0 1 1.2-.7h.7c.6 0 1 .1 1.4.5.3.4.4 1 .4 1.9v2a6 6 0 0 1 0 .8h.7v.4h-2.3v-.3c.3 0 .4 0 .5-.2l.2-.5v-2.2c0-.6-.1-1.1-.3-1.4-.2-.4-.6-.5-1-.5-.3 0-.5 0-.8.2a2 2 0 0 0-.6.5v3.2a6 6 0 0 1 0 .8h.6v.4h-2.2Zm8.7.2-.6-.1-.5-.3-.3-.6-.1-1V13h-.9v-.5c.2 0 .4 0 .6-.2.2-.1.4-.3.5-.6l.4-.7h.4v1.5h1.8v.4h-1.8v4c0 .2.2.4.3.5l.5.1.5-.1.5-.5.3.2a1 1 0 0 1-.5.6 1.8 1.8 0 0 1-1.1.5Zm4.8 0c-.5 0-1-.1-1.4-.4-.4-.2-.7-.6-1-1-.2-.4-.3-1-.3-1.5 0-.6.1-1 .4-1.5a2 2 0 0 1 1-1 2.6 2.6 0 0 1 2.3-.3l.7.4.5.8.1 1-3.8.1.1 1.5.6 1c.3.2.6.3 1 .3l.8-.1.6-.3.5-.5.3.2-.7.8a3 3 0 0 1-1.7.5Zm-1.5-3.8h2.8l-.1-.8c-.1-.2-.2-.5-.4-.6a1 1 0 0 0-.7-.2c-.4 0-.8 0-1 .3-.3.3-.5.7-.6 1.3Zm4.8 3.3c.2 0 .4 0 .5-.2l.1-.5v-3.5l.1-.4h-.4a7 7 0 0 0-.4 0v-.4h.4l.6-.1.3-.2h.3v1.1l.5-.6.7-.4.7-.2c.2 0 .4 0 .6.2l.2.5a.6.6 0 0 1-.2.5h-.3l-.4-.1c-.1-.2-.2-.3-.1-.5-.2 0-.4 0-.6.2a2 2 0 0 0-.5.4 3 3 0 0 0-.5.6v2.7a6.7 6.7 0 0 1 0 .8h.7v.4H131v-.3Zm4.8.3v-.3c.2 0 .3 0 .4-.2l.2-.5v-3.9h-.7v-.4h.7l.4-.2.2-.1h.3v.7a3.4 3.4 0 0 1 1.2-.7h.6c.7 0 1.1.1 1.4.5.3.4.5 1 .5 1.9v2a6.7 6.7 0 0 1 0 .8h.6v.4h-2.2v-.3c.2 0 .4 0 .5-.2l.1-.5v-2.2c0-.6 0-1.1-.3-1.4-.2-.4-.5-.5-1-.5-.2 0-.5 0-.7.2a2 2 0 0 0-.6.5v3.2a6.7 6.7 0 0 1 0 .8h.6v.4h-2.2Zm10 0v-.6l-.9.6a2 2 0 0 1-1 .2c-.5 0-.9-.1-1.2-.4-.2-.3-.4-.6-.4-1 0-.3.1-.6.3-.8.3-.3.5-.5.9-.6l1-.4h1.2v-1.5a1 1 0 0 0-.4-.5c-.1-.2-.3-.3-.7-.3-.2 0-.4 0-.6.2-.2 0-.4.2-.5.4l.1.2v.5l-.5.2c-.1 0-.2 0-.3-.2l-.1-.4c0-.2 0-.4.2-.6l.8-.5 1.1-.2c.7 0 1.1.2 1.4.5.3.3.4.9.4 1.6v2.4a5.2 5.2 0 0 1 0 .8h.8v.4h-1.6Zm-.1-2.7a4.5 4.5 0 0 0-1.6.3l-.5.5a1 1 0 0 0-.2.6c0 .3 0 .5.2.7l.6.1.8-.1.7-.5v-1.6Zm2.3 2.4c.2 0 .4 0 .5-.2l.1-.5v-6.6h-.7V10h.8l.4-.2.2-.1h.3v7.1a6 6 0 0 1 0 .8h.7v.4H148v-.3Zm10.4-5c0-.4 0-.8-.2-1a2 2 0 0 0-.6-.8 2 2 0 0 0-1.1-.3c-.5 0-.8 0-1 .3-.3.3-.4.6-.4 1 0 .3 0 .5.2.7l.7.6a17.4 17.4 0 0 0 1.8.8l.7.5.6.7.2.9c0 .4-.1.7-.3 1a2 2 0 0 1-.9.8c-.4.2-.8.3-1.4.3a4 4 0 0 1-2-.6l.1.5h-.6v-2.4h.4c0 .7.2 1.2.7 1.5a2.3 2.3 0 0 0 2.2.4l.6-.5c.2-.2.2-.5.2-.8 0-.3 0-.6-.2-.8l-.7-.6a11.4 11.4 0 0 0-1.7-.8l-.8-.5-.5-.6a2 2 0 0 1-.2-1v-.6l.4-.6.7-.5 1.1-.2 1 .1 1 .5-.1-.5h.5v2.4h-.4Zm3.9 5.5-.5-.1a.5.5 0 0 1-.5-.3c-.2-.1-.3-.3-.4-.6l-.1-1V13h-.9v-.5c.2 0 .4 0 .6-.2l.6-.6.3-.7h.4v1.5h1.8v.4h-1.8v4c0 .2.2.4.3.5l.5.1.6-.1.4-.5.3.2a1 1 0 0 1-.5.6 1.8 1.8 0 0 1-1.1.5Zm5.5-.2v-.6l-.9.6a2 2 0 0 1-.9.2c-.6 0-1-.1-1.2-.4-.3-.3-.5-.6-.5-1 0-.3.1-.6.4-.8.2-.3.4-.5.8-.6l1-.4h1.2v-1.5a1 1 0 0 0-.3-.5c-.2-.2-.4-.3-.8-.3-.2 0-.4 0-.6.2-.2 0-.4.2-.5.4l.1.2v.5l-.4.2c-.2 0-.3 0-.4-.2l-.1-.4c0-.2 0-.4.3-.6.1-.2.4-.4.7-.5l1.2-.2c.6 0 1 .2 1.3.5.3.3.5.9.4 1.6v2.4a6 6 0 0 1 0 .8h.8v.4h-1.6Zm-.1-2.7a4.5 4.5 0 0 0-1.5.3l-.6.5a1 1 0 0 0-.2.6c0 .3 0 .5.3.7l.6.1.7-.1.7-.5v-1.6Zm4.4 2.9-.5-.1c-.2 0-.3-.1-.5-.3-.1-.1-.3-.3-.3-.6l-.2-1V13h-.8v-.5c.2 0 .4 0 .6-.2.2-.1.4-.3.5-.6.2-.2.3-.5.3-.7h.4v1.5h1.9v.4h-1.9v4l.3.5.5.1.6-.1.5-.5.3.2-.5.6a1.8 1.8 0 0 1-1.2.5Zm4.9 0c-.5 0-1-.1-1.4-.4-.4-.2-.7-.6-1-1-.2-.4-.3-1-.3-1.5 0-.6.1-1 .3-1.5.3-.4.6-.8 1-1a2.6 2.6 0 0 1 2.3-.3c.3 0 .5.2.7.4l.5.8.2 1-3.9.1c0 .6 0 1 .2 1.5.1.4.3.7.6 1 .3.2.6.3 1 .3l.7-.1c.3 0 .5-.2.7-.3l.5-.5.3.2-.8.8a3 3 0 0 1-1.6.5Zm-1.5-3.8h2.8c0-.3 0-.6-.2-.8l-.3-.6a1 1 0 0 0-.7-.2c-.5 0-.8 0-1.1.3-.3.3-.5.7-.5 1.3Zm7 3.8c-.3 0-.7 0-1-.2l-.7-.3v.4h-.4v-2h.3a1.6 1.6 0 0 0 .8 1.4c.3.2.5.2.8.2h.6l.4-.3c.2-.2.2-.3.2-.5s0-.4-.2-.5c0-.2-.2-.3-.4-.4l-.7-.3a25.3 25.3 0 0 1-1.2-.6l-.5-.5-.1-.7a1.7 1.7 0 0 1 .3-1l.6-.4 1-.2.6.1.7.4v-.4h.4v1.9h-.3c0-.3 0-.5-.2-.7 0-.3-.2-.5-.4-.6-.2-.2-.5-.3-.8-.3-.3 0-.6.1-.8.3-.2.2-.3.3-.3.6 0 .2 0 .4.2.5l.6.4.7.3.8.4.7.6.2.8c0 .3 0 .6-.3.9-.1.2-.4.4-.7.5l-.9.2Z" fill="#fff"/><path fill="#1F77B4" fill-opacity=".4" stroke="#1F77B4" stroke-width=".5" d="M197.3 9.3h9.5v9.5h-9.5z"/><path d="m216 12.6-.3-1a2 2 0 0 0-.7-.7c-.2-.2-.6-.3-1-.3-.5 0-.8 0-1 .3-.3.3-.4.6-.4 1 0 .3 0 .5.2.7l.7.6a17.4 17.4 0 0 0 1.7.8l.8.5.5.7c.2.2.3.5.3.9s-.2.7-.4 1a2 2 0 0 1-.8.8c-.4.2-.9.3-1.4.3a4 4 0 0 1-2-.6v.5h-.5v-2.4h.4c0 .7.2 1.2.6 1.5a2.3 2.3 0 0 0 2.3.4l.6-.5.2-.8c0-.3 0-.6-.3-.8l-.6-.6a11.4 11.4 0 0 0-1.8-.8l-.7-.5-.5-.6a2 2 0 0 1-.2-1v-.6l.4-.6.7-.5 1-.2 1 .1 1 .5v-.5h.5v2.4h-.4Zm3.8 5.6-.6-.1-.5-.3-.3-.6-.1-1V13h-.9v-.5c.2 0 .4 0 .6-.2.2-.1.4-.3.5-.6l.4-.7h.3v1.5h1.9v.4h-1.9V16l.1.9c0 .2.1.4.3.5l.5.1.5-.1.5-.5.3.2-.5.6a1.8 1.8 0 0 1-1.2.5Zm5.5-.2v-.3l-.1-.3-.8.6a2 2 0 0 1-1 .2c-.5 0-.9-.1-1.2-.4-.2-.3-.4-.6-.4-1 0-.3.1-.6.3-.8.2-.3.5-.5.8-.6l1.1-.4h1.2v-1.5a1 1 0 0 0-.4-.5c-.1-.2-.4-.3-.7-.3-.2 0-.4 0-.6.2-.3 0-.4.2-.5.4v.2l.1.2v.3l-.5.2c-.1 0-.2 0-.3-.2l-.1-.4c0-.2 0-.4.2-.6l.8-.5 1.1-.2a2 2 0 0 1 1.4.5c.3.3.4.9.4 1.6v2.4a6 6 0 0 1 0 .8h.8v.4h-1.6Zm-.1-2.7a4.5 4.5 0 0 0-1.6.3l-.5.5a1 1 0 0 0-.2.6c0 .3 0 .5.2.7l.6.1.8-.1.7-.5v-1.6Zm4.4 2.9-.5-.1a.5.5 0 0 1-.5-.3c-.2-.1-.3-.3-.4-.6V13h-1v-.5c.3 0 .5 0 .7-.2l.5-.6c.2-.2.3-.5.3-.7h.4v1.5h1.8v.4h-1.8v4l.3.5.5.1.6-.1.5-.5.3.2-.5.6a1.8 1.8 0 0 1-1.2.5Zm4.8 0c-.5 0-1-.1-1.3-.4-.4-.2-.7-.6-1-1-.2-.4-.3-1-.3-1.5 0-.6 0-1 .3-1.5.2-.4.6-.8 1-1a2.6 2.6 0 0 1 2.3-.3c.3 0 .5.2.7.4l.5.8.2 1-3.9.1c0 .6 0 1 .2 1.5.1.4.3.7.6 1 .2.2.6.3 1 .3l.7-.1.7-.3.5-.5.2.2-.7.8a3 3 0 0 1-1.7.5Zm-1.5-3.8h2.8v-.8l-.5-.6a1 1 0 0 0-.7-.2c-.4 0-.7 0-1 .3-.3.3-.5.7-.6 1.3Zm14-1.6a3 3 0 0 0-.8-1.7 2.5 2.5 0 0 0-2.7-.3l-.8.7c-.3.3-.5.7-.6 1.1a4.6 4.6 0 0 0 .1 3.3c.3.6.7 1 1.1 1.3.4.3 1 .4 1.5.4s1-.1 1.4-.3c.5-.2.8-.6 1.1-1l.3.3-1 1c-.4.2-.7.4-1.1.4l-1 .2a3.7 3.7 0 0 1-3.5-2.4c-.2-.5-.2-1-.2-1.5s0-1 .2-1.5l.7-1.4a3.4 3.4 0 0 1 2.9-1.3 4 4 0 0 1 2.2.7v-.6h.5v2.6h-.4Zm1.3 4.9c.2 0 .4 0 .5-.2l.1-.5v-6.2l.1-.4h-.8V10h.8l.4-.2.2-.1h.3v7.1a6.7 6.7 0 0 1 0 .8h.7v.4h-2.3v-.3Zm6.5.3v-.3l-.1-.3-.8.6a2 2 0 0 1-1 .2c-.5 0-1-.1-1.2-.4-.2-.3-.4-.6-.4-1 0-.3.1-.6.3-.8.2-.3.5-.5.8-.6l1.1-.4h1.2v-1.5a1 1 0 0 0-.4-.5c-.1-.2-.4-.3-.7-.3-.2 0-.4 0-.6.2-.3 0-.4.2-.5.4v.2l.1.2v.3l-.5.2c-.1 0-.3 0-.3-.2l-.2-.4.3-.6.8-.5 1.1-.2c.6 0 1 .2 1.4.5.3.3.4.9.4 1.6v2.4a6 6 0 0 1 0 .8h.7v.4h-1.5Zm-.1-2.7a4.5 4.5 0 0 0-1.6.3l-.5.5a1 1 0 0 0-.2.6c0 .3 0 .5.2.7l.6.1.8-.1.7-.5v-1.6Zm4.7 2.9c-.4 0-.7 0-1-.2-.3 0-.5-.2-.7-.3v.4h-.4l-.1-2h.3a1.6 1.6 0 0 0 .9 1.4c.2.2.5.2.8.2h.5l.5-.3.2-.5-.2-.5-.5-.4-.6-.3a25.3 25.3 0 0 1-1.3-.6l-.4-.5c-.2-.2-.2-.4-.2-.7a1.7 1.7 0 0 1 .4-1l.5-.4 1-.2.6.1c.3 0 .5.2.7.4v-.4h.5v1.9h-.4c0-.3 0-.5-.2-.7 0-.3-.2-.5-.4-.6-.2-.2-.5-.3-.8-.3-.3 0-.6.1-.8.3-.2.2-.3.3-.3.6 0 .2.1.4.3.5l.5.4.7.3.9.4.6.6c.2.2.3.4.3.8l-.3.9-.7.5-1 .2Zm5 0c-.3 0-.6 0-1-.2l-.6-.3v.4h-.5v-2h.3c0 .4.1.7.3.9a1.6 1.6 0 0 0 2 .7l.4-.3.2-.5-.2-.5-.5-.4-.6-.3a25.3 25.3 0 0 1-1.3-.6l-.5-.5-.1-.7v-.5a1.5 1.5 0 0 1 1-1h1.5c.3 0 .5.2.7.4v-.4h.5v1.9h-.4c0-.3 0-.5-.2-.7 0-.3-.2-.5-.4-.6-.2-.2-.5-.3-.8-.3-.3 0-.6.1-.8.3-.2.2-.3.3-.3.6l.2.5.6.4.7.3.8.4.7.6c.2.2.2.4.2.8 0 .3 0 .6-.2.9l-.8.5-.9.2Zm2.9-.5c.2 0 .4 0 .5-.2l.1-.5v-3.2a4.9 4.9 0 0 1 0-.7h-.7v-.4h.7l.4-.2.3-.1h.3v4.4a6 6 0 0 1 0 .8h.6v.4h-2.2v-.3Zm1-6.4-.4-.2a.6.6 0 0 1-.1-.4l.1-.5.5-.2c.1 0 .3 0 .4.2l.2.5-.2.4-.5.2Zm2.1 6.7v-.3c.3 0 .4 0 .5-.2l.2-.5v-4h-1v-.5h1c0-1 .2-1.6.6-2.1.5-.5 1.1-.8 2-.8.3 0 .7 0 1 .2.3 0 .5.2.7.3.2.1.3.3.3.5l-.1.4-.4.1-.3-.1-.2-.3v-.2l.1-.1-.5-.3a2 2 0 0 0-.6 0c-.3 0-.6 0-.9.2l-.6.6-.2 1.2v.4h2.5a7 7 0 0 0 .8 0v-.1h.4v4.4a6.7 6.7 0 0 1 0 .8h.7v.4H274v-.3c.2 0 .4 0 .5-.2l.1-.5v-3.4a4.9 4.9 0 0 1 .1-.7H272v4a6.1 6.1 0 0 1 0 .7h.7v.4h-2.3Zm9.5.2c-.5 0-1-.1-1.4-.4-.4-.2-.7-.5-1-1a3 3 0 0 1-.3-1.5c0-.3 0-.7.2-1 .1-.4.3-.7.6-1 .2-.3.6-.6.9-.7a2.8 2.8 0 0 1 2.2 0c.3 0 .6.2.8.4l.2.7-.1.4-.4.2c-.2 0-.3 0-.4-.2l-.1-.3v-.3l.1-.2c0-.2-.1-.3-.3-.4l-.4-.1h-.4c-.5 0-1 .1-1.3.5a3 3 0 0 0-.5 1.8c0 .5.1.9.3 1.3.1.4.3.7.6.9.3.2.6.3 1 .3s.7 0 1-.3l.7-.6.3.2-.7.7a2.8 2.8 0 0 1-1.6.6Zm6.5-.2v-.6l-.9.6a2 2 0 0 1-.9.2c-.6 0-1-.1-1.2-.4-.3-.3-.4-.6-.4-1 0-.3 0-.6.3-.8.2-.3.4-.5.8-.6l1-.4h1.2v-1.5a1 1 0 0 0-.3-.5 1 1 0 0 0-.7-.3c-.3 0-.5 0-.7.2-.2 0-.4.2-.5.4l.1.2v.5l-.4.2c-.2 0-.3 0-.4-.2l-.1-.4c0-.2 0-.4.3-.6.1-.2.4-.4.7-.5l1.2-.2c.6 0 1 .2 1.3.5.3.3.5.9.5 1.6v2.4a6 6 0 0 1-.1.8h.8v.4h-1.6Zm0-2.7a4.5 4.5 0 0 0-1.6.3l-.6.5a1 1 0 0 0-.2.6c0 .3.1.5.3.7l.6.1.7-.1.7-.5v-1.6Zm4.3 2.9-.5-.1c-.2 0-.3-.1-.5-.3l-.3-.6-.2-1V13h-.8v-.5c.2 0 .4 0 .6-.2.2-.1.4-.3.5-.6.2-.2.3-.5.3-.7h.4v1.5h1.9v.4h-2v4l.4.5.4.1.6-.1.5-.5.3.2-.5.6a1.8 1.8 0 0 1-1.2.5Zm2.2-.5c.2 0 .4 0 .5-.2l.1-.5v-3.2a4.9 4.9 0 0 1 .1-.7h-.8v-.4h.8l.4-.2.2-.1h.3v4.4a6.7 6.7 0 0 1 0 .8h.7v.4h-2.3v-.3Zm1-6.4s-.2 0-.3-.2a.6.6 0 0 1-.2-.4c0-.2 0-.4.2-.5l.4-.2c.2 0 .3 0 .4.2l.2.5c0 .1 0 .3-.2.4l-.4.2Zm4.8 6.9c-.5 0-1-.1-1.4-.4-.4-.2-.7-.5-1-1-.2-.4-.3-.9-.3-1.4 0-.6.1-1.1.3-1.6.3-.4.6-.8 1-1 .4-.3 1-.5 1.4-.5.5 0 1 .1 1.4.4a2.8 2.8 0 0 1 1.4 2.4 3 3 0 0 1-.4 1.6 2 2 0 0 1-1 1c-.4.3-.8.5-1.4.5Zm.1-.5c.4 0 .7 0 1-.3.2-.2.3-.5.4-.9l.2-1a4.7 4.7 0 0 0-.4-1.9 1 1 0 0 0-.5-.6c-.2-.2-.5-.3-.8-.3-.3 0-.7.2-.9.4a2 2 0 0 0-.5.8l-.2 1.2c0 .4 0 .9.2 1.3.1.4.3.7.6 1 .2.2.5.3 1 .3Zm3.6.3v-.3c.3 0 .4 0 .5-.2l.2-.5v-3.9h-.7v-.4h.7l.4-.2.2-.1h.3v.2a6.6 6.6 0 0 1 0 .5 3.5 3.5 0 0 1 1.2-.7h.6c.7 0 1.1.1 1.4.5.3.4.5 1 .5 1.9v2a6 6 0 0 1 0 .8h.6v.4H306v-.3c.2 0 .3 0 .4-.2l.2-.5v-2.2c0-.6-.1-1.1-.3-1.4-.2-.4-.5-.5-1-.5-.2 0-.5 0-.7.2a2 2 0 0 0-.7.5v3.2a6 6 0 0 1 0 .8h.7v.4h-2.3Z" fill="#fff"/><path fill="#D62728" fill-opacity=".4" stroke="#D62728" stroke-width=".5" d="M321.3 9.3h9.5v9.5h-9.5z"/><path d="m338.5 18.1-2.5-5.8a8.2 8.2 0 0 1-.4-1.5h-.6v-.5h2.5v.4c-.4 0-.6.1-.7.3l.1.9a209.5 209.5 0 0 1 2 4.6 29.2 29.2 0 0 1 1.1-3 361.1 361.1 0 0 1 1-2.8h-.9v-.4h2.3v.4c-.3 0-.6 0-.8.2a2 2 0 0 0-.4.8v.2a40.1 40.1 0 0 0-1.4 3.7l-1 2.5h-.3Zm7.2-.1v-.6l-.8.6a2 2 0 0 1-1 .2c-.5 0-1-.1-1.2-.4-.3-.3-.4-.6-.4-1 0-.3 0-.6.3-.8.2-.3.5-.5.8-.6l1.1-.4h1.1v-1.5a1 1 0 0 0-.3-.5 1 1 0 0 0-.7-.3c-.2 0-.4 0-.7.2-.2 0-.3.2-.5.4l.2.2v.2l-.1.3-.4.2c-.2 0-.3 0-.4-.2v-.4c0-.2 0-.4.2-.6.2-.2.4-.4.8-.5l1.1-.2c.6 0 1 .2 1.4.5.3.3.4.9.4 1.6v2.4a6 6 0 0 1 0 .8h.7v.4h-1.6Zm0-2.7a4.5 4.5 0 0 0-1.6.3l-.6.5a1 1 0 0 0-.2.6c0 .3.1.5.3.7l.6.1.8-.1.6-.5v-1.6Zm2.3 2.4c.2 0 .3 0 .4-.2l.2-.5v-6.6h-.7V10h.7l.4-.2.2-.1h.4v7.1a6.7 6.7 0 0 1 0 .8h.6v.4H348v-.3Zm5.4.5a2 2 0 0 1-1-.2c-.3-.2-.5-.4-.6-.8l-.2-1.4V13a124.1 124.1 0 0 1-.7 0v-.4h.3l.7-.1.3-.2h.4v3.3c0 .7 0 1.1.2 1.5.2.3.5.4 1 .4.2 0 .5 0 .7-.2l.7-.6v-2.9a8.2 8.2 0 0 1 0-.8h-.8v-.4h.4l.6-.1.4-.2h.3v4.1a16.4 16.4 0 0 1 0 1h.7v.5h-1.5v-.4l-.1-.3c-.2.3-.5.5-.8.6l-1 .3Zm6.9 0c-.5 0-1-.1-1.4-.4-.4-.2-.7-.6-1-1-.2-.4-.3-1-.3-1.5 0-.6.1-1 .4-1.5a2 2 0 0 1 1-1 2.6 2.6 0 0 1 2.2-.3c.3 0 .6.2.8.4l.4.8c.2.3.2.6.2 1l-3.9.1.2 1.5c.1.4.3.7.6 1 .3.2.6.3 1 .3l.8-.1.6-.3.5-.5.3.2-.7.8a3 3 0 0 1-1.7.5Zm-1.5-3.8h2.8l-.1-.8c-.1-.2-.2-.5-.4-.6a1 1 0 0 0-.7-.2c-.4 0-.8 0-1 .3-.3.3-.5.7-.6 1.3Zm11.6.8-.1-.7c0-.2-.2-.3-.4-.3a4 4 0 0 0-.8 0h-.8v2.5a10.2 10.2 0 0 1 0 .9h2l1-.2.5-.5.2-1h.3V18h-5.7v-.4c.3 0 .5 0 .6-.2l.1-.4v-6l.1-.4h-.8v-.4h5.3v2h-.3c0-.5 0-.8-.2-1a1 1 0 0 0-.5-.5 2 2 0 0 0-.8-.1h-1c-.2 0-.4 0-.5.2l-.2.4v2.5h2v-1h.4v2.4h-.4Zm5 2.8-1.7-3.6a10.4 10.4 0 0 1-.4-1.2V13h-.5v-.4h2v.3c-.2 0-.3 0-.4.2v.5l.2.6.8 1.9.2.4.2.4a25 25 0 0 1 .2-.7l1-2.4a3.6 3.6 0 0 1 .2-.8h-.7v-.4h1.8v.3c-.2 0-.3 0-.4.2l-.4.5-.3.8-1.4 3.7h-.5Zm6.6 0v-.6l-.9.6a2 2 0 0 1-.9.2c-.5 0-1-.1-1.2-.4-.3-.3-.4-.6-.4-1 0-.3 0-.6.3-.8.2-.3.5-.5.8-.6l1-.4h1.2v-1.5a1 1 0 0 0-.3-.5 1 1 0 0 0-.7-.3c-.2 0-.5 0-.7.2-.2 0-.4.2-.5.4l.1.2v.5l-.4.2c-.2 0-.3 0-.4-.2l-.1-.4c0-.2 0-.4.3-.6.2-.2.4-.4.8-.5l1-.2c.7 0 1.1.2 1.4.5.3.3.5.9.5 1.6v2.4a5.2 5.2 0 0 1 0 .8h.7v.4H382Zm0-2.7a4.5 4.5 0 0 0-1.6.3l-.6.5a1 1 0 0 0-.2.6c0 .3.1.5.3.7l.6.1.8-.1.6-.5v-1.6Zm2.2 2.4c.3 0 .4 0 .5-.2l.2-.5v-6.6h-.8V10h.8l.4-.2.2-.1h.3v7.1a6 6 0 0 1 0 .8h.7v.4h-2.3v-.3Zm5.5.5a2 2 0 0 1-1-.2c-.3-.2-.5-.4-.6-.8-.2-.3-.2-.8-.2-1.4V13a108.6 108.6 0 0 1-.8 0v-.4h.4l.7-.1.3-.2h.3v3.3c0 .7.1 1.1.3 1.5.2.3.5.4 1 .4.2 0 .5 0 .7-.2l.6-.6v-2.9a8.2 8.2 0 0 1 0-.8h-.7v-.4h.3l.7-.1.4-.2h.3v4.1a13.6 13.6 0 0 1 0 1h.7v.5h-1.6a9.1 9.1 0 0 1 0-.7c-.3.3-.5.5-.9.6-.3.2-.6.3-1 .3Zm7.6-.2v-.3l-.1-.3-.8.6a2 2 0 0 1-1 .2c-.5 0-1-.1-1.2-.4-.3-.3-.4-.6-.4-1 0-.3.1-.6.3-.8.2-.3.5-.5.8-.6l1.1-.4h1.2v-.8l-.1-.7a1 1 0 0 0-.3-.5c-.1-.2-.4-.3-.7-.3-.2 0-.4 0-.7.2-.2 0-.3.2-.4.4v.2l.1.2-.1.3-.4.2c-.2 0-.3 0-.3-.2l-.2-.4.3-.6.8-.5 1.1-.2c.6 0 1 .2 1.4.5.3.3.4.9.4 1.6v2.4a6 6 0 0 1 0 .8h.7v.4h-1.5Zm-.1-2.7a4.5 4.5 0 0 0-1.6.3l-.6.5a1 1 0 0 0-.2.6c0 .3.1.5.3.7l.6.1.8-.1.7-.5v-1.6Zm4.4 2.9-.5-.1a.5.5 0 0 1-.5-.3c-.2-.1-.3-.3-.4-.6l-.1-1V13h-.8v-.5c.1 0 .3 0 .5-.2l.6-.6.3-.7h.4v1.5h1.8v.4h-1.8v4c0 .2.2.4.3.5l.5.1.6-.1.4-.5.3.2-.4.6a1.8 1.8 0 0 1-1.2.5Zm2.2-.5c.2 0 .3 0 .4-.2l.2-.5v-3.2a4.9 4.9 0 0 1 0-.7h-.7v-.4h.7l.4-.2.2-.1h.4v4.4a6 6 0 0 1 0 .8h.6v.4h-2.2v-.3Zm1-6.4c-.1 0-.3 0-.4-.2a.6.6 0 0 1-.2-.4l.2-.5.4-.2c.2 0 .3 0 .5.2l.1.5c0 .1 0 .3-.2.4l-.4.2Zm4.8 6.9c-.5 0-1-.1-1.4-.4a2 2 0 0 1-1-1c-.3-.4-.4-.9-.4-1.4 0-.6.1-1.1.4-1.6.2-.4.6-.8 1-1 .4-.3.9-.5 1.4-.5.5 0 1 .1 1.4.4a2.8 2.8 0 0 1 1.4 2.4c0 .6-.2 1.1-.4 1.6-.3.4-.6.8-1 1-.4.3-.9.5-1.4.5Zm0-.5c.5 0 .8 0 1-.3.2-.2.4-.5.5-.9l.1-1a4.7 4.7 0 0 0-.4-1.9c0-.3-.3-.5-.5-.6a1 1 0 0 0-.7-.3c-.4 0-.7.2-1 .4a2 2 0 0 0-.5.8l-.2 1.2.2 1.3c.2.4.3.7.6 1 .3.2.6.3 1 .3Zm3.7.3v-.3c.2 0 .4 0 .5-.2l.1-.5v-3.9h-.7v-.4h.7l.4-.2.2-.1h.3v.7a3.4 3.4 0 0 1 1.2-.7h.7c.6 0 1 .1 1.4.5.3.4.4 1 .4 1.9v2a6.7 6.7 0 0 1 0 .8h.7v.4h-2.3v-.3c.2 0 .4 0 .5-.2l.1-.5v-2.2c0-.6 0-1.1-.3-1.4-.2-.4-.5-.5-1-.5-.2 0-.4 0-.7.2a2 2 0 0 0-.6.5v3.2a6.7 6.7 0 0 1 0 .8h.6v.4h-2.2Z" fill="#fff"/></svg>