<svg width="647" height="83" fill="none" xmlns="http://www.w3.org/2000/svg"><path fill="#000" d="M0 0h647v83H0z"/><path d="m205 21.6-.1-1.1a.9.9 0 0 0-.7-.5h-1.7v3.3a20.8 20.8 0 0 1-.1 1.6h2.7c.5 0 .8-.1 1.2-.3.3-.2.6-.4.8-.8.3-.4.4-1 .4-1.6h1l-.1 3.8h-9.5v-1c.4 0 .6 0 .8-.2.2 0 .3-.2.4-.5l.1-1V16a20 20 0 0 1 0-1.5 53.4 53.4 0 0 1-1.3 0v-1.1h9v3.4h-1c0-.7 0-1.2-.3-1.5-.2-.4-.5-.6-.9-.7a3 3 0 0 0-1-.2h-1c-.3 0-.6 0-.7.2-.2 0-.3.2-.4.5l-.1 1V19h2.5l-.1-1.5h1.2v4.2h-1Zm5 4.4v-1c.3 0 .5 0 .7-.2l.2-.6v-4.3a13.7 13.7 0 0 1 .2-1.5 45.6 45.6 0 0 1-1.3.1v-1.2h1.3l.8-.2.4-.3h.8v.6l.1.4.8-.5 1-.4 1-.2c1 0 1.8.3 2.2 1 .5.6.7 1.6.7 3v2.7a16.6 16.6 0 0 1 0 1.5h1.1V26h-4.3v-1c.3 0 .6 0 .7-.2.2-.1.3-.3.3-.6v-3.5c0-.9-.1-1.5-.4-2-.2-.4-.6-.6-1.2-.6-.4 0-.7.1-1 .3a2 2 0 0 0-1 .6l.1.4v4a16.6 16.6 0 0 1 0 1.5h1.1V26h-4.4Zm14.3 0-2.8-6a13.5 13.5 0 0 1-.5-1.5v-.4h-.7V17h3.9v1c-.3 0-.5 0-.6.2v.6c0 .2 0 .5.2.8l1 2.5a19.7 19.7 0 0 1 .6 1.4l.3-.6.2-.8 1-2.7a7 7 0 0 1 .6-1.3h-1.1V17h3.2v1a1 1 0 0 0-.7.4l-.6.8-.4 1-2.3 5.9h-1.3Zm6.1-1c.4 0 .6 0 .8-.2l.2-.6v-4.3a13.4 13.4 0 0 1 .1-1.5 76.2 76.2 0 0 1-1.2.1v-1.2h1.3l.8-.2.5-.3h.8v6.6a16.6 16.6 0 0 1 0 1.5h1.1V26h-4.4v-1Zm2-9.7c-.3 0-.6-.2-.8-.4-.2-.3-.4-.6-.4-1 0-.3.2-.7.4-1 .3-.2.5-.3.9-.3.3 0 .6.1.8.4.3.3.4.6.4 1l-.3.9c-.3.2-.6.4-1 .4ZM236 25c.4 0 .6 0 .8-.2l.2-.6v-4.3a13.7 13.7 0 0 1 .2-1.5 76.2 76.2 0 0 1-1.3 0v-1h.7l1.2-.2.7-.4h.7v1.7l1-1 .9-.6 1-.2c.3 0 .7.1 1 .3.3.3.4.6.4 1l-.1.6a1 1 0 0 1-1 .6c-.3 0-.5 0-.7-.2a1 1 0 0 1-.4-.8c-.2 0-.5 0-.8.3a3.6 3.6 0 0 0-1.2 1.5v3.4a16.6 16.6 0 0 1 0 1.5h1.1V26H236v-1Zm12.7 1.3c-.9 0-1.7-.2-2.4-.6a4.3 4.3 0 0 1-2.2-4c0-1 .2-1.8.6-2.6.4-.8 1-1.3 1.6-1.8a4.6 4.6 0 0 1 4.6 0 4 4 0 0 1 1.6 1.6c.5.7.7 1.5.7 2.4 0 1-.2 1.9-.6 2.6-.4.8-1 1.4-1.6 1.8-.7.4-1.5.6-2.3.6Zm0-1.1c.6 0 1-.2 1.3-.5.3-.3.5-.8.6-1.3a7.3 7.3 0 0 0 0-3c0-.5-.2-1-.3-1.3l-.7-1a1.9 1.9 0 0 0-2.3.2 3 3 0 0 0-.6 1.3c-.2.5-.2 1-.2 1.6 0 .7 0 1.3.2 2l.7 1.4c.4.4.8.6 1.3.6Zm5.8.8v-1c.4 0 .6 0 .8-.2l.2-.6v-4.3a13.7 13.7 0 0 1 .2-1.5 45.6 45.6 0 0 1-1.3.1v-1.2h1.3l.8-.2.5-.3h.7v.6l.1.4c.3-.2.5-.4.9-.5l1-.4.8-.2c1.1 0 1.9.3 2.3 1 .5.6.7 1.6.7 3v2.7a16.6 16.6 0 0 1 0 1.5h1.1V26h-4.3v-1c.3 0 .6 0 .7-.2.2-.1.3-.3.3-.6v-3.5c0-.9-.1-1.5-.4-2-.2-.4-.6-.6-1.2-.6-.4 0-.7.1-1 .3-.4.1-.7.3-.9.6v4.4a16.6 16.6 0 0 1 0 1.5h1.1V26h-4.4Zm11.3 0v-1c.3 0 .6 0 .7-.2.2-.1.3-.3.3-.6v-4.3a13.7 13.7 0 0 1 .1-1.5 76.2 76.2 0 0 1-1.2.1v-1.2h1.3l.8-.2.4-.3h.8v.9a5 5 0 0 1 2.7-1c.6 0 1 .1 1.4.3.4.2.7.5 1 .9l1.3-.8c.6-.3 1-.4 1.6-.4 1 0 1.7.3 2.2.9.5.6.8 1.6.7 3v2.8a16.6 16.6 0 0 1 0 1.5h1.1V26h-4.2v-1c.3 0 .5 0 .6-.2.2-.1.2-.3.3-.6v-3.6c0-.9-.1-1.5-.4-1.9-.3-.4-.7-.5-1.2-.5-.3 0-.6 0-1 .2l-.7.4v.8l.1.8V22a62.8 62.8 0 0 1 0 3h1.1v1h-4.3v-1c.3 0 .5 0 .7-.2l.2-.6.1-1v-2.7c0-.8-.1-1.4-.4-1.8-.3-.4-.6-.6-1.1-.6-.4 0-.7 0-1 .2l-.7.6v4.5a16.6 16.6 0 0 1-.1 1.5h1.1V26h-4.3Zm20.7.3c-.9 0-1.6-.2-2.3-.6a4 4 0 0 1-1.6-1.6 7 7 0 0 1-.5-2.6c0-.8.2-1.6.5-2.3.4-.8 1-1.4 1.6-1.8a4 4 0 0 1 2.4-.7c.5 0 1 0 1.4.2a3.3 3.3 0 0 1 2.2 2c.2.6.3 1.3.3 2.1l-6 .1c0 .7 0 1.4.2 2 .2.5.5 1 .9 1.3.4.4.9.5 1.5.5l1-.1 1-.5.8-.8.7.6c-.4.6-.8 1-1.3 1.4l-1.5.6-1.3.2Zm-2-6.3h3.8l-.2-1.2c-.2-.3-.3-.6-.6-.7-.2-.2-.5-.3-.9-.3a2 2 0 0 0-1.4.6 3 3 0 0 0-.7 1.6Zm7.4 6v-1c.4 0 .6 0 .7-.2.2-.1.3-.3.3-.6v-4.3a13.7 13.7 0 0 1 .1-1.5 45.6 45.6 0 0 1-1.2.1v-1.2h1.3l.8-.2.4-.3h.8v.6l.1.4.8-.5 1-.4.9-.2c1 0 1.9.3 2.3 1 .5.6.7 1.6.7 3v2.7a16.6 16.6 0 0 1 0 1.5h1.1V26h-4.4v-1c.4 0 .6 0 .8-.2l.3-.6v-3.5c0-.9-.1-1.5-.4-2-.2-.4-.7-.6-1.3-.6l-1 .3c-.3.1-.6.3-.8.6v4.4a16.6 16.6 0 0 1 0 1.5h1.1V26h-4.4Zm14.7.3a4 4 0 0 1-1-.1l-.9-.5c-.2-.2-.5-.6-.6-1-.2-.5-.2-1-.2-1.8v-4.7h-1.3V17a2 2 0 0 0 1-.4 3.5 3.5 0 0 0 1.4-2.1h1.1V17h2.6v1.2H306v4.6l.1 1c0 .3.2.6.4.8l.7.2c.2 0 .5 0 .8-.2.3-.1.6-.4.9-.9l.7.7a4.4 4.4 0 0 1-1.9 1.6l-.7.3h-.5Zm18.1-8.9a4 4 0 0 0-1-2.3 3 3 0 0 0-2.2-.9c-.7 0-1.2.2-1.7.5-.5.2-1 .6-1.3 1.1-.3.5-.6 1-.8 1.7l-.2 2c0 1.1.1 2 .5 2.9.3.8.8 1.4 1.4 2a4 4 0 0 0 2.2.6 5 5 0 0 0 4.1-2.2l.8.7a6.3 6.3 0 0 1-5.3 2.8 7 7 0 0 1-2.6-.5c-.7-.3-1.4-.8-2-1.4A6.4 6.4 0 0 1 315 20c0-.8.1-1.7.4-2.5a7 7 0 0 1 1.1-2.1c.6-.7 1.2-1.2 2-1.6a6 6 0 0 1 4.4-.3 6 6 0 0 1 1.7.7l-.1-.9h1.2v4.2h-1Zm2.6 7.6c.3 0 .6 0 .7-.2.2-.1.2-.3.3-.6v-8.7a13.4 13.4 0 0 1 .1-1.5 76.2 76.2 0 0 1-1.3.1v-1.2h1.4l.8-.3.4-.2h.8v11a16.6 16.6 0 0 1 0 1.5h1.1V26h-4.3v-1Zm10.8 1a4.8 4.8 0 0 1-.1-.9 4 4 0 0 1-1.3.9l-1.5.3c-.8 0-1.4-.2-1.9-.7-.4-.4-.6-1-.6-1.6 0-.6.2-1 .5-1.5a4 4 0 0 1 1.2-1l1.7-.6 1.8-.2v-1l-.1-1-.5-.6c-.2-.2-.5-.3-.9-.3-.2 0-.5 0-.8.2-.2 0-.4.2-.6.4l.2.4v.3c0 .2 0 .5-.2.7-.2.2-.5.3-.8.3a1 1 0 0 1-.8-.3c-.2-.2-.3-.5-.3-.8 0-.4.2-.8.5-1.2.4-.3.8-.6 1.4-.8.5-.2 1.2-.3 1.9-.3 1 0 1.8.3 2.3.8.6.6.9 1.4.9 2.6v3.3a16.3 16.3 0 0 1-.1 1.5h1.2V26H338Zm-.2-4.2a5.3 5.3 0 0 0-2 .5 2 2 0 0 0-.7.6c-.2.2-.2.5-.2.8 0 .4.1.6.3.8.3.2.5.3.8.3l1-.2.8-.6v-2.2Zm8.4 4.5c-.6 0-1 0-1.6-.2a4 4 0 0 1-1.1-.6v.6h-1.1l-.1-3h1c0 .3.1.7.4 1 .2.4.6.6 1 .8.4.2.8.3 1.3.3l.7-.1c.2 0 .4-.2.5-.4.2-.1.3-.3.3-.6s-.1-.5-.3-.6l-.7-.5-1.1-.5a43.4 43.4 0 0 1-2.2-1l-.7-.8c-.2-.3-.3-.7-.3-1.2 0-.3 0-.6.2-1l.6-.9c.2-.2.6-.5 1-.6a4.1 4.1 0 0 1 2.6-.1c.4 0 .8.2 1 .5v-.6h1.2V20h-1a2 2 0 0 0-.3-1.1 2.2 2.2 0 0 0-2-1.1c-.4 0-.8 0-1 .3-.3.1-.4.4-.4.8 0 .3 0 .5.3.7l.8.5a458.9 458.9 0 0 1 2.7 1.1c.4.3.8.6 1 1 .4.3.5.8.5 1.4 0 .6-.2 1-.5 1.5a3 3 0 0 1-1.2.9l-1.5.3Zm8.6 0c-.6 0-1 0-1.6-.2a4 4 0 0 1-1.1-.6v.6h-1.1l-.1-3h1c0 .3.1.7.4 1 .2.4.5.6 1 .8.4.2.8.3 1.3.3l.7-.1c.2 0 .4-.2.5-.4.2-.1.3-.3.3-.6s-.1-.5-.3-.6l-.7-.5-1.1-.5a43.4 43.4 0 0 1-2.2-1l-.7-.8c-.2-.3-.3-.7-.3-1.2 0-.3 0-.6.2-1 0-.3.3-.6.6-.9.2-.2.6-.5 1-.6a4.1 4.1 0 0 1 2.6-.1c.4 0 .8.2 1 .5v-.6h1.2V20h-1a2 2 0 0 0-.3-1.1 2.2 2.2 0 0 0-2-1.1c-.4 0-.8 0-1 .3-.3.1-.4.4-.4.8 0 .3 0 .5.3.7l.8.5a458.9 458.9 0 0 1 2.7 1.1c.4.3.8.6 1 1 .4.3.5.8.5 1.4 0 .6-.2 1-.5 1.5a3 3 0 0 1-1.2.9l-1.5.3Zm9.5-.3v-1c.3 0 .6 0 .8-.2.1 0 .3-.2.3-.5l.1-1V16a20 20 0 0 1 .1-1.5 53.4 53.4 0 0 1-1.3 0v-1.1h4.8v1c-.4 0-.6 0-.8.2-.2 0-.3.2-.4.5v4h5.3v-3a20 20 0 0 1 .1-1.6 53.4 53.4 0 0 1-1.3 0v-1.1h4.8v1c-.4 0-.6 0-.8.2-.2 0-.3.2-.4.5v8.2a20.8 20.8 0 0 1-.2 1.6 53.4 53.4 0 0 1 1.4 0V26H372v-1c.3 0 .6 0 .8-.2.1 0 .3-.2.3-.5l.1-1v-3.1H368v3.1a20.8 20.8 0 0 1 0 1.6 53.4 53.4 0 0 1 1.3 0V26h-4.8Zm14-1c.3 0 .6 0 .7-.2.2-.1.3-.3.3-.6v-4.3a13.4 13.4 0 0 1 .1-1.5 76.2 76.2 0 0 1-1.2.1v-1.2h1.3l.8-.2.5-.3h.8v6.6a16.6 16.6 0 0 1-.1 1.5h1.2V26h-4.4v-1Zm2-9.7c-.3 0-.6-.2-.8-.4-.3-.3-.4-.6-.4-1 0-.3.1-.7.4-1 .2-.2.5-.3.9-.3.3 0 .6.1.8.4.3.3.4.6.4 1 0 .3-.1.6-.4.9-.2.2-.5.4-.8.4Zm7.9 11c-.9 0-1.6-.2-2.3-.6a4 4 0 0 1-1.6-1.6 7 7 0 0 1-.5-2.6c0-.8.2-1.6.5-2.3.4-.8 1-1.4 1.6-1.8a4 4 0 0 1 2.4-.7c.5 0 1 0 1.4.2a3.3 3.3 0 0 1 2.2 2c.2.6.3 1.3.3 2.1l-6 .1c0 .7 0 1.4.2 2 .2.5.5 1 .9 1.3.4.4.9.5 1.5.5l1-.1 1-.5.8-.8.7.6c-.4.6-.9 1-1.3 1.4l-1.5.6-1.3.2Zm-2-6.3h3.8l-.2-1.2c-.2-.3-.3-.6-.6-.7-.2-.2-.5-.3-.9-.3a2 2 0 0 0-1.4.6 3 3 0 0 0-.7 1.6Zm7.4 5c.3 0 .6 0 .7-.2.2-.1.3-.3.3-.6v-4.3a13.7 13.7 0 0 1 .1-1.5 76.2 76.2 0 0 1-1.2 0v-1h.6l1.2-.2c.4-.1.6-.3.7-.4h.8v1.7l1-1 .8-.6 1-.2c.4 0 .7.1 1 .3.3.3.5.6.5 1l-.1.6a1 1 0 0 1-1 .6c-.3 0-.5 0-.8-.2-.2-.2-.3-.5-.3-.8-.3 0-.5 0-.8.3A3.6 3.6 0 0 0 397 20v3.4a16.6 16.6 0 0 1 0 1.5h1.1V26h-4.4v-1Zm13.4 1a4.8 4.8 0 0 1 0-.9 4 4 0 0 1-1.4.9l-1.4.3c-.8 0-1.5-.2-2-.7-.3-.4-.6-1-.6-1.6 0-.6.2-1 .5-1.5a4 4 0 0 1 1.2-1l1.7-.6 1.8-.2v-1l-.1-1c0-.2-.2-.5-.4-.6-.2-.2-.5-.3-1-.3-.2 0-.4 0-.7.2-.3 0-.5.2-.7.4l.2.4v.3c0 .2 0 .5-.2.7-.2.2-.4.3-.8.3a1 1 0 0 1-.8-.3l-.2-.8c0-.4.2-.8.5-1.2l1.3-.8a6 6 0 0 1 2-.3c1 0 1.7.3 2.3.8.5.6.8 1.4.8 2.6v3.3a16.3 16.3 0 0 1 0 1.5h1.1V26h-3Zm-.2-4.2a5.3 5.3 0 0 0-2 .5 2 2 0 0 0-.7.6l-.2.8c0 .4.2.6.4.8.2.2.5.3.8.3l1-.2.7-.6v-2.2Zm4.4 3.2c.4 0 .6 0 .8-.2l.2-.6v-4.3a13.7 13.7 0 0 1 .2-1.5 76.2 76.2 0 0 1-1.3 0v-1h.7l1.2-.2.7-.4h.7v1.7l1-1 .9-.6 1-.2c.3 0 .7.1 1 .3.3.3.4.6.4 1l-.1.6a1 1 0 0 1-1 .6c-.3 0-.5 0-.7-.2a1 1 0 0 1-.4-.8c-.2 0-.5 0-.8.3a3.6 3.6 0 0 0-1.2 1.5v3.4a16.6 16.6 0 0 1 0 1.5h1.1V26h-4.4v-1Zm12.5 1.3c-.8 0-1.5-.2-2.2-.6-.7-.3-1.2-.8-1.6-1.5a5 5 0 0 1-.6-2.5 5.1 5.1 0 0 1 1.3-3.5 4.5 4.5 0 0 1 3.4-1.5c.7 0 1.3.1 1.8.4.5.2 1 .5 1.2.8.3.4.4.8.4 1.2 0 .3-.1.6-.3.8a1 1 0 0 1-.8.4c-.4 0-.7 0-.9-.3l-.2-.7a1.4 1.4 0 0 1 .2-.8c0-.2-.2-.4-.4-.5l-.6-.2h-.4a2 2 0 0 0-1.7.9c-.4.6-.6 1.4-.6 2.5 0 .7 0 1.3.2 1.8.2.6.5 1 .9 1.4.4.3.9.5 1.5.5.5 0 1-.1 1.5-.4a4 4 0 0 0 1.2-1l.7.6c-.4.6-.8 1-1.2 1.3a4.8 4.8 0 0 1-2.7.8Zm10.7-1.3c.3 0 .6 0 .7-.2l.3-.6v-3.5c0-.9-.1-1.5-.4-2-.2-.4-.7-.6-1.2-.6-.4 0-.7.1-1 .3a2 2 0 0 0-.9.5v4.5a16.6 16.6 0 0 1 0 1.5h1.1V26h-4.4v-1c.4 0 .6 0 .7-.2.2-.1.3-.3.3-.6v-8.7a13.4 13.4 0 0 1 .1-1.5 76.2 76.2 0 0 1-1.2.1v-1.2h1.3l.8-.3.5-.2h.8v5.4l.8-.6 1-.3 1-.2c1 0 1.8.3 2.2 1 .5.6.7 1.6.7 3v2.7a16.6 16.6 0 0 1 0 1.5h1.1V26h-4.3v-1Zm7 5.9c-.4 0-.8-.1-1-.4-.4-.2-.5-.6-.5-1 0-.3 0-.5.3-.7.2-.3.4-.4.7-.4.3 0 .5 0 .6.3l.3.6v.3h.1l.4-.3.4-.6.4-1 .5-1.3-2.9-5.8a14.4 14.4 0 0 1-.9-2.5h-.8V17h4.3v1c-.5 0-.8.2-.8.5s0 .6.2 1l1.9 4.3a34 34 0 0 0 1.3-3.9 13.4 13.4 0 0 1 .5-1.3c0-.2.2-.4.3-.5h-1.1V17h3v1c-.4 0-.7.3-1 .7l-.6 1.4-2.2 6.4-1 2.4c-.3.7-.6 1.2-1 1.5a2 2 0 0 1-1.4.5Z" fill="#fff"/><path d="M198 28.3h250.8v.8H198v-.9Z" fill="#fff"/><rect x="9" y="44" width="121" height="30" rx="7" fill="#000"/><rect x="9" y="44" width="121" height="30" rx="7" stroke="#fff" stroke-width="2"/><path d="m46.7 53.7.4.1.2.4v2c0 .1 0 .2-.2.3l-.4.1-.3-.1-.2-.3c0-.3 0-.6-.2-.8l-.6-.5-1-.2a2.4 2.4 0 0 0-2.3 1.6 4 4 0 0 0-.4 1.6c0 .7.2 1.3.4 1.7.2.5.5.9.8 1.1.4.3.9.4 1.4.4.8 0 1.4 0 2-.4v-1.5h-1.7l-.3-.1-.1-.4v-.3l.4-.1H48v.8l-.3.1h-.3V61c0 .2 0 .4-.2.5l-1.3.5a7 7 0 0 1-1.5.2c-.7 0-1.4-.2-2-.6-.5-.3-.9-.8-1.2-1.4-.3-.7-.4-1.4-.4-2.3 0-.8.1-1.5.4-2.2.3-.6.8-1 1.3-1.4a3.4 3.4 0 0 1 3-.4l.8.6v-.3c0-.2 0-.3.2-.4h.3Zm9.3 2h.3l.1.4v.4l-.4.1h-.4l-2.8 5.7-.9 1.5c-.3.3-.6.6-1 .7-.3.2-.7.3-1.2.3l-.4-.1-.1-.5c0-.3.1-.4.3-.4l1-.2.8-.7.8-1.4-2.5-4.9h-.8v-.8l.4-.1h2.7l.1.4v.4l-.4.1h-.9l2 3.9 1.8-3.9h-1v-.8l.4-.1H56Zm9 5.4h.3v.8l-.4.1h-1l-.3-.1-.1-.4v-4c0-.3 0-.6-.2-.7 0-.2-.2-.3-.5-.3l-.6.3-.4.9-.2 1.2V61h.8v.8l-.4.1h-1l-.3-.1v-4.4l-.2-.7a.5.5 0 0 0-.5-.3l-.6.3a2 2 0 0 0-.5.9l-.1 1.2V61h.7v.8l-.4.1h-2l-.2-.1-.1-.4v-.3l.4-.1h.6v-4.5h-.9l-.1-.5v-.3l.4-.1h1.3l.1.4v.7l.7-1c.3-.2.6-.3 1-.3.2 0 .5.1.7.3.3.3.4.6.5 1 .4-.9 1-1.3 1.6-1.3a1.3 1.3 0 0 1 1.2.9l.2 1V61h.4Zm4.4-1.2c.3 0 .5 0 .7.2.1 0 .2.1.2.3v1.2c0 .2 0 .3-.2.4h-.7a2 2 0 0 1-.7 0 .3.3 0 0 1-.2-.4v-1.2c0-.2 0-.3.2-.3l.7-.2Zm11.2-.8h.4l.1.4v2l-.1.4-.3.1h-6.1l-.4-.1v-.7l.4-.1h.7v-6.3h-1.1V54l.4-.1h6l.3.1v2.4l-.5.1h-.3l-.2-.4v-1.3h-3.6v2.6H78v-.7l.1-.3.4-.1h.4l.1.4V59l-.1.3-.4.1h-.4v-1h-1.8V61H80v-1.8l.5-.1Zm6.3-3.6c.5 0 .8.1 1.1.3.3.2.6.4.7.8.2.3.3.7.3 1.2V61h.9v.8l-.4.1h-2.2l-.3-.1-.1-.4v-.3l.4-.1h.6v-3.2c0-.4 0-.8-.2-1-.2-.2-.5-.4-.9-.4a2 2 0 0 0-1 .4c-.4.2-.6.5-.8.9-.2.4-.3.8-.3 1.3v2h.9l.1.4v.4l-.4.1H83l-.4-.1v-.7l.4-.1h.5v-4.5h-1l-.1-.5v-.3l.4-.1h1.6V57c.4-.5.7-.9 1.1-1.1.4-.2.9-.4 1.3-.4Zm11 .2h.4l.1.4v.4l-.4.1h-.4l-2.2 5.1-.3.3a1 1 0 0 1-.6.2 1 1 0 0 1-.5-.2.7.7 0 0 1-.2-.3l-2.2-5H91l-.3-.2v-.7l.3-.1h3v.8l-.3.1h-1l2 4.5 1.8-4.5h-1v-.8l.3-.1H98ZM203 59l-7.5-4.3v8.6L203 59Zm-72 .8h65.3v-1.5H131v1.5Z" fill="#fff"/><rect x="204" y="44" width="172" height="30" rx="7" fill="#000"/><rect x="204" y="44" width="172" height="30" rx="7" stroke="#fff" stroke-width="2"/><path d="m239.4 53.9.4.1.3.3 2.4 6.8h.7l.1.4v.4l-.4.1h-2.4l-.4-.1v-.7l.4-.1h.9l-.6-1.7h-3.3l-.5 1.7h1.1l.1.4v.4l-.4.1h-2.3l-.3-.1-.1-.4v-.3l.4-.1h.4l2.2-6.3h-1.6V54l.4-.1h2.5Zm-.3 1-1.3 3.6h2.7l-1.2-3.7h-.2ZM250 53l.3.1.1.4v7.6h.9l.1.4-.1.4-.3.1h-1.1l-.4-.1V61a3 3 0 0 1-1 .8 2 2 0 0 1-1.3.4 3 3 0 0 1-1.5-.4 3 3 0 0 1-1-1.2c-.3-.5-.4-1-.4-1.8 0-.6 0-1.2.3-1.7a2.7 2.7 0 0 1 2.6-1.6c.9 0 1.6.4 2.2 1.2V54h-1.1l-.4-.1V53h2.1Zm-2.7 3.5c-.4 0-.8.1-1 .3-.4.2-.6.5-.7.8a3 3 0 0 0-.3 1.2c0 .5.1.9.3 1.2.1.4.3.7.6.9l1 .2c.5 0 .9 0 1.2-.2l.7-.8c.2-.4.3-.8.3-1.3l-.3-1.2-.7-.8a2 2 0 0 0-1.1-.3Zm11-3.5.4.1.1.4v7.6h.9v.8l-.3.1h-1.1l-.4-.1V61a3 3 0 0 1-1 .8 2 2 0 0 1-1.3.4 2.8 2.8 0 0 1-2.6-1.5c-.2-.6-.3-1.2-.3-1.9 0-.6 0-1.2.3-1.7s.6-.9 1-1.2c.5-.2 1-.4 1.6-.4.9 0 1.6.4 2.2 1.2V54h-1.1l-.4-.1V53h2.1Zm-2.6 3.5c-.4 0-.8.1-1 .3-.4.2-.6.5-.7.8a3 3 0 0 0-.3 1.2c0 .5.1.9.3 1.2.1.4.3.7.6.9l1 .2c.5 0 .8 0 1.2-.2l.7-.8c.2-.4.3-.8.3-1.3l-.3-1.2-.7-.8c-.4-.2-.7-.3-1.1-.3Zm9-.8h.3v5.4h2.7v.8l-.3.1H262l-.3-.1-.1-.4v-.3l.4-.1h2.1v-4.5h-2l-.1-.5v-.3l.4-.1h2.3Zm-.3-3h.5l.2.4v1s0 .2-.2.3h-1l-.1-.4v-.9l.1-.3.5-.1Zm10.8 2.8.4.1.1.4v2.3l-.5.1-.4-.1V58c0-.3-.1-.6-.3-.8-.1-.2-.4-.4-.7-.5l-1-.2-1.2.3c-.3.2-.6.5-.8.9a2 2 0 0 0-.3 1.1c0 .5.1.9.3 1.2.2.4.4.6.8.8.3.2.7.3 1.1.3a4 4 0 0 0 2.3-.7l.3-.1c.1 0 .3 0 .4.3v.3l-.1.4c-.4.2-.8.5-1.3.6a5 5 0 0 1-1.6.3c-.6 0-1.2-.2-1.7-.5a3 3 0 0 1-1.1-1.2 3.4 3.4 0 0 1 0-3.4A3 3 0 0 1 271 56a3.4 3.4 0 0 1 2.9-.2c.3.1.6.3.8.6V56l.1-.4h.4Zm4.9-1.8.4.1.1.4v2h2.8l.4.1v.8h-3.2v2.5c0 .6.1 1 .3 1.2.2.2.5.4 1 .4l.9-.2 1-.5h.2c.1 0 .3 0 .4.2v.3c0 .2 0 .3-.2.4l-1.1.5a4 4 0 0 1-1.3.3c-.7 0-1.3-.3-1.7-.7a3 3 0 0 1-.5-1.8v-2.5h-1.4l-.3-.1-.1-.4v-.4h1.9v-2.1l.1-.4h.4Zm9.7 2h.3l.1.4v5h2.6v.8l-.4.1h-5.3l-.4-.1v-.7l.4-.1h2.1v-4.5h-2l-.1-.5v-.3l.4-.1h2.3Zm-.2-3h.5l.1.4v1l-.1.3h-1l-.2-.4v-.9c0-.1 0-.3.2-.3l.5-.1Zm8.4 2.8a3 3 0 0 1 1.6.5c.5.2 1 .6 1.2 1.1a3.4 3.4 0 0 1 0 3.4 3 3 0 0 1-1.2 1.2 3 3 0 0 1-1.6.5c-.7 0-1.2-.2-1.7-.5a3 3 0 0 1-1.2-1.1c-.3-.6-.4-1.1-.4-1.8 0-.6.1-1.2.4-1.7a3 3 0 0 1 1.2-1.1c.5-.3 1-.5 1.7-.5Zm0 1c-.5 0-.9.1-1.2.3a2 2 0 0 0-.8.9 2 2 0 0 0-.3 1.1c0 .5.1.9.3 1.2.2.4.5.7.8.9l1.2.2c.4 0 .8 0 1.1-.2.4-.2.6-.5.8-.9.2-.3.3-.7.3-1.2a2 2 0 0 0-.3-1.1 2 2 0 0 0-.8-.9 2 2 0 0 0-1.1-.3Zm9.1-1c.4 0 .8.1 1.1.3.3.2.5.4.7.8.2.3.3.7.3 1.2V61h.8l.1.4v.4l-.4.1h-2.2l-.3-.1-.1-.4v-.3l.4-.1h.6v-3.2c0-.4 0-.8-.2-1-.2-.2-.5-.4-.9-.4a2 2 0 0 0-1 .4 2 2 0 0 0-.9.9c-.2.4-.3.8-.3 1.3v2h1l.1.4-.1.4-.3.1h-2.3l-.3-.1v-.7l.4-.1h.5v-4.5h-1l-.1-.5v-.3l.4-.1h1.6V57c.4-.5.7-.9 1.1-1.1.4-.2.9-.4 1.3-.4Zm18.9 3.6h.3l.2.4v2l-.1.4-.4.1h-6l-.4-.1-.1-.4v-.3l.4-.1h.7v-6.3h-1l-.1-.4V54l.4-.1h6l.3.1.1.4v2l-.5.1h-.4l-.1-.4v-1.3h-3.7v2.6h1.8v-.7l.1-.3.4-.1h.4v2.9l-.4.1h-.4v-1h-1.9V61h3.8v-1.6c0-.2 0-.3.2-.3l.4-.1Zm6.3-3.6c.4 0 .8.1 1 .3.4.2.6.4.8.8.2.3.2.7.2 1.2V61h.9l.1.4v.4l-.4.1h-2.2l-.3-.1-.1-.4v-.3l.4-.1h.6v-3.2c0-.4 0-.8-.3-1-.2-.2-.4-.4-.8-.4a2 2 0 0 0-1 .4 2 2 0 0 0-.9.9c-.2.4-.3.8-.3 1.3v2h1v.8l-.4.1h-2.2l-.3-.1-.1-.4.1-.3.3-.1h.6v-4.5h-1l-.1-.5v-.3l.4-.1h1.5l.2.4v.9c.3-.5.6-.9 1-1.1.4-.2.8-.4 1.3-.4Zm11 .2h.4v.8l-.3.1h-.5l-2.2 5.1c0 .2-.1.3-.3.3a1 1 0 0 1-.5.2 1 1 0 0 1-.5-.2.7.7 0 0 1-.3-.3l-2.2-5h-.4l-.3-.2-.1-.4v-.3l.4-.1h2.8v.8l-.4.1h-.8l1.8 4.5 2-4.5h-1l-.1-.5v-.3l.4-.1h2.2ZM449 59l-7.5-4.3v8.6L449 59Zm-72 .8h65.3v-1.5H377v1.5Z" fill="#fff"/><rect x="450" y="44" width="188" height="30" rx="7" fill="#000"/><rect x="450" y="44" width="188" height="30" rx="7" stroke="#fff" stroke-width="2"/><path d="M485.4 53.9c.6 0 1 0 1.4.3.4.1.7.4.8.7.2.4.3.7.3 1.2a1.8 1.8 0 0 1-.9 1.6c.5.1.9.4 1.1.7.3.4.4.8.4 1.3s0 .9-.3 1.2a2 2 0 0 1-.9.8c-.4.2-.8.3-1.4.3H482l-.3-.1-.1-.4v-.3l.4-.1h.9v-6.3h-1.2l-.1-.4V54l.4-.1h3.4Zm-1.5 3.4h1.4c.5 0 1 0 1.2-.3.3-.2.4-.5.4-1 0-.3-.1-.6-.4-.9-.3-.2-.7-.3-1.2-.3h-1.4v2.5Zm0 3.8h1.8c.6 0 1-.2 1.3-.4.3-.2.4-.6.4-1 0-1-.5-1.4-1.7-1.4H484V61Zm9.8-5.6c.7 0 1.2.2 1.7.4.5.3.8.7 1 1.1.3.5.5 1 .5 1.7l-.1.3h-5.3c0 .8.2 1.3.6 1.6.4.4 1 .6 1.6.6a5 5 0 0 0 2.3-.6h.2c.2 0 .3 0 .4.3v.2c0 .2 0 .4-.2.5l-1.3.4-1.4.2c-.7 0-1.3-.2-1.8-.4-.5-.3-.8-.7-1-1.2-.3-.5-.5-1-.5-1.8 0-.6.2-1.2.5-1.7A3 3 0 0 1 492 56c.5-.3 1-.5 1.7-.5Zm0 1c-.6 0-1 .2-1.4.5a2 2 0 0 0-.7 1.1h4.2c-.1-.5-.4-.9-.7-1.2-.3-.2-.8-.4-1.4-.4ZM500 53l.3.1.1.4v3.4l1-1a2.4 2.4 0 0 1 2.4 0c.3 0 .6.3.7.7.2.3.3.7.3 1.2V61h.8l.2.4c0 .2 0 .3-.2.4l-.3.1h-2.2l-.3-.1-.1-.4v-.3l.4-.1h.6v-3.2c0-.4 0-.8-.2-1-.2-.2-.5-.4-.9-.4a2 2 0 0 0-1 .4 2 2 0 0 0-.9.9c-.2.4-.3.8-.3 1.3v2h1l.1.4-.1.4-.3.1h-2.2l-.4-.1v-.7l.4-.1h.5v-7h-.6l-.3-.1-.1-.4v-.4h1.6Zm10.4 2.5c1 0 1.5.2 2 .6.4.4.6 1 .6 1.7v2.7c0 .4.2.6.5.6h.5l.1.4v.4l-.4.1h-.4c-.3 0-.6 0-.8-.2a1 1 0 0 1-.4-.7c-.4.4-.8.6-1.2.8a3.6 3.6 0 0 1-2.6 0 2 2 0 0 1-.9-.7c-.2-.3-.3-.6-.3-1 0-.8.3-1.3.8-1.6.5-.4 1.2-.6 2-.6.7 0 1.4.2 2 .4v-.6c0-.4 0-.8-.3-1-.2-.2-.6-.3-1.2-.3-.3 0-.7 0-1 .2-.4 0-.8.2-1.1.4h-.2c-.2 0-.3 0-.4-.3v-.3c0-.1 0-.3.2-.3a5.3 5.3 0 0 1 2.5-.7ZM510 59c-.5 0-1 .1-1.2.3-.3.2-.5.4-.5.8s.1.6.4.8c.2.2.5.3 1 .3.8 0 1.7-.4 2.4-1.1v-.8a7 7 0 0 0-2-.3Zm12.3-3.3h.4v.8l-.4.1h-.4l-2.2 5.1c0 .2-.2.3-.3.3a1 1 0 0 1-.5.2 1 1 0 0 1-.5-.2.7.7 0 0 1-.3-.3l-2.2-5h-.4c-.2 0-.3-.1-.3-.2l-.1-.4v-.3l.4-.1h2.5l.1.4v.4l-.4.1h-.9l1.9 4.5 1.9-4.5h-.8l-.1-.5v-.3l.4-.1h2.1Zm5.3 0h.3v5.4h2.6l.1.4v.4l-.4.1h-5.4l-.3-.1-.1-.4v-.3l.4-.1h2.2v-4.5h-2.1l-.1-.5.1-.3.3-.1h2.4Zm-.3-3h.6v1.7h-1.1l-.1-.4v-.9l.1-.3.5-.1Zm8.4 2.8c.6 0 1.2.2 1.7.5.5.2.9.6 1.2 1.1.3.5.4 1.1.4 1.7 0 .7-.1 1.2-.4 1.8a3 3 0 0 1-1.2 1.1 3.4 3.4 0 0 1-3.4 0 3 3 0 0 1-1.2-1.1c-.2-.6-.4-1.1-.4-1.8 0-.6.2-1.2.4-1.7A3 3 0 0 1 534 56c.5-.3 1-.5 1.7-.5Zm0 1-1.2.3a2 2 0 0 0-.7.9 2 2 0 0 0-.3 1.1c0 .5 0 .9.3 1.2.1.4.4.7.7.9l1.2.2c.4 0 .8 0 1.2-.2.3-.2.6-.5.7-.9.2-.3.3-.7.3-1.2 0-.4 0-.8-.3-1.1a2 2 0 0 0-.7-.9l-1.2-.3Zm10.6-.8h.3l.1.4v5h.8l.1.4v.4l-.4.1H546l-.3-.1-.1-.4v-.8c-.3.5-.7.8-1 1a2.4 2.4 0 0 1-2.5.2l-.7-.8-.2-1.2v-3.3h-.8l-.1-.5v-.3l.4-.1h1.5l.1.4v3.7c0 .4.1.7.3 1 .2.2.5.3.8.3.4 0 .8 0 1.1-.3.3-.2.6-.5.8-1 .2-.3.3-.7.3-1.2v-2h-1.3v-.8l.3-.1h1.6Zm8.3-.2c.3 0 .7.1 1 .3.2.1.3.3.3.4l-.1.3c-.1.3-.2.4-.4.4h-.2c-.2-.2-.5-.2-.7-.2a2 2 0 0 0-1.2.4c-.5.3-.8.7-1 1.1a3 3 0 0 0-.5 1.5v1.4h2.6v.8l-.4.1h-4.4l-.3-.1-.1-.4.1-.3.3-.1h1.1v-4.5h-1.2v-.8l.3-.1h1.8v1.9l.9-1c.3-.3.6-.6 1-.7.3-.2.6-.3 1-.3Zm6.3 0a3 3 0 0 1 2 .6c.4.4.6 1 .6 1.7v2.7c0 .4.1.6.4.6h.6l.1.4-.1.4-.3.1h-.5c-.3 0-.5 0-.7-.2a1 1 0 0 1-.4-.7c-.4.4-.8.6-1.3.8a3.6 3.6 0 0 1-2.6 0 2 2 0 0 1-.8-.7c-.2-.3-.3-.6-.3-1 0-.8.3-1.3.8-1.6.5-.4 1.2-.6 2-.6.7 0 1.4.2 2 .4v-.6c0-.4 0-.8-.3-1-.3-.2-.7-.3-1.2-.3-.4 0-.7 0-1 .2-.4 0-.8.2-1.1.4h-.2c-.2 0-.3 0-.4-.3v-.3c0-.1 0-.3.2-.3a5.3 5.3 0 0 1 2.5-.7Zm-.5 3.5c-.5 0-1 .1-1.3.3-.3.2-.4.4-.4.8s.1.6.3.8c.3.2.6.3 1 .3 1 0 1.7-.4 2.5-1.1v-.8a7 7 0 0 0-2-.3Zm9-6 .4.1v8h2.6l.1.4v.4l-.4.1h-5.4l-.3-.1-.1-.4v-.3l.4-.1h2.2V54H567l-.3-.1-.1-.4v-.4h2.9Zm19.5 6c.2 0 .3 0 .4.2v2.7l-.3.1h-6.1l-.4-.1v-.7l.4-.1h.7v-6.3h-1.1V54l.4-.1h6l.3.1v2.4l-.5.1h-.4v-1.8h-3.7v2.6h1.7v-.7l.1-.3.4-.1h.4l.1.4V59l-.1.3-.4.1h-.4v-1h-1.8V61h3.8v-1.8l.5-.1Zm6.3-3.5c.5 0 .8.1 1.1.3.3.2.6.4.7.8.2.3.3.7.3 1.2V61h.9v.8l-.4.1h-2.2l-.3-.1-.1-.4v-.3l.4-.1h.6v-3.2c0-.4 0-.8-.2-1-.2-.2-.5-.4-.9-.4a2 2 0 0 0-1 .4c-.4.2-.6.5-.9.9-.1.4-.3.8-.3 1.3v2h1l.1.4v.4l-.4.1h-2.2l-.4-.1v-.7l.4-.1h.5v-4.5h-1l-.1-.5v-.3l.4-.1h1.6V57c.4-.5.7-.9 1.1-1.1.4-.2.9-.4 1.3-.4Zm11 .2h.4l.1.4v.4l-.4.1h-.4l-2.3 5.1c0 .2-.1.3-.2.3a1 1 0 0 1-.6.2 1 1 0 0 1-.5-.2.7.7 0 0 1-.3-.3l-2.1-5h-.5l-.3-.2v-.7l.3-.1h2.8v.8l-.3.1h-1l2 4.5 1.8-4.5h-1v-.8l.3-.1h2.2Z" fill="#fff"/></svg>