<svg width="326" height="160" fill="none" xmlns="http://www.w3.org/2000/svg"><path fill="#000" d="M0 0h326v160H0z"/><path d="m21.4 20.1-.9-2a203.4 203.4 0 0 0-.8-2 21.8 21.8 0 0 1-.2-.6 35.6 35.6 0 0 1-.6-2 81.2 81.2 0 0 1 0 2.4V18a7.8 7.8 0 0 1 0 1.1h.9v.9H17v-.8a1.7 1.7 0 0 0 .5 0 .5.5 0 0 0 .3-.3v-.7l.2-4.6v-1.1a23.9 23.9 0 0 1-.9 0v-.9h2.7l1.8 4.6.2.7a38.8 38.8 0 0 1 .4 1.2 25.6 25.6 0 0 0 .6-1.5l1-2.5.9-2.5h2.7v.8a2 2 0 0 0-.4 0 .5.5 0 0 0-.3.3l-.1.7.2 4.6a4 4 0 0 1 0 .7v.4h.8v.9h-3.3v-.8h.5a.5.5 0 0 0 .3-.3V15l-.1-.8v-.8l-.1.2a.9.9 0 0 0 0 .2L22.4 20h-1.1Zm9.9 0a3.3 3.3 0 0 1-1.6-.3 2.8 2.8 0 0 1-1-1c-.3-.5-.5-1-.5-1.7 0-.6.2-1.2.4-1.7a3 3 0 0 1 1.1-1.2 3 3 0 0 1 1.6-.4c.5 0 1 .1 1.5.4.5.2.8.6 1 1 .3.5.5 1 .5 1.7s-.2 1.2-.4 1.7c-.3.5-.6 1-1 1.2a3 3 0 0 1-1.6.4Zm0-.8c.4 0 .6 0 .8-.3a1.9 1.9 0 0 0 .3-.8 5.3 5.3 0 0 0 0-2 3.6 3.6 0 0 0-.2-.7 1.5 1.5 0 0 0-.4-.6.8.8 0 0 0-.6-.3 1 1 0 0 0-.7.4 2 2 0 0 0-.4.8 4.6 4.6 0 0 0-.1 1V18l.4 1c.2.2.5.3.8.3Zm6.2.9a2.2 2.2 0 0 1-2.2-1.4 4 4 0 0 1-.3-1.6c0-.7.2-1.3.4-1.8s.6-.9 1-1.2c.5-.2 1-.4 1.6-.4a2.1 2.1 0 0 1 .6 0l.5.2v-.8a13.4 13.4 0 0 1 0-1h-.4a9.5 9.5 0 0 1-.4 0v-.9a6 6 0 0 0 1.5-.2c.2 0 .3-.1.3-.2h.7v7.2a13.4 13.4 0 0 1 0 1h.7v.9h-2.3a3.7 3.7 0 0 0 0-.3 2.9 2.9 0 0 0 0-.3 2.4 2.4 0 0 1-.9.6l-.8.2ZM38 19c.2 0 .4 0 .6-.2l.4-.4V15a1 1 0 0 0-.4-.1 1.7 1.7 0 0 0-.5-.1c-.3 0-.6.1-.8.3a2 2 0 0 0-.5.9 4.8 4.8 0 0 0 0 2c.1.4.2.7.4.9.2.2.5.3.8.3Zm7 1a3 3 0 0 1-1.5-.3 2.7 2.7 0 0 1-1-1.1 3 3 0 0 1-.4-1.7l.3-1.6c.2-.6.6-.8 1-1.1.5-.3 1-.5 1.7-.5.3 0 .6 0 1 .2.3 0 .6.2.8.4.3.2.5.5.6 1 .2.3.3.8.3 1.4h-4c0 .5 0 .9.2 1.2.1.4.3.6.5.8.3.2.6.3 1 .3a2.4 2.4 0 0 0 1.2-.3l.6-.6.5.5-.9 1a3 3 0 0 1-1 .4 4 4 0 0 1-.9 0Zm-1-4.1h2.1l-.1-.8a.9.9 0 0 0-.4-.4 1 1 0 0 0-.5-.2 1 1 0 0 0-.8.4 2 2 0 0 0-.4 1Zm4.5 3.2.4-.1a.6.6 0 0 0 .2-.4v-6a11.3 11.3 0 0 1 .1-.5 27.4 27.4 0 0 1-.8 0v-.9a6 6 0 0 0 1.5-.2c.2 0 .3-.1.3-.2h.7V18a13.4 13.4 0 0 1 0 1h.7v.9h-3.1v-.8Zm3.9-2.3v-1.3h4.4v1.2h-4.4Zm5.4 3.1v-.8a1.7 1.7 0 0 0 .4 0 .5.5 0 0 0 .3-.3l.1-.7v-5.7a24.6 24.6 0 0 1-.8 0v-.9h6v2.3h-.7c0-.4-.1-.7-.3-1a1 1 0 0 0-.5-.4 1.8 1.8 0 0 0-.7-.1h-.9l-.2.4-.1.6v2.1h1.2v-1h.9v3h-.8c0-.4 0-.7-.2-.8a.6.6 0 0 0-.4-.3 2.3 2.3 0 0 0-.6 0h-.1V19h.3a7.6 7.6 0 0 1 .7 0v.9h-3.6Zm6.5-.8.5-.1a.6.6 0 0 0 .2-.4v-2.5a11.5 11.5 0 0 1 .1-1 27.4 27.4 0 0 1-.8 0v-1h1.3l.5-.3h.6v1l.7-.6.5-.4h.6l.7.1c.2.2.3.5.3.8v.4a.8.8 0 0 1-.3.3l-.5.1a1 1 0 0 1-.5-.1c-.2-.1-.3-.3-.3-.6l-.5.3a2.2 2.2 0 0 0-.6 1V18a13.4 13.4 0 0 1-.1 1h.8v.9h-3.2v-.8Zm8.6 1a3 3 0 0 1-1.6-.4 2.7 2.7 0 0 1-1-1.1 3 3 0 0 1-.4-1.7c0-.5.1-1 .4-1.6s.6-.8 1-1.1a3 3 0 0 1 1.6-.5c.3 0 .7 0 1 .2.3 0 .6.2.8.4.3.2.5.5.7 1l.2 1.4h-4L72 18c.1.4.3.6.6.8.2.2.5.3 1 .3a2.4 2.4 0 0 0 1.1-.3l.6-.6.6.5-1 1a3 3 0 0 1-1 .4 4 4 0 0 1-.8 0ZM71.8 16H74l-.1-.8a.9.9 0 0 0-.3-.4 1 1 0 0 0-.5-.2 1 1 0 0 0-.9.4 2 2 0 0 0-.4 1Zm7.6 4.2a3 3 0 0 1-1.5-.4 2.7 2.7 0 0 1-1-1.1c-.3-.5-.5-1-.5-1.7 0-.5.2-1 .4-1.6s.6-.8 1-1.1c.5-.3 1-.5 1.7-.5.3 0 .6 0 1 .2.3 0 .5.2.8.4.3.2.5.5.6 1 .2.3.3.8.2 1.4h-3.9c0 .5 0 .9.2 1.2 0 .4.3.6.5.8.3.2.6.3 1 .3a2.4 2.4 0 0 0 1.2-.3l.6-.6.5.5-1 1a3 3 0 0 1-.9.4 4 4 0 0 1-.9 0ZM78.3 16h2.2c0-.3 0-.6-.2-.8a.9.9 0 0 0-.3-.4 1 1 0 0 0-.5-.2 1 1 0 0 0-.8.4 2 2 0 0 0-.4 1Zm-61.8 5.5h66v.6h-66v-.6ZM21 46.1l-2.4-5.8a8.2 8.2 0 0 1-.4-1 4.5 4.5 0 0 1-.1-.5 4.3 4.3 0 0 1-.3 0 4.3 4.3 0 0 0-.3 0v-.5H20v.4c-.4 0-.6.1-.7.3 0 .2 0 .5.2.9L20 41l.5 1.3.5 1.2.4 1c0-.3.2-.6.3-.8a92.8 92.8 0 0 0 .8-2.4l.4-1a39.6 39.6 0 0 0 .6-1.7h-.8v-.4h2.2v.4c-.3 0-.6 0-.8.2a2 2 0 0 0-.4.8 3 3 0 0 0 0 .2l-.2.3-.2.6a119.9 119.9 0 0 1-2 5.3H21Zm7.3-.1a3.5 3.5 0 0 1 0-.3 4.6 4.6 0 0 0-.1-.3l-.8.6a2 2 0 0 1-1 .2c-.5 0-1-.1-1.2-.4a1.2 1.2 0 0 1-.4-1 1.3 1.3 0 0 1 .3-.8c.2-.3.5-.5.8-.6L27 43h1.2v-.8l-.1-.7a1 1 0 0 0-.3-.5c-.1-.2-.4-.3-.7-.3a1.7 1.7 0 0 0-.7.2.9.9 0 0 0-.4.4.4.4 0 0 1 0 .2.7.7 0 0 1 0 .2v.3l-.4.2c-.2 0-.3 0-.4-.2a.6.6 0 0 1 0-.4c0-.2 0-.4.2-.6l.8-.5 1.1-.2c.6 0 1 .2 1.4.5.3.3.4.9.4 1.6v2.4a6 6 0 0 1 0 .8h.7v.4h-1.5Zm-.1-2.7-.8.1a3.2 3.2 0 0 0-.8.2l-.6.5a1 1 0 0 0-.2.6c0 .3.1.5.3.7a1 1 0 0 0 .6.1l.8-.1.7-.5a3 3 0 0 1 0-.3v-1.3Zm2.3 2.4c.2 0 .4 0 .4-.2a.9.9 0 0 0 .2-.5 10 10 0 0 0 0-.7v-5.9h-.7V38h.7l.4-.2a.8.8 0 0 0 .2-.1h.4v7.1a7.7 7.7 0 0 1 0 .8h.6v.4h-2.2v-.3Zm5.4.5a2 2 0 0 1-1-.2c-.3-.2-.5-.4-.6-.8l-.2-1.4V41h-.7v-.4h.3l.7-.1.3-.2h.4v3.3c0 .7 0 1.1.2 1.5.2.3.5.4 1 .4a1.5 1.5 0 0 0 .7-.2 2.2 2.2 0 0 0 .7-.6v-2.9a8.2 8.2 0 0 1 0-.8h-.4a7.2 7.2 0 0 0-.4 0v-.4h.4l.6-.1.4-.2h.3V45a8.4 8.4 0 0 1 0 .6h.7v.4h-1.5a8.6 8.6 0 0 1 0-.4l-.1-.3a3.4 3.4 0 0 1-.8.6 2.1 2.1 0 0 1-1 .3Zm6.9 0c-.5 0-1-.1-1.4-.4a2.6 2.6 0 0 1-1-1c-.2-.4-.3-1-.3-1.5 0-.6.1-1 .4-1.5a2.8 2.8 0 0 1 1-1 2.6 2.6 0 0 1 2.2-.3c.3 0 .6.2.8.4l.4.8c.2.3.2.6.2 1l-3.8.1.1 1.5c.2.4.3.7.6 1 .3.2.6.3 1 .3l.8-.1.6-.3.5-.5.3.2a2.5 2.5 0 0 1-.7.8 3 3 0 0 1-.9.4h-.8Zm-1.5-3.8H44l-.1-.8a1.3 1.3 0 0 0-.4-.6 1 1 0 0 0-.7-.2c-.4 0-.8 0-1 .3-.3.3-.5.7-.6 1.3ZM46 49l-.7-.4 6.5-11 .7.5L46 49Zm7.3-3.4c.3 0 .5 0 .6-.2a.7.7 0 0 0 .1-.4 9.8 9.8 0 0 0 0-.7v-4.8a7 7 0 0 1 0-.8h-.7v-.4a66.4 66.4 0 0 1 4.2.2c.5.2.9.4 1.2.7.2.3.4.7.4 1.2 0 .3 0 .6-.2 1a2.2 2.2 0 0 1-.5.8l-1.1.7-1.9.2H55v1.6a9.7 9.7 0 0 1 0 .9h.7l.3-.1v.5h-2.7v-.4Zm1.7-3h.7c.4 0 .8 0 1.2-.2a2 2 0 0 0 .8-.7c.2-.3.3-.7.3-1 0-.4 0-.7-.2-1a1.4 1.4 0 0 0-.4-.6 1.8 1.8 0 0 0-.7-.3 3.6 3.6 0 0 0-1 0h-.5l-.2.5v3.3Zm7.5 3.6c-.5 0-1-.1-1.4-.4a2.8 2.8 0 0 1-1-1 2.9 2.9 0 0 1-.4-1.4c0-.6.1-1.1.4-1.6a2.8 2.8 0 0 1 1-1 2.5 2.5 0 0 1 1.4-.5c.5 0 1 .1 1.4.4a2.7 2.7 0 0 1 1.3 2.4c0 .6 0 1.1-.3 1.6a2.9 2.9 0 0 1-1 1 2.5 2.5 0 0 1-1.4.5Zm0-.5c.4 0 .8 0 1-.3a1.8 1.8 0 0 0 .5-.9l.1-1v-1a3.1 3.1 0 0 0-.4-.9 1.7 1.7 0 0 0-.5-.6 1.2 1.2 0 0 0-.7-.3c-.4 0-.7.2-1 .4a2 2 0 0 0-.5.8l-.2 1.2c0 .4 0 .9.2 1.3.1.4.3.7.6 1 .2.2.6.3 1 .3Zm3.6 0c.2 0 .3 0 .4-.2a.9.9 0 0 0 .2-.5 10 10 0 0 0 0-.7v-5.9H66V38h.7l.4-.2a.8.8 0 0 0 .2-.1h.4v7.1a6.7 6.7 0 0 1 0 .8h.6v.4h-2.2v-.3Zm3 0c.3 0 .5 0 .5-.2a.9.9 0 0 0 .2-.5v-3.2a4.9 4.9 0 0 1 0-.7h-.7v-.4h.7l.4-.2a.8.8 0 0 0 .2-.1h.4v4.4a6.7 6.7 0 0 1 0 .8h.6v.4h-2.2v-.3Zm1.1-6.4a.5.5 0 0 1-.4-.2.6.6 0 0 1-.1-.4l.1-.5a.6.6 0 0 1 .5-.2c.1 0 .3 0 .4.2a.6.6 0 0 1 .1.5.6.6 0 0 1-.1.4.6.6 0 0 1-.5.2Zm4.7 6.9c-.4 0-.9-.1-1.3-.4a2 2 0 0 1-1-1 3 3 0 0 1-.4-1.5l.2-1 .6-1c.3-.3.6-.6 1-.7a2 2 0 0 1 1.1-.3c.4 0 .8 0 1 .2.4.1.6.3.8.5.2.2.2.4.2.7v.4l-.5.2c-.2 0-.3 0-.4-.2a.7.7 0 0 1 0-.3v-.3a.5.5 0 0 1 0-.2.7.7 0 0 0-.2-.4 1.2 1.2 0 0 0-.5-.1 2.1 2.1 0 0 0-.4 0c-.5 0-.9.1-1.2.5-.4.4-.5 1-.5 1.8 0 .5 0 .9.2 1.3.1.4.4.7.7.9.2.2.6.3 1 .3.3 0 .6 0 1-.3l.7-.6.3.2-.7.7c-.3.2-.6.4-.9.4a2.6 2.6 0 0 1-.8.2Zm4 2.8a1 1 0 0 1-.6-.2l-.2-.5.1-.4a.4.4 0 0 1 .4-.1l.3.1a.7.7 0 0 1 .1.4v.1h.1a.5.5 0 0 0 .3 0 1 1 0 0 0 .3-.4l.3-.7.5-1.2-1.8-3.7-.4-1a8.1 8.1 0 0 1-.1-.5h-.6v-.4H80v.3c-.3 0-.5.2-.5.4l.2 1 1.3 2.7a78 78 0 0 0 1.5-4h-.8v-.4h1.7v.3a1.2 1.2 0 0 0-.6.5 6.6 6.6 0 0 0-.4 1L81 46a27 27 0 0 1-.6 1.6 3 3 0 0 1-.6 1 1.1 1.1 0 0 1-.8.3Zm-37 92 5.8-10H36.2l5.8 10Zm1-9V51h-2v81h2Zm16-81-5.8 10h11.6L59 51Zm1 90V60h-2v81h2Zm-33.8 7.2-.1-.7a.6.6 0 0 0-.4-.3 4 4 0 0 0-.8 0H24v2.5a10.2 10.2 0 0 1 0 .9h2a2.4 2.4 0 0 0 .9-.2 1.1 1.1 0 0 0 .5-.5c.2-.3.2-.6.2-1h.4v2.1h-5.7v-.4l.5-.1a.7.7 0 0 0 .2-.5v-6.3h-.7v-.4h5.3v2h-.3l-.2-1a1 1 0 0 0-.6-.5 2 2 0 0 0-.7-.1h-1c-.2 0-.4 0-.6.2l-.2.4a6.4 6.4 0 0 0 0 .7v1.8h2v-1h.5v2.4h-.4Zm2.7 2.8v-.3c.2 0 .4-.2.5-.3l.5-.6 1.1-1.5a33.9 33.9 0 0 0-.4-.4l-.4-.6a5.7 5.7 0 0 0-.3-.4 4.6 4.6 0 0 1-.4-.6 3.8 3.8 0 0 1-.1-.4h-.5v-.4H31v.3c-.3 0-.5.1-.5.3 0 .1 0 .4.3.7l.7.9 1-1.2.2-.3.2-.3h-.7v-.4H34v.3a1.8 1.8 0 0 0-.5.3 17.2 17.2 0 0 0-1 1l-.8 1 1.5 1.8a10.6 10.6 0 0 0 .5.7h.5v.4h-2.1v-.3c.2 0 .3 0 .4-.2l-.1-.4-1.2-1.4-1 1.3-.2.3a5.2 5.2 0 0 1-.2.3h.8v.4H29Zm6 2.8v-.3c.2 0 .3 0 .4-.2l.2-.5v-6.7h-.7v-.4h.7l.4-.2a.9.9 0 0 0 .2-.1h.3a18.2 18.2 0 0 1 0 .6l.8-.5a2.4 2.4 0 0 1 1-.2c.4 0 .8.1 1.1.4.4.2.7.5 1 .9.1.4.3.9.3 1.5s-.2 1.1-.4 1.6a3 3 0 0 1-1 1 2.6 2.6 0 0 1-1.5.5l-.7-.1a2.4 2.4 0 0 1-.6-.3v1.8a6.1 6.1 0 0 1 0 .8h.7v.4h-2.3Zm2.8-3c.4 0 .7-.2 1-.4.2-.2.4-.5.5-.9a3.7 3.7 0 0 0 0-2.4 2 2 0 0 0-.5-.9c-.2-.2-.6-.3-1-.3-.2 0-.5 0-.7.2a2 2 0 0 0-.6.4v3.8a2.1 2.1 0 0 0 1.3.4Zm6.5.4c-.6 0-1-.1-1.4-.4a2.6 2.6 0 0 1-1-1c-.2-.4-.3-1-.3-1.5 0-.6 0-1 .3-1.5a2.8 2.8 0 0 1 1-1 2.5 2.5 0 0 1 2.3-.3c.3 0 .5.2.7.4l.5.8.2 1-3.9.1c0 .6 0 1 .2 1.5.1.4.3.7.6 1 .2.2.6.3 1 .3l.7-.1c.3 0 .5-.2.7-.3l.5-.5.2.2a2.5 2.5 0 0 1-.7.8 3 3 0 0 1-.8.4 3 3 0 0 1-.8 0Zm-1.6-3.8h2.8v-.8a1.3 1.3 0 0 0-.5-.6 1 1 0 0 0-.6-.2c-.5 0-.8 0-1.1.3-.3.3-.5.7-.6 1.3Zm4.9 3.3c.2 0 .3 0 .4-.2a.9.9 0 0 0 .2-.5v-3.9h-.7v-.4h.3l.7-.1.3-.2h.3v1.1l.5-.6.6-.4.8-.2c.2 0 .4 0 .5.2.2.1.3.3.3.5a.6.6 0 0 1-.3.5.5.5 0 0 1-.3 0 .5.5 0 0 1-.4-.1.6.6 0 0 1 0-.5 1.1 1.1 0 0 0-.7.2c-.2 0-.3.2-.5.4a3 3 0 0 0-.4.6v2.7a7.7 7.7 0 0 1 0 .8h.6v.4h-2.2v-.3Zm4.7 0c.2 0 .4 0 .5-.2a.9.9 0 0 0 .1-.5v-3.2a4.9 4.9 0 0 1 .1-.7H52v-.4h.8l.4-.2a.8.8 0 0 0 .2-.1h.3v4.4a6.7 6.7 0 0 1 0 .8h.7v.4h-2.3v-.3Zm1-6.4a.5.5 0 0 1-.3-.2.7.7 0 0 1-.2-.4.7.7 0 0 1 .2-.5.6.6 0 0 1 .4-.2c.2 0 .3 0 .4.2a.7.7 0 0 1 .2.5.6.6 0 0 1-.2.4.6.6 0 0 1-.4.2Zm4.8 6.9c-.5 0-1-.1-1.4-.4a2.6 2.6 0 0 1-1-1c-.2-.4-.3-1-.3-1.5 0-.6.1-1 .3-1.5a2.8 2.8 0 0 1 1-1 2.6 2.6 0 0 1 2.3-.3c.3 0 .5.2.7.4l.5.8.2 1-3.9.1c0 .6 0 1 .2 1.5.1.4.3.7.6 1 .3.2.6.3 1 .3l.7-.1c.3 0 .5-.2.7-.3l.5-.5.3.2a2.5 2.5 0 0 1-.8.8 3 3 0 0 1-.8.4 3 3 0 0 1-.8 0Zm-1.5-3.8h2.8c0-.3 0-.6-.2-.8a1.3 1.3 0 0 0-.3-.6 1 1 0 0 0-.7-.2c-.5 0-.8 0-1.1.3-.3.3-.5.7-.5 1.3Zm4.8 3.6v-.3c.2 0 .4 0 .4-.2a.9.9 0 0 0 .2-.5v-3.9h-.7v-.4h.7l.4-.2a.9.9 0 0 0 .2-.1h.3v.7a3.5 3.5 0 0 1 .6-.4 3.3 3.3 0 0 1 .6-.3h.6c.7 0 1.2.1 1.4.5.3.4.5 1 .5 1.9v2a6.7 6.7 0 0 1 0 .8h.6v.4h-2v-.3c.2 0 .4 0 .5-.2a.9.9 0 0 0 .1-.5v-2.2c0-.6 0-1.1-.3-1.4-.2-.4-.5-.5-1-.5a1.8 1.8 0 0 0-.7.2 2 2 0 0 0-.6.5v3.2a6.7 6.7 0 0 1 0 .8h.6v.4h-2.2Zm9.3.2c-.5 0-1-.1-1.3-.4a2 2 0 0 1-1-1 3 3 0 0 1-.4-1.5c0-.3 0-.7.2-1l.6-1a2.8 2.8 0 0 1 1-.7 2 2 0 0 1 1-.3c.5 0 .9 0 1.2.2l.7.5.2.7a.7.7 0 0 1-.1.4l-.4.2c-.2 0-.3 0-.4-.2a.7.7 0 0 1-.1-.3v-.3a.5.5 0 0 1 .2-.2.7.7 0 0 0-.3-.4 1.2 1.2 0 0 0-.5-.1 2.2 2.2 0 0 0-.4 0c-.5 0-1 .1-1.3.5a3 3 0 0 0-.5 1.8c0 .5.1.9.3 1.3.1.4.4.7.6.9.3.2.7.3 1 .3.4 0 .7 0 1-.3a2.2 2.2 0 0 0 .8-.6l.2.2c-.1.3-.4.5-.6.7-.3.2-.6.4-.9.4a2.6 2.6 0 0 1-.8.2Zm5.8 0c-.5 0-1-.1-1.4-.4a2.6 2.6 0 0 1-1-1c-.2-.4-.3-1-.3-1.5 0-.6.1-1 .4-1.5a2.8 2.8 0 0 1 1-1 2.5 2.5 0 0 1 2.3-.3l.7.4.5.8.1 1-3.8.1.1 1.5.6 1c.3.2.7.3 1 .3l.8-.1.6-.3.5-.5.3.2a2.5 2.5 0 0 1-.7.8 3 3 0 0 1-.9.4 3 3 0 0 1-.8 0Zm-1.5-3.8h2.8l-.1-.8a1.3 1.3 0 0 0-.4-.6 1 1 0 0 0-.7-.2c-.4 0-.8 0-1 .3-.3.3-.5.7-.6 1.3ZM7.6 98v-.3l.4-.1a1 1 0 0 0 .3-.4l.2-.6 1.8-5h.3l2 5a7.6 7.6 0 0 1 .1.5l.1.5h.6v.4h-2v-.3l.4-.1a.4.4 0 0 0 0-.4 1.6 1.6 0 0 0 0-.4l-.3-.8H9l-.3 1a3.1 3.1 0 0 1-.1.4 6.3 6.3 0 0 1-.1.2 134 134 0 0 0 .7 0v.4H7.6Zm1.7-2.3h2l-.6-1.8a14.8 14.8 0 0 0-.2-.5l-.2-.6a17.2 17.2 0 0 1-.4 1l-.6 1.9Zm6.6 2.4a2.4 2.4 0 0 1-1.1-.2 2.1 2.1 0 0 1-.8-.8c-.2-.4-.3-.8-.3-1.3a2.5 2.5 0 0 1 .6-1.7l.8-.5c.3-.2.6-.2 1-.2l.8.1.6.4a.8.8 0 0 1 .2.6.6.6 0 0 1-.1.3l-.3.1h-.4a.6.6 0 0 1 0-.4v-.1a.4.4 0 0 1 0-.2.5.5 0 0 0-.2-.3 1 1 0 0 0-.3-.2 1.7 1.7 0 0 0-.4 0c-.4 0-.7.2-1 .5-.3.3-.4.8-.4 1.4 0 .4 0 .8.2 1 .1.4.3.6.5.8.3.2.5.3.8.3l.8-.2.6-.6.3.2a2 2 0 0 1-.6.6c-.2.1-.4.3-.7.3a2.2 2.2 0 0 1-.6.1Zm4.2 0h-.4a1 1 0 0 1-.4-.2 1.2 1.2 0 0 1-.3-.5v-3.5h-.8v-.4a1 1 0 0 0 .5-.2c.2 0 .3-.2.4-.4a1.7 1.7 0 0 0 .3-.7h.3v1.3h1.5v.4h-1.5V97a.9.9 0 0 0 .3.4.6.6 0 0 0 .4.1.8.8 0 0 0 .5-.1l.4-.4.2.2a2.3 2.3 0 0 1-.4.5 1.4 1.4 0 0 1-.4.2 1 1 0 0 1-.3.1 1.5 1.5 0 0 1-.3 0Zm1.8-.4.4-.1a.7.7 0 0 0 .1-.4v-2.6a3.8 3.8 0 0 1 0-.3V94H22v-.3h.6l.3-.2a.6.6 0 0 0 .2 0h.2V97a5.2 5.2 0 0 1 0 .7h.6v.3H22v-.3Zm.9-5.2a.4.4 0 0 1-.3-.1.5.5 0 0 1-.2-.4.5.5 0 0 1 .2-.4.5.5 0 0 1 .3-.2l.3.2a.5.5 0 0 1 .2.4c0 .1 0 .3-.2.4a.5.5 0 0 1-.3.1Zm1.7 5.5v-.3l.3-.1a.7.7 0 0 0 .2-.4V94h-.6v-.3h.6l.3-.2a.7.7 0 0 0 .2 0h.2v.5a2.8 2.8 0 0 1 1-.6h.5c.5 0 1 .1 1.2.5.2.3.3.8.3 1.5V97a4.5 4.5 0 0 1 0 .7h.6v.3h-1.9v-.3l.4-.1a.7.7 0 0 0 .1-.4v-1.8c0-.5 0-1-.2-1.2-.2-.3-.4-.4-.8-.4a1.5 1.5 0 0 0-.6.2 1.7 1.7 0 0 0-.5.4V97a5.3 5.3 0 0 1 0 .7h.5v.3h-1.8Zm7.6 2.4-1.3-.1c-.3-.2-.6-.3-.7-.5a1 1 0 0 1-.3-.6c0-.2 0-.3.2-.5a1.5 1.5 0 0 1 .7-.6 1.2 1.2 0 0 1-.5-.2.6.6 0 0 1-.2-.5l.3-.6.6-.3a1.7 1.7 0 0 1-.6-.5 1.4 1.4 0 0 1-.3-.9l.3-.9c.2-.3.4-.5.7-.6a2 2 0 0 1 1.5-.2l.6.3.2-.5.4-.3a1 1 0 0 1 .5 0h.3a.4.4 0 0 1 .1.5.4.4 0 0 1-.3.2.4.4 0 0 1-.3 0 .4.4 0 0 1-.1-.3.5.5 0 0 0-.4.2 1 1 0 0 0-.1.4l.3.5.1.6c0 .3 0 .6-.2.9a1.8 1.8 0 0 1-.7.6 2 2 0 0 1-1 .2 2.1 2.1 0 0 1-.3 0 1.5 1.5 0 0 0-.3 0l-.5.1-.2.4c.1.2.2.3.5.3h1a5.4 5.4 0 0 1 1.2.2c.3.1.6.3.7.5.2.2.3.4.3.7 0 .3 0 .5-.2.7a1.5 1.5 0 0 1-.5.5l-.7.2a3.1 3.1 0 0 1-.8.1Zm0-.3c.5 0 .9-.1 1.2-.3.3-.2.4-.4.4-.7 0-.2 0-.4-.2-.5l-.6-.2a6.3 6.3 0 0 0-1-.1 12 12 0 0 1-.4 0 3.6 3.6 0 0 1-.4 0c-.2 0-.3.2-.4.3a1 1 0 0 0-.1.5c0 .3 0 .5.4.7.2.2.6.3 1 .3Zm-.1-3.7a.9.9 0 0 0 .5-.2 1 1 0 0 0 .3-.4l.2-.6c0-.3 0-.5-.2-.8a1.3 1.3 0 0 0-.3-.5.8.8 0 0 0-.6-.2c-.3 0-.6 0-.7.3-.2.3-.3.6-.3 1l.1.7.4.5a1 1 0 0 0 .6.2ZM65.5 98v-.3l.4-.1a.6.6 0 0 0 .2-.4v-4.5a5.3 5.3 0 0 1 0-.6h-.6v-.4h2v.3l-.5.1a.6.6 0 0 0-.1.4V97a8 8 0 0 1 0 .7h1.6c.4 0 .7-.2.9-.4.2-.3.3-.6.3-1.2h.3V98h-4.5Zm7.3.1c-.5 0-.8 0-1.2-.2a2.1 2.1 0 0 1-.7-.9c-.2-.3-.3-.8-.3-1.2 0-.5 0-.9.2-1.2.2-.4.5-.7.8-.9a2 2 0 0 1 1.2-.3h.7l.6.5c.2.1.3.3.4.6l.2.8-3.2.1.1 1.2.5.8c.2.2.5.3.9.3l.5-.1.6-.3.4-.4.2.2a2 2 0 0 1-.6.6 2.5 2.5 0 0 1-1.3.4Zm-1.3-3h2.3a2 2 0 0 0 0-.7 1 1 0 0 0-.4-.5.8.8 0 0 0-.6-.2c-.3 0-.6.1-.8.3-.3.2-.4.6-.5 1Zm6.7 2.9a2.8 2.8 0 0 1 0-.3 3.8 3.8 0 0 0 0-.2 2.6 2.6 0 0 1-.8.5 1.7 1.7 0 0 1-.7.1c-.5 0-.8 0-1-.3a1 1 0 0 1-.3-.7c0-.3 0-.5.2-.7l.7-.5c.2-.2.5-.3.9-.3l.9-.1v-1.2a.9.9 0 0 0-.3-.4l-.6-.2a1.4 1.4 0 0 0-.5 0 .7.7 0 0 0-.4.5.3.3 0 0 1 0 .1l.1.2v.3h-.7a.5.5 0 0 1 0-.4l.1-.5.7-.4a2.7 2.7 0 0 1 .9-.1c.5 0 .9 0 1.1.4.3.2.4.6.4 1.2v2.3a8.8 8.8 0 0 1 0 .4h.5v.3h-1.3Zm-.1-2.2h-.7a2.6 2.6 0 0 0-.6.3c-.2 0-.3.2-.4.3a.8.8 0 0 0-.2.6c0 .2 0 .4.2.5l.5.1.6-.1.6-.4a2.4 2.4 0 0 1 0-.2v-1.1Zm2 2 .4-.2a.7.7 0 0 0 .1-.4V94H80v-.3h.3l.5-.1.3-.2h.2v.9l.4-.4.6-.4.6-.1h.4c.2.2.2.3.2.5a.5.5 0 0 1-.2.4.4.4 0 0 1-.2 0 .4.4 0 0 1-.3-.1.5.5 0 0 1-.1-.3 1 1 0 0 0-.5 0 1.7 1.7 0 0 0-.4.4 2.4 2.4 0 0 0-.4.5V97a5.2 5.2 0 0 1 0 .7h.5v.3h-1.8v-.3Zm3.9.2v-.3l.4-.1a.7.7 0 0 0 0-.4l.1-.6V94H84v-.3h.6l.3-.2a.7.7 0 0 0 .2 0h.2v.5a2.7 2.7 0 0 1 1-.6h.5c.6 0 1 .1 1.2.5.2.3.3.8.3 1.5V97a5.2 5.2 0 0 1 0 .7h.6v.3H87v-.3l.4-.1a.7.7 0 0 0 .1-.4v-1.8c0-.5 0-1-.2-1.2-.2-.3-.4-.4-.8-.4a1.5 1.5 0 0 0-.6.2 1.7 1.7 0 0 0-.5.4V97a5.2 5.2 0 0 1 0 .7h.5v.3H84Zm5.4-.3.4-.1a.7.7 0 0 0 .2-.4v-2.6a3.8 3.8 0 0 1 0-.3V94h-.6v-.3h.6l.3-.2a.6.6 0 0 0 .2 0h.2V97a5.3 5.3 0 0 1 0 .7h.6v.3h-1.9v-.3Zm1-5.2a.4.4 0 0 1-.4-.1.5.5 0 0 1-.2-.4.5.5 0 0 1 .2-.4.5.5 0 0 1 .3-.2l.4.2a.5.5 0 0 1 .1.4l-.1.4a.5.5 0 0 1-.4.1ZM92 98v-.3l.4-.1a.7.7 0 0 0 0-.4l.1-.6V94H92v-.3h.6l.3-.2a.7.7 0 0 0 .2 0h.2v.5a2.7 2.7 0 0 1 1-.6h.5c.6 0 1 .1 1.2.5.2.3.3.8.3 1.5V97a5.2 5.2 0 0 1 0 .7h.6v.3H95v-.3l.4-.1a.7.7 0 0 0 .1-.4v-1.8c0-.5 0-1-.2-1.2-.2-.3-.4-.4-.8-.4a1.5 1.5 0 0 0-.6.2 1.7 1.7 0 0 0-.5.4V97a5.2 5.2 0 0 1 0 .7h.5v.3H92Zm7.6 2.4-1.3-.1c-.3-.2-.6-.3-.7-.5a1 1 0 0 1-.2-.6v-.5a1.5 1.5 0 0 1 .8-.6 1.2 1.2 0 0 1-.5-.2.6.6 0 0 1-.1-.5c0-.2 0-.4.2-.6.2-.1.4-.3.7-.3a1.7 1.7 0 0 1-.7-.5 1.4 1.4 0 0 1-.2-.9c0-.3 0-.6.2-.9l.7-.6a2 2 0 0 1 1.5-.2l.6.3c0-.2.1-.3.3-.5l.3-.3a1 1 0 0 1 .5 0h.3a.4.4 0 0 1 .1.5.4.4 0 0 1-.3.2.4.4 0 0 1-.3 0 .4.4 0 0 1-.1-.3.5.5 0 0 0-.4.2 1 1 0 0 0-.1.4l.3.5.2.6-.3.9a1.8 1.8 0 0 1-.7.6 2 2 0 0 1-1 .2 2.1 2.1 0 0 1-.2 0 1.5 1.5 0 0 0-.3 0l-.6.1c-.1.1-.2.3-.1.4 0 .2.2.3.4.3h1a5.4 5.4 0 0 1 1.2.2c.3.1.6.3.7.5.2.2.3.4.3.7 0 .3 0 .5-.2.7a1.5 1.5 0 0 1-.5.5l-.7.2-.8.1Zm0-.3c.5 0 1-.1 1.2-.3.3-.2.4-.4.4-.7 0-.2 0-.4-.2-.5l-.6-.2a6.3 6.3 0 0 0-.9-.1 12 12 0 0 1-.5 0 3.6 3.6 0 0 1-.4 0c-.2 0-.3.2-.4.3a1 1 0 0 0-.1.5c0 .3.1.5.4.7.3.2.6.3 1.1.3Zm-.1-3.7a.9.9 0 0 0 .5-.2 1 1 0 0 0 .4-.4v-1.4a1.3 1.3 0 0 0-.4-.5.8.8 0 0 0-.6-.2c-.3 0-.5 0-.7.3-.2.3-.3.6-.3 1l.1.7.4.5a1 1 0 0 0 .6.2Zm103.7-76.3-.8-2a203.4 203.4 0 0 0-.8-2 21.8 21.8 0 0 1-.2-.6 35.6 35.6 0 0 1-.6-2 81.2 81.2 0 0 1 0 2.4V18a7.8 7.8 0 0 1 0 1.1h.8v.9H199v-.8a1.7 1.7 0 0 0 .4 0 .5.5 0 0 0 .3-.3l.1-.7.1-4.6v-1.1a23.9 23.9 0 0 1-.8 0v-.9h2.6l1.8 4.6.3.7a38.8 38.8 0 0 1 .4 1.2 25.6 25.6 0 0 0 .6-1.5l.9-2.5 1-2.5h2.7v.8a2 2 0 0 0-.5 0 .5.5 0 0 0-.3.3v.7l.1 4.6a4 4 0 0 1 0 .7v.4h.9v.9h-3.3v-.8h.4a.5.5 0 0 0 .3-.3l.1-.7v-2.6l-.1-.5v-1.6l-.2.2a.9.9 0 0 0 0 .2l-2.4 6.2h-1Zm10 0a3.3 3.3 0 0 1-1.6-.3 2.8 2.8 0 0 1-1.1-1 3 3 0 0 1-.4-1.7c0-.6.1-1.2.4-1.7a3 3 0 0 1 1.1-1.2 3.2 3.2 0 0 1 3 0c.5.2.9.6 1.1 1 .3.5.4 1 .4 1.7s0 1.2-.3 1.7-.7 1-1.1 1.2a3 3 0 0 1-1.5.4Zm0-.8c.3 0 .6 0 .7-.3a1.9 1.9 0 0 0 .4-.8 5.2 5.2 0 0 0 0-2 3.6 3.6 0 0 0-.2-.7 1.5 1.5 0 0 0-.4-.6.8.8 0 0 0-.6-.3 1 1 0 0 0-.8.4 2 2 0 0 0-.3.8 4.6 4.6 0 0 0-.1 1V18l.5 1c.2.2.5.3.8.3Zm6.1.9a2.2 2.2 0 0 1-2.1-1.4 4 4 0 0 1-.3-1.6c0-.7.1-1.3.4-1.8s.6-.9 1-1.2c.5-.2 1-.4 1.6-.4a2.1 2.1 0 0 1 .6 0l.4.2v-.8a13.4 13.4 0 0 1 0-1h-.4a9.5 9.5 0 0 1-.4 0v-.9a6 6 0 0 0 1.6-.2l.3-.2h.6v7.2a13.4 13.4 0 0 1 0 1h.8v.9H221a3.7 3.7 0 0 0 0-.3 2.9 2.9 0 0 0 0-.3 2.4 2.4 0 0 1-.9.6l-.9.2Zm.6-1.1c.3 0 .4 0 .6-.2.2 0 .3-.2.4-.4V15a1 1 0 0 0-.3-.1 1.7 1.7 0 0 0-.5-.1c-.4 0-.7.1-.9.3a2 2 0 0 0-.4.9 4.8 4.8 0 0 0 0 2c0 .4.2.7.4.9.2.2.4.3.7.3Zm7.1 1a3 3 0 0 1-1.5-.3 2.7 2.7 0 0 1-1-1.1c-.3-.5-.5-1-.5-1.7 0-.5.2-1 .4-1.6s.6-.8 1-1.1a3 3 0 0 1 1.6-.5c.4 0 .7 0 1 .2.3 0 .6.2.9.4.2.2.5.5.6 1 .2.3.2.8.2 1.4h-3.9c0 .5 0 .9.2 1.2 0 .4.2.6.5.8.2.2.6.3 1 .3a2.4 2.4 0 0 0 1.2-.3l.6-.6.5.5-1 1a3 3 0 0 1-1 .4 4 4 0 0 1-.8 0Zm-1.1-4.1h2.2c0-.3 0-.6-.2-.8a.9.9 0 0 0-.3-.4 1 1 0 0 0-.5-.2 1 1 0 0 0-.8.4 2 2 0 0 0-.4 1Zm4.5 3.2.5-.1a.6.6 0 0 0 .2-.4v-6a11.3 11.3 0 0 1 0-.5 27.4 27.4 0 0 1-.8 0v-.9a6 6 0 0 0 1.6-.2l.3-.2h.6v7.2a13.4 13.4 0 0 1 0 1h.8v.9h-3.2v-.8Zm7.2.8v-.8a1.7 1.7 0 0 0 .5 0 .5.5 0 0 0 .3-.3v-6l.1-.4a23.9 23.9 0 0 1-.9 0v-.9a114.3 114.3 0 0 1 3.3 0c1 0 1.8.1 2.3.5.6.4.9 1 .8 1.7a1.6 1.6 0 0 1-.2.6 2 2 0 0 1-.6.6 3 3 0 0 1-1 .5 3 3 0 0 1 1.8.8c.4.4.6.8.6 1.3s-.1 1-.4 1.3c-.2.4-.6.7-1 .8a4 4 0 0 1-1.5.3h-4Zm2.6-.9h1.1c.5 0 .9-.1 1-.4.3-.3.4-.7.4-1.1 0-.4 0-.7-.2-.9a1.2 1.2 0 0 0-.6-.4 2 2 0 0 0-.7-.2h-.5a9.2 9.2 0 0 0-.5 0v3Zm0-3.8h.6c.4 0 .6-.1.8-.3.2-.1.4-.3.4-.5l.2-.8c0-.4 0-.6-.2-.8a1 1 0 0 0-.5-.4 1.4 1.4 0 0 0-.6 0 1 1 0 0 0-.3 0l-.3.3v2.5Zm8.6 4.7a9.2 9.2 0 0 1 0-.3v-.3a2 2 0 0 1-1 .6 2.7 2.7 0 0 1-.9.2 1.6 1.6 0 0 1-1.6-1.6c0-.4.1-.7.3-1 .2-.3.5-.5.8-.6a4.2 4.2 0 0 1 1-.4l1.3-.2v-.6l-.1-.6a.7.7 0 0 0-.3-.4l-.5-.1h-.5a1 1 0 0 0-.3.3.5.5 0 0 1 .1.2v.3c0 .1 0 .3-.2.5l-.6.2c-.2 0-.4 0-.5-.2a.9.9 0 0 1-.2-.6c0-.3 0-.6.3-.8.2-.3.5-.5 1-.6a3.8 3.8 0 0 1 1.2-.2c.7 0 1.3.2 1.6.6.4.3.6.9.6 1.7v2a13.4 13.4 0 0 1 0 1h.7v.9h-2.2Zm-.2-2.8a3.9 3.9 0 0 0-.6.2 2 2 0 0 0-.5.2c-.2 0-.3.2-.4.3a.9.9 0 0 0 0 .5l.1.5a.8.8 0 0 0 .5.1l.5-.1c.2 0 .3-.2.4-.3v-1.4Zm5.9 3-1-.1-.8-.4v.4h-.9v-2h.8c0 .2 0 .4.2.6l.7.5 1 .1h.3a.7.7 0 0 0 .3-.2.5.5 0 0 0 .1-.4.5.5 0 0 0-.1-.3 1.6 1.6 0 0 0-.5-.3 13.6 13.6 0 0 0-.7-.3l-.8-.3a4.1 4.1 0 0 1-.7-.4 1.8 1.8 0 0 1-.5-.5l-.2-.9a1.9 1.9 0 0 1 .5-1.3l.7-.4a2.9 2.9 0 0 1 1.8 0c.3 0 .5 0 .7.2V14h1v2h-.9a1.6 1.6 0 0 0-.3-.6 1.4 1.4 0 0 0-.5-.5 1.8 1.8 0 0 0-.8-.2 1 1 0 0 0-.6.2l-.2.5c0 .2 0 .3.2.4l.5.3a28 28 0 0 1 1.8.7c.4.2.6.4.8.7.2.3.3.6.3 1s-.1.7-.3 1a2 2 0 0 1-.9.6 2.7 2.7 0 0 1-1 .2Zm5.9 0a3 3 0 0 1-1.5-.4 2.7 2.7 0 0 1-1-1.1c-.3-.5-.5-1-.5-1.7 0-.5.2-1 .4-1.6s.6-.8 1-1.1a3 3 0 0 1 1.6-.5c.4 0 .7 0 1 .2.3 0 .6.2.9.4.2.2.5.5.6 1 .2.3.2.8.2 1.4h-3.9c0 .5 0 .9.2 1.2 0 .4.2.6.5.8.2.2.6.3 1 .3a2.4 2.4 0 0 0 1.2-.3l.6-.6.5.5-1 1a3 3 0 0 1-1 .4 4 4 0 0 1-.8 0Zm-1.1-4.2h2.2c0-.3 0-.6-.2-.8a.9.9 0 0 0-.3-.4 1 1 0 0 0-.5-.2 1 1 0 0 0-.8.4 2 2 0 0 0-.4 1Zm7 4.2a2.2 2.2 0 0 1-2-1.4 4 4 0 0 1-.4-1.6c0-.7.1-1.3.4-1.8s.6-.9 1-1.2c.5-.2 1-.4 1.6-.4a2.1 2.1 0 0 1 .6 0l.4.2v-.8a13.4 13.4 0 0 1 .1-1h-.5a9.5 9.5 0 0 1-.4 0v-.9a6 6 0 0 0 1.6-.2l.3-.2h.6v7.2a13.4 13.4 0 0 1 0 1h.8v.9H268a3.7 3.7 0 0 0 0-.3 2.9 2.9 0 0 0 0-.3 2.4 2.4 0 0 1-.9.6l-.9.2Zm.7-1.1c.2 0 .4 0 .5-.2.2 0 .3-.2.4-.4V15a1 1 0 0 0-.3-.1 1.7 1.7 0 0 0-.5-.1c-.4 0-.7.1-.9.3a2 2 0 0 0-.4.9 4.8 4.8 0 0 0 0 2c0 .4.2.7.4.9.2.2.4.3.8.3Zm-68.7 2.4h72.4v.6h-72.4v-.6Zm6.2 22.6-2.5-5.8a8.2 8.2 0 0 1-.3-1 4.5 4.5 0 0 1-.1-.5 4.3 4.3 0 0 1-.3 0h-.3v-.5h2.5v.4c-.4 0-.6.1-.7.3a199.2 199.2 0 0 1 2 5.5h.1l.3-.7a82 82 0 0 0 .8-2.4l.4-1a39.6 39.6 0 0 0 .6-1.7h-.8v-.4h2.2v.4c-.3 0-.6 0-.8.2a2 2 0 0 0-.4.8 3.8 3.8 0 0 0 0 .2l-.2.3-.2.6a119.9 119.9 0 0 1-2 5.3h-.3Zm7.3-.1a3.7 3.7 0 0 1 0-.3 4.2 4.2 0 0 0-.1-.3l-.8.6a2 2 0 0 1-1 .2c-.5 0-1-.1-1.2-.4a1.2 1.2 0 0 1-.4-1 1.3 1.3 0 0 1 .3-.8 2.4 2.4 0 0 1 .8-.6 4.4 4.4 0 0 1 1.1-.4 5.2 5.2 0 0 1 1.2 0v-.8l-.1-.7a1 1 0 0 0-.3-.5c-.1-.2-.4-.3-.7-.3a1.7 1.7 0 0 0-.7.2.9.9 0 0 0-.4.4.4.4 0 0 1 0 .2.7.7 0 0 1 0 .2v.3l-.4.2c-.2 0-.3 0-.4-.2a.6.6 0 0 1 0-.4c0-.2 0-.4.2-.6l.8-.5 1.1-.2c.6 0 1 .2 1.4.5.3.3.4.9.4 1.6v2.4a5.2 5.2 0 0 1 0 .8h.7v.4h-1.5Zm-.1-2.7-.8.1a3.2 3.2 0 0 0-.8.2l-.6.5a1 1 0 0 0-.2.6c0 .3.1.5.3.7a1 1 0 0 0 .6.1l.8-.1a3 3 0 0 0 .7-.5 3 3 0 0 1 0-.3v-1.3Zm2.3 2.4c.2 0 .4 0 .4-.2a.9.9 0 0 0 .2-.5v-6.6h-.7V36h.7a1.5 1.5 0 0 0 .4-.2.7.7 0 0 0 .2-.1h.4v7.5a3.2 3.2 0 0 1 0 .4h.6v.4H214v-.3Zm5.4.5a2 2 0 0 1-1-.2c-.3-.2-.5-.4-.6-.8l-.2-1.4V39h-.7v-.4h.3l.7-.1.3-.2h.4v3.3c0 .7 0 1.1.2 1.5.2.3.5.4 1 .4.2 0 .5 0 .7-.2l.7-.6v-2.9a8.2 8.2 0 0 1 0-.8h-.4a7.2 7.2 0 0 0-.4 0v-.4h.4l.6-.1.4-.2h.3v4.1a13.6 13.6 0 0 1 0 1h.7v.5h-1.5a9.1 9.1 0 0 1 0-.4l-.1-.3a3.3 3.3 0 0 1-.8.6 2.1 2.1 0 0 1-1 .3Zm6.9 0a2.7 2.7 0 0 1-1.4-.4 2.6 2.6 0 0 1-1-1c-.2-.4-.3-1-.3-1.5 0-.6.1-1 .4-1.5a2 2 0 0 1 1-1 2.6 2.6 0 0 1 2.2-.3c.3 0 .6.2.8.4l.4.8c.2.3.2.6.2 1l-3.8.1.1 1.5c.2.4.3.7.6 1 .3.2.6.3 1 .3l.8-.1.6-.3.5-.5.3.2a2.5 2.5 0 0 1-.7.8 3 3 0 0 1-1.7.5Zm-1.5-3.8h2.8l-.1-.8a1.3 1.3 0 0 0-.4-.6 1 1 0 0 0-.7-.2c-.4 0-.8 0-1 .3-.3.3-.5.7-.6 1.3Zm4.8 6.6-.7-.4 6.5-11 .7.5-6.5 10.9Zm7.3-3.4c.3 0 .5 0 .6-.2a.7.7 0 0 0 .1-.4v-6.3h-.7v-.4a66.6 66.6 0 0 1 4.2.2c.5.2.9.4 1.2.7.2.3.4.7.4 1.2a2.5 2.5 0 0 1-.2 1 2.2 2.2 0 0 1-.5.8l-1.1.7-1.9.2h-.4v1.6a9.8 9.8 0 0 1 0 .9h.7l.3-.1v.5h-2.7v-.4Zm1.7-3h.7c.4 0 .8 0 1.2-.2a2 2 0 0 0 1.1-1.7c0-.4 0-.7-.2-1a1.4 1.4 0 0 0-.4-.6 1.8 1.8 0 0 0-.7-.3 3.6 3.6 0 0 0-1 0h-.5l-.2.5v3.3Zm7.5 3.6c-.5 0-1-.1-1.4-.4a2.8 2.8 0 0 1-1-1 2.9 2.9 0 0 1-.4-1.4c0-.6.1-1.1.4-1.6a2.8 2.8 0 0 1 1-1 2.5 2.5 0 0 1 1.4-.5c.5 0 1 .1 1.4.4a2.8 2.8 0 0 1 1.3 2.4c0 .6 0 1.1-.3 1.6a2.9 2.9 0 0 1-1 1 2.5 2.5 0 0 1-1.4.5Zm0-.5c.4 0 .8 0 1-.3a1.8 1.8 0 0 0 .5-.9l.1-1v-1a3.1 3.1 0 0 0-.4-.9 1.7 1.7 0 0 0-.5-.6 1.2 1.2 0 0 0-.7-.3c-.4 0-.7.2-1 .4a2 2 0 0 0-.5.8l-.2 1.2c0 .4 0 .9.2 1.3.1.4.3.7.6 1 .2.2.6.3 1 .3Zm3.6 0c.2 0 .4 0 .4-.2a.9.9 0 0 0 .2-.5v-6.6h-.7V36h.7a1.5 1.5 0 0 0 .4-.2.8.8 0 0 0 .2-.1h.4v7.1a6.7 6.7 0 0 1 0 .8h.6v.4h-2.2v-.3Zm3 0c.3 0 .5 0 .5-.2a.9.9 0 0 0 .2-.5v-3.2a4.3 4.3 0 0 1 0-.7h-.7v-.4h.7l.4-.2a.8.8 0 0 0 .2-.1h.4v4.4a6.7 6.7 0 0 1 0 .8h.6v.4h-2.2v-.3Zm1.1-6.4a.5.5 0 0 1-.4-.2.6.6 0 0 1-.1-.4l.1-.5a.6.6 0 0 1 .5-.2c.1 0 .3 0 .4.2a.7.7 0 0 1 .1.5.6.6 0 0 1-.1.4.6.6 0 0 1-.5.2Zm4.8 6.9c-.5 0-1-.1-1.4-.4a2.6 2.6 0 0 1-1-1 3 3 0 0 1-.4-1.5l.2-1 .6-1c.3-.3.6-.6 1-.7a2.7 2.7 0 0 1 1.1-.3c.4 0 .8 0 1 .2.4.1.6.3.8.5.2.2.2.4.2.7v.4l-.5.2c-.2 0-.3 0-.4-.2a.7.7 0 0 1 0-.3v-.3a.5.5 0 0 1 0-.2.7.7 0 0 0-.2-.4 1.2 1.2 0 0 0-.5-.1 2.1 2.1 0 0 0-.4 0c-.5 0-.9.1-1.2.5-.4.4-.5 1-.5 1.8 0 .5 0 .9.2 1.3.1.4.4.7.7.9.2.2.6.3 1 .3.3 0 .6 0 1-.3l.7-.6.3.2-.7.7c-.3.2-.6.4-.9.4a2.6 2.6 0 0 1-.7.2Zm4 2.8a1 1 0 0 1-.7-.2l-.2-.5.1-.4a.4.4 0 0 1 .4-.1l.3.1a.7.7 0 0 1 .1.4v.1h.1a.5.5 0 0 0 .3 0 1 1 0 0 0 .3-.4l.3-.7.5-1.2-1.8-3.7-.4-1a7.8 7.8 0 0 1-.1-.5h-.6v-.4h2.3v.3c-.3 0-.5.2-.5.4l.2 1 1.3 2.7a78 78 0 0 0 1.1-3.3 8.2 8.2 0 0 1 .2-.4c0-.2.1-.3.2-.3h-.8v-.4h1.7v.3a1.2 1.2 0 0 0-.6.5 6.6 6.6 0 0 0-.4 1l-1.4 3.8a27 27 0 0 1-.6 1.6 3 3 0 0 1-.6 1 1.1 1.1 0 0 1-.8.3Zm-118.9 96.2-.1-.7a.6.6 0 0 0-.4-.3 4 4 0 0 0-.8 0h-.8v2.5a10.2 10.2 0 0 1 0 .9h2a2.4 2.4 0 0 0 .9-.2 1.1 1.1 0 0 0 .5-.5c.2-.3.2-.6.2-1h.4v2.1h-5.7v-.4l.5-.1a.7.7 0 0 0 .2-.5v-6.3h-.7v-.4h5.3v2h-.3l-.2-1a1 1 0 0 0-.6-.5 2 2 0 0 0-.7-.1h-1c-.2 0-.4 0-.6.2l-.2.4a6.4 6.4 0 0 0 0 .7v1.8h2v-1h.5v2.4h-.4Zm2.7 2.8v-.3c.2 0 .4-.2.5-.3l.5-.6 1.1-1.5a43 43 0 0 0-.4-.4l-.4-.6a5.9 5.9 0 0 0-.3-.4 4.5 4.5 0 0 1-.4-.6 3.6 3.6 0 0 1-.1-.4h-.5v-.4h2.2v.3c-.3 0-.5.1-.5.3 0 .1 0 .4.3.7l.7.9 1-1.2.2-.3.2-.3h-.7v-.4h1.8v.3a1.8 1.8 0 0 0-.5.3 17.2 17.2 0 0 0-1 1l-.8 1 1.5 1.8a10.6 10.6 0 0 0 .5.7h.5v.4h-2.1v-.3c.2 0 .3 0 .4-.2l-.1-.4-1.2-1.4-1 1.3a5.3 5.3 0 0 1-.4.6h.8v.4h-1.8Zm6 2.8v-.3c.2 0 .3 0 .4-.2l.2-.5v-6.7h-.7v-.4h.7l.4-.2a.9.9 0 0 0 .2-.1h.3v.6l.8-.5a2.4 2.4 0 0 1 1-.2c.4 0 .8.1 1.1.4.4.2.7.5 1 .9.1.4.3.9.3 1.5s-.2 1.1-.4 1.6a3 3 0 0 1-1 1 2.6 2.6 0 0 1-1.5.5l-.7-.1a2.3 2.3 0 0 1-.6-.3v1.8a6.1 6.1 0 0 1 0 .8h.7v.4h-2.3Zm2.8-3c.4 0 .7-.2 1-.4.2-.2.4-.5.5-.9a3.8 3.8 0 0 0 0-2.4 2 2 0 0 0-.5-.9c-.2-.2-.6-.3-1-.3-.2 0-.5 0-.7.2a2 2 0 0 0-.6.4v3.8a2.1 2.1 0 0 0 1.3.4Zm6.5.4a2.7 2.7 0 0 1-1.4-.4 2.6 2.6 0 0 1-1-1c-.2-.4-.3-1-.3-1.5 0-.6 0-1 .3-1.5.2-.4.6-.8 1-1a2.6 2.6 0 0 1 2.3-.3c.3 0 .5.2.7.4l.5.8.2 1-3.9.1c0 .6 0 1 .2 1.5.1.4.3.7.6 1 .2.2.6.3 1 .3l.7-.1c.3 0 .5-.2.7-.3l.5-.5.2.2a2.4 2.4 0 0 1-.7.8 3 3 0 0 1-.8.4 3 3 0 0 1-.8 0Zm-1.6-3.8h2.8v-.8a1.3 1.3 0 0 0-.5-.6 1 1 0 0 0-.6-.2c-.5 0-.8 0-1.1.3-.3.3-.5.7-.6 1.3Zm4.9 3.3c.2 0 .3 0 .4-.2a.9.9 0 0 0 .2-.5v-3.9h-.7v-.4h.3l.7-.1.3-.2h.3v1.1a2.8 2.8 0 0 1 1.1-1l.8-.2c.2 0 .4 0 .5.2.2.1.3.3.3.5a.6.6 0 0 1-.3.5.5.5 0 0 1-.3 0 .5.5 0 0 1-.4-.1.6.6 0 0 1 0-.5 1.1 1.1 0 0 0-.7.2l-.5.4a3 3 0 0 0-.4.6v2.7a6 6 0 0 1 0 .8h.6v.4H165v-.3Zm4.7 0c.2 0 .4 0 .5-.2a.9.9 0 0 0 .1-.5v-3.2a4.9 4.9 0 0 1 .1-.7h-.8v-.4h.8l.4-.2a.8.8 0 0 0 .2-.1h.3v4.4a6.7 6.7 0 0 1 0 .8 5.7 5.7 0 0 1 .3 0h.4v.4h-2.3v-.3Zm1-6.4a.5.5 0 0 1-.3-.2.7.7 0 0 1-.2-.4c0-.2 0-.4.2-.5a.6.6 0 0 1 .4-.2.5.5 0 0 1 .4.2.7.7 0 0 1 .2.5.6.6 0 0 1-.2.4.6.6 0 0 1-.4.2Zm4.8 6.9c-.5 0-1-.1-1.4-.4a2.6 2.6 0 0 1-1-1c-.2-.4-.3-1-.3-1.5 0-.6.1-1 .3-1.5.3-.4.6-.8 1-1a2.6 2.6 0 0 1 2.3-.3c.3 0 .5.2.7.4l.5.8.2 1-3.9.1c0 .6 0 1 .2 1.5.1.4.3.7.6 1 .3.2.6.3 1 .3l.7-.1c.3 0 .5-.2.7-.3l.5-.5.3.2a2.5 2.5 0 0 1-.8.8 3 3 0 0 1-.8.4 3 3 0 0 1-.8 0Zm-1.5-3.8h2.8c0-.3 0-.6-.2-.8a1.3 1.3 0 0 0-.3-.6 1 1 0 0 0-.7-.2c-.5 0-.8 0-1.1.3-.3.3-.5.7-.5 1.3Zm4.8 3.6v-.3c.2 0 .4 0 .4-.2a.9.9 0 0 0 .2-.5v-3.9h-.7v-.4h.7l.4-.2a.9.9 0 0 0 .2-.1h.3v.7a3.4 3.4 0 0 1 .6-.4l.6-.3a2.3 2.3 0 0 1 .6 0c.7 0 1.2.1 1.4.5.3.4.5 1 .5 1.9v2a6.7 6.7 0 0 1 0 .8 5.7 5.7 0 0 1 .3 0h.3v.4h-2.2v-.3c.2 0 .4 0 .5-.2a.9.9 0 0 0 .1-.5v-2.2c0-.6 0-1.1-.3-1.4-.2-.4-.5-.5-1-.5a1.8 1.8 0 0 0-.7.2 2 2 0 0 0-.6.5v3.2a6.7 6.7 0 0 1 0 .8 5.7 5.7 0 0 1 .3 0h.3v.4h-2.2Zm9.3.2c-.5 0-1-.1-1.3-.4a2 2 0 0 1-1-1 3 3 0 0 1-.4-1.5c0-.3 0-.7.2-1l.6-1c.3-.3.6-.6 1-.7a2.7 2.7 0 0 1 1-.3c.5 0 .9 0 1.2.2l.7.5.2.7a.7.7 0 0 1-.1.4l-.4.2c-.2 0-.3 0-.4-.2a.7.7 0 0 1-.1-.3v-.3a.5.5 0 0 1 .2-.2.7.7 0 0 0-.3-.4 1.2 1.2 0 0 0-.5-.1 2.2 2.2 0 0 0-.4 0c-.5 0-1 .1-1.3.5a3 3 0 0 0-.5 1.8c0 .5.1.9.3 1.3.1.4.4.7.6.9.3.2.7.3 1 .3.4 0 .7 0 1-.3l.8-.6.2.2c-.1.3-.4.5-.6.7-.3.2-.6.4-.9.4a2.6 2.6 0 0 1-.8.2Zm5.8 0a2.7 2.7 0 0 1-1.4-.4 2.6 2.6 0 0 1-1-1c-.2-.4-.3-1-.3-1.5 0-.6.1-1 .4-1.5a2 2 0 0 1 1-1 2.6 2.6 0 0 1 2.3-.3l.7.4.5.8.1 1-3.8.1.1 1.5.6 1c.3.2.7.3 1 .3l.8-.1.6-.3.5-.5.3.2a2.4 2.4 0 0 1-.7.8 3 3 0 0 1-.9.4 3 3 0 0 1-.8 0Zm-1.5-3.8h2.8l-.1-.8a1.3 1.3 0 0 0-.4-.6 1 1 0 0 0-.7-.2c-.4 0-.8 0-1 .3-.3.3-.5.7-.6 1.3Zm95.4 3.7-1-2.2a99.2 99.2 0 0 1-1-2.2l-.3-.7-.3-.7a30.7 30.7 0 0 0-.3-.5v.2a72.2 72.2 0 0 1 0 3.4v1.2l-.1.5v.5h.8v.4h-2.1v-.4l.5-.1.2-.4v-.5l.3-5v-.9h-.8v-.4h1.7l1.9 4.4.2.6.3.7.3.7.3-.7.3-.8a112.5 112.5 0 0 1 2-4.9h1.7v.4a.7.7 0 0 0-.5 0l-.2.4c0 .2-.1.5 0 .8l.2 5v.6h.8v.5h-2.4v-.4l.5-.1a.7.7 0 0 0 .2-.5v-.7l-.2-3.6v-.7l-.1-.4a3.7 3.7 0 0 1 0 .2 5.6 5.6 0 0 0-.1.2l-2.6 6h-.3Zm8.4 0c-.5 0-1 0-1.4-.3a2.8 2.8 0 0 1-1-1 2.9 2.9 0 0 1-.3-1.4c0-.6.1-1.1.3-1.6a2.8 2.8 0 0 1 1-1 2.5 2.5 0 0 1 1.4-.5c.6 0 1 .1 1.4.4a2.7 2.7 0 0 1 1.4 2.4 3 3 0 0 1-.4 1.6 2.9 2.9 0 0 1-1 1 2.5 2.5 0 0 1-1.4.5Zm.1-.4c.4 0 .7 0 1-.3.2-.2.3-.5.4-.9l.2-1-.1-1a3 3 0 0 0-.3-.9 1.7 1.7 0 0 0-.5-.6 1.2 1.2 0 0 0-.8-.3c-.3 0-.7.2-.9.4a2 2 0 0 0-.5.8 3.8 3.8 0 0 0-.2 1.2c0 .4 0 .9.2 1.3.1.4.3.7.6 1 .2.2.5.3 1 .3Zm6 .5c-.4 0-.9-.1-1.2-.4a2.4 2.4 0 0 1-.9-1c-.2-.3-.3-.8-.3-1.4 0-.6.1-1.1.4-1.6a2.8 2.8 0 0 1 1-1 2.8 2.8 0 0 1 2.2-.4l.5.2v-2.2h-.7v-.4h.7l.4-.2a.8.8 0 0 0 .3-.1h.3v7.5a9.6 9.6 0 0 1 0 .4h.7v.4h-1.6v-.6a2.3 2.3 0 0 1-.8.6 2.5 2.5 0 0 1-1 .2Zm.4-.6c.2 0 .5 0 .7-.2.3-.1.5-.3.6-.5a3.5 3.5 0 0 1 0-.3v-3.5a1.7 1.7 0 0 0-.5-.2 2 2 0 0 0-.7-.1c-.3 0-.7 0-1 .3l-.6.9c-.2.4-.2.8-.1 1.3 0 .5 0 .9.2 1.2.1.4.3.6.5.8l.9.3Zm6.5.6a2.7 2.7 0 0 1-1.4-.4 2.6 2.6 0 0 1-1-1c-.2-.4-.3-1-.3-1.5 0-.6.1-1 .3-1.5.3-.4.6-.8 1-1a2.6 2.6 0 0 1 2.3-.3c.3 0 .5.2.7.4l.5.8.2 1-3.9.1c0 .6 0 1 .2 1.5.1.4.3.7.6 1 .3.2.6.3 1 .3l.7-.1c.3 0 .5-.2.7-.3l.5-.5.3.2a2.4 2.4 0 0 1-.7.8 3 3 0 0 1-.9.4 3 3 0 0 1-.8 0Zm-1.5-3.8h2.8c0-.3 0-.6-.2-.8a1.3 1.3 0 0 0-.3-.6 1 1 0 0 0-.7-.2c-.4 0-.8 0-1 .3-.4.3-.5.7-.6 1.3Zm4.7 3.3c.2 0 .4 0 .4-.2a.9.9 0 0 0 .2-.5v-6.6h-.7v-.4h.7a1.5 1.5 0 0 0 .4-.2.8.8 0 0 0 .2-.1h.4v7.5a3.2 3.2 0 0 1 0 .4 5.7 5.7 0 0 1 .3 0h.3v.4h-2.2v-.3ZM159 136.6l10-5.8-10-5.7v11.5Zm49.1-87.1-45.5 78.8 1.8 1 45.5-78.8-1.8-1Zm16.4.8-5 3 5 2.8v-5.8Zm-47 82.6.4-.9-.8-.5-.5.9.8.5Zm1.4-2.6 1-1.7-.9-.5-1 1.7 1 .5Zm2-3.4 1-1.8-.9-.5-1 1.8.9.5Zm2-3.5 1-1.7-.9-.5-1 1.7.9.5Zm2-3.4 1-1.7-1-.5-1 1.7 1 .5Zm2-3.4 1-1.7-1-.5-1 1.7 1 .5Zm2-3.5.9-1.7-.9-.5-1 1.7 1 .5Zm1.9-3.4 1-1.7-.9-.5-1 1.7.9.5Zm2-3.4 1-1.7-.9-.5-1 1.7.9.5Zm2-3.4 1-1.8-1-.5-1 1.8 1 .5Zm2-3.5 1-1.7-1-.5-1 1.7 1 .5Zm2-3.4.9-1.7-.9-.5-1 1.7 1 .5Zm1.9-3.4 1-1.7-.9-.5-1 1.7.9.5Zm2-3.5 1-1.7-1-.5-.9 1.7.9.5Zm2-3.4 1-1.7-1-.5-1 1.7 1 .5Zm2-3.4 1-1.7-1-.5-1 1.7 1 .5Zm2-3.4.9-1.8-.9-.5-1 1.8 1 .5Zm1.9-3.5 1-1.7-.9-.5-1 1.7.9.5Zm2-3.4 1-1.7-1-.5-.9 1.7.9.5Zm2-3.4 1-1.7-1-.5-1 1.7 1 .5Zm2-3.5 1-1.7-1-.5-1 1.7 1 .5Zm1.9-3.4 1-1.7-.9-.5-1 1.7.9.5Zm2-3.4 1-1.7-.9-.5-1 1.7.9.5Zm2-3.4 1-1.7-1-.5-1 1.7 1 .5Zm2-4.6-10 5.8 10 5.8V50.3Zm-46.6 82.8.5-.9-1.8-1-.5.9 1.8 1Zm1.5-2.6 1-1.7-1.8-1-1 1.7 1.8 1Zm2-3.4 1-1.7-1.8-1-1 1.7 1.7 1Zm2-3.4.9-1.7-1.7-1-1 1.7 1.7 1Zm1.9-3.5 1-1.7-1.8-1-1 1.7 1.8 1Zm2-3.4 1-1.7-1.8-1-1 1.7 1.8 1Zm2-3.4 1-1.7-1.8-1-1 1.7 1.7 1Zm2-3.4 1-1.8-1.8-1-1 1.8 1.7 1Zm2-3.5.9-1.7-1.7-1-1 1.7 1.7 1Zm1.9-3.4 1-1.7-1.8-1-1 1.7 1.8 1Zm2-3.4 1-1.7-1.8-1-1 1.7 1.8 1Zm2-3.4 1-1.8-1.8-1-1 1.8 1.7 1Zm2-3.5 1-1.7-1.8-1-1 1.7 1.7 1Zm1.9-3.4 1-1.7-1.7-1-1 1.7 1.7 1Zm2-3.4 1-1.7-1.8-1-1 1.7 1.8 1Zm2-3.5 1-1.7-1.8-1-1 1.7 1.8 1Zm2-3.4 1-1.7-1.8-1-1 1.7 1.7 1Zm2-3.4 1-1.7-1.8-1-1 1.7 1.7 1Zm1.9-3.4 1-1.8-1.7-1-1 1.8 1.7 1Zm2-3.5 1-1.7-1.8-1-1 1.7 1.8 1Zm2-3.4 1-1.7-1.8-1-1 1.7 1.8 1Zm2-3.4 1-1.7-1.8-1-1 1.7 1.7 1Zm2-3.5.9-1.7-1.7-1-1 1.7 1.7 1Zm1.9-3.4 1-1.7-1.7-1-1 1.7 1.7 1ZM280 142l-10-5.8v11.6l10-5.8Zm-80 1h71v-2h-71v2Zm56-94v11.5l10-5.7-10-5.8Zm50.9 86.1-45.5-78.8-1.8 1 45.5 78.8 1.8-1ZM157 83v-.3l.4-.1a1 1 0 0 0 .3-.4l.2-.6 1.9-5h.2l2 5a7.6 7.6 0 0 1 .1.5l.1.5h.6v.4h-2v-.3l.4-.1a.4.4 0 0 0 .1-.4 1.6 1.6 0 0 0 0-.4l-.4-.8h-2.3l-.4 1a3.1 3.1 0 0 1 0 .4 6.3 6.3 0 0 1-.2.2 134 134 0 0 0 .7 0v.4H157Zm1.7-2.3h2l-.6-1.8a14.8 14.8 0 0 0-.2-.5l-.2-.6a17.2 17.2 0 0 1-.4 1l-.6 1.9Zm6.6 2.4a2.4 2.4 0 0 1-1.1-.2 2.1 2.1 0 0 1-.8-.8c-.2-.4-.3-.8-.3-1.3 0-.3 0-.6.2-.9 0-.3.2-.5.4-.8l.8-.5c.3-.2.6-.2 1-.2l.8.1c.3.1.5.2.6.4a.8.8 0 0 1 .2.6.6.6 0 0 1-.1.3l-.3.1h-.3a.6.6 0 0 1-.1-.4v-.1a.4.4 0 0 1 .1-.2.5.5 0 0 0-.3-.3 1 1 0 0 0-.3-.2 1.7 1.7 0 0 0-.3 0c-.5 0-.8.2-1 .5-.4.3-.5.8-.5 1.4 0 .4 0 .8.2 1 .1.4.3.6.5.8.3.2.5.3.9.3l.8-.2.6-.6.2.2a2 2 0 0 1-.6.6l-.6.3a2.2 2.2 0 0 1-.7.1Zm4.3 0h-.5a1 1 0 0 1-.4-.2 1.2 1.2 0 0 1-.3-.5v-3.5h-.7v-.4a1 1 0 0 0 .4-.2c.2 0 .3-.2.5-.4a1.7 1.7 0 0 0 .2-.7h.3v1.3h1.5v.4h-1.5V82a.9.9 0 0 0 .3.4.6.6 0 0 0 .4.1.8.8 0 0 0 .5-.1l.4-.4.2.2a2.3 2.3 0 0 1-.4.5 1.4 1.4 0 0 1-.4.2 1 1 0 0 1-.3.1 1.5 1.5 0 0 1-.2 0Zm1.7-.4.4-.1a.7.7 0 0 0 .2-.4v-2.6a3.8 3.8 0 0 1 0-.3V79h-.6v-.3h.6l.3-.2a.6.6 0 0 0 .2 0h.2V82a5.2 5.2 0 0 1 0 .7h.6v.3h-1.9v-.3Zm1-5.2a.4.4 0 0 1-.4-.1.5.5 0 0 1-.2-.4.5.5 0 0 1 .2-.4.5.5 0 0 1 .3-.2l.4.2a.5.5 0 0 1 .1.4l-.1.4a.5.5 0 0 1-.4.1Zm1.6 5.5v-.3l.4-.1a.7.7 0 0 0 0-.4l.1-.6V79h-.6v-.3h.6l.3-.2a.7.7 0 0 0 .2 0h.2v.5a2.8 2.8 0 0 1 1-.6h.5c.6 0 1 .1 1.2.5.2.3.3.8.3 1.5V82a5.2 5.2 0 0 1 0 .7h.6v.3h-1.9v-.3l.4-.1a.7.7 0 0 0 .1-.4v-1.8c0-.5 0-1-.2-1.2-.2-.3-.4-.4-.8-.4a1.5 1.5 0 0 0-.6.2 1.7 1.7 0 0 0-.5.4V82a5.2 5.2 0 0 1 0 .7h.5v.3H174Zm7.6 2.4-1.3-.1c-.3-.2-.6-.3-.7-.5a1 1 0 0 1-.2-.6v-.5a1.5 1.5 0 0 1 .8-.6 1.2 1.2 0 0 1-.5-.2.6.6 0 0 1-.1-.5c0-.2 0-.4.2-.6.2-.1.4-.3.7-.3a1.7 1.7 0 0 1-.7-.5 1.4 1.4 0 0 1-.2-.9c0-.3 0-.6.2-.9l.7-.6a2 2 0 0 1 1.5-.2l.6.3.2-.5c.2 0 .3-.2.4-.3a1 1 0 0 1 .5 0h.3a.4.4 0 0 1 .1.5.4.4 0 0 1-.3.2.4.4 0 0 1-.3 0 .4.4 0 0 1-.1-.3.5.5 0 0 0-.4.2 1 1 0 0 0-.1.4l.3.5.2.6-.3.9a1.8 1.8 0 0 1-.7.6 2 2 0 0 1-1 .2 2.1 2.1 0 0 1-.2 0 1.5 1.5 0 0 0-.3 0l-.6.1c-.1.1-.2.3-.1.4 0 .2.2.3.4.3h1a5.4 5.4 0 0 1 1.2.2c.3.1.6.3.7.5.2.2.3.4.3.7 0 .3 0 .5-.2.7a1.5 1.5 0 0 1-.5.5l-.7.2a3.1 3.1 0 0 1-.8.1Zm0-.3c.5 0 1-.1 1.2-.3.3-.2.4-.4.4-.7 0-.2 0-.4-.2-.5l-.6-.2a6.3 6.3 0 0 0-.9-.1 12 12 0 0 1-.5 0 3.6 3.6 0 0 1-.4 0c-.2 0-.3.2-.4.3a1 1 0 0 0-.1.5c0 .3.1.5.4.7.3.2.6.3 1.1.3Zm-.1-3.7a.9.9 0 0 0 .5-.2 1 1 0 0 0 .4-.4v-1.4a1.3 1.3 0 0 0-.4-.5.8.8 0 0 0-.6-.2c-.3 0-.5 0-.7.3-.2.3-.3.6-.3 1l.1.7.4.5a1 1 0 0 0 .6.2Zm24.5 13.3.5-.1a.6.6 0 0 0 .1-.4V89h-.5v-.4h2.2c.5 0 1 0 1.4.2.5.1.9.3 1.2.6.3.2.6.6.8 1l.2 1.4c0 .4 0 .8-.2 1.1a3 3 0 0 1-.6 1 3.2 3.2 0 0 1-1.1.7 4 4 0 0 1-1.5.3H206v-.3Zm1.4-.8a8 8 0 0 1 0 .7h1a2.5 2.5 0 0 0 1.8-.8c.3-.2.4-.5.6-.9a3.3 3.3 0 0 0 .1-1c0-.6 0-1.1-.3-1.6a2.1 2.1 0 0 0-1-1 3 3 0 0 0-1.5-.3c-.3 0-.4 0-.5.2a.6.6 0 0 0-.2.3V94Zm5.2.8.4-.1a.7.7 0 0 0 .2-.4v-2.6a3.8 3.8 0 0 1 0-.3V91h-.6v-.3h.6l.3-.2a.6.6 0 0 0 .2 0h.2V94a5.2 5.2 0 0 1 0 .7h.6v.3h-1.9v-.3Zm1-5.2a.4.4 0 0 1-.4-.1.5.5 0 0 1-.2-.4.5.5 0 0 1 .2-.4.5.5 0 0 1 .3-.2l.4.2a.5.5 0 0 1 .1.4l-.1.4a.5.5 0 0 1-.4.1Zm1.6 5.2.4-.1a.7.7 0 0 0 0-.4l.1-.6V91h-.6v-.3h.3l.5-.1.3-.2h.2v.9a2.2 2.2 0 0 1 1-.8l.6-.1h.4l.2.5a.5.5 0 0 1-.2.4.4.4 0 0 1-.2 0 .4.4 0 0 1-.4-.1.5.5 0 0 1 0-.3 1 1 0 0 0-.5 0 1.7 1.7 0 0 0-.5.4 2.4 2.4 0 0 0-.3.5V94a5.2 5.2 0 0 1 0 .7h.5v.3h-1.8v-.3Zm6 .4c-.4 0-.8 0-1.1-.2a2.1 2.1 0 0 1-.8-.9c-.2-.3-.3-.8-.3-1.2 0-.5 0-.9.3-1.2.2-.4.4-.7.8-.9a2 2 0 0 1 1.1-.3h.8l.5.5c.2.1.3.3.4.6l.2.8-3.2.1c0 .5 0 .9.2 1.2 0 .3.2.6.4.8.3.2.5.3.9.3l.6-.1c.2 0 .3-.2.5-.3l.4-.4.2.2a2 2 0 0 1-.6.6 2.5 2.5 0 0 1-1.3.4Zm-1.3-3h2.3a2 2 0 0 0 0-.7 1 1 0 0 0-.4-.5.8.8 0 0 0-.5-.2c-.4 0-.7.1-1 .3l-.4 1Zm6.1 3a2.4 2.4 0 0 1-1-.2 2.1 2.1 0 0 1-.9-.8c-.2-.4-.3-.8-.3-1.3 0-.3 0-.6.2-.9 0-.3.3-.5.5-.8l.7-.5c.3-.2.6-.2 1-.2l.8.1c.3.1.5.2.6.4a.8.8 0 0 1 .2.6.6.6 0 0 1 0 .3l-.4.1h-.3a.6.6 0 0 1-.1-.4v-.1a.4.4 0 0 1 .1-.2.5.5 0 0 0-.2-.3 1 1 0 0 0-.4-.2 1.7 1.7 0 0 0-.3 0c-.4 0-.8.2-1 .5a2 2 0 0 0-.5 1.4c0 .4 0 .8.2 1 .1.4.3.6.6.8.2.2.5.3.8.3l.8-.2.6-.6.2.2a2 2 0 0 1-.5.6l-.7.3a2.2 2.2 0 0 1-.7.1Zm4.3 0h-.5a1 1 0 0 1-.4-.2 1.2 1.2 0 0 1-.2-.5l-.2-1V91h-.6v-.4a1 1 0 0 0 .4-.2c.2 0 .4-.2.5-.4a1.7 1.7 0 0 0 .3-.7h.3v1.3h1.5v.4h-1.5v3a.9.9 0 0 0 .2.4.6.6 0 0 0 .4.1.8.8 0 0 0 .5-.1l.4-.4.2.2a2.3 2.3 0 0 1-.4.5 1.4 1.4 0 0 1-.3.2 1 1 0 0 1-.4.1 1.5 1.5 0 0 1-.2 0ZM213.6 107v-.3l.4-.1a.6.6 0 0 0 .2-.4V101h-.6v-.4h1a20.2 20.2 0 0 1 1 0c.6 0 1 0 1.4.2.4.1.7.3.8.5l.3.9c0 .2 0 .5-.2.7 0 .3-.2.5-.5.7-.2.2-.6.3-1 .4l.3.3.3.5.6 1 .3.4.4.3a1 1 0 0 0 .4.1v.3h-1.1a3.5 3.5 0 0 1-.5-.5 10 10 0 0 1-.3-.5l-.6-1-.3-.4a1.7 1.7 0 0 0-.3-.4 5 5 0 0 1-.6 0v1.7a8.6 8.6 0 0 1 0 .7 2.6 2.6 0 0 1 .2 0h.2a2.6 2.6 0 0 1 .2 0v.4h-2Zm2-3.1.8-.2.6-.5.2-.8a1.6 1.6 0 0 0 0-.6 1 1 0 0 0-.4-.4 1.2 1.2 0 0 0-.5-.3 2.6 2.6 0 0 0-.7 0h-.5a.6.6 0 0 0-.1.4v2.3h.5Zm3.6 3.1v-.3l.5-.1a.6.6 0 0 0 .1-.4V101h-.6v-.4h2v.3l-.4.1a.6.6 0 0 0-.2.4v4.5a8 8 0 0 1 0 .7h1.7c.4 0 .6-.2.8-.4.2-.3.3-.6.3-1.2h.3v1.9h-4.5Zm-14.1 27a161.9 161.9 0 0 0-1.6-3.5l-.2-.6-.3-.6a24 24 0 0 0-.2-.6v.4a70.2 70.2 0 0 1 0 2.8l-.1 1v.7a114.4 114.4 0 0 0 .6 0v.4h-1.7v-.3l.4-.1a.5.5 0 0 0 .2-.3v-.4l.2-4.1v-.7h-.3a5.8 5.8 0 0 0-.3 0v-.4h1.4l1.5 3.6.2.5.3.6.2.5.3-.6.2-.6a92 92 0 0 1 1.6-4h1.4v.3a.6.6 0 0 0-.4 0 .5.5 0 0 0-.2.4 1.8 1.8 0 0 0 0 .6l.2 4v.7a5.8 5.8 0 0 1 .3 0h.4v.4h-2v-.3l.4-.1a.6.6 0 0 0 .1-.4v-.6l-.1-3v-.8a2.5 2.5 0 0 1-.2.1 4.4 4.4 0 0 0 0 .2l-2 5h-.3Zm7 .1c-.5 0-.9 0-1.2-.2a2.3 2.3 0 0 1-.8-.9 2.4 2.4 0 0 1-.3-1.1c0-.5 0-1 .3-1.3.2-.4.4-.7.8-1a2 2 0 0 1 1.1-.2c.5 0 .8 0 1.2.3a2.2 2.2 0 0 1 1.1 2c0 .4 0 .8-.3 1.2a2.4 2.4 0 0 1-.8 1 2 2 0 0 1-1.2.2Zm0-.3c.3 0 .6-.1.8-.3l.4-.7a3.2 3.2 0 0 0 0-.9v-.8a2.5 2.5 0 0 0-.2-.7 1.4 1.4 0 0 0-.4-.5 1 1 0 0 0-.7-.2 1 1 0 0 0-.7.3c-.2.1-.4.4-.5.7l-.1.9c0 .4 0 .7.2 1 0 .4.2.7.4.9.2.2.5.3.8.3Zm4.9.3c-.4 0-.7 0-1-.2a2 2 0 0 1-.7-.8c-.2-.4-.2-.8-.2-1.2 0-.5 0-1 .3-1.3a2.3 2.3 0 0 1 .8-1 2.3 2.3 0 0 1 1.2-.2h.6l.4.2v-1.8h-.6v-.4h.9a.6.6 0 0 0 .2-.2h.3v6.1a8.8 8.8 0 0 1 0 .4h.6v.3h-1.3a7.7 7.7 0 0 1 0-.2 35.5 35.5 0 0 0 0-.3 1.9 1.9 0 0 1-.7.5 2 2 0 0 1-.8.1Zm.3-.4c.2 0 .4 0 .6-.2.2 0 .4-.2.5-.4a2.7 2.7 0 0 1 0-.2V130a1.4 1.4 0 0 0-.5-.2 1.7 1.7 0 0 0-.5 0c-.3 0-.5 0-.8.2-.2.1-.4.4-.5.7a3 3 0 0 0-.1 1.1c0 .4 0 .7.2 1 0 .3.2.5.4.7a1.1 1.1 0 0 0 .7.2Zm5.3.4c-.4 0-.8 0-1-.2a2.1 2.1 0 0 1-.9-.9c-.2-.3-.3-.8-.3-1.2 0-.5.1-.9.3-1.2.2-.4.5-.7.8-.9a2 2 0 0 1 1.2-.3h.7l.6.5c.2.1.3.3.4.6l.1.8-3.1.1.1 1.2.5.8c.2.2.5.3.8.3l.6-.1.6-.3.4-.4.2.2a2 2 0 0 1-.6.6 2.5 2.5 0 0 1-1.4.4Zm-1.2-3h2.3a2 2 0 0 0-.1-.7 1 1 0 0 0-.3-.5.8.8 0 0 0-.6-.2l-.9.3c-.2.2-.3.6-.4 1Zm3.8 2.6.4-.1a.7.7 0 0 0 .2-.4v-5.4h-.6v-.4h.8a.6.6 0 0 0 .2-.2h.2v5.8a5.2 5.2 0 0 1 0 .7h.6v.3h-1.9v-.3Zm5 .3v-.3l.5-.1a.6.6 0 0 0 .1-.4V128h-.5v-.4h2v.3l-.4.1a.6.6 0 0 0-.1.4v4.5a8 8 0 0 1 0 .7h1.6c.4 0 .7-.2.9-.4.2-.3.3-.6.3-1.2h.3v1.9h-4.6Zm7.3.1c-.4 0-.8 0-1.1-.2a2.1 2.1 0 0 1-.8-.9c-.2-.3-.3-.8-.3-1.2 0-.5.1-.9.3-1.2.2-.4.5-.7.8-.9a2 2 0 0 1 1.2-.3h.7l.6.5c.2.1.3.3.4.6l.1.8-3.1.1.1 1.2.5.8c.2.2.5.3.8.3l.6-.1.6-.3.4-.4.2.2a2 2 0 0 1-.6.6 2.5 2.5 0 0 1-1.4.4Zm-1.2-3h2.3a2 2 0 0 0-.1-.7 1 1 0 0 0-.3-.5.8.8 0 0 0-.6-.2l-.9.3c-.2.2-.3.6-.4 1Zm6.6 2.9a2.8 2.8 0 0 1 0-.3 3.8 3.8 0 0 0 0-.2 2.6 2.6 0 0 1-.7.5 1.7 1.7 0 0 1-.7.1c-.5 0-.8 0-1-.3a1 1 0 0 1-.4-.7c0-.3.1-.5.3-.7l.6-.5c.3-.2.6-.3 1-.3l.9-.1v-1.2a.9.9 0 0 0-.3-.4l-.6-.2a1.4 1.4 0 0 0-.5 0 .7.7 0 0 0-.4.5.3.3 0 0 1 0 .1v.5h-.6a.5.5 0 0 1-.1-.4c0-.2 0-.4.2-.5l.7-.4a2.7 2.7 0 0 1 .9-.1c.5 0 .8 0 1 .4.3.2.4.6.4 1.2v2.3a8.8 8.8 0 0 1 0 .4h.6v.3H243Zm0-2.2h-.7a2.6 2.6 0 0 0-.6.3c-.2 0-.3.2-.5.3a.8.8 0 0 0-.1.6c0 .2 0 .4.2.5l.5.1.6-.1.6-.4a2.4 2.4 0 0 1 0-.2v-1.1Zm2 2 .3-.2a.7.7 0 0 0 .2-.4V130h-.6v-.3h.3l.5-.1.2-.2h.3v.9a2.2 2.2 0 0 1 1-.8l.6-.1h.4l.2.5a.5.5 0 0 1-.2.4.4.4 0 0 1-.3 0 .4.4 0 0 1-.3-.1.5.5 0 0 1 0-.3 1 1 0 0 0-.5 0 1.7 1.7 0 0 0-.5.4 2.4 2.4 0 0 0-.3.5v2.2a5.2 5.2 0 0 1 0 .7h.5v.3h-1.8v-.3Zm3.8.2v-.3l.4-.1a.7.7 0 0 0 .2-.4V130h-.6v-.3h.6l.3-.2a.7.7 0 0 0 .1 0h.3v.5a2.8 2.8 0 0 1 1-.6h.5c.5 0 1 .1 1.1.5.3.3.4.8.4 1.5v1.6a5.2 5.2 0 0 1 0 .7h.5v.3h-1.8v-.3l.4-.1a.7.7 0 0 0 .1-.4v-1.8c0-.5 0-1-.2-1.2-.2-.3-.4-.4-.8-.4a1.5 1.5 0 0 0-.6.2 1.7 1.7 0 0 0-.6.4v2.6a5.2 5.2 0 0 1 0 .7h.6v.3h-1.9Zm5.5-.3.4-.1a.7.7 0 0 0 .1-.4v-2.6a3.8 3.8 0 0 1 0-.3v-.3h-.5v-.3h.7l.3-.2a.6.6 0 0 0 .2 0h.2v3.5a5.2 5.2 0 0 1 0 .7h.5v.3h-1.8v-.3Zm.9-5.2a.4.4 0 0 1-.3-.1.5.5 0 0 1-.2-.4.5.5 0 0 1 .2-.4.5.5 0 0 1 .3-.2l.3.2a.5.5 0 0 1 .2.4c0 .1 0 .3-.2.4a.5.5 0 0 1-.3.1Zm1.6 5.5v-.3l.4-.1a.7.7 0 0 0 .2-.4V130h-.6v-.3h.6l.3-.2a.7.7 0 0 0 .1 0h.3v.5a2.8 2.8 0 0 1 1-.6h.5c.5 0 1 .1 1.1.5.3.3.4.8.4 1.5v1.6a5.2 5.2 0 0 1 0 .7h.5v.3h-1.8v-.3l.4-.1a.7.7 0 0 0 .1-.4v-1.8c0-.5 0-1-.2-1.2-.2-.3-.4-.4-.8-.4a1.5 1.5 0 0 0-.6.2 1.7 1.7 0 0 0-.6.4v2.6a5.2 5.2 0 0 1 0 .7h.6v.3h-1.9Zm7.7 2.4-1.3-.1c-.4-.2-.6-.3-.7-.5a1 1 0 0 1-.3-.6c0-.2 0-.3.2-.5a1.5 1.5 0 0 1 .7-.6 1.2 1.2 0 0 1-.5-.2.6.6 0 0 1-.2-.5l.3-.6.6-.3a1.7 1.7 0 0 1-.6-.5 1.4 1.4 0 0 1-.3-.9l.3-.9c.2-.3.4-.5.7-.6a2 2 0 0 1 1.5-.2l.6.3.2-.5.4-.3a1 1 0 0 1 .5 0h.3a.4.4 0 0 1 .1.5.4.4 0 0 1-.4.2.4.4 0 0 1-.2 0 .4.4 0 0 1-.1-.3.5.5 0 0 0-.4.2 1 1 0 0 0-.2.4l.4.5.1.6c0 .3 0 .6-.2.9a1.8 1.8 0 0 1-.7.6 2 2 0 0 1-1 .2 2.1 2.1 0 0 1-.3 0 1.5 1.5 0 0 0-.3 0l-.5.1c-.2.1-.2.3-.2.4 0 .2.2.3.5.3h1a5.4 5.4 0 0 1 1.2.2l.7.5c.2.2.3.4.3.7 0 .3 0 .5-.2.7a1.5 1.5 0 0 1-.5.5l-.7.2a3.1 3.1 0 0 1-.8.1Zm0-.3c.5 0 .9-.1 1.2-.3.3-.2.4-.4.4-.7 0-.2 0-.4-.2-.5l-.6-.2a6.3 6.3 0 0 0-1-.1 12 12 0 0 1-.4 0 3.6 3.6 0 0 1-.4 0c-.2 0-.3.2-.4.3a1 1 0 0 0-.2.5c0 .3.2.5.5.7.2.2.6.3 1 .3Zm-.1-3.7a.9.9 0 0 0 .5-.2 1 1 0 0 0 .3-.4l.2-.6c0-.3 0-.5-.2-.8a1.3 1.3 0 0 0-.3-.5.8.8 0 0 0-.6-.2c-.3 0-.6 0-.7.3-.2.3-.3.6-.3 1l.1.7.4.5a1 1 0 0 0 .6.2Zm17.5-49.7.5-.1a.6.6 0 0 0 .1-.4V77h-.6v-.4a52 52 0 0 1 3.5.2c.4.1.7.3.9.6.2.2.3.5.3 1a2 2 0 0 1 0 .7 1.8 1.8 0 0 1-.5.7l-1 .5a6 6 0 0 1-1.5.2h-.1a1.9 1.9 0 0 1-.2 0V82a8.6 8.6 0 0 1 0 .7h.8v.4h-2.2v-.3Zm1.4-2.4h.6c.3 0 .6 0 1-.2l.6-.6c.2-.3.2-.6.2-.9v-.7a1.2 1.2 0 0 0-.5-.5 1.5 1.5 0 0 0-.6-.3 3 3 0 0 0-.7 0h-.5a.6.6 0 0 0 0 .4l-.1.6v2.2Zm3.8 2.4.4-.1a.7.7 0 0 0 .1-.4v-5.4h-.6v-.4h1a.6.6 0 0 0 .2-.2h.2V82a5.2 5.2 0 0 1 0 .7h.5v.3H287v-.3Zm5.3.3a2.8 2.8 0 0 1 0-.3 3.8 3.8 0 0 0 0-.2 2.6 2.6 0 0 1-.7.5 1.7 1.7 0 0 1-.8.1c-.4 0-.8 0-1-.3a1 1 0 0 1-.3-.7c0-.3 0-.5.2-.7l.7-.5.9-.3 1-.1v-.6l-.1-.6a.9.9 0 0 0-.3-.4l-.6-.2a1.4 1.4 0 0 0-.5 0 .7.7 0 0 0-.4.5.3.3 0 0 1 .1.1v.5h-.7a.5.5 0 0 1 0-.4c0-.2 0-.4.2-.5.1-.2.3-.3.6-.4a2.7 2.7 0 0 1 1-.1c.4 0 .8 0 1 .4.3.2.4.6.4 1.2v2.3a8.8 8.8 0 0 1 0 .4h.6v.3h-1.3Zm0-2.2h-.7a2.6 2.6 0 0 0-.7.3l-.4.3a.8.8 0 0 0-.2.6l.2.5.5.1.7-.1.5-.4a2.4 2.4 0 0 1 0-.2v-1.1Zm1.9 2.2v-.3l.4-.1a.7.7 0 0 0 .1-.4V79h-.6v-.3h.6l.3-.2a.7.7 0 0 0 .2 0h.3v.5a2.8 2.8 0 0 1 1-.6h.5c.5 0 .9.1 1.1.5.2.3.4.8.4 1.5V82a5.2 5.2 0 0 1 0 .7h.5v.3h-1.8v-.3l.3-.1a.7.7 0 0 0 .2-.4v-1.8c0-.5-.1-1-.3-1.2-.1-.3-.4-.4-.8-.4a1.5 1.5 0 0 0-.6.2 1.7 1.7 0 0 0-.5.4V82a5.2 5.2 0 0 1 0 .7h.5v.3h-1.8Zm5.5 0v-.3l.3-.1a.7.7 0 0 0 .2-.4V79h-.6v-.3h.6l.3-.2a.7.7 0 0 0 .2 0h.2v.5a2.8 2.8 0 0 1 1-.6h.5c.5 0 1 .1 1.2.5.2.3.3.8.3 1.5V82a5.2 5.2 0 0 1 0 .7h.6v.3h-1.9v-.3l.4-.1a.7.7 0 0 0 .1-.4v-1.8c0-.5 0-1-.2-1.2-.2-.3-.4-.4-.8-.4a1.5 1.5 0 0 0-.6.2 1.7 1.7 0 0 0-.5.4V82a5.2 5.2 0 0 1 0 .7h.5v.3h-1.8Zm5.4-.3.4-.1a.7.7 0 0 0 .1-.4v-2.6a3.8 3.8 0 0 1 0-.3V79h-.5v-.3h.6l.3-.2a.6.6 0 0 0 .2 0h.2V82a5.2 5.2 0 0 1 0 .7h.6v.3h-2v-.3Zm.9-5.2a.4.4 0 0 1-.3-.1.5.5 0 0 1-.2-.4.5.5 0 0 1 .2-.4.5.5 0 0 1 .3-.2l.3.2a.5.5 0 0 1 .2.4c0 .1 0 .3-.2.4a.5.5 0 0 1-.3.1Zm1.7 5.5v-.3l.3-.1a.7.7 0 0 0 .2-.4V79h-.6v-.3h.6l.3-.2a.7.7 0 0 0 .2 0h.2v.5a2.8 2.8 0 0 1 1-.6h.5c.5 0 1 .1 1.2.5.2.3.3.8.3 1.5V82a5.2 5.2 0 0 1 0 .7h.6v.3h-1.9v-.3l.4-.1a.7.7 0 0 0 .1-.4v-1.8c0-.5 0-1-.2-1.2-.2-.3-.4-.4-.8-.4a1.5 1.5 0 0 0-.6.2 1.7 1.7 0 0 0-.5.4V82a5.2 5.2 0 0 1 0 .7h.5v.3h-1.8Zm7.6 2.4-1.3-.1c-.3-.2-.6-.3-.7-.5a1 1 0 0 1-.3-.6c0-.2 0-.3.2-.5a1.5 1.5 0 0 1 .7-.6 1.2 1.2 0 0 1-.5-.2.6.6 0 0 1-.2-.5l.3-.6.6-.3a1.7 1.7 0 0 1-.6-.5 1.4 1.4 0 0 1-.3-.9l.3-.9c.2-.3.4-.5.7-.6a2 2 0 0 1 1.5-.2l.6.3.2-.5.4-.3a1 1 0 0 1 .5 0h.3a.4.4 0 0 1 .1.5.4.4 0 0 1-.3.2.4.4 0 0 1-.3 0 .4.4 0 0 1-.1-.3.5.5 0 0 0-.4.2 1 1 0 0 0-.1.4l.3.5.1.6c0 .3 0 .6-.2.9a1.8 1.8 0 0 1-.7.6 2 2 0 0 1-1 .2 2.1 2.1 0 0 1-.3 0 1.5 1.5 0 0 0-.3 0l-.5.1c-.1.1-.2.3-.1.4 0 .2.1.3.4.3h1a5.4 5.4 0 0 1 1.2.2c.3.1.6.3.7.5.2.2.3.4.3.7 0 .3 0 .5-.2.7a1.5 1.5 0 0 1-.5.5l-.7.2a3.1 3.1 0 0 1-.8.1Zm0-.3c.5 0 .9-.1 1.2-.3.3-.2.4-.4.4-.7 0-.2 0-.4-.2-.5l-.6-.2a6.3 6.3 0 0 0-1-.1 12 12 0 0 1-.4 0 3.6 3.6 0 0 1-.4 0c-.2 0-.3.2-.4.3a1 1 0 0 0-.1.5c0 .3 0 .5.4.7.3.2.6.3 1 .3Zm-.1-3.7a.9.9 0 0 0 .5-.2 1 1 0 0 0 .3-.4l.2-.6c0-.3 0-.5-.2-.8a1.3 1.3 0 0 0-.3-.5.8.8 0 0 0-.6-.2c-.3 0-.6 0-.7.3-.2.3-.3.6-.3 1l.1.7.4.5a1 1 0 0 0 .6.2Z" fill="#fff"/></svg>