<svg viewBox="0 0 590 700" fill="none" xmlns="http://www.w3.org/2000/svg">
  <path fill="#121213" d="M0 0h590v700H0z"/>
  <path fill="#3A3A3C" d="M20 19h102.2v102.2H20z"/>
  <path fill="#3A3A3C" d="M131.9 19h102.2v102.2H131.9z"/>
  <path fill="#3A3A3C" d="M243.9 19h102.2v102.2H243.9z"/>
  <path fill="#3A3A3C" d="M355.8 19H458v102.2H355.8z"/>
  <path fill="#3A3A3C" d="M467.8 19H570v102.2H467.8z"/>
  <path fill="#3A3A3C" d="M20 130.9h102.2v102.2H20z"/>
  <path fill="#B59F3B" d="M131.9 130.9h102.2v102.2H131.9z"/>
  <path fill="#3A3A3C" d="M243.9 130.9h102.2v102.2H243.9z"/>
  <path fill="#B59F3B" d="M355.8 130.9H458v102.2H355.8z"/>
  <path fill="#3A3A3C" d="M467.8 130.9H570v102.2H467.8z"/>
  <path fill="#3A3A3C" d="M20 242.9h102.2v102.2H20z"/>
  <path fill="#3A3A3C" d="M131.9 242.9h102.2v102.2H131.9z"/>
  <path fill="#B59F3B" d="M243.9 242.9h102.2v102.2H243.9z"/>
  <path fill="#B59F3B" d="M355.8 242.9H458v102.2H355.8z"/>
  <path fill="#538D4E" d="M467.8 242.9H570v102.2H467.8z"/>
  <path fill="#3A3A3C" d="M20 354.8h102.2V457H20z"/>
  <path fill="#538D4E" d="M131.9 354.8h102.2V457H131.9z"/>
  <path fill="#538D4E" d="M243.9 354.8h102.2V457H243.9z"/>
  <path fill="#B59F3B" d="M355.8 354.8H458V457H355.8z"/>
  <path fill="#538D4E" d="M467.8 354.8H570V457H467.8z"/>
  <path fill="#3A3A3C" d="M20 466.8h102.2V569H20z"/>
  <path fill="#B59F3B" d="M131.9 466.8h102.2V569H131.9z"/>
  <path fill="#538D4E" d="M243.9 466.8h102.2V569H243.9z"/>
  <path fill="#538D4E" d="M355.8 466.8H458V569H355.8z"/>
  <path fill="#538D4E" d="M467.8 466.8H570V569H467.8z"/>
  <path fill="#538D4E" d="M20 578.7h102.2v102.2H20z"/>
  <path fill="#538D4E" d="M131.9 578.7h102.2v102.2H131.9z"/>
  <path fill="#538D4E" d="M243.9 578.7h102.2v102.2H243.9z"/>
  <path fill="#538D4E" d="M355.8 578.7H458v102.2H355.8z"/>
  <path fill="#538D4E" d="M467.8 578.7H570v102.2H467.8z"/>
  <g filter="url(#filter0_d_1333_107)">
    <path d="m198.2 206.2-12.1-.4-14.4 122.9-25 1.1-11-95-12.3 92.1-26.7.8-10.5-119-12 .4 1-18.9h35.5l1.6 17.6-7.4 1 5.8 98.5L126 210l-6-1 1-17 29.7-.9 1.2 16-6.6 2 14.4 95.1 7.8-98.5-7.4-1 1.6-17.5h35.6l1 19Zm62.2 69a111 111 0 0 1-2.7 22.8c-1 4-2.2 8-3.9 11.9A40.6 40.6 0 0 1 248 320a29 29 0 0 1-8.5 7.2 22.4 22.4 0 0 1-11.2 2.7 23.9 23.9 0 0 1-18.5-8.2c-2.2-2.6-4-5.5-5.5-8.8a62.6 62.6 0 0 1-5.5-21.1 114.5 114.5 0 0 1 .1-21 84.2 84.2 0 0 1 5.7-24.2c1.7-4 3.7-7.4 6-10.4 2.4-3 5.2-5.5 8.5-7.3a23 23 0 0 1 11.4-2.7c4 0 7.4.7 10.4 2.3 3 1.6 5.7 3.6 7.9 6.2a33 33 0 0 1 5.5 9 64.9 64.9 0 0 1 5.6 21.3c.4 3.6.6 7 .6 10Zm-15.4-.7a90.2 90.2 0 0 0-2.5-19.2 31 31 0 0 0-2.5-6.6c-1-1.9-2.3-3.5-3.9-4.6a8.1 8.1 0 0 0-5.3-1.9c-2.6 0-4.7.8-6.6 2.4a20.1 20.1 0 0 0-4.5 5.8 33.1 33.1 0 0 0-3 8 82.4 82.4 0 0 0-2.7 28.8 69.2 69.2 0 0 0 2.4 14c.7 2.3 1.5 4.4 2.6 6.3 1 2 2.3 3.6 3.8 4.8a8.3 8.3 0 0 0 5.2 1.8c2.5 0 4.6-.8 6.4-2.3 1.8-1.5 3.3-3.4 4.5-5.7 1.3-2.4 2.4-5 3.2-8a83.8 83.8 0 0 0 3-23.6Zm75.6-24.3a27.5 27.5 0 0 0-13.4 7.2 20.7 20.7 0 0 0-4.4 6.1 17 17 0 0 0-1.7 7.5 1886.3 1886.3 0 0 1-.3 38.6l14.2.6v17.5l-47.5 1 1.3-18.5 12.9-.6 1.3-62.7-10.3.4-.6-18 26.1-2.5v13.5a100 100 0 0 1 10.5-7.3c2-1.2 4-2.2 6-3.1 2.1-1 4.1-1.7 6-2v22.3Zm83 78-26.1.9-1.4-11.3a23.3 23.3 0 0 1-20 11.3c-4 0-7.5-.9-10.5-2.6a25 25 0 0 1-7.4-6.7 39 39 0 0 1-5-9.5 78.4 78.4 0 0 1-4.2-22.1 96.5 96.5 0 0 1 2.1-31.3c1-3.9 2.2-7.6 3.7-11.3 1.6-3.6 3.5-6.8 5.7-9.7 2.2-2.9 4.9-5.1 8-6.8a20 20 0 0 1 10.5-2.6c3 0 5.9.8 8.6 2.4 2.8 1.5 5 3.6 6.6 6.1v-31.7h-17.6v-16.8l35.7.6-1.6 125.4 12.9-.4v16.2Zm-30-71.8a30.1 30.1 0 0 0-4.3-7.8c-1-1.3-2.1-2.4-3.4-3.3a6.6 6.6 0 0 0-4-1.3 9 9 0 0 0-5.7 1.8 16.1 16.1 0 0 0-4 4.8c-1 2-2 4.2-2.8 6.6a56.6 56.6 0 0 0-2.5 14.2 93 93 0 0 0-.2 5.5v5.3a96.6 96.6 0 0 0 1.3 15c.5 2.6 1.2 5 2.1 7.1 1 2.2 2 4 3.5 5.3 1.4 1.3 3.2 2 5.4 2 1.6 0 3.1-.5 4.6-1.4a23 23 0 0 0 4.1-3.5 30 30 0 0 0 3.2-4.5c1-1.6 1.8-3 2.3-4.3l.4-41.5Zm70.6 56.3-.5 16.2-35.7-1.6v-17l8.2-.5V205h-11.9l.4-17h31.4l-2.4 123.7 10.5 1Zm67.2-43.6c0 5.3-.2 10.5-.6 15.6l-41.8.7a76.3 76.3 0 0 0 2 17.3c.6 2 1.3 3.8 2.3 5.5.9 1.7 2 3 3.3 4 1.3 1 3 1.5 4.8 1.5 2 0 3.8-.5 5.2-1.6 1.5-1 2.7-2.4 3.6-4a21 21 0 0 0 2.2-5.2c.5-2 .9-3.7 1.1-5.4h17c-.6 3.7-1.6 7.4-3 11.2a39.5 39.5 0 0 1-5.4 10.2c-2.3 3-5 5.6-8.3 7.5-3.3 2-7 2.9-11.4 2.9-4.5 0-8.5-.9-11.8-2.6-3.2-1.7-6-4-8.3-6.9a37.2 37.2 0 0 1-5.5-9.8 71.6 71.6 0 0 1-4.8-23.7 175.1 175.1 0 0 1 .1-21.3 81.5 81.5 0 0 1 5.3-21.1c1.5-3.3 3.3-6.2 5.5-8.7 2.2-2.5 4.9-4.5 8-6a23 23 0 0 1 10.5-2.4c7 0 12.3 1.1 16.3 3.4 4 2.1 7 5 9 9 2 3.7 3.3 8.2 3.8 13.3.6 5.2 1 10.7 1 16.6Zm-17-5.7c0-1.9 0-4.1-.3-6.6a25 25 0 0 0-1.6-7c-.8-2.2-2-4-3.5-5.5a8.6 8.6 0 0 0-6.2-2.3c-2.3 0-4.2.6-5.8 1.6-1.5 1-2.8 2.3-3.8 3.9s-1.9 3.5-2.5 5.6a109 109 0 0 0-2 18.3H494c.4-2.7.6-5.4.6-8ZM141 458.8l-1 13.2-28.2-.7-.7-13.5 8.7.3-3.7-20.3-18.3.9-3 18 8.1.7-1 12.5H73.4l-.7-13.4 8.6.2 15.2-74.2-7.1.3-.7-11.9 35.5-.7-.7 11.2-7 .2 15.7 76.5 8.6.7ZM114.1 427l-7.5-42.7-7 42.7h14.5Zm70.2 27c0 2.6-.5 5-1.5 7.1a18 18 0 0 1-10 9.3 17 17 0 0 1-7.1 1.4 11 11 0 0 1-6.3-2 22.4 22.4 0 0 1-5-4.3l-1.5 6-8.8-.7.7-23.1 13.4.1a20 20 0 0 0 .1 6.8c.3 1 .7 2 1.3 2.8.5.8 1.3 1.5 2.1 2 1 .4 2 .7 3.3.7a4 4 0 0 0 2.4-.7 7.4 7.4 0 0 0 3.2-4c.4-.8.5-1.6.5-2.4 0-2-.4-3.8-1.4-5.3-.9-1.6-2-3-3.4-4.2a38.7 38.7 0 0 0-9.4-6.1 32.5 32.5 0 0 1-6.2-4.1 18.6 18.6 0 0 1-6-10.6c-.4-2.1-.6-4.5-.6-7.3a17.2 17.2 0 0 1 5.6-12.7 18.3 18.3 0 0 1 13-5c2.4 0 4.5.6 6.4 1.8 1.9 1.3 3.5 2.7 5 4.4l1.5-6 8.7.7-.7 23h-13.3a19.5 19.5 0 0 0-.2-6.7c-.2-1-.7-2-1.2-2.9a5.7 5.7 0 0 0-2.2-2c-1-.4-2-.7-3.2-.7-1 0-1.7.2-2.5.7-.7.4-1.4 1-2 1.7-.5.7-1 1.4-1.2 2.3-.3.8-.4 1.6-.4 2.4 0 2 .4 3.9 1.2 5.4.9 1.6 2 3 3.3 4.3a30.2 30.2 0 0 0 9.4 6c2.4 1.3 4.4 2.6 6 4a18.7 18.7 0 0 1 6.3 10.7c.5 2.1.7 4.5.7 7.2Zm48.3 0c0 2.6-.5 5-1.5 7.1a18 18 0 0 1-10 9.3c-2.3 1-4.6 1.4-7.1 1.4a11 11 0 0 1-6.4-2 22.4 22.4 0 0 1-5-4.3l-1.4 6-8.8-.7.7-23.1 13.3.1a20 20 0 0 0 .2 6.8c.3 1 .7 2 1.2 2.8a7 7 0 0 0 2.2 2c1 .4 2 .7 3.3.7.8 0 1.6-.2 2.4-.7a7.4 7.4 0 0 0 3.2-4c.3-.8.5-1.6.5-2.4 0-2-.5-3.8-1.4-5.3-.9-1.6-2-3-3.4-4.2-1.4-1.3-3-2.4-4.6-3.4-1.7-1-3.3-2-4.8-2.7a32.5 32.5 0 0 1-6.3-4.1 18.5 18.5 0 0 1-6-10.6 43 43 0 0 1-.5-7.3 17.2 17.2 0 0 1 5.6-12.7 18.4 18.4 0 0 1 13-5c2.3 0 4.5.6 6.4 1.8a23 23 0 0 1 4.9 4.4l1.5-6 8.8.7-.7 23h-13.4a19.5 19.5 0 0 0-.1-6.7c-.3-1-.7-2-1.3-2.9a5.7 5.7 0 0 0-2.2-2 8 8 0 0 0-3.2-.7 4 4 0 0 0-2.4.7c-.8.4-1.4 1-2 1.7-.5.7-1 1.4-1.3 2.3a10.5 10.5 0 0 0 .9 7.8 19.2 19.2 0 0 0 7.7 7.7c1.6 1 3.3 1.8 5 2.6 2.3 1.3 4.3 2.6 6 4a18.7 18.7 0 0 1 6.3 10.7c.5 2.1.7 4.5.7 7.2Zm28.2-71.4a8.9 8.9 0 0 1-5.4 8c-1 .5-2.1.8-3.3.8a9 9 0 0 1-8-5.4 8.4 8.4 0 0 1-.1-6.8 9 9 0 0 1 4.6-4.7 8.4 8.4 0 0 1 6.9 0 8.9 8.9 0 0 1 4.6 4.7c.5 1 .7 2.2.7 3.4Zm5.9 77.8-.5 11.5-25.4-1.1v-12.1l5.8-.4v-46.9h-8.5l.3-12.1h22.4l-1.7 60.4 7.6.7Zm46-6.4c0 2.6-.5 5-1.5 7.1a18 18 0 0 1-10 9.3c-2.3 1-4.6 1.4-7.1 1.4a11 11 0 0 1-6.4-2 22.4 22.4 0 0 1-5-4.3l-1.4 6-8.8-.7.7-23.1 13.3.1a20 20 0 0 0 .2 6.8c.3 1 .7 2 1.2 2.8a7 7 0 0 0 2.2 2c1 .4 2 .7 3.3.7.8 0 1.6-.2 2.4-.7a7.4 7.4 0 0 0 3.2-4c.3-.8.5-1.6.5-2.4 0-2-.5-3.8-1.4-5.3-.9-1.6-2-3-3.4-4.2-1.4-1.3-3-2.4-4.6-3.4a76 76 0 0 0-4.8-2.7 32.5 32.5 0 0 1-6.3-4.1 18.6 18.6 0 0 1-6-10.6 43 43 0 0 1-.5-7.3 17.2 17.2 0 0 1 5.6-12.7 18.4 18.4 0 0 1 13-5c2.3 0 4.5.6 6.4 1.8a23 23 0 0 1 4.9 4.4l1.5-6 8.8.7-.7 23h-13.4a20 20 0 0 0 .3-3.5 11.2 11.2 0 0 0-1.7-6.1 5.7 5.7 0 0 0-2.2-2 8 8 0 0 0-3.2-.7 4 4 0 0 0-2.4.7c-.7.4-1.4 1-2 1.7-.5.7-1 1.4-1.3 2.3a10.5 10.5 0 0 0 .9 7.8 19.2 19.2 0 0 0 7.7 7.7c1.6 1 3.3 1.8 5 2.6 2.3 1.3 4.3 2.6 6 4a18.7 18.7 0 0 1 6.3 10.7c.5 2.1.7 4.5.7 7.2Zm43.3-54.7-.3 12.5h-12.2l-.4 18.7-.2 18.7c0 1.5.3 2.8.9 4a9.4 9.4 0 0 0 5.7 4.5c1.2.4 2.5.6 3.9.6h1.1c.4 0 .8 0 1.2-.2v12.4a28 28 0 0 1-6.8.8 18.6 18.6 0 0 1-18.1-12.7c-1-2.4-1.4-5.1-1.4-8a1344.3 1344.3 0 0 1 .6-38.8h-10.6v-12.5h10.9l.8-24.2h13.2l-.5 24.2H356Zm54.5 59-.3 11-14.3 1.5-.7-8a24.5 24.5 0 0 1-7.5 5.5 22.3 22.3 0 0 1-9 2.5c-2.9 0-5.3-.6-7.3-1.7s-3.6-2.7-4.8-4.5c-1.1-2-2-4-2.5-6.5-.5-2.4-.7-4.8-.7-7.3 0-3.2.5-6 1.5-8.7a19 19 0 0 1 11.2-10.8 24 24 0 0 1 12.4-1.3c1.2.2 2.5.5 3.7.9l.1-2.3v-2.2a44.7 44.7 0 0 0-1.8-12.4 8 8 0 0 0-1.4-2.5c-.5-.7-1.2-1-2-1s-1.7.2-2.5.8c-.9.6-1.6 1.4-2.4 2.4-.7 1-1.4 2-2 3.2a59.4 59.4 0 0 0-3.9 9.1l-11.8-.6-.4-25.8 11.5-.3v10.2a23.7 23.7 0 0 1 4.6-7.3c1-1 2.2-1.9 3.5-2.6a10 10 0 0 1 4.2-1c3.5 0 6.3.5 8.4 1.6a11 11 0 0 1 5 4.5c1.1 2 1.9 4.2 2.3 7 .3 2.7.5 5.6.5 8.9l-.1 18.8c-.1 6.3-.4 12.6-1 18.9h7.5Zm-18-4.8v-10.1c-.6-1-1.5-1.5-2.8-1.8-1.3-.3-2.5-.4-3.5-.4-3.4 0-6 .8-8.2 2.5-2 1.6-3 4.2-3 7.8 0 2.1.5 4 1.7 5.5 1.1 1.5 2.9 2.2 5.2 2.2a20.2 20.2 0 0 0 6.4-1.3 11 11 0 0 0 3-1.7c.9-.8 1.3-1.6 1.3-2.7Zm79.7 6.7-1.4 11.1-23.4-1-.2-11.2 6-.7a2567 2567 0 0 0 .6-37.7 18.4 18.4 0 0 0-1.4-6.8c-.5-1-1.2-1.8-2.1-2.5a6 6 0 0 0-3.4-1 8 8 0 0 0-5.2 1.8 13 13 0 0 0-3.4 4.1 21 21 0 0 0-2 5.5c-.4 2-.6 3.7-.7 5.3a594 594 0 0 0-.7 31.3h6.1l.7 11.3-24 .2v-12.7l6.8-.5-.4-45.2-10.2-.7.3-11.8 20-.7.4 9.9a26 26 0 0 1 12.4-9.7 15.4 15.4 0 0 1 10.5.1 11 11 0 0 1 3.8 3 11 11 0 0 1 2.3 4.1 39.1 39.1 0 0 1 2 10.2l.2 5.1a124239 124239 0 0 0-.7 38.5l7 .7Zm41-60.9-.2 12.5h-12.2l-.4 18.7-.2 18.7c0 1.5.3 2.8.8 4a9.4 9.4 0 0 0 5.8 4.5c1.2.4 2.5.6 3.8.6h1.2c.4 0 .8 0 1.2-.2v12.4a28 28 0 0 1-6.8.8 18.6 18.6 0 0 1-18.1-12.7c-1-2.4-1.4-5.1-1.4-8a1344.3 1344.3 0 0 1 .6-38.8h-10.6v-12.5h10.9l.8-24.2h13.2l-.6 24.2h12.3Z" fill="#F8F8F8"/>
  </g>
  <defs>
    <filter id="filter0_d_1333_107" x="67.1" y="186.5" width="451.9" height="296.9" filterUnits="userSpaceOnUse" color-interpolation-filters="sRGB">
      <feFlood flood-opacity="0" result="BackgroundImageFix"/>
      <feColorMatrix in="SourceAlpha" values="0 0 0 0 0 0 0 0 0 0 0 0 0 0 0 0 0 0 127 0" result="hardAlpha"/>
      <feOffset dy="5.7"/>
      <feGaussianBlur stdDeviation="2.8"/>
      <feComposite in2="hardAlpha" operator="out"/>
      <feColorMatrix values="0 0 0 0 0 0 0 0 0 0 0 0 0 0 0 0 0 0 1 0"/>
      <feBlend in2="BackgroundImageFix" result="effect1_dropShadow_1333_107"/>
      <feBlend in="SourceGraphic" in2="effect1_dropShadow_1333_107" result="shape"/>
    </filter>
  </defs>
</svg>
